<mxfile host="app.diagrams.net" modified="2023-01-09T03:21:44.621Z" agent="5.0 (Windows NT 10.0; Win64; x64) AppleWebKit/537.36 (KHTML, like Gecko) Chrome/105.0.0.0 Safari/537.36" version="20.7.4" etag="sG18CIKt3gFP9IYTGdW5" type="github" pages="2">
  <diagram id="Of_9dgn9D7pCEQupn-B8" name="第 1 页">
    <mxGraphModel dx="1562" dy="837" grid="1" gridSize="10" guides="1" tooltips="1" connect="1" arrows="1" fold="1" page="1" pageScale="1" pageWidth="827" pageHeight="1169" math="0" shadow="0">
      <root>
        <mxCell id="0" />
        <mxCell id="1" parent="0" />
        <mxCell id="Nx1XYnaPC1juNrFGXUaX-6" value="Databricks" style="aspect=fixed;html=1;points=[];align=center;image;fontSize=12;image=img/lib/azure2/analytics/Azure_Databricks.svg;rounded=1;" vertex="1" parent="1">
          <mxGeometry x="107.19999999999999" y="170" width="62.8" height="68" as="geometry" />
        </mxCell>
        <mxCell id="Nx1XYnaPC1juNrFGXUaX-27" value="" style="edgeStyle=none;rounded=0;orthogonalLoop=1;jettySize=auto;html=1;" edge="1" parent="1" source="Nx1XYnaPC1juNrFGXUaX-7" target="Nx1XYnaPC1juNrFGXUaX-14">
          <mxGeometry relative="1" as="geometry" />
        </mxCell>
        <mxCell id="Nx1XYnaPC1juNrFGXUaX-7" value="Delta Lake" style="shape=cylinder3;whiteSpace=wrap;html=1;boundedLbl=1;backgroundOutline=1;size=15;rounded=1;" vertex="1" parent="1">
          <mxGeometry x="441.4" y="470" width="60" height="80" as="geometry" />
        </mxCell>
        <mxCell id="Nx1XYnaPC1juNrFGXUaX-30" value="" style="edgeStyle=none;rounded=0;orthogonalLoop=1;jettySize=auto;html=1;" edge="1" parent="1" source="Nx1XYnaPC1juNrFGXUaX-8" target="Nx1XYnaPC1juNrFGXUaX-15">
          <mxGeometry relative="1" as="geometry" />
        </mxCell>
        <mxCell id="Nx1XYnaPC1juNrFGXUaX-8" value="RStudio" style="rounded=1;whiteSpace=wrap;html=1;" vertex="1" parent="1">
          <mxGeometry x="318.6" y="290" width="120" height="60" as="geometry" />
        </mxCell>
        <mxCell id="Nx1XYnaPC1juNrFGXUaX-10" value="" style="shape=image;html=1;verticalAlign=top;verticalLabelPosition=bottom;labelBackgroundColor=#ffffff;imageAspect=0;aspect=fixed;image=https://cdn1.iconfinder.com/data/icons/hawcons/32/698565-icon-53-notebook-list-128.png;rounded=1;" vertex="1" parent="1">
          <mxGeometry x="90" y="60" width="80" height="80" as="geometry" />
        </mxCell>
        <mxCell id="Nx1XYnaPC1juNrFGXUaX-11" value="Experience Study" style="rounded=0;whiteSpace=wrap;html=1;" vertex="1" parent="1">
          <mxGeometry x="50" y="330" width="120" height="60" as="geometry" />
        </mxCell>
        <mxCell id="Nx1XYnaPC1juNrFGXUaX-31" value="" style="edgeStyle=none;rounded=0;orthogonalLoop=1;jettySize=auto;html=1;" edge="1" parent="1" source="Nx1XYnaPC1juNrFGXUaX-13" target="Nx1XYnaPC1juNrFGXUaX-16">
          <mxGeometry relative="1" as="geometry" />
        </mxCell>
        <mxCell id="Nx1XYnaPC1juNrFGXUaX-13" value="Databricks Notebook" style="rounded=1;whiteSpace=wrap;html=1;" vertex="1" parent="1">
          <mxGeometry x="491.4" y="290" width="120" height="60" as="geometry" />
        </mxCell>
        <mxCell id="Nx1XYnaPC1juNrFGXUaX-28" value="" style="edgeStyle=none;rounded=0;orthogonalLoop=1;jettySize=auto;html=1;" edge="1" parent="1" source="Nx1XYnaPC1juNrFGXUaX-14" target="Nx1XYnaPC1juNrFGXUaX-13">
          <mxGeometry relative="1" as="geometry" />
        </mxCell>
        <mxCell id="Nx1XYnaPC1juNrFGXUaX-29" style="edgeStyle=none;rounded=0;orthogonalLoop=1;jettySize=auto;html=1;exitX=0.25;exitY=0;exitDx=0;exitDy=0;entryX=0.75;entryY=1;entryDx=0;entryDy=0;" edge="1" parent="1" source="Nx1XYnaPC1juNrFGXUaX-14" target="Nx1XYnaPC1juNrFGXUaX-8">
          <mxGeometry relative="1" as="geometry" />
        </mxCell>
        <mxCell id="Nx1XYnaPC1juNrFGXUaX-14" value="Databricks Spark" style="rounded=1;whiteSpace=wrap;html=1;" vertex="1" parent="1">
          <mxGeometry x="410" y="380" width="120" height="60" as="geometry" />
        </mxCell>
        <mxCell id="Nx1XYnaPC1juNrFGXUaX-15" value="Power BI" style="rounded=1;whiteSpace=wrap;html=1;" vertex="1" parent="1">
          <mxGeometry x="318.6" y="200" width="120" height="60" as="geometry" />
        </mxCell>
        <mxCell id="Nx1XYnaPC1juNrFGXUaX-16" value="Tableau" style="rounded=1;whiteSpace=wrap;html=1;" vertex="1" parent="1">
          <mxGeometry x="491.4" y="200" width="120" height="60" as="geometry" />
        </mxCell>
        <mxCell id="Nx1XYnaPC1juNrFGXUaX-26" value="" style="edgeStyle=none;rounded=0;orthogonalLoop=1;jettySize=auto;html=1;" edge="1" parent="1" source="Nx1XYnaPC1juNrFGXUaX-17" target="Nx1XYnaPC1juNrFGXUaX-7">
          <mxGeometry relative="1" as="geometry" />
        </mxCell>
        <mxCell id="Nx1XYnaPC1juNrFGXUaX-17" value="ETL" style="rounded=1;whiteSpace=wrap;html=1;" vertex="1" parent="1">
          <mxGeometry x="410" y="580" width="120" height="60" as="geometry" />
        </mxCell>
        <mxCell id="Nx1XYnaPC1juNrFGXUaX-24" style="edgeStyle=none;rounded=0;orthogonalLoop=1;jettySize=auto;html=1;entryX=0.5;entryY=1;entryDx=0;entryDy=0;" edge="1" parent="1" source="Nx1XYnaPC1juNrFGXUaX-18" target="Nx1XYnaPC1juNrFGXUaX-17">
          <mxGeometry relative="1" as="geometry" />
        </mxCell>
        <mxCell id="Nx1XYnaPC1juNrFGXUaX-18" value="Data Source 2" style="rounded=1;whiteSpace=wrap;html=1;" vertex="1" parent="1">
          <mxGeometry x="451.4" y="700" width="120" height="60" as="geometry" />
        </mxCell>
        <mxCell id="Nx1XYnaPC1juNrFGXUaX-21" style="rounded=0;orthogonalLoop=1;jettySize=auto;html=1;entryX=0.25;entryY=1;entryDx=0;entryDy=0;" edge="1" parent="1" source="Nx1XYnaPC1juNrFGXUaX-19" target="Nx1XYnaPC1juNrFGXUaX-17">
          <mxGeometry relative="1" as="geometry" />
        </mxCell>
        <mxCell id="Nx1XYnaPC1juNrFGXUaX-19" value="Data Source 1" style="rounded=1;whiteSpace=wrap;html=1;" vertex="1" parent="1">
          <mxGeometry x="300" y="700" width="120" height="60" as="geometry" />
        </mxCell>
        <mxCell id="Nx1XYnaPC1juNrFGXUaX-25" style="edgeStyle=none;rounded=0;orthogonalLoop=1;jettySize=auto;html=1;entryX=0.75;entryY=1;entryDx=0;entryDy=0;" edge="1" parent="1" source="Nx1XYnaPC1juNrFGXUaX-20" target="Nx1XYnaPC1juNrFGXUaX-17">
          <mxGeometry relative="1" as="geometry" />
        </mxCell>
        <mxCell id="Nx1XYnaPC1juNrFGXUaX-20" value="Data Source 3" style="rounded=1;whiteSpace=wrap;html=1;" vertex="1" parent="1">
          <mxGeometry x="601.4" y="700" width="120" height="60" as="geometry" />
        </mxCell>
      </root>
    </mxGraphModel>
  </diagram>
  <diagram id="2gl1bofo99vntV4vhdYa" name="Databricks Overview">
    <mxGraphModel dx="2389" dy="837" grid="1" gridSize="10" guides="1" tooltips="1" connect="1" arrows="1" fold="1" page="1" pageScale="1" pageWidth="827" pageHeight="1169" math="0" shadow="0">
      <root>
        <mxCell id="0" />
        <mxCell id="1" parent="0" />
        <mxCell id="WwNc7wGOOJ1hjYEgJ91g-11" value="&lt;b&gt;&lt;font style=&quot;font-size: 13px;&quot;&gt;First-Cass Cloud Product&lt;/font&gt;&lt;/b&gt;" style="swimlane;fontStyle=0;childLayout=stackLayout;horizontal=1;startSize=30;horizontalStack=0;resizeParent=1;resizeParentMax=0;resizeLast=0;collapsible=1;marginBottom=0;whiteSpace=wrap;html=1;strokeWidth=0;labelBackgroundColor=none;movable=1;resizable=1;rotatable=1;deletable=1;editable=1;connectable=1;fillColor=#d80073;fontColor=#ffffff;strokeColor=#A50040;" vertex="1" parent="1">
          <mxGeometry x="132" y="440" width="200" height="60" as="geometry" />
        </mxCell>
        <mxCell id="B3J9zCPMF0yDf6O6Sbgf-7" value="Azure/AWS/GCP" style="text;html=1;align=center;verticalAlign=middle;resizable=0;points=[];autosize=1;strokeColor=none;fillColor=none;labelBackgroundColor=none;movable=0;rotatable=0;deletable=0;editable=0;connectable=0;" vertex="1" parent="WwNc7wGOOJ1hjYEgJ91g-11">
          <mxGeometry y="30" width="191" height="30" as="geometry" />
        </mxCell>
        <mxCell id="WwNc7wGOOJ1hjYEgJ91g-16" value="&lt;b&gt;&lt;font style=&quot;font-size: 13px;&quot;&gt;High Performance&lt;/font&gt;&lt;/b&gt;" style="swimlane;fontStyle=0;childLayout=stackLayout;horizontal=1;startSize=30;horizontalStack=0;resizeParent=1;resizeParentMax=0;resizeLast=0;collapsible=1;marginBottom=0;whiteSpace=wrap;html=1;strokeWidth=0;labelBackgroundColor=none;fillColor=#d80073;fontColor=#ffffff;strokeColor=#A50040;" vertex="1" parent="1">
          <mxGeometry x="132" y="160" width="200" height="60" as="geometry" />
        </mxCell>
        <mxCell id="WwNc7wGOOJ1hjYEgJ91g-37" value="&lt;div style=&quot;&quot;&gt;&lt;span style=&quot;background-color: initial;&quot;&gt;Spark Compute/&lt;/span&gt;&lt;span style=&quot;background-color: initial;&quot;&gt;Databricks SQL&lt;/span&gt;&lt;/div&gt;" style="text;html=1;align=center;verticalAlign=middle;resizable=0;points=[];autosize=1;labelBackgroundColor=none;" vertex="1" parent="WwNc7wGOOJ1hjYEgJ91g-16">
          <mxGeometry y="30" width="200" height="30" as="geometry" />
        </mxCell>
        <mxCell id="WwNc7wGOOJ1hjYEgJ91g-38" value="&lt;b&gt;&lt;font style=&quot;font-size: 13px;&quot;&gt;Seamless Collaboration&lt;/font&gt;&lt;/b&gt;" style="swimlane;fontStyle=0;childLayout=stackLayout;horizontal=1;startSize=30;horizontalStack=0;resizeParent=1;resizeParentMax=0;resizeLast=0;collapsible=1;marginBottom=0;whiteSpace=wrap;html=1;strokeWidth=0;labelBackgroundColor=none;fillColor=#d80073;fontColor=#ffffff;strokeColor=#A50040;" vertex="1" parent="1">
          <mxGeometry x="-550" y="279" width="200" height="90" as="geometry" />
        </mxCell>
        <mxCell id="B3J9zCPMF0yDf6O6Sbgf-6" value="&amp;nbsp; &amp;nbsp; &amp;nbsp;* Collaborative Notebook&lt;br&gt;&amp;nbsp; &amp;nbsp; &amp;nbsp;* Data Sharing&lt;br&gt;&amp;nbsp; &amp;nbsp; &amp;nbsp;* Git Version Control" style="text;html=1;align=left;verticalAlign=middle;resizable=0;points=[];autosize=1;labelBackgroundColor=none;" vertex="1" parent="WwNc7wGOOJ1hjYEgJ91g-38">
          <mxGeometry y="30" width="200" height="60" as="geometry" />
        </mxCell>
        <mxCell id="WwNc7wGOOJ1hjYEgJ91g-49" value="&lt;b&gt;&lt;font style=&quot;font-size: 13px;&quot;&gt;Best-in-Class Security&lt;/font&gt;&lt;/b&gt;" style="swimlane;fontStyle=0;childLayout=stackLayout;horizontal=1;startSize=30;horizontalStack=0;resizeParent=1;resizeParentMax=0;resizeLast=0;collapsible=1;marginBottom=0;whiteSpace=wrap;html=1;strokeWidth=0;labelBackgroundColor=none;fillColor=#d80073;fontColor=#ffffff;strokeColor=#A50040;" vertex="1" parent="1">
          <mxGeometry x="-550" y="440" width="200" height="60" as="geometry" />
        </mxCell>
        <mxCell id="WwNc7wGOOJ1hjYEgJ91g-50" value="Encrytion/RAM/Certification" style="text;html=1;align=center;verticalAlign=middle;resizable=0;points=[];autosize=1;labelBackgroundColor=none;" vertex="1" parent="WwNc7wGOOJ1hjYEgJ91g-49">
          <mxGeometry y="30" width="200" height="30" as="geometry" />
        </mxCell>
        <mxCell id="B3J9zCPMF0yDf6O6Sbgf-8" value="&lt;b&gt;&lt;font style=&quot;font-size: 13px;&quot;&gt;Rich Ecosystem&lt;/font&gt;&lt;/b&gt;" style="swimlane;fontStyle=0;childLayout=stackLayout;horizontal=1;startSize=30;horizontalStack=0;resizeParent=1;resizeParentMax=0;resizeLast=0;collapsible=1;marginBottom=0;whiteSpace=wrap;html=1;strokeWidth=0;labelBackgroundColor=none;fillColor=#d80073;fontColor=#ffffff;strokeColor=#A50040;" vertex="1" parent="1">
          <mxGeometry x="132" y="281" width="200" height="90" as="geometry" />
        </mxCell>
        <mxCell id="B3J9zCPMF0yDf6O6Sbgf-9" value="* Data Exploration&lt;br&gt;* Data Analysis&lt;br&gt;* Visualization" style="text;html=1;align=center;verticalAlign=middle;resizable=0;points=[];autosize=1;labelBackgroundColor=none;" vertex="1" parent="B3J9zCPMF0yDf6O6Sbgf-8">
          <mxGeometry y="30" width="200" height="60" as="geometry" />
        </mxCell>
        <mxCell id="B3J9zCPMF0yDf6O6Sbgf-14" value="" style="shape=image;verticalLabelPosition=bottom;labelBackgroundColor=none;verticalAlign=top;aspect=fixed;imageAspect=0;image=data:image/png,iVBORw0KGgoAAAANSUhEUgAAAnMAAAIzCAYAAABr6J9iAAAAAXNSR0IArs4c6QAAAARnQU1BAACxjwv8YQUAAAAJcEhZcwAADsMAAA7DAcdvqGQAAAAGYktHRAD/AP8A/6C9p5MAAAAhdEVYdENyZWF0aW9uIFRpbWUAMjAyMzowMTowOSAxMDowNDo1OF0wh4YAADVFSURBVHhe7d0J2KxnXR5wUtYgAQFLEllEIy6ARMUoFkWUkgpKrVZFWgG3imstSqiorWjVokErrkBRSaqC2IoVRUwsUgWVSJEEJCwKQmSTTQiQQID0f3/vnPZwzvvM+ZZ33pln5ve7rvuadw7LOTPffDP/eZfnPu0GcGq3rPx45UsrZ1ZuXAFgc7y1cmXl0spFlasq7AjDHKfyi5VvrvyjvXsAbLoPVp5c+b7Ku/IHbDfDHC03r1xROWfvHgC9eXXlQZVX7t1jaxnmGJO9cH9TufPePQB69YbKvSuv27vHVnLojDG/XTHIAfTv9pXfrDjXeYvdcHELx/zzyg8OmwBsgQx011eet3ePreMwK8c7q/Kqyhl79wDYFrko4vMqL9y7x1ZxmJVjblR5RsUgB7B98h5/cSUXt7FlHGblmMdXHjxsArCFblu5deXZe/fYGg6zEl9WeWbF6wFgu+XcuSwAb6DbIj68uUvlRZW0PACw/d5Y+bTKO/bu0T3nzO220yu/UTHIAeyOj62k3Yct4Zy53fZfKw8YNgHYIXerpCHipXv36JrDrLvrEZUnDpsA7KD0tt6j8vq9e3TLMLebzq38WSWHWQHYXX9YOb+SCyPolMOsuyeXpf+vyu327gGwyz6hkgshLCbcMXvmdkt+3r9TyWXpABDXVs6rvGzvHt1xNetueUzFIAfA8W5WuaiijL9TDrPuji+s/ErFAA/Aic6uKOPvlMOsuyEF+i+u5JcVAMakjP/zK3++d49uGOa2X8qVn1vJL+im+rvKdw+bXblFJZ22t9m7txrvqfxS5cN79/ryDZVbDZsr89uV1w6bXblfJUtCrNIrKr8/bHYlh/y+qbLKQ35/VOl10dwfqnzqsLkSr6p8RuV9e/eAjfBTlew63/T820qP7l/JoDX2mKbKf6z06FMqH6qMPaapknWyblLpTU53+PvK2GOaKnldfk6lRxdUxh7TlPnKSo8+s/L+ythjmio/XwE2RAr0Vz1oTJXrKr0eBv65ythjmip5bnr9UP6RythjmjK/V+lR9n6s+vfz7ZUez5PNvzl7z8Ye01R5ayWnoPToP1TGHtNUyevygRVgzVKg/w+VsV/UTU0OC/Xo5pX828ce01S5spK/p0evrIw9pinzVZUe/URl7PFMmWdUenTnSva8jj2mqZKlmnqU02ey8PvYY5oqKeO/bQVYkzQ75IKHsV/QTU8+3Hp0z8oHKmOPaar8TKVHWaB61c9N1sn66EqPXlcZe0xTJnvpe/T1lbHHM2W+sdKjcypXV8Ye01T5rQqwJlmCZOwXs4fkHKu7V3qUE5PHHtNUyaGPB1R69C2Vscc0ZXq9Au/jKrmKcOwxTZX3Vnrds/ublbHHNFVykdEnVnr0bZWxxzRl/lUFmFkK9Md+IXvKmyo9yqGPDBRjj2mq5MrfVV49u0qrfm6SXi+keXRl7PFMmZyD1qOPqeQ9YewxTZXnV3pcdzUrUuSc0bHHNFVyus6dKsBMcqjvmsrYL+SU+euRP5s6T6n0KFdwZi/I2GOaKr9W6dEtK1nuYOwxTZVcLHL7So8ur4w9pimT5WJ69KDK2OOZMv++0qOPrbytMvaYpkrK+C1lBjNIgf7fVMZ+EadM1qzLN9g3HPdnq0gOKaa1okffWRl7TFPmayo9yrlbY49nyuSCix7lnL+c+zf2mKZKzl08s9KjfMEbe0xTJct9nFvp0ZdXxh7TlOl1rzd0I9+YnlkZ+wWcMjnUcWz5EGuIteXn8ezK2GOaKu+s3LHSo1UfFkourPQo5yeNPZ4pkz2APfqoyqsrY49pqvxVJYsW9yh77Mce01TJUZ9ez2eGLnxfZeyXb8rk8NWJLRI/Vhn7706ZXpcOyKG+rPE19pimyiWVHg995NzCDKNjj2mq9HwhTboxxx7TlMk6ZT26d2XVF4v0ekV92lZWfWX0/6ko44cVyKHIVb+5Jf+uMmbV35STXldqf0hl7PFMmW+v9OjzKqteMLfXC2myZ2jVS07kPSNLW/TocZWxxzRV8kXgvpUepSZu1b9XuWofmFBWL8/CjmO/cFMm/ZetPUA5/8YaYm1Pq4w9pqmSiy0+udKjX66MPaYpk7+jR/mStuoP5Zz32qOcevGSythjmirp+80FOz16QmXsMU2VHKW5VwWYQA5V/XFl7JdtyqR0+VRl6XOsdZTVznuUIfT1lbHHNFVeVOn10EeWWhl7TFMmeyt6lOaGscczZXpdiPqulVVfud/rF4Hs2X1pZewxTZWsaHCLCnBEcxTo580y/ZH7cVll7P9jyijjb0cZfzvK+NvJ61IZfzvK+NtRxg9HNFeB/tdV9iuHJFb9TVkZfzvK+JdHGX87yvjbUcbfTl6XyvjhkOYq0H9i5aDmWENMGX87yviXRxl/O8r421HG344yfjiEuQr0c3Jx/q7DeE5l7P9zyijjb0cZfzvK+JdHGX87yvjbUcYPBzRHgf47Kp9QOSxriC2njL9NGX+bMv7llPG3KeOHDTJHgX4GgX9ROar7VFZ9no8y/naU8S9Pa83ETTdHGX8WLO6RMv62LCuljB82QPoCV11QnuRE9KlcVBn7O6aMMv52fr3SI2X8yynjb1PG36aMH9Zs7gL9KSnjb1PG36aMv00Z/3LK+NuU8cOa5FvO3AX6U7KGWFt+tsr425Txtynjb1PGv5wyfliDdRXoT0kZf5sy/jYX0iynjL9NGX+bMn6Y2boL9KekjL9NGX+bMv42ZfzLKeNvU8YPM9mEAv0pKeNfThl/mzL+NmX8bcr4l1PGDyu2SQX6U1LG36aMfzll/G3K+NuU8bcp44cV27QC/Skp429Txt/mQpo2ZfzLKeNvU8YPK7KJBfpTUsa/nDL+NmX8bcr425TxL6eMHya2yQX6U1LG36aMfzll/G3K+NuU8bcp44cJ9VCgPyVl/G3K+NuU8S+njL9NGX+bMn6YSA8F+lOyhthyj62MPaapkkMfyvjb6bmMP4fSxx7TVFHG344y/uVRxs9W66lAf0rK+NuU8S+njL9NGX+bMv62LFGljB8OqccC/Skp429Txt+mjH85ZfxtyvjblPHDIfRcoD8lZfxtyvjblPG3KeNfThl/mzJ+OIB8M+m5QH9K1hBry+tEGX+bMv42ZfxtyviXU8YP+7QNBfpTUsbfpoy/zYU0yynjb1PG36aMH/ZhrgL9R1Z6ooy/TRl/mzL+NmX8yynjb1PGD0tsW4H+lJTxL6eMv00Zf5sy/jZl/Msp44cR21qgPyVl/G3K+JdTxt+mjL9NGX+bMn4Ysc0F+lNSxt+mjL/NhTRtyviXU8bfpowfjrPtBfpTUsa/nDL+NmX8bcr425TxL6eMH8quFOhPSRl/mzL+5ZTxtynjb1PG36aMn523awX6U1LG36aMv00Z/3LK+NuU8bcp42en7VqB/pSsIbacMv42ZfxtyviXU8bfpoyfnbSrBfpTUsbfpox/OWX8bcr425Txt2W5K2X87JRdL9CfkjL+NmX8bcr4l1PG36aMv00ZPztDgf70lPG3KeNvU8bfpox/OWX8bcr42Xr5NqFAf3rWEGvLa04Zf5sy/jZl/G3K+JdTxs9WU6C/Osr425Txt7mQZjll/G3K+NuU8bO1FOivnjL+NmX8bcr425TxL6eMv00ZP1tHgf48lPEvp4y/TRl/mzL+NmX8yynjZ2so0J+XMv42ZfzLKeNvU8bfpoy/TRk/W0OB/vyU8bcp429zIU2bMv7llPG3KeOnewr010MZ/3LK+NuU8bcp429Txr+cMn66pUB/vZTxtynjX04Zf5sy/jZl/G3K+OmSAv3NoIy/TRl/mzL+5ZTxtynjb1PGT3cU6G8Ga4gtp4y/TRl/mzL+5ZTxtynjpxvfXBl7gU2ZfEhuc4H+lJTxtynjX04Zf5sy/jZl/G1ZOksZPxtPgf5mUsbfpoy/TRn/csr425TxtynjZ6Mp0N9syvjblPG3KeNvU8a/nDL+NmX8bKR8A1Cgv9msIdaW168y/jZl/G3K+NuU8S+njJ+No0C/D8r425Txt7mQZjll/G3K+NuU8bNRFOj3RRl/mzL+NmX8bcr4l1PG36aMn42gQL8/yviXU8bfpoy/TRl/mzL+5ZTxs1YK9PuljL9NGf9yyvjblPG3KeNvU8bPWinQ75sy/jZl/G0upGlTxr+cMv42ZfyshQL9/injX04Zf5sy/jZl/G3K+JdTxs+sFOhvD2X8bcr4l1PG36aMv00Zf5syfmajQH/7KONvU8bfpox/OWX8bcr425TxMwsF+tvHGmLLKeNvU8bfpox/OWX8bcr4WSkF+ttLGX+bMv7llPG3KeNvU8bflmW4lPGzEgr0t58y/jZl/G3K+JdTxt+mjL9NGT+TU6C/O5Txtynjb1PG36aMfzll/G3K+JlMpnYF+rvDGmJt+V1Qxt+mjL9NGX+bMv7llPEzCQX6u0cZf5sy/jYX0iynjL9NGX+bMn6OTIH+7lLG36aMv00Zf5sy/uWU8bcp4+fQFOjvNmX8yynjb1PG36aMv00Z/3LK+DkwBfqEMv42ZfzLKeNvU8bfpoy/TRk/B6ZAn2OU8bcp429zIU2bMv7llPG3KeNn3xToczxl/Msp429Txt+mjL9NGf9yyvg5JQX6jFHG36aMfzll/G3K+NuU8bcp42epHI9XoE+LMv42ZfxtyviXU8bfpoy/TRk/TQr0WcYaYssp429Txt+mjH85Zfxtyvg5iQJ99kMZf5sy/uWU8bcp429Txt+WJb2U8fP/KNDnIJTxtynjb1PGv5wy/jZl/G3K+NmjQJ/DUMbfpoy/TRl/mzL+5ZTxtynj33GZtBXocxjWEGvL75Uy/jZl/G3K+NuU8S+njH+HKdDnKOYo439WpUfK+NvmupDmHpUeKeNvU8bfNlcZf49fsLeaAn2moIy/TRl/mzL+NmX8yynjb5ujjP+HK2wIBfpMRRn/csr425Txtynjb1PGv5wy/h2hQJ+pKeNvU8a/nDL+NmX8bcr425Tx7wgF+qyCMv42ZfxtLqRpU8a/nDL+NmX8W06BPquijH85ZfxtyvjblPG3KeNfThn/llKgz6op429Txr+cMv42ZfxtyvjblPFvIQX6zEUZf5sy/jZl/Msp429Txt+mjH/LKNBnLsr4l1PG36aMv00Z/3LK+NuU8W8JBfrMTRl/mzL+5ZTxtynjb1PG35blwZTxd06BPuuijL9NGX+bMv7llPG3KeNvU8bfMQX6rJsy/jZl/G3K+NuU8S+njL9NGX+HMh0r0GfdrCHWlt9RZfxtyvjblPG3pYw/C9aPPaap0nMZ/69Wxh7TVFHGPzEF+mwKZfxtOfShjH+cMv7lVr2+WtJrGf8/qSjjH6eMvyMK9Nk0yvjblPG3KeNvU8a/nDL+NmX8HVCgzyZSxr+cMv42ZfxtyvjblPEvp4x/gynQZ5Mp429Txr+cMv42ZfxtyvjblPFvMAX6bDpl/G3K+NtcSNOmjH85Zfxtyvg3kAJ9eqCMfzll/G3K+NuU8bcp419OGf8GScWIAn16oYy/TRn/csr425Txtynjb1PGvyEU6NMjZfxtyvjblPEvp4y/TRl/mzL+DaBAnx4p419OGX+bMv42ZfzLKeNvU8a/Rgr06Zky/jZl/Msp429Txt+mjL8tS40p418DBfpsA2X8bcr425TxL6eMv00Zf9tOlPFv0gK5KdBPXcbH791bnTzxxxYghlXJB+aqf7/ybTyHXXuTNZpWff7WsdL23mTv5arXzcue4yzd0Jv8Ps3RHZor03uU52aV7zn5fcpyMflC0JO8R2YN2VW/53xXZW3n7W7KMJd/R04kdOgTAOhNvkCeV3nZ3r2Zbcr6Oo+pGOQAgB5lz2hOsVnLIt2bcEJjevhy9WqPCzcCAMSxhd2zoPOs1n2YNesrXVFJYTkAQM8+WLl3JTWPs1n33rCfrBjkAIBtkIuYfrYy686yde6Z+6RKKngcXgUAtsm/rMzWELHOQeqhFYMcALBtvm5xO4t1DlNftLgFANgm963MNmOtc5j75MUtAMA2OaOS9olZrHOYS3UNAMA2mm3OWecw957FLQDAtpltzlnnMPeqxS0AwDZ5b+UNw+bqrXOY++PFLQDANnlBJSX/s1jnMPerleuHTQCArfHfFrezWHed1zMrCvYBgG2R08juVkm11yzWPczdsXJ55dZ79wAA+pVDq19Y+ZO9ezNZ52HWuKrypZWcKAgA0KucOvbtlVkHuVj3MBd/Wjm/8qa9ewAAfXlf5V9XnrR3b2Y3XNyuW/bQ/VLlZpW7V25SAQDYZDkv7hmVr6g8P3+wDus+Z27MrSpfXLlX5ZzK6ZX9yMmGZw+bk7iucvWwCSuR1cFvNGxOIrv43zlsbrUcUbhxJc/dJhxd2DR5To69t+c2r4vjs8vyfBx7zRx7buLDlV1/bk6U5yPPS4aVfB5u2vNz80p2AE0lC/z++bB5Sh+ovK7y4sqzK2+sMJGLK3mxTZVLKrBKl1XGXnuHzTUVgF1wYWXsffCwycWY3fKtFgCgY4Y5AICOGeYAADpmmAMA6JhhDgCgY4Y5AICOGeYAADpmmAMA6JhhDgCgY4Y5AICOGeYAADpmmAMA6JhhDgCgY4Y5AICOGeYAADpmmAMA6JhhDgCgY4Y5AICOGeYAADpmmAMA6JhhDgCgY4Y5AICOGeYAADpmmAMA6JhhDgCgY4Y5AICOGeYAADpmmAMA6JhhDgCgY6ctbrfBxZWHDpuTuLRy/rC5ch9Vyd/1eZVzFveZzwcqr61cVvn9ylsrc8jfd96wOYlrK6cPm5RPqTyy8rmVsyo3rEBPrq+8o/LyyhMrz6kwuLDyqGFzEldUzh02WacMc3nhT5VLKquWoe1HKu+sjP0bZP5kIHpKJR/+q5ZhbuzfcNhcU+EGN7hH5ZWVsedIpOdksHt4hWGYG3uODpvLK91ymHV9Pq2SF8/3Vz46f8BGuGnlGytXVh6YP6ArP1h5SeWT9u7Bdrl15amV51V8fvP/eDGsR/Yc/O9KDqmymTJg/07lq/fu0YP/XHlsZZtOH4ExX1DJYUHYY5ibX4aEZ1XyDYvNlnOscvg+wzeb7UGV7x02YSfcrfL0YZNdZ5ib3+Mqdxo26UAOuz5p2GSD/friFnbJgyufPmyyywxz87pD5RuGTTpyr8pcVzZzcI+p3GLYhJ3z5MUtO8wwN698i7rxsElnvnZxy+b5psUt7KJ7VnyW7zgvgHnlpFX6dJ/FLZvHaQvssnyOO3Kw4wxz87rL4pb+fFwl58+xWW5ZudGwCTsrC2Ozwwxz87rV4pY++fltnpyHCrvudotbdpRhbl6e7775+W0ee+XAe9PO8wIAAOiYYQ4AoGOGOQCAjhnmAAA6ZpgDAOiYYQ4AoGOGOQCAjhnmAAA6dtridhtcXHnosDmJSytT9929uXLmsDmJKyqvHDY5QZ7nqftUz67kZziVyyrnDZuTuLZy+rC5M+5RuXzYnMy7KlcPm7ASUzeXPLnyiGFzZ1xYedSwOYl8np47bLJOGeaunzCXVKaWQWDs7zpsLqgwLoP42HN2lJxVmVKGubG/57C5prJrMsyNPRdHyWMqsEpjr7uj5EmVXZNhbuy5OGym/lI4K4dZAQA6ZpgDAOiYYQ4AoGOGOQCAjhnmAAA6ZpgDAOiYYQ4AoGOGOQCAjhnmAAA6ZpgDAOiYYQ4AoGOGOQCAjhnmAAA6ZpgDAOiYYQ4AoGOGOQCAjhnmAAA6ZpgDAOiYYQ4AoGOGOYCP9GOV60VWGJiUYQ4AoGOGOQCAjhnmAAA6ZpgDAOiYYQ4AoGOGOQCAjhnmAAA6ZpgDAOiYYQ4AoGOGOaBnH1jcwi770OKWHWWYA3r27sUt7DK/BzvOMAf07MOLW9hlVy1u2VGGOQDo29WLW3aUYQ4AoGOGOQCAjhnmAAA6ZpgDAOiYYQ4AoGOGOQCAjp22uN0GF1ceOmxO4tLK+cPmZN5cOXPYnMSjKxcOm5wgP7s/GDYnc3YlP8OpXFY5b9icxLWV04fNnXFW5U3D5mSeUHn5sLkzvr5yr2FzEldWfnrYZMSTFrdTeXgln4G7JJ99jxo2J3FF5dxhk3XKC/n6CXNJZWoZBMb+rsPmggrjMsyNPWdHSQaHKWWYG/t7DptrKrsmP5Ox5+IomfpLXA96eP/cJmPP2VHysMquyTA39lwcNpdXuuUwKwBAxwxzAAAdM8wBAHTMMAcA0DHDHABAxwxzAAAdM8wBAHTMMAcA0DHDHABAxwxzAAAdM8wBAHTMMAcA0DHDHABAxwxzAAAdM8wBAHTMMAcA0DHDHABAxwxzAAAdM8z17S6Vfzpx7lO5YwUAYFYXV66fMJdUpvbmytjftYm5qvLTlU+o9Oj8ytjjOkrOqkzpssrY33PYXFPZNfmZjD0XR0leO7vm5ypjz8Vh85sV2saes6PkYZVdc2Fl7Lk4bC6vdMueOVruUPmuypWV/1S5UQXYTq9b3E7l9YtbYAaGOU7lJpUfqDy7cvP8AbB1/nRxO5Wp//+AJQxz7Nf9K0+vnLZ3D9gmf1aZam/auyu/P2wCczDMcRAPqnzbsAlskQ9Xcg7SFJ5Qed+wCczBMMdBPbZyxrAJbJEnVl44bB7aaypTDYXAPhnm5nXTxW3PPqbyVcMmsEU+WHlI5Y179w7uHypfXrl67x4wG8PcvLZhmIt/vrgFtstrK/etvGLv3v5lKaP7Va7YuwfMyjA3r21Z3uMzFrfA9nl15bzK4yunWrvwusqTK59eeXH+AJifYW5e2/J8325xC2yn91QuqNyp8h2VZ1ZeXsk5cVl78ncrj6rcufKIyjsqwJoY5jiMnFsDbL+3VX6+8hWVu1XOqdy1kivbf7Jy2PPrgAkZ5uaVy/+3wZsWtwDAmhnm5pXzS7ZBOkUBgA1gmJvXtYvb3v3W4hYAWDPD3Ly2Yc/cX1eeNWwCAOtmmOOgHlnZlsPFANA9wxwHkXWnsiQBALAhDHPs13+pPHrYBAA2hWGOU3lD5Ssr3125Pn8AAGwOwxxjspp7Dqd+feUTK/+jAgBsIMNc336wcpuJc0bltpWs8P7UyrYspwIAW8kw17eUYL9z4qSTEQDohGEOAKBjhjkAgI4Z5gAAOmaYAwDomGEOAKBjhjkAgI4Z5gAAOmaYAwDo2GmL221wceWhw+YkLq2cP2xO5s2VM4fNSaT4/sJhkxPkZ/cHw+Zkzq7kZziVyyrnDZuTSFvH6cPmzjir8qZhczJ/WXn7sAkr8U8Xt1N5eCWfgbskn32PGjYncUXl3GGTdcoLOUXwU+WSytQyCIz9XYfNBRXGZZgbe86OkgwOU8owN/b3HDZpBNk1+ZmMPRciu5SHVXZNhrmx5+KwubzSLYdZAQA6ZpgDAOiYYQ4AoGOGOQCAjhnmAAA6ZpgDAOiYYQ4AoGOGOQCAjhnmgJ59aHELu8zvwY4zzAE9e1clq7fDLnvn4pYdZZgDevaBymuGTdhZVy5u2VGGOaB3z13cwi56XeVvh012lWEO6N1Fi1vYRXn9O9VgxxnmgN69oHLpsAk7JefKPWHYZJcZ5oBt8IjKu4dN2BnfVnnHsMkuM8wB2+C1lS+vXLt3D7bfYytPHzbZdYY5YFvkQoj7Vq7auwfbKV9YvrXyQ3v3oBjmgG3ywspdKz9acfiJbXJd5WmVu1eemD+AY05b3G6DiysPHTYnkROqzx82J/PmypnD5iQeXblw2OQE+dn9wbA5mbMr+RlO5bLKecPmJPKN/fRhk3Kzyn0qn125Q+U2FehJFsV+a+WllXwmva3CIJ99jxo2J3FF5dxhk3XKMJfLs6fKJZWpZRAY+7sOmwsqjMswN/acHSVnVaaUYW7s7zlsrqkA7IIMc2Pvg4fN5ZVuOcwKANAxwxwAQMcMcwAAHTPMAQB0zDAHANAxwxwAQMcMcwAAHTPMAQB0zDAHANAxwxwAQMcMcwAAHTPMAQB0zDAHANAxwxwAQMcMcwAAHTPMAQB0zDAHANAxwxwAQMcMcwAAHTPMAQB0zDAHANAxwxwAQMcMcwAAHTPMAQB0zDAHANAxwxwAQMcMcwAAHTPMAQB0zDAHANCx0xa3h5X//edXHlC5R+XMyrrcuXLbYXMSH6q8f9iczOmVoz7nx7t+EU6W53nK5zquqUz5fN+sMvUXqvctbgG22Y0XmUre318+bK7FOytXVi6tPKdyXWXfjvJh98DKT1TutncPAICjekPlhytPqXw4f3AqhxnmMgn/TOVb9u4BADC1SypfU8leu6UOOszdsPLrla/euwcAwKq8qHK/yrv37jUc9Hyd760Y5AAAVu+zKr88bLYdZM9cLjB4ZeUme/cAAJhDLjTNhRGjDrJn7oKKQQ4AYF7fv7gdtd89czlX7i2VKZf+AADg1LIsVo6Qvn7v3gn2u2fuUysGOQCA+WXn272HzZPtd5g7Z3ELAMD8mrPYfoe5Mxa3AADM75aL25Psd5g7yIUSAABMq3mdgyENAKBjhjkAgI4Z5gAAOmaYAwDomGEOAKBjhjkAgI4Z5gAAOmaYAwDo2H6L9h9WuWjYnMyPL27ncLPKnSq3qdw0f7CB8u/K6s65NWTPKwXG76+8d5FNcMNKXg+nV25U+XDl2srVlfxbAdifD1beWbmqkvfQuXxD5R8Pm5N4fOWCYfNwMszlA2/KAABsq8srY/PPYXNhZZQ9QAAAHTPMAQB0zDAHANAxwxwAQMcMcwAAHTPMAQB0zDAHANAxwxwAQMcMcwAAHTPMAQB0zDAHANAxwxwAQMcMcwAAHTPMAQB0zDAHANAxwxwAQMcMcwAAHTPMAQB07LTF7ak8rHLRsDmZ2yxu53TTyunD5sZ7T+WDwyYb4IzKDYfNjXZd5b3DJjvuFpUbDZsb7cOVdw+bdCTzw62GzY33/so1w+as/qRyt2FzEo+vXDBsfqR1DnMAAOxPc5hzmBUAoGOGOQCAjhnmAAA6ZpgDAOiYYQ4AoGOGOQCAjhnmAAA6ZpgDAOiYYQ4AoGP7HeauXdwCADC/1JKN2u8w9/eLWwAA5veWxe1J9jvMvaSSMmQAAOb3l4vbk+x3mPuHyvOHTQAAZvTWyguHzZMd5AKIn1/cAgAwnydXrhs2T3ba4nY/Mvhl79zn7t0DAGDV3lS5ayVHSUcdZM9czpl7WOXte/cAAFil7I3L7NUc5OIgw1z8deUBlbft3QMAYBWyFMnXVv5w794SBx3m4i8q51Weu3cPAIAp/VXlCyrP2Lt3Cgc5Z25M9tJ9a+V+lZvnDwAAOLAPVl5Q+eXK0yrNCx5OdNRh7pibVM6p3H7v3no8unL/YXMSr648ZdiczA9Uzhg2J5F/328MmxzSbSpTP4f5ueT1M5XPrDx42JzMlL8rzO/Sxe1U8jvw4mFzEnepfNOwOZn8Drxj2GTF7ll53LA5mR+pXD1sTuJLKvcZNifxmsojhs21yNIjOZXtvXv3dthFlesnzNRvlpErUsb+rsMmAyxHc1Zl7Lk9Ss6vTCknv479PUcJfRv7mR4leY1NKb8DY3/PUZLfVebRw8/vwsrY33PYXF7p1mHOmQMAYEMY5gAAOmaYAwDomGEOAKBjhjkAgI4Z5gAAOmaYAwDomGEOAKBjhjkAgI4Z5gAAOmaYAwDomGEOAKBjhjkAgI4Z5gAAOmaYAwDomGEOAKBjhjkAgI4Z5gAAOmaYAwDomGEOAKBjhjkAgI4Z5gAAOmaYAwDomGEOAKBjhjkAgI4Z5gAAOmaYAwDomGEOAKBjhjkAgI4Z5gAAOmaYAwDomGEOAKBjhjkAgI4Z5gAAOmaYAwDomGEOAKBjhjkAgI4Z5gAAOmaYAwDomGEOAKBjhjkAgI4Z5gAAOmaYAwDomGEOAKBjhjkAgI4Z5gAAOmaYAwDomGEOAKBjhjkAgI6dtrjdBhdVHjZsTuIPK/cfNifzpspZw+Yk/n3lJ4bNQ7lZ5c6VO1ZuW7n1Cfnoyq0qJ7pp5fTKP1TeX3lf5T2V6yrvrFxT+ftKHu9bj9vOf2fT5OeRf9uU/lnlkmFzEnld5/U9pd5+9/Pvzc/qTpXbVPK6zOvzWPJ6zZ8t+4L6gcp7F8l2Xqu5fVvlxNfrhyqb7PrF7VQeXrl42JzE+ZU/GDYnc3blzcNmV25Syb/9DpW81x57rR57f01uWcn7av6s9buZ98+8t15defdiO6/lt1TyvPxd5Y2L5D87ih5+fhdWHjVsTuKKyrnDZn8Mc23bMszduHLXyqdXPrWS4e3jFrdT/lv2I28wr6/8zSJ/fdz2aysZDOdmmNscea1+SuUelU+u5HWa4S0fgEk+FOeQQSlDXT4k89p8zeL2WF5XyReXdTLMbZZ8wchrNu+xeQ3fpZLh7faVvMfM/fv2jsobKq+s/FXl5YvbV1X289o1zLE2+bDLG9xUubQytQwNY3/XYfPoyvFuWPmcyndWfqnyfyoZkMb+t5uWD1byZvPrlTyuvJmcWVm1vNGO/XuOkvzbp5RhbuzvOUrWLXt271v57spTKy+u9PJazYfhKypPr3xv5Ysrc38xGvt3HSVTfhGO/A6M/T1HydzP8Zjs+c3AlufrZyvPq2ToH/v3bmKyJzrvs0+rfEclw8vY3uwefn4Z5sb+nsPm8gobYBeHueyZu3vl31b+ZyWHPcf+ez0nz9mzKhnw7l3JoYgpGebmkUP6Gd4eW8kH4LWVsX9Xz8lr9dmV/1D5gkoG1lUZ+/uPEsPcuBwS/bLK4yrPrbyrMvZv6zn53Pi9yvdVPr+SPeCGOdZmF4e5nDsx9ufbnByq/ePKj1YeULl55SgMc6uTwyr59v+/Kvm5jf07tjnZ0/j8SgaBL6mcUZnK2N93lBjmBh9VyZ7WH6/8RSVHDMb+LducDHcZXMf+s6PEMLdCrmbt2y0Wt7ske3jy7THfIrMX5O2V51Syd/ITK6xXDo1/WyV733JCdg5FfVElP7ddkz0c2ZucPei/W8mFFjmX8rsq51TYDDl/OD+TP6rkopjfr+RIwGdVcurKrskFGV84bNILwxy9y5CQCw6eUHl1JSf4ZjuH9Ly+55EPvK+o5KKhnHT985UcZvT8f6QMd7mo6qcrufjnykr2LmTg26aL0XrwaZUcDs+5mrn4Kj+TvGfkIhzojjdbtk2uIsteunzLzhITT6p8XsWH5fSynEL2aGQw+R+V+1V2cU/GYeWqx1yNl0OxuUI2X0Jy1TmrkcN8eb3+ZSVXLv5w5TMq0D3DHNssa+d9c+VPKvn2nWVc8o2co8nAnL1v2QuXPRo5TMXRZOmVfAnJoJFztTJ0/OMKR5MLpv5lJRdRXVXJ69XAzNYxzLErsmbZBZV8I39RJUNeTnZm/7KWVk7mf1kl58Xt4jmbc8i5Whk6cs7hMyr3qnAwGYRzrmLWCPzvlS+t3KgCW2mKYS6HCrJW1K9UcnJvTvTN4YKHVLKaNWyae1Zy+DUflj+SP2Cp7N3IIJwFc/MBOdfivbsuz/NXVf6s8r8r2cPkMPZyWQPuyZUsTp4vHh9bgU2TL8L5ff6pyu9UsnpGFu3OhTez7zn+7ErOSxq7xPdYUj+SwS5r9azaLi5NIpuZbVmaJMPEN1ayd2Ps/0Pmz99Wvu6EP5sivS9Nkiums1bahytj/1tZfyxNMjTa/GTlVGvCvrCS1/S+HWbPXE4k/6FKvi3m6p9lchgr54GkUuShlV0/CX3qBW9hFbIe2vdUMsQ9pfLxFTZDThfIURCGw6Y5ApSmm6xl+MCKC53YRKkozJ63XCyWI5lZ/mWZ7CzLa/pnKvs6PeAww9wvVP5j5SD/25y/kAeSvV05eXqX5IPwNytZNHWOPZRwWPndfHwlV1bmNr2SsGnSefqDlVzUlPq/z6yw+c5b3O6KDGH/opKO25dUskProEvfpJozr/FTnl5x0GHu2yvfMmweSpYuyAno/6myzefT5Yl/ZCVvNtm78ZWVXVw0lc2XN5ysEZfzXbMHPXvkfOlgE2U9yVyVmkPNqYXLUEc/cm5Yzv3M3uVtli/Bx75sPLOSUw6Ossc4581mTcSlDjLMpZonSzscVYaaH6gc+4U81e7Gnjy4kmPdqfHJiY2WbGBT/ZPKz1XeWMkacVnM1iEqNtlTK7kq1UUg/bpPJUNOlovK+WPbInNMzmXNl+Ic2Zj6y8b3V3KxadNBhrl8Yz9qD+bx8uAzvWaoy1VHPVYxZTDNelCXVT5QeXolx7q92bDpXlDJnnZrmQFzypfGLOSez/7s/MgXyR7l6GJ24GTpmzdXci5rHssqPv9zBCUVlk37Heby5P+rYXNyeUKy3EFqmFLumxNaT69sqhz3f2Il0/f7KlkPKn+mBgYA9idzRXZ+ZG9WOnGzEPnHVDbZJ1VyAUNmlbdWsgMnS4zMcRpVTodp7lDb7zCXB5DDrKuUH2zKfXOyXwqpc3w9C7uuc52gDGi5QuqXKun9vK6SvXCPqGQXscNSAHA02amThcgzIKWG8Tcq675gIp/vd6t8a+VplTTe5LziLC2SWWVfV5lOKKuDZI3UUfsd5ua+AjXT54MqxxZ2zYrz2YWZH3Z+wHMsWpo1XnLoNGsXfUMlh4Hn/uHRp6x5+FuVXImUBSCnPD0BViEtE+dUpnhvzf/Htp/kzurk1I+vrmTHSc4/z3IeaULJOWnpg16VHBHM35Gjbc+rZG9hZo+s4PE1lU1YgLo5i+13z9LXVv7bsLkRPlTJlJwTKY8le9A+p8Lh5XnNCzgLGuY2eVfl2kqWVjlR3rTzbSHJdq6CzMrW2Yu7yl+6HuU5fEclz2n2PL99cXt1JW9Y+V3Ml4XcZpd9vqnmTS232Qu86j3jPfpgJa/PvF6PJa/h/NmJspc9r83jX6tZ9/F2FadIfKR8ic2C73mt5jankyTZzvlAx56vfEnJc5jXaM6BznOb164vvaeW3/3jX7vvXiTvBZGjQHm+j8lznWEjz3Nex9nOa/jMRXbpKFF+7/O+mcec194uybULubjyJPt9AWR18OxtoH95g8hK139VyQmoOfcvyUB8rKFiCnlTzzCSbzO5zXp72buZb/9J7ltEmWXeW8k34xzayGs0FU0pSz92e/yH3VHkPJ0Mdcderxmcj3+tZi+TAYWDyKHCKyuvqOS9NTsf8rrNbZIvd1PJcJ2B7o6VY6/du1ZyiDD1Zhmy2Q6pVcwaoCcxzG23fIPJruo/qby4koULs8s6lTfrlkP8+ZDMYchzF8m25Vx2UwazXGH7F5V82UjSBbsJr9UMcnmt5sMxr9Fj0YxB9qC9tJL32TRR5EtyBrjs1dwE+YzPe2oaCO5dyVWkn1WxN7pP6W5NjdlJDHPbJ28muTooV9tkgcbsju5JdpvncHneeD6/kqudnHO2fXI46Y8rOTclyYdhvnz0JIe8PqOS12k+JLN2Xw6Bsb1yekRer3lvzRePfEGeci/bHHKINu+rX1DJuek5qX6/swDrZZjbctnblkukkwxz2yTfIPNmkw/MrACf2ylO0mZ+GeBS6ZeTmXO1+ti5bT3LHrwMdxnsvriSD0unEvQtg9ofVdKTmS/I2WO8CXuLp5RzclM7lWRRX+ukbq7mMLdfGeZObPWX9SZvMrnCN9+wdkn2fORNJ1c65xyUsedGNivZe/FNlV07WTnnKn155b9W0rQx9tzI5iWHSH+tkhrGXdvTmnNHMzBkB8HYcyPrTc6ZOxLD3OYkV5Wm2/asCsMwm3V/DHablRwyzfIs960wHAXJXuUsOJ6rmseeM1lf8r6aIxsPqDifbDinOZ2i+R3OFeJjz5nMnwzaR2KY24xkN79zcsblzSeHt362kivJxp4/mSe/XfnkCuNy6DV7l9OJmxPox55DmSepk/qWyq7tNT6IT6i8qDL2/Mm8Mcx1nhyiybck9icfllnkMee65PyWsedUpk+u5svK6Oxfyrh/rJKV78eeU5k+2Wuc8zatS3owOWUgHaRjz6nME8Ncp8keppxrxOFlD1H21tkDsrqk6u7hlf02ynCyXGGY33Xn1q0uubL/v1Qsf3Q0X1XJQsdjz7GsNumxPxLD3LzJIqlfWmE6WWfpTytjz7ccLrmyL+8NFtSdTpY7eUIle4/GnnM5eLI36bGV21SYRr645SI059PNG8NcB8mb93MqWb2b1cgbUPp9fas8WrJMQ5aJYXVyYc9fVsaef9lfrqika9NSRqvzSZVXVcaef5k+hrkNTiq0cnWq9ajmkyuBc7glfZNjPxM5OVkT7ucqaUFgHtnj+Y2VNGGM/Uzk5OR3+qmVLODMfPIl2VXaq8/3Vo7EMDdtUmSdloYsMMr6GOpOnewd+uaKq6jXJ0tlfH3F2l/t5JD/d1Rclbpe31nJOn1jPyM5egxzG5AcRs0H47+pqE7ZLBnqfqqSYvexn92uJWv2/UQlfblsjuypy4UmOad27Oe2a8keyx+t3L3CZvl3FUPd9DHMrSk5OTT1Wo+sWIhy8+VbfQ4XvLYy9vPc5mRpjJzQnAoqV6Vutvx87ldJS0EWux37eW5rXlPJ3nTLivThyypZsmgXl4hKd+97Tvizo+YxlSMxzO0/2buTIuZ8g9Zx1697VXKifw6Jj/2ctyEvqzyucu+K12qfbl359sorKmM/496TJYVSap/1te5aoU95nf5CZZv31uWL1e9VvrVyx0r8XWXsv3vYbOQwl6s2v6eSVoOe1wDLvz3rbKV/8dMrbJebVR5SyWDX+7l1b6n890rOLfr4Ctslw07qwvIB0vOekPz7c7FN1jPLEMB2SZl/2k/eXhn7+feUl1d+sZI9kOliPtFODHPHy+GtB1d+tbLpK0znAz0/wHzLsKt/95xX+ZVKzivb9DWW3l15ViV1RfZq7JZbVh5RyVGCLJY79vrYhORc4iyUfGklXzIMb7vl9pV0a+fink1fWzE7bnLee9aB/IrK7SqnclVl7P/rsPm+yqj9noifYe6iYXMyy/7uO1XyoZm1lnJ7z0renOaUJy5vgvnQfnElV5/+biVLNEDkPMhckZxf7JxrlraJfDGZ+wKXvFYzuP1t5SWV1JhliMtSARBZMDdrA96/8lmV7Jmd8wrl7CnMKSj5sp4LOHLoNK/RbMMx+azPHtl1vp9GXqtZpzDvpxngkpyWcm3lIDLMpbJvKt9fSf3fSTZ1mDtRTvjNMei8AZ2YTMcZ9JJU4uxH3lhyLlR+MBnYchw/u0OvrOSkxRcs7sNBZb3AFFNnyMuHZtZlyy/zbSv58MwCprkqcb+v/+z9O/ZazcCWQxMZ2nKOVN5s/rySLxwZ6OAg8n55l0peq3mdZjtfpI9/reYLS16vx7d85LWW99DIbV6jOV8o76VZkDtfIjK05WKFfBHOa/QNFTionMubnTqfW0mLT16jeT/Nl5OcApP//KDDXt5P37ZI3k/z/pnXai58y22S9V+nYJg7pLzxZKhLJc7x8maTD8LInrVjb0SwLhn68lo9Y+/e/5dDDflQjLxm89oFYFxmibMrH1fJF5Gxq/EzuGWwym2+eMwlg+KxiyGm8AOVLMdzaKs+Zw4AYJvMds6c9aQAAKaXAWxKzSOahjkAgI4Z5gAAOmaYAwCYnsOsAACcmmEOAKBjhjkAgOk5zAoAwKkZ5gAAOmaYAwCYnsOsAACcmmEOAKBjhjkAgOk5zAoAwKkZ5gAAOmaYAwCYnsOsAACcmmEOAKBjhjkAgOlNfZi1yTAHANAxwxwAwOZzAQQAwIwcZgUA4NQMcwAAm89hVgCAbWSYAwCYnnPmAAA4NcMcAMDmc84cAMCMHGYFAODUDHMAAJvPYVYAgBk5zAoAwKkZ5gAANp/DrAAAM3KYFQCAUzPMAQBsPodZAQBmNNth1uaUd4KHVS4aNifziMUtAMC2eWzl7GFzEo+rPGbY/EjrHOYAANif5jDnMCsAQMcMcwAAHTPMAQBsPlezAgBsI8McAEDHDHMAAJvPYVYAgG1kmAMA6Nh+h7nZKikAADjJkQ+zvndxCwDA/N6zuD3Jfoe51y9uAQCY31WL25Psd5h7aeV9wyYAADP788XtSfY7zL2/8j+HTQAAZvSyypXD5sn2O8zFT1ZcCAEAMK8LF7ejbri43Y83VT62cs+9ewAArNrzK99Tae5Qa17m2vBRledWPnvvHgAAq/J3lXtXll6IepDDrJElSh5Qed7ePQAAVuGVlS+qnHJFkYMcZj3mmsqvVXJ16+dUbloBAODorqv8QuUhlZzidkoHPcx6oltVvrbywMrdK3eoHHRvHwDALntL5eWVP6xcVHlDBQAAAAAAAIBVuMEN/i8D5ROuMXOB5wAAAABJRU5ErkJggg==;" vertex="1" parent="1">
          <mxGeometry x="-327.68" y="165" width="61.25" height="55" as="geometry" />
        </mxCell>
        <mxCell id="B3J9zCPMF0yDf6O6Sbgf-15" value="" style="shape=image;verticalLabelPosition=bottom;labelBackgroundColor=none;verticalAlign=top;aspect=fixed;imageAspect=0;image=data:image/png,iVBORw0KGgoAAAANSUhEUgAAAi0AAAIvCAYAAAC4Iet5AAAAAXNSR0IArs4c6QAAAARnQU1BAACxjwv8YQUAAAAJcEhZcwAADsMAAA7DAcdvqGQAAAAGYktHRAD/AP8A/6C9p5MAAAAhdEVYdENyZWF0aW9uIFRpbWUAMjAyMzowMTowOSAxMDoxMzowMmAli9QAAIXSSURBVHhe7b0FuC1HtXbN/XGHkOASHIIECO4Ed3fX4O5wkYu7u0NwCw6Bi7uEECBoCO4Q3Pm+/x17rf2xszPPOau7ZndX9XrH84xn9T6Evbt7dVdXV82a82jGGGOMMcYYY4wxxhhjjDHGGGOMMcYYY4wxxhhjjDHGGGOMMcYYY4wxxhhjjDHGGGOMMcYYY4wxxhhjjDHGGGOMMcYYY4wxxhhjjDFryX8tP03dnFDuLneTx5XHkXAiefTF5tF+L/+P/Lf8g/yT/M3S/yuNMWYd4Ll2MkmbeXy52U7+f/LEEjbbSfib/KvcbC//KE2luNMyPceS55BnkmeUe2755Kbj5uO/6Qsdls2b8UfycPn9pd+T35B0eIwxpgXoeOwlaTNpJzc9naS9xJJn2z8k7eWv5GZbudluHia/Kf8pzQS40zIu9PgvKs8vzyvPI+mwHFNOCTfjIfKr8mD5GfkTaYwxU0JHhDbzfJL2knbzDHJK6LDwskd7Sbt5kPyc9AjNCLjTMiynlpeTF5OXlOeWm9M5tfND+Un5aflxyQ1qjDFDwfOITsml5MUlbSadlhZguok2kjaTl76PyJ9JY6qGDsk+8lHyi5IYE6Zn5uAv5KvlDeVJpDHGlELMyTXliyQvSlHb06pMJT1LXkGWTPEbkwoX4zUkD/TfyejinZvM+R4oby8JDjbGmFUh5uSO8kOSqZaojZmbR8hXyqvJqcMBzBpCFPoV5cvlb2V0ka6LdGDeK28leWsyxpjtnEDeVr5frktHZUcS5PtSua90iIYZlFPJB0mG/aKLcd1lFRLDvEyRGWMMbQFTJOv+crcjWdH5RHl6aUwa9IgPkOv+htBFYnpuJ48tjTHrA3mkmP5hVU3UNtijyrPlbfKy0pheMAVEgNhnZXSR2dUkgJfAZOaxjTHzhfwp95I/llFbYFfzy5Lpdse+mJXgLYEbb26R7FNLhl6GiZliM8bMh9PK58o/y+jet/0kf9bdpUerTQi92jtJvyUM698lcS/uvBjTNntI4jH+IqN73ebICzQv0u68mA2YBrqNJE1zdMHYYSR75OPlZi0QY0wbkKfpSdIjK+PKApBbSp5ZZk25sCR7YXSB2HH8teQtopVMwcasKzwsibUgTi26l+04ssiBbMFmjWAOlmRwc8pY27qsNLi0NMbUB6taqEsW3bt2Gt8lp67DZAaGNwXiVpiaiC4CO71vklS3NsZMz0klMWjRvWqnlyk6cod5pHqGUCGUSpzRF2/r8ueSYWhjzHRQZ+yXMrpHbV0yUn0BOXvWIYUwq4IeIemNtrLunWmrn0qWvJExkbTPWyUREenz6WVvQg2kzTT61ANitILcKHhKuadkKLGlCHSGP/eTrpZqzHicRr5YUienFViV+ANJm0l7sbW9JBsv0F7Sbm5Ce0m7yXNhs63clOrSZ5Sscmwl8JVje4J8nOQZMUvm3mk5u9xfXnDjp/qgc/JtecgWvym5+bbeXFnwfXMTcl7OLSkDv/dy+7iyRn4l7yDfufGTMWZIrifpsPDgrpG/yq9J4mu+upQ2lI4KIw7Z0KnhZe+cktF62kvazbPKWjszn5c3l9/d+Mk0A7ErJDTbPow2pdxwH5b/I68qa1nuy5vGReR95FtkjasDXiiPJ40x+VDQkCJ+0b03pbRFtEn3lqz2rGW0nLabNvwxkjadtj3a/6kkbpMyKqYBTiSp4RB9kVP4HfkcyQXeykOXNwhGp/5bflr+S0bHNrbfkOeSxpg8GDlgtCK658aWtuZT8uGSNqiVqRnadqbTyAzMCEd0bFP4RnlCaSqFaY+vy+jLG1PmVUlZP5e19AwVExhLjMnURSN5g7ixNMaUc1M59Yj0v+UnJfma5pIpm5craq4x3R8d85h+S/plr0KIdJ9yKfPv5PMkpdjnDEF6BDUzghSdhzEkFuip8hjSGNMdplmeKaP7aywZ3XmgPLWcMxeSz5c8I6LzMIa/l9eVpgIILiVaeqpEcVSBpgzAusVbcN73lW+QBA1H52ZoPyRJKW6MWR1WF35ERvfU0NJWvF5eTq7D6tWtsFrptnKq1Bs8Ix8t1+28VwXLd1kdFH1BQ8pwJlMlV5BmsaSaoVCWFkbna0iZDmQ5tzFm17CMl9iw6F4a0j9IpsxPL81iRJ6s7FPEC5LA8zjSjAxxFp+Q0ZcylMRzEGF/FmmOCkHQTB1RTyg6f0PJcsdal7UbUwsXlWMniyNlwQMkbYM5KiydfrkcO1aQkTayHZuRYN08wUXRlzGE9IbpFbuzshpEq7Py6AgZnc8hJJiwpWRYxozJteRfZHTvDCGjrg+TLKU2u+Zs8rWSUfzofA7hoZIkemZg6Jn+UEZfwhC+T+4lTXfoyT9NjhXzQlbMG0hjzH+4iRzzHnyKdKxZP0hgd6CMzu0QHi7PLM1AkJXwJzI6+dkyksOKJFMOHU3mUaPznC2jYgS7GWOOdrRbyLGmHj4o/YKXA/GSY6XvYHqdzpJJhmJQY8RKkNnwwbKVOkUtcXVJiYLovGfKEOudpTHrzN3kGKsqeVu/ijS5UEKAJHt/k9F5z5RYp/NJkwS1ccbosJDg6BzSDAdLw58oh46ap7G+ozRmHWG0cegOC7//RdIZV4eFWEpKBUTfQaYETTsJXQJMLWwWwxpKqn/eVXr9+nhcXB4mo+8jSzpGzp5r1g2K5Q0d0ElyyYtJMw6UM7iHHDqYmvALx7gUQGQzQ4/Ryc2SKqGez5sG3tB4U4u+lywJQLymNGYduI4cOoaFlZReFTQNxHUeJKPvJUsWujj3VQ/IwzLksmaGNolyZ97QTAujIaSZjr6nDIlTmksdKGN2xGUlq3eieyBDUhh4dd70kFSVEgxDTv+RgNB5XDpAR2LIOTyyM/rmqwumARn1ir6vDImJIheCMXOEWLwhM1LzEOMt39TDteWQ9Yw+JukgmV1AXMlrZHQSM3TFy3phyJlS6tH3liExNCeXxsyJ3eWQBUypFUTdHFMfZ5dDLo3mu68q1rPGwFOKHz50sZnOB+SNJCMtrXBaSe4DLk7epqgdQiPFA56GhLgQlsQRTMwUC8fGsmI6Z1RRpTQ6MpTYAlyTLPMbqrDXp+TlJcPoxrTOcSUp2S+y8VMuPLTIbE2b3ApHl7STyMgq7SYZ1GknTyxpNxk9+KOkzSSTNqOw35O0k7SZdAIISG0FjustcqhaeLTF1JYzASRzG2qe7sXyGLJ2GAm4mXyJzFpd8xv5Nnl32cqSbpJiDZWfgGvBmDnwShld46Vy791UtgAvdfeUB8isKTJGrlgkQDZhXhJrh7xi1DCKjqVUnskEeJttcOHR+41OWomc8IfImuFtiZvjPXKM7JVflveRVGeumcvIoeoX3UEa0zKkaYiu7VJ58F9K1syp5f3lITI6hkxZgfhOyUt17dWRGRmLjqFURvEZtTJLqADK0Fx0skqsPTMqN97T5ZDBVDuTDhIjMBeStXJ+OURlWlYU1XzcxuwMcqQMsVLoF7LmzKgc9zvk0MkpdyQvUU+WNb/wMaI+xIzF16SXui/hwRmdpBK5qG8la4S4lBfIMdIzryrxPpeWNcIo3BA1p4j92U0a0xJ7yCHuB35nrSuE9pX/K6P9nkJeep4jTy9rhIzIQ3TsCMxde+4ko5NTIl8WAbe1wTTQY2RNnZXtvlXWWK6cLI0/ltE+l/hmaUxLMNIQXcsl/kjWmAmVFzymZqJ9rkEy1D5C1rg0mJikITout5FrC3NkRG9HJ6avTAndUtYGxQKJUI/2uTb5Th4oaysaSRAxw9fRPpd4O2lMCzDdHV3DJf5c1havQK6uh0lW+ET7XJusOrqyrI0halCxQnUtU/2zkudzMjopfeXLuYusCQK3niWj/a3dL8gzyZqg5AKroaL97SudNCeeM7VD4bzsxQrEaBA3VhMsUf6MjPa3dilxwIh6TVDtO9rXEnk21PZSOzhMk0Qno8QHyZrg7eUrMtrXVmQlQW3L3QjGyy4cRiNJjgdjaoSXPB4U0bXbV0YxLixrghU6Q5b0GMMvSTqYNTHEqqJHyrVhb8kysuhE9JU19TXBdNAQS7inkBGsx8qakhFeX2ZXsr23NKZGmK6Nrtm+cu/U9DJC20ItuGhfW5SO1xVlTWTncWH1GoskZg8ltj8to5PQ1/fLmhLHkRgtu1NWg6+SNZ1n8jRE+9lX3jxrmw4zhmDU7Ni/e8laYITzZTLaz5bloU7+rVpgOudAGe1rXz8rZz9CfT8ZHXxfD5WkaK6F+8oh1sjXIlkna0qwRObgaD/7SgfYmFpgBCJ7qS/pFmrheJKkmtF+zkFGtO4ha+EkkhIv0b72lbwws4UAq8xo8Nqy9PHlRfs5N+m41NK7Zqnh52W0n31tJX25mT8sL42u0b4yys3KnBrgzX/OHZatktqjFigYnBm6wGoiEqXOkswKvoxm3EDWAsOA2TEWNUuUfC0xLuSVycyaSz4YV7U1U8MI8k9ldI32kaXNFGCtAdqOV8hoP+coz4aanlfXlZkzAoQOzI5LysyTRCrlWqC65hAptWuXFWC1QNBbZqeRyqbGTMkTZHRt9pF747KyFp4qo/2cs2TRrSnreGYqDp7tQ1QanwyCbzOX67GkrJYhTt5cfiWj/Zy7XKj02Gshc/UBS6r3lMZMAQHhmZmzHy9rgWXN0T6ugyTHrGUqhan1g2W0n30kbURNK0yLyJyXJSaGzKg1wEqaT8hoP4eSNyYy635Yks77TfIt8oOSnDBjlwggjwuxSjVAR/YgGe1nH18njZkC7unomuxjTYnAyF8ydh4W2sSvStpI6tzRZr5L0oYeLsee1iewupaYwHNLRoCi/ezjzWTz8CDhwogOsI81VW3OHL7dkdxQ3FwPlheVu1q5w6gW2V3vKN8gx8gVw7K3WhpFCr5l3YScezLwGjMm+8isqXRe8mrJ9sybPaPk0X5mSptH20fwKws1dtVBoE0lYeVD5UflGJ2YmhKz3VNG+9jH78ia0mL0grT60cH18SOyluGnC8ghy6MTNEftjdLihQSUUotp6MbiAbIWHiKjfewjb2bGjMm7ZXQt9rGm+3KIrKxbpY2jsv8JZAlUbmZfh6hztil5vBjlqAFedD8lo/3s4+1ls9CDpXpodGBdJcbgrLIG+JKz6yZtynQLPd8h6ldcVQ5VVoC3m1qqQzPqkzVXyxsvb77GjAFv/NF12McvylreeonRyS69sSltGm1bNuSQIUs29Zmiv1vqx2UtL+Fkts0KLWBmpZaY086QdTE6qD7WVFdoPxntY6mvkSeXQ0IjRoK/IRqQt8pauKDMGgnjzdeYMcjKWMqbPOVSamGIfCy0YbRlQ3fMTiH3l9E+lHprWQtMWUX72MfaChevBG+7P5TRAXWVrLe1xEww9Ji9WohRClL/jwmxGt+Q0f6UWNOSvufLaB+7ymjLeaUxQ8KIXnT99fEZshauJKN9LJG2a+x7kqmn7HIKP5O1VIUm5ugwGe1nV1ks0lx6f6KIo4Pp4xBDf33JLkNA8qipHogkr/qQjParrx+QtbC7ZLot2s+uzjJ5kqkKVqtF115Xeak6qayFj8loP/tKmzVV6RZGrzIT/mFNafBJYRHtYx9Z2t4UWYGf75W1QIxO5gVLb5RiaFPC3GPm8kqsqdx91hQlyQNPI40ZAtIG/FNG115XaxqaJ6lotI99JTCeEYEpoc2m7Y72r48/kDXFgGTVuiLusxkuJ6OD6CoxCSxhrQWWW0f72Uci02sJLOaGIYdBtJ99fLusBaYVvy2j/ezqk6QxQ/B0GV1zXf26rGlYPjOWhRGWqTssm9B2Z64uuq2sBUaTspZ9X0o2AQ+t6AC6WtuQPNH40X52lbf2mkYjgOHWrBgX3hhPKWvh5jLaz64y1VTL/LOZD6QlyEq4VlN9G1YTZj38aqvmD6StzyrfQiHLmiDPTbSfXWUUv3p4WBG5Hh1AF/kdZ5a1wJKwaD/7yJLmGiFvQFYV7vvIWmCJ+iEy2s+ujh0wbebP7WR0rXWVa5xrvRay8iWRLPJ8skZo56J97mMtSQCBfcmYruQ5XtMLbAgJ0aKd7+qLZU08UUb72VWGOGuuz3BfGe13V78sa4I30Gg/u0puBWMyoWZLdK119ZqyJhgdifazqzW9AG2HtjwrBqS2Iq1U8o/2s6sPlNVCLz8jQIlYlppGWYBgqWhfu0jyHtJK1ww5D7IS0NVSIwq4NjOmv1j+XNNxmbYh9UB0nXWVUZaaXoaIi4j2s6skiaw9LTztQcY00bdkTRBPmlFOguOq9kX9CjLa6a7WNg9G0FW0n119tmyBq8ho/7ta01I+oB5TtJ9dpZq0MRk8S0bXWFdrSlIGWakhyPHSAs+V0f53lRICNUFhyWg/u3oZWSWvkNEOd5VU1jWRsWqIub1aqiGvwudldBxdrClDLrDygGRO0b52kdIUNcUOmDbhGspIofATWVva9IxVQ1Rsr3kqfSsEHWeMttxG1gSdjWg/u/oiWR3cNBmJvGqLooaMSGoSR7VExoqb38jaHu6PkNG+dpX8E8aUkJUagoDXmmA65w8y2tcu0ga1xOtldBxdJI6kNr4go33tIgkPq5vmu7qMdrarpEqujYxyBEy5tATFwjIannPJmji1zIiKf440poQXyOja6iIjuNTGqYnzy2hfu0jbQxvUEmRuj46li9+VtXEHGe1rV68sq4KcKtGOdpFqmrXlwaDWUGkwEiMOzdVhEK+V0fF08fqyNt4ho33tItNMLX6npg546/yljK6tLr5Z1sZNZbSvXaTtaQ2+09LZBhahkHm9JngGZrzAvlwWkzV0T9bRay02i6DKMWvya4L16qXzqtTeIMlSa7CUr5QaV0u9ZPlZArkHLr7YNKYzZArdY7FZRMa1nE3GPZ/R9owNHY6PLjZ7w4vQWRab1UCRSEIkSrm2LH7Ry+q0EDh7ksVmESk9sWQybsDSC3kq6GyVUlPCpE3eJxkpKaW1KT9TDxlFYJm2Ju9TbWTc8xltzxRk7HeNL3oZz+bdJFmEi8jqtGTcgKzlZk1+bWSs+KEeSIuQc+cvi83e7Ln8rAlGvTKW1ddUfdy0Rca1w9QQU9e1UXrP0+bQ9rTI15afJdS4ypTih99fbBZR/KJXU6flTcvP2jjR8rOEby4/W4N5SIoNlpBx/oYg43ojtXj1KapNdbA8lpIZpbxx+VkbpTWCNguctkhGW19jm8n3kRE/VdxXyOi0sBrjvIvNImq9AQlCKuXny88WKZ1Gqa3I2SYsrf/xYrM3xDp5ish0JeOaYSSCAq41UnrPZ0zdTgVtfWmHq9YXvYxn9AXkyReb/cjotFxWlgaq0rOudQql9AYksLjFINxN/rj87EutNyDD6gcsNovg+jemC+RnKWWzkn6NlLaZBH62Cm196WKSWl/0viSJoyqBPkdRdtyMTssllp8lEBhZK6XLz6g31DKl+08W2lrJuO4yrn+zXrjN3Dlklm2Z0jaztiXPW5m8zczotGRkBq35Bvzz8rMvx19+tkrp9FjNb00fkaVvRSxPPNVi05hdchpZWl+GNumTi80qKW0zW0sqt53SNrN0dHtI3r/8LGHSTgtD/6UZT4kUr7ncP0l1SqC8Qc2jDbuidKiy5huQDkvGted8LWZVMl7yyGFS82hEaZtZ6/TIKtDWl9aBqrnN5NojC3MJLGDo/TJf2mlhzXVpshgCImtLKLeVjAuopUKJ2ynd95pvQMhIYuVOi1mVjGvlw8vPWim959e5vYSa20z2jWK6JZA5+MKLze6UdlqoMVHKp5aftfL75WcJNSYLWgXeGM602OzN75aftZJx/WXcB2Y9cJu5a2hzaqtavSoZbX3tbWbG1CSriHpR2mnJWOpcY1XnrRy2/Cyh1YfaeWRpZc6M8zckRMSXBs5xnozZFayyLL1WiBepMQnnVkrvedqcjDw2U5DR1tfeZmY8s3vfB6Wdlr2Xn31hedhnF5vVkpEsKGOJ4xTsu/ws4RvLz1ohNoDS6yXsLslXZMzOYOqgtNwJ7SU1bmrGbWYZtbeZjLSUZmKepNPC8F3pUBip+0uDtoaGXm9p4BG1mWrNV7IzrrT8LKGFbMAZSbo82mJ2RcY1UmtCua1kPHSvvPxsCdr4iy42e8PClNJcKENzhCwts7CX7DWKX9JpOYekunMJhyw/a4a3mu8sNntDRPkNFpvNwMhBxttO7W8NkHEdutNidkXGNdJCm5lxzzNi0VoqAdr40pWivMjXWE9qO6XXIbloelWzLum0lAZoQgs3IGQEHt1m+dkKt5ClK8MosPWjxWbVZFyHZ15+GrMj1qXN5C38p4vN3tD23HKx2QwZbXzN+Xe28tXlZwm92sySTssZl58lfGX5WTsZ5d8vJVvJnsrbwj0Xm0V8cPlZO5SQKI0TqLGatamL0jaT+CvexGuH8gIZqQTuLWvODrsVpoVo40s5cPlZOxmdll5tZkmnJaORbqX6MXkRMuoHPXT5WTt3kGTuLCWjszcGPAxKy65ndOLNvCltM4mv++dis3oyXliYHrrtYrN6HrH8LIHv9mOLzerJmAIcvc18p6RH3VfebEtjYsbkczI6jq5eTdbMyeSvZbTvXeT7ZVVNK9DIRsexqiRILHkJMPOG6Q4C+qNrZ1XfLVuBDgexGdFxdPGXcjdZM1eX0b53tebM8Nuh1ELp9/tW2ZmSRrY0899PZCtvDfC65Wcpz5E11yN6sqTjUgqdADo/rXD48rMvDGOfYrFpzFEgsL30Ja10NHBMfiap7VXKHpI2qVZoy5+92Czm9cvPFmCVEx3KEkafUueijHpPq/pR2RI8yElCFh1LV7M6QNncUEb720d+V0swdRcdRxdL8xaZ+XJBGV0zXbyfbAkCaaPj6OPNZI28Ukb721VGak8qW4KcQdGxrOroS7uJA4h2ZFX3l63xFhkdSx/vJGuCdfOk3472tau/ka0VicxoYDMSS5l5Qs6j6Jrp4o1lSzCFQEr66Fi6yu+hjaqJ/WS0r32s9UV2Z7xJRseyqr2qgfedHiKJTmltCB5srfGS5WcGz5PXWmxOzukkJcezEuC9RtZchTYiYyqrpRgeMy4Z10ZL063AFMJrF5vFnFjSRtFW1QBt93MXmym8dPnZEqXPcDq12Im+nZaMmIfWbkBgOVppyvdNyAb4Bjl1x4V5RVb5ZDUGdFaeuthsioxOdMZ9YebJuraZxKOUZhTfhDaKpdSjx0Jsgzabtru0Ltsmn5G1V+6OyLgeO98XfTstGdHcLd6ADGk9erGZwnElEdRTTRVR3IuKsWfb+CkHRqN+vNhsiozrsfZVDmY6Mq6NFkenfyBfsdhM4aySgn29qwQXQltNm03bncUjl5+tkXE9jtZmXlJun5/q6k1kq2Qtf94qAV1jriq6syT4K9qXvvL7MvK7TAFBcNExdfGx0piIJ8jomuli56H0Sji9LI2B3C5tzV3kWNA2ZwXdbrWVDLgRt5bRMXWxc62mviMtpfEs0FrMw1YeIDnhmXABkCF46DwupE5+n3yBzM42+QzJUvYWYWVYKRn3hZknGYHprbaZrBLJWha8CW3X8yVtWa8aNh24qqRtpo3OhDwnD1xsNklGmznago2ryO09pq7WnmRtVzANEh1XhiSRuojMhDwRT5fZoyubfltmDpmODcm/ouPq4rOkMREEbUbXzKqWlpmYGkYqqEkUHVuptGm0bbRxmVxYvktGfzNDFmO0zHVkdFxdZFXdKBCIFO1AF68gW4bphNJcNbuSXDYU4Tqh7AMjaZznV8mhOivIG8MclvuS7DA6vlV9oTQm4sUyumZWtdfy0Mq4soyOLUve/F8tafP6ziKcQN5KEhgb/Y0sifvLWq05FQw8RMfWxWvKUaAEd7QDXbyMbJ3ry+jYsqXDQdT8wyUXClM8UQVmMrJyXu8q3yjJWBj9vmwzl4JPCQ+G6PhW9eXSmIjSeAjylMyBIeJCImn7aANpC2kTTy63QxtK5W2mfx4mWUXJMu3o92XKS14t6S5KoHMYHV8XeYaOQsaw0BXlHHimjI5vDP8kieA+Ysu/je2XZcvTQlthCD46xlXlbdqYCPJwRNfMqvIwnQNME1EhODrGMfytpEPzxy3/NrY1lyXoQsZIy7VlJ/oOoWXUDGo1En4795dTFbqiAWDJ2Ek2fhofOkuMujES1DoEhEWjV11oObjcDEtpm0ngad/2uiYYzbyenGrkiGl96hkxDTQF1GNqpdr/rshY7dq5zex7E2Q0znPptPB2zvLtn278tD78W95cUi5/DmRcjy0VADXjUppg7b/kXEY0vyOJ1WOaZJ1gFRXPitaDqjfJaDM73xd9Oy0ZGQ7n0mkBAnIvJ3+x8dP8YViPPC8sN5wLGW8NGUsAzTxxm3lk3iFvL9el48KUFKtuSysj18QkbaZHWvJgyS8XJVMmc4YOy91ki7UydkbG9ehOi9kRGVOoc2szCcq9z2Jz1hB3SNDqNzZ+mg8ZI3+jjbRkzEfO7QaEg2Vr5eO78mY5x6W9Gdfj3Duspj8Z18Yc20zy17xtsTlb6JgRfDw3Mq7Hzn2Jvp2WjDotUwWPDgWrod4rX7bx03y5kfy6vKPMzqg7JRnXIysTjInIuDbm1Gbylr6fPFQSmDtnyJNFwtA55LLaCkHNpYxWg5DODoGYW5cudTWrZPmUEBzHenuW/UbHOHeJ4bmvnEOAIAmlomPsYutZns1wkEQruma6eGPZOsRBkLp+rBxStfkFeXU5B94io2NcVRYu8AwdDXpI0Y6s6idkyxC/8nkZHdu6ycqpe8iWa+/8t4yOrYudi3+ZteESMrpmuthynRpGZe8tfy6jY1s3PyNbzwpf+vzjWhiVb8poR1aV5V8tck75fhkd07pLMPJoaZmTyagldQZpTASZV6NrpovEf7QI0z+kRoiOad1l2uhsskUYaY+OaVUJMxiVD8poR1aVterHkK1AnQiy3xLtHB2P/Y8fkGeXLcE+R8eyqq1dz2ZcGIUsnVJ/p2yJvSTlR6Jjsf+R1bhPkVMlvOsDIQEsV4+OZ1VHT5mxTm+mTAX9QEbHYGNZ4vko2cqU0bdkdByryvVhzM5gGjW6dlb1K7IF6Lw/SJICIDoOG/t9OVrV40J4KY2OoYvPl53pu3oIDl9+lrDn8rNWiI6maig9wtPzD2ZlmMN+pGTu9jz8Q8VwH5xusdmbHy0/jdkRpVPivOSNGrjYg/PLL8onSkpjmNXh+yX0gMKrJ+YfKiZjwIFOWmdKOi29/uA2zrf8rJFLSvKu3HLjJ9OXC0gCtu4ua21wmVMuXQGVcT+YeVN6jfAgq/VFj3ubfCS8pOzNP5hecB5vK1mRWnNgf8azu9fAx9QjLTzQaoOieYwQfFR6dCUHRl2eIw+QJ+MfKmOf5WcJBKYbszMyrpGMazWbk8v3yKdLj67kcEbJCtuHyJLn9FBkXIcZfYhOEJhaGogzevTwLuCYqIkR7avNkSHyC8qaeIaM9rWLc0+QZcohz0p07XTxCbImeONmBCnaV5sjHcLaEguWrgYjKL1X7aLS4Xp6SiXDlew4Q56UK58aIt0ZCTjrxk91Qg2L38s/SoLc+PyT5MtnegO5uBnZOJWssYcOfN8US3vjxk/T8zF56cVmb7h+5lZbxORyblmazp1Vm7UEa95CvljWmlySl2qK2dJWki6exQFI+8NKnRNK2ko+aTd3k7XCKN11JAsGpoZYT55FJf2H78pez9rSTgtL8ErzchA78qnF5mSQgp/sfoy0TA29UC7Mz0pSXH9vi3RYVoVhWjqU5IdALpALS6bkahjC5ThZXfQ/Gz9NBx07GjQarr7Q+T6XJMOjMTuClXSMLpe8TPCw2H2xORk8Nx4jH7bx0/SwZPggSezcd+Rme8kIUJfivrxAb7aXyIsIcSWslCl9VmZAO3VdSejClFxefmix2RvqTV1/sTkuj5Vbh3z6eE85JbwtcGFH+zaWRNtzLknvPHRvnw7LxSXp90lsNPWyxBdJ4oimgmSB0X5ZW6vEO0zFMeUrZLRfY8loCW0XbRht2dAvYcTh0TbTRtNWR/s0lrTX1H+bEjIzR/vWRV5YJ+GGMtqhLk5Z4ZOKzKVxOX3kzfzjkrTWU+eqYYSBufY3Saabov0dWuKIGKadgjvLaJ+srVVWl0wB00AUhY32aWhpm2ijbiJLRkUzoM2m7aYNL00Y2Ef+JmVTpiLjGmDEaBJOK6Md6iJTHvTex+bBMtqfISW51KPlaWSN0CjRIFLUK9r/ISUXzhQdF+KYov2xtlaniAU7nmRKINqfIaUtok2qNW6Gtpw2vTRxYB8ZaRob2mhigqL96SIxl5ORkSn2MnJMWEYW7cdQEujJkN4UnbO+EP9CSfUxp49IrDRm40SMwR9ktC/W1ipxLWNOqdJhGTMdP20ObQ9tUCvQtjNiTVsfHdNQ3l+OCUHg0X50kSDcSXmdjHasi2Mu4yMBUrQPQ/hJWboqZWrIVfMySZBpdIzZsrxvrM7dZWW0D9bWLrEcY0DHvrQu16rSxrxUtp4fi5dwFpdExziEJO4cC3LxRPvQRTqkk3I3Ge1YF8n+NwY3l2PMQX5NEu8zJ4igp6TBGOfvtXKM5dqkGo/+vrW1y5TE0HAPvkFGfz9T4gqJV2mtyOquuIL8koyOOVPO363kGLCiNdqHLt5RTgp1ZaId6yIn/dRySK4mh67QfIS8k6w1P0oGLAEk10R0/JlS9XRoKNMQ/W1ra5flvUNDFuvob2d6iKw5XX0pPAv2kzwbouPPkhWwdJKGhADk6G939RxyUli//mMZ7VwXhxziYlkrAb/R383yXZLA5HWA6RuquLL0MDoXWXKzD8VZ5BQrx6zNkGt3yKXP95LR382ytSrwpZxSMlIdnYssic8jX9RQsNo2+rtdHD11/45gHjLawS4O9eZAIiYSDUV/M8NfyGvLdYTh3E/L6LxkyMjYUDFBJMeK/qa1rfhwOQQk2xwyho14D4qUriNkteWZEZ2XDElMSsbaIcgYmX6BrAIy20U72NXsYaNjyI/I6G9l+Ak59LRW7TDqQnDWUKMWv5TZuWwYHaTHH/09a1txiJTuZ5asTor+Xqm0EU+TLa2iHAKWSbNIIzpHGRI4nb26jMrd0d/qajUv+KS/z4gXeZzM5PEy+jsZksl1XYY2V4GLcah5W0bhMs+1Vw3ZuZgZD0JngvIh0d8plamLqTO51gQv1CwEGOpl7xEyk4xVQ8TdTJ0Y8EgcKKMd7SI5X7KCWBniHGKly1/kDaQ5KtQ3orBXdN5KfZLM4uUy+hvWtubzZRbPlNHfKJU2oeZCtFPCs4RnSnTeSvyXzJpap4NF4cno73SRTLpVcQcZ7WhX95WlnFz+XEa/v0RGEi4lzY7ZQzIyEp2/EumAZlS3JVGWE8rZuchUTkbtHQrfDvHWT1tAm2B2DM+UIUapfySpm1QKdZei39/V28iqIPgno/Dg22Upb5bR7y6RNM3nk2bXHF+Slj86jyX+RJYGmWXkFbK2JktrEZ1EZqwA3S5ZdGuonN8CrPqhkxGdxxL3l6VkJBckyzHXWXVkFFLijbokspzhtuj3lkja4T2lWR1iUEgYFZ3PEl8i+0JwGqXro99rbauSzJLg8r4MsRSX+kiO+esGz5jDZHQ+S2QUrS/kYcsYgaMobpXcWkY73FWCXPvAUFj2cjLe7qcsBd8yBPZlV4XlBiJeqQ9Zq9ysrU2G8PuQNfS/1XfLdV8h1JczyeziizzD+o5ykHI/+p1dvZlMoaR3HsG0ACe8dEiQoSSWubLctQsvlJkJyX4rqSPBm4zpBzEkBGlfYuOnHL4teQNgxVoXWBlxkcVmEdTK+v5ic205tywtj/8KOcSy3ZZg+WvpeYSPysstNleGir1flzwos2Ap75UlwaWmH7RtFF7MzLfybEnCwC6QLJUcZ6UdUOJ1uM5JKFgldByinlZXSf7VhfNLIqaj39VHym9fUppyTiwPktF57usDZReIpI9+T1dZ4TZmhd1aoSxGdH66yO9Yd1gtmZUzqOvyZ5bFRr+nr6TkHyqx2brBy9UfZXSe+8iz8byyC0+V0e/qKh2mqtlHRjve1V/LVUdsGDHKrKrJFMT1pMmDXnvm1B0rgLok9mPIOvo9XX2INO60ZPIwGZ2frr5FrgqVlHkxi35PH1mtydu0yYP4zMwVXR+Wq0LnM6v0TdfO0iRkVbZ8rFyF7FgFkv6YfBi+zkwPzqjeKjDFF/3/u8rquFNI405LJtSlyUjOyQNu1WnYrFgF5C2+b5yZ2TlZox2brhr7RObi6P/f1c/JJri9jA6gq7wJ7KoIIUP1zMtG//8+0hslmY4ZhgfL6Lz3kYaetOM7g1G4rLwxr5dmgTstuWSttPuE3BUUkM2cSn+ANMPAs4h4pei895Fp+l3FsrLwhLjS6P/fVRbnNAHJjjIy6CHBejvjljL6//WRKGsS05nh4IY5QEbnv4+vkTvjpjL6//UxM5i4ddxpySVrNBCvK3dGZiqCt8nsBR3myDASl7mi6IZyZ/ByFv3/ukrun6aWvWfN05K3hWJNEQSxsZIk+v/18RrSDA8dw1/J6Dvo6s7y+tB5zgpyXOUNdp1wpyWfz8joPHWVFVk7WvHBqq+sOAlWd1JF3wwPtd2i76CPO8vrc2GZdX10XSwxOeRM+ZOMDqarZOSLIFg2+u/7+DppxuMWMvoe+rij2Jb7yei/76MfsEfGnZZ8riWj89RHMj9HMHId/fd9TMu9YVaChH3R99DHHcW2sNQ6+u+7ykKJKjPg7gqWOkUH1MdoSOvTMvpvu8pbv6eFxicr8Rw5IbZ/f6eTWdHvB0sPgR8Zd1ry4Rr7qozOVVfJMXUquRVW92SUWkFW45lxYREAq2qj76OrH5HbyQy1IIC4SViSmlXBkuWyW4s/XVxG/10f+bLM+LDsMisXwaPkVt4jo/+uj8TFmCPjTsswZI5AEm+yFZIiRv9dV3mL5qXAjM+tZPSd9JH0JJtkdoiYYWl6leXTZXRgfdxa/Clryd4Xpd+ip+PRMvpeukrQ1+aqr8w3hkOlk8kdFXdahoFr+JsyOl99vJEEAiKz8iRtf0Ew48GzKiulyIvlJpnB2c2nDCFQi555dHB9JCCJDKtZiZGuIM10nEBmNaYUBuN6I0Aw+t/7SJyBOSrutAxHZt6pzanvrEKy/D5Xbp4WyiRE301XGeU+oaTdjP73PvI795DNkzUsiZTvzsr18SFppue+Mvp+uvpOmfnGQB0VE+NOy3DwNk2drOic9ZER6vdt+7e+dq1fY4aBfGLR99NVcuxkLqdm5HwWMDKSmcKdZa7Rv3eRZV0XkmZ6KNz2Qxl9T13MuC626rwsO8adlmHJzNuCGctYKRJKGgEzPdSZir6jrma2meQ5Y+R8NtxRRgc6lR5lqYus0ZYsSYBndow7LcOTVS8rS4+y1AUrgKLvaSqbyX67KiSC+4KMDnYKiY0x9cCa/qy8PqWy4i2zXP8ccadleM4iKecfnbuxJVaBEXNTD5l5ykplQQvP+NmRPeTZV4Y5vSKkPkgSF31fY0vJfrNz3GkZh6zVdaU+X5q6YKXZD2T0fY0pU49MV82WzOqifW0uvfCacC6ZlUK6r9+RxNiYneNOyzgQQ0Ja/uj8jSnp/019PERG39eYvkjOGhLEZQbldvWf0vUy6oUVO9H3NpZXkmbXuNMyHleV0fkbS9fdqheWs/NMi763MWTl0ajp+qeYg/qNnDKgizLfZP4zdfKW5ecUvFYeuNg0phpYrvyGxeYkvHn5aeqDnFQfX2xOwt3l7xab8+ddMuq5De2dpakXUvtPMUVERt2TSrMaHmkZF0aoM/NprCr3olP2181dZfTdDe32MhGzh9oEP5fRyRhK1qRvLyJm6uPzMvr+hpKGmSF4szrutIwPU5djd+g/I03dnFJm56jalYzw8HdHZ8olSsS1jD3qQbzEzxabpmLeuvwcixdIhuCNqRmmLl+62ByNtXubbhBe/j+92BwFOi23kfzdtYTI4+29uKH8b2nq5wIy+v6GkJUZx5emGx5pmQZqxXxXRudzCM8nTf08Ukbf3xA+W641PDAyq5ruzMtLUz/kHyCZVfQdZkrRzfNI0x13Wqbj/HKMpHMUunU+qzag8G/0HWb7VemUEOIc8vcyOklZ/kvOqi7CzKHMQvQ9ZsoQp+mHOy3TMkZZFK+kaweebUMvfaYTu5eclFrS7jLScqfF5mAcIkkTb9rgU8vPoSA24JWLzbWDNyWm4G4qHyWpAkydG9IBkI6be4VP8nOw3PVZ8p6SkcpZlJ2fAS+RJOocEipNmzbg2cYoyFDQaaG20KEbP5n/x9Pk9t5dljTMph1uJKPvMcOD5DoNcf6XvIh8uPxfWTq18A3J74n+ty56pKWM48mvyOjcZnhjadrhNTL6HjN8gjQBxDJkNIaRLBWk0aYBN3VzOUkCwOh7LJXy6euSd+KMkjpKlCaIzsXUutNSzhnkUKkjSATKvWjqhmcaz7ahlsN/QDq2aSecSDI8HZ28DN8ojytNnTBX/w8ZfXelUr2ZEYe5c175akkcV3QeatGdlhz2kQSVR+e4VOIkyHpq6oTaVNzr0XeX4dflqGn6W4U3xCETzzFfz98w9cB0DfP00feVIcmXriPnDCuh3iuj469Rd1ryuIEcMsEYqSm8aqQuziS/JKPvK8N1GpVO4cJyqLcH/K28ljTTc2ZJnEn0PWV5PzlXyN1BPNiUhdP66E5LLg+S0XnOkgck96qZHl7AjpDR95QhKSdYWm86cg051FQBMgf4DOk3iOm4uaTgVvT9ZPlEOVf2lT+S0XHXrjst+TxVRuc6Sx6UrDoz00BoA6v5hizn8DfpavcFXE8O/QbJvB1LQM14nFgOGe2+6fPkHCH4jjfr2uNWdqY7LflwXVCWIjrfmb5J7ibNeDD9O+RqMaQ9uaE0hZAEbOhCYX+XpPk/ljTDwrQcVZWj7yFTAtRqyUWUCR2+D8romFvSnZZh4JonxUN0zjNlhI/RcDMsPJNI088zKvoesiQmipFvkwTlt4fuuODX5MWlyYcK2yQri857tm+RLKGfG1RW/bKMjrk13WkZDq597oHovGfLisxJKv6uAZeQzARE5z1TOiys3DTJ3EGOUYKbv/FieXJpyjmmvJccMnBsq4ywzLHDsqccs1je0LrTMizcA2OMuCALG+4h53jfTcEpJKspx3jeMSV0K2kG4iZyyODcrRJBTZpz1sKbflDIi/TS0fkdQubz5zglRPr8sQqLjqU7LcNDjAuBm9H5H0KqpnvKqD+bL3hDL07YlCknlsubgbm2JMI5+hKG8DBJT9RZAVfnYnKo7MY7klVCc8x4TMLFIfMxTKU7LePAPTH0qqLtEnO1Dokcs+DZQuzm4TI6n0NIss2rSjMSl5akmY6+jKGkWBT1OOb4Jp8F2TnfJaPzN5QMoc41DwvXWksJ47roTsu4sNpsjOmGrb5TemXmjqGzwhLysUdRfykvKs3IkOiI4cjoSxnS70mG8ChYZhZcUtJZGSNYeqsU/5tzYbeHyOi456A7LeNDCokhk3buyE/Ka8o5joT2gZADRu+nmPKlFtnZpJkI5vo/LaMvZ2gpNfAYua6pjo8viTg/WEbnZ2h/Ki8o5wodwday3HbxstKMD9nGfyaj72RoyXzNggrajnXk9PKx8hcyOj9D+3Hp/DoVQEbbl8roSxpDoq8PkFeXBFLNnb0lwX1jBYtFsuyXBmCukPlyzJVCf5AETH9WfkryNkYgevTfZslqKDMNVIee6mUDWUlIG0JbMnd4JhCc/A45ZTJIFil4UUll3EmOGaAbyVzhcySBqHMaCuUBw1QFeWyi4x5TOqhzr9T9aBkde5bEg1EE70bytHJHnEDSGX+mJKYr+l19JODQTAv30Mtl9P2MKW0KbcucOrG0/eT7eq78lYyOeyyZQifI11QKQ58/lNGXN7ZUyXyhJEK7tfpG3HQE1fLwrCWZGdHut5Vz56yShiY6B6Xydk3agL5vXEzHUX6hNKCTh5Spg9tL7q3oexpb2hrSTBC829pLH208cVq8DDB1HR3f2PJy4EDoBjiZfKuMvsSppFFgGSCNNVHbNU4jEZzFaNUb5FRzrjuSgOt1GEqG18voHJRIDAMpurMeBOeSH5XR39qVNKTrGtNQK+eTTAlG39dUEjPIvUDcHB352qANpy1/qPyQrKXjtynt+EmkaQgCvv4koy90anmTJoCYYfdbSMqAjzXlwTK7s0jy3fBWw5LaX8toP6eW1UjPl+vykKNxzp73ZtnpEMF3dIDIgtqlJsrvJSN4pj6YCmRkeOwVgKtKG0VbRZtF20UbNlbuLFaKMmJBW00sDm33UKOhpRKfdms5S1obfusDowcMZzNtVDs0Ft+XvPEwxbUpox6kyd6UJYtkBd4O3yc9axofHlLI6ipiFgi8I3D1TPLssoWALIZYbyc/sPHTevAyyTFnwUqFR0gas6EgiRhvxGfc+GnHMMJC9k1WkJh6YTqbuLFTb/xUN3SYWTbMtUVb+QNJMVbiSDbbS15cNxcNbIdihLSXJ5WbbSYp9GkvWRVKm8kzhJ9byM9FZ4ql1CRENQ1Db/y+stZRlxK5Gee4LPZ1cojRgZphWjOzkuuYCfcYCSN5WTTFwL89WDqvUTtw73EPbv8uW5e2cspVj0PJ6Aqjnk58OjN4EzxQRl+6rUMecFeW68jdZHRO+vh4ORWM7LFyAne2MsnUz1VkbbEu9si+W845/YMRBCQyhBhdAHYamR9+pGxtlVUmn5PRuenq+6XfuEwW3JPEkdQaw7GuMhVGygKzJjCcTTbb2iK+11ES81GSYZ3h+KNz01Xyr5xcGpMNga8EdUfXnR1PYhqJU5t7riqzA0hoxNKwWiPm5yyZV0lVbxZLzaNz1FV+jzFDcik5VemUdZbcSPvLdS0bY7ZB3ok3SXdehpdo/xvKdVi9tip0nKNz1UVWDBxDGjMGV5CHyOhatHnyTKIYLbl0jDkKF5LkAoguHlvmV+TN5Fi5FVqCRFrROevinaUxY0InmXuaezu6Jm1/6awwHUcOL2N2yXkl6ZgdfFauy9LvHPJhROeti1ynzn5ppoSRF+716Pq0q0vag1fLc0tjOsP84VPkHNf2Dyk3HlMezH+bnXM5GZ3DLlK2wpga4J7n3s/MObQOkgjvibKFpH6mAVj2RxwG9YMc97JjKRLJjef8HKvDtE50Lrt4V2lMTZBZloSD35PRNWsXflESQO/ki2YwzimfJp3r5cg+Qzo/SHeeLKPz2UXX8zG1QpvAaHV03a6r5Fh5kqREgDGjwc3Ikl0KaNVSinxKKZVgukPsVHQ+V5WRP+qnGFMr95TRtbtOUg+Je51nhuP7euK34jJ4WBB4di9J7MtlJVMjm5H0xqxCaYeDeCvqahlj6oFnAMVBKalBR4Xpsv3kZrCyMVVBMBXVeokCX5c5XY+09KM0yyhDzcbUzLqMtHxbvlJSaZlOijHNQieGQF7iPj4qiRSPLvqpzAgudqelHxQ8i87nqn5fGlMzGZ0WMsJG/z6VTPf8ryS+8brSnZQR8LzatLDC5jxLqT1DSQEqUZ9BHktmw01PEjPezPEbWyRJ1MGyhPvJpy82TQdeL2+y2OwF9YZ2X2waUyV0Woj9K4HcWbRhLITYlLYSTyWHSFrJsu3DJS8GfDJqThbgr8qfSTMy7rTUCbFG3IR7SB5Gm55MbhbJOrHcHpNEIa1/yL/JIySjOZsSKIz/lBE0AIcuNnvjTks/XizvuNjsBaNkFADlezemRjI6LbRRlACJ4KXrNJJ2c7elJ11+0mbyrNuefJEOCQVz4fdLfy0ZQeFFgG06JoyqGGMqgwZh+/BnVz091I+nyuh8dpHROmNqJWN66BzSrDlePWTM9GQE0lIzy5g5Q8fFrDnutBgzPd9afpaw7/LTmLnicAbjTosxFZDRaaEg5Wa8kzFzxCMtxp0WYyrgR5IEcSWcSF5nsWnMLPFIi3GnxZgKYPXPxxebRVCczg27mSseaTHutBhTCR9efpawt7zeYtOY2eEOuXGnxZhKyOi0ABmXXTzRGDNL3Gkxpg7IsPm1xWYRFO4kWZ0xc8PTQ8adFmMq4rXLz1JuKu+62JwE0qlTh+WUkkylxmTg6SHjTosxFbG/JCg3g2dLCnSOBQ8U/t77JenQqXFFCnRWRb1XXl/6oWOMMSYFp/Gvg7fJ6Nz2kTpTt5NDQ8G6T8poH7b6Ccn0lVk/nMbfpOCRFmPq4nHLzwyYmnmZZNTl2PzDAFxdHiQvsfHTzrmk/JSkkrkxxnTGw7VmE1d5rof3yassNtMg0PduktGODKg6/mR5G9m1HaGTc1G5o4rjrcP5YPTpbPLsck/Jii6qDFONmynAP8k/SqqxHy6/LalgzJTaHBm6yrMxZs3w9FA97CP/JaNzXCIPywPkhWVfCK59tCRuJfobq3oXOSfOK+8t3ynpiETHvIrEAr1e3lGeSc4FTw8ZY1Jxp6Uuniejc5zlIfIhkurQrPbZGVwbPHTeJf8uo9/XVUZ+Wof4HM7hN2R0jBl+RrISbDfZMu60GGNScaelLphK4K07Os/Z/kUeLN8hWcFEHMybJFNJv5DR/yfDU8kWoaP3dvlvGR3XEP5NvkSeRbaIOy3GmFTcaamP60qmdKJzPQcvJVuCabUPyOhYxpJpQzqWZ5Yt4U6LScGrh4ypF97mn7PYnCWtlBtgauaFkqmaK/EPE8JU3s0l2ZMfIY8jjVkb3Gkxpm4eKL+42JwdLaxevIFkxcp+sqb2ks4KAdHEBl2cfzBmHXCnxZi6IfD12vL7Gz+ZsSCvDUt03yz34B8qhRiXj8lHybm350wRmTXHnRZj6uen8sryVxs/maE5rfy0JA6jBUgi+EhJIPWcK3w7r5hxp8WYRiD52FXlbzZ+MkNBsCclCS6w8VNbXEN+RNY8MmRMEe60GNMOX5KsuPnRxk8mG5Yys8ybbLatckFJp6vlYzBmh7jTYkxbkMiMOj+sHjF5nEtSoZryBK1D+YAPyZNv/GTMjHCnxZj2YKSFnCEkGzPlEMPyXtl61tmtEKD7QUmSwrngQFzjTosxjfJXeSd5O/ln/sH0gsDVA+XpN36aF9RDeoOcSzvvQFzjTosxjfMKyXTAazZ+Ml15viQb9Fxh1dlDF5vN45EW406LMTOAJdG3kleXh/IPZiXuIG+52Jw15HC5zGKzaTzSYtxpMWZGEJdxHkkW1y/zD2aH7ClJHjcW1JA6Qn5P/mC5PRak/mck7vgbPxnTMO60GDMveDi+Ve4j95WvlH+U5sjQYTneYnMQficpbEjMEbEl/C0CfSl0SIeJ7RNKlijfQx4gqeQ8FKeT1CoyxphZ4CrP84UH5k3ky+ThMvruukjgL0uvo/+ti1eTU3BNGe1PhtSJ4lz3KWTISp+7yMNk9LtL/YfcS06BqzwbY1Jxp2V9OKNkCulh8tWSlPV0QlhKzbQFb/y/lcTKHCTfJRmZYLXSReQxJR2O6Bro4hSdFqZKKIAY7U+J1Ia6jsyAtPx0XvgOor9V4jvlFLjTYoxJxZ0W04VWOy03ktG+lMgI1hDxIqeU5FqJ/mZfmT48nxwbd1pMCo5pMcasC6w+yVz++2/J6NPt5RC5cn4uWbL8lI2fcsg+B8aMijstxph1gcDkvRebxfxLMmozdFZiRkYeKB+88VMO15euTWSaxJ0WY8y6cOvlZylMVTC68raNn8bhSfKJi81iaPdvsdg0pi3caTHGrAPEnFx3sVnM0yUBzGPDtE5WIC0duNaStdFZNGuOOy3GmHWAlT3UGSqFpH0PWWyODg9tsvj+auOnMs4qL7DYbAZnxDXutBhj1oIrLT9LIL7kbvKfGz9NAx2WrPiWjHMyJh5pMe60GGPWgozaO2Qa/sxic1Iokvm1xWYRl1t+GtMM7rQYY+YOqfMzVstkBcKWwogDgbmlXEIee7HZBJ4eMu60GGNmD3WYSvmSJDtwLbxFUt+oBMo7tJSwzdNDxp0WY8zsOfvys4Q3LD9rgVILFFkspaVOi0dajDstxpjZk/FgJp1+bXxo+VlCRoduLDzSYtxpMcbMHmJaSviT/Opisyo+tfws4SzLzxbwSItxp8UYM3tOuvzsy7cky51r44fyL4vN3pxk+dkCHmkx7rQYY2ZPaVI5Ogc1QkfqR4vN3pxo+dkCHmkx7rQYY2bPCZefffnD8rNGSvet9NyMiUdajDstxpjZc8zl5xz5x/KzL8dafraAR1qMOy3GmNnD8uASTr78rJHSqa/Sc2PMqLjTYoyZO6XBqjV3Wk61/OxL6bkxZlTcaTHGzJ1fLj/7curlZ22w8qe0Q/WL5acxTeBOizFm7vxk+dkXRjNqzGeSUQTyx8vPFnAgrnGnxRgze763/CzhSsvPmrji8rOEw5efxjSBOy3GmLnz9eVnCXPttGScm7Hw6iHjTosxZvYcsvws4Spyj8VmFVxOnm2x2RumWzLOjTGj4U6LMWbufEmWrpI5trzLYrMKHrz8LOGb8teLTWPawMNtZpNzykMXm715oXzrYrNa/i1/IDPiHIbgNJICf7Un/bqwfNxiszcPk59fbA7Os+Rei83e/F6eSf5246fp2Ed+cbFZBJWrn7zYHJzryLstNntDG0VHyxhjNhoEhovXRerJPELWkMacDsrdJZ3GaF9tPb5ETgmj45+Q0b7N3XNIY4zZYN06LZsy6sKowVTw5v5lGe2brU+KFBLfMhX3kdF+rYPutBhj/h/r2mlBis5dSI7N6SV5MqJ9svVKHAjf3dhcTFJrKNqnddCdFuNAXGMEU0Rvlsff+GkciCd7nSSGxbTFyeT+csyYQK7R18s5F380Zpe402LMgjPIey02R+F68hKLTdMgl5IEl44F1ybXqDFrjTstxvyH2y8/x+AOy0/TLmN+h75ejBHutBjzHwiKHSNW4eiSN3XTNpeWY7She0qPshgj3Gkx5siM0Wkhs+qY8TNmGE4gd1tsDoo7LMYscafFmPFhJYQxphu+b4w7LcZsg7wtQ8OS2T8vNk3D/FGOkR13jGvSmCZwp8WY/3CY/NFic1AoJUBWU9M2fIckmxua78vDF5vGrDfutBjzH166/ByDMf+WGYaXLT/HwNeLMcZsYZ0z4iJvsmMnl1vXGjJz8GNyzORyBP0y4hLty7p4dmnWHI+0GLNIjX5TOWacCY3wzeVvNn4yLUGxTb47vsOx+JO8oSSOxpi1xZ0WY452tPvLzy42R4WH3y3lmA8/U8aXJPlZqBk1Nl+Ql5dcN8YYs9as6/TQR+WYw/wRL5HRvtl6PETuJ2uo/cNU0cPluk0XeXrITN5Ym3qg03LoYrM3z5MHLDYH50HyCovN3tAQXkAevPHTdOwueQCVxtTw/Y1VP+nC8nGLzd48TH5+sVktf5fflT/b+Kk+zihJiFh7IcXryzsvNntDledvLTaNMetOxkjLPeVYfFNG+9DF98haeKaM9rGLxOQcS47B1WS0D13kd5j14L4yuga66JEW45gW0yQnl2dbbBbx5OVnDTxN/nOx2ZvjyfMvNo0xZn6402Ja5LyydGqTkRqWrdYCSe3et9gsYu/lpzHGzA53WkyLnGv5WcKBy8+a+ODys4S9lp/GGDM73GkxLXLm5WcJGR2EbDL2KePcGGNMlbjTYlrkVMvPEmqs/cPKiNJVKqdZfhpjzOxwp8W0yCmWn30hu+jvF5vV8Z3lZ19Kz40xxlSLOy2mRY67/OzLL5efNVI60sIKImOMmSXutJgWOc7ysy+/Wn7WSGn9o9JzY4wx1eJOi2mR0nwmNVOa2ZTij8YYM0vcaTEtUlrp9kTLzxop3TdXATbGzBZ3WkyLlD6YqdVSa92tPZefffnD8tMYY2aHOy2mRY5YfvaFwoSnW2xWxdHlWRebvSk9N8YYUy3utJgWOWz5WcLFl581Qd2g0tU/VCQ2xphZ4k6LaZGM8vRXXH7WxBWWnyV8e/lpjDGzw50W0yIZnZbry9J8L9ncdPlZAoUgjTFmlrjTYlrkUPnXxWZvTiyvt9isggtJqleX8qXlpzHGzA53WkyL/E1+ZrFZxENlLffAw5afJXxPfn+xaYwx88OdFtMqH1l+lrCXvMVic1IuIa+12Cziw8tPY4yZJe60mFY5cPlZylPk7ovNSTi2fIHMyBvzweWnMcbMEndaTKt8XmYE5J5cvlpOdS/QaTrPYrMIksq9e7FpjDHzxJ0W0zKvXX6WclX5uMXmqNxO3mOxWcxb5V8Wm8YYM0/caTEt8xr5fxabxTxYPmixOQo3kC9abKbAaJExxswad1pMy7BS5m2LzRSeKJmuGfq+uJt8gzzGxk/lsMz5o4tNY4yZL+60mNZ5vPy/i80U7i8J8j3lxk+5nFAyIvJcSZ2hLKaY2jLGmNFxp8W0zpflexebaVxefkPeXR6TfyiElUE3kiTFuyX/kMjX5AGLzSY5lryY3E8+RxJMfLD8ufytJCfP7+SPJYHXn5b7y4dLzumZpTHGmDXjnJIRixLvKafgXPIfMtqnUg+XTOecVHaFMgE3l1+R0e/O8MpyCq4mo/3pIh3DP2/7tz7+QL5S3kxSwdvUx31l9N118ezSGGM2aLnTAk+W0T5lyRv/OyXHeEF5IrkdOil7yzvI18vfy+h3ZflmORUZnZYh/KN8ldxXZuS+MTm402KMSaX1TssJ5A9ltF9DeYTkLZ/RGKYyWMkU/XdDyMP5tHIqau20bJWpQ1ZpeRp8etxpMSn4ZjZz4U/yVvLfGz+Nw0nk6eWekumjMd/smbIizsPsmPNJRqOI+7k6/2CMaRt3WsycYNnv/yw2Z83LpfOyrA6jiAT4vkvSwTTGNIo7LWZuPFZ+YLE5Sw6RWVl0141rSEZdbrvxkzGmOdxpMXODuJIbShKuzQ2mg64pna6/P6wu2hypIg7KGNMQ7rSYOUKQKoGi3934aR78Wl5REmxsyiFfzmfl6TZ+MsY0gTstZq78Ul5Bfnvjp7bhWMjH8s2Nn0wW5Pf5lNxr4ydjTPW402LmDMuRLym/uPFTm3xPXkIetPGTyYaRlo/LfTZ+MsZUjTstZu78Sl5OsnqkNT4n6bDMaZqrRk4m3yfPtvGTMaZa3Gkx6wA5XK4l7y1J9187JNJ6try0pAaPGZ495IekY1yMqRh3Wsy6QEfgWZJRl+/wD5VCJ+U68l6yhQ7WnKDD8lZJEUdjTIW402LWDaoEn0c+Uv6Vf6gEMvkyunIOSY0jMw0Xkk9ZbBpjasOdFrOO/F2SOffccn/5LzkVjAARb0MRRkZXKLLYAky5zRWS9113sWmMqQl3Wsw6w8oc8nUwuvFSSWdmLBhZeYu8gCRh3MGyJYYMDmaKjGKHBMe+RtKxPEByjsZIrEcNqRdIaksZY4ypkNarPGdA0cM7S3J3RMeXIWn4HyBPLVvn6zI6xq7+Tb5DUgRyVyt4ji5ZnvxASScm+n1ZPleaHFzl2RiTijstR4bCereXr5U/ldHxruJv5Nvk3SXneE7cVUbHvKpHyIdLVu70hRgUzi/lG6K/USLThoyEmXLcaTEpjFlK39QND9RDF5u9ISaDYNI5cgrJNBIN5xnk7pLaNcjbP6UD/iCJSfm+JBPvt+SP5Fw5piSXzPk3flodHkAvkQ+WdFwyuLhkSue8Gz/l8V559cWmKYBOy9MWm73h/uOeMsYYj7SYXpxR0jGLrodIaihRkmAIWKrMsvbMURd+l0dbyvFIi0nBgbjGmBIOl4xyfHLjp51Dunw6AB/Y+Ckf8tow2ncHmbUijNHohy02jTHG1IJHWkwJPNyvL5lOYaps85pgyowl3STMG3M6+gaSjsvW67Ov/J7TSNMfj7QYY1Jxp8VkwQguwbXE/RDvMxWlgcJbZbWS6Y87LSYFTw8ZY7IhDoRClcSvkI9mKp4vX73YLObWy09jzIS402KMmTMsNf/xYrOIvZYaYybEnRZjzJwhvuZ+i81iLr/8NMZMhDstxpi582Z50GKzCCqEG2MmxJ0WY8zcIYjz6YvNIi4rnZDTmAlxp8UYsw6Q6r+0gja1qbz02ZgJcafFGLMO/FVSNboUUskbYybCnRZjzLrw4eVnCbuqQm2MGRB3Wowx68Lnl58lUGvJGDMRDiqrEzqTp5JkFD2Z3Mwuypw6VYXhePLYi83/x+8kQYcMhVM997db/OnSHdVkcZVnM3eOK/8kS17WXiz3W2yaDgxd5ZlimcQb0W7utk3+N9pK2sytkARxM86JNvM3S0mKSHJE/JnkvzOV4E7LtJxWUkr/PPJMkre4PeUZJDdaNmQn/bn8vvyhpJPyjeXnMeVXZAnutJjaoQNP578vr5c3W2yaDmR0WmgreSnjBYtEf3zSVp5e0lkZ4nlGEU7aStpMPEx+VR4iqW5uzGw5taSI2zPkRyQ9+s2aGjWYUVzOtYdM7fDgia7dVaX4o+lORu0hXrqif59KOsAflc+UN5S08cY0Cxfw7eVr5PdkdNHPTXdaTO3w1hxdu6v6Tmm6k9FpacHDJW0+bb+Xx5uqoZrtpeUT5MGSedDoop6z7rSY2tmM++rr/tJ0Z106LdvlWfBEybNhyornxmxAQN8l5bMkQa7RRbtOutNiauZEsvRlgsrRpjvr2mnZKgG+VB2/pjyGND3wkud+EARGWnACsT4heVgTCLbunE76mjK1cnZZGqxZmlV3HWGEgbZh3WEl6C0lU4w/kDxDXDncDMZxJMFWH5TrOPWzqj+WDIe6kTK1weq26Jrt4h2kWY1TygdJ4jyic2kXflHeSR5fGlMMy5KfLMl7El1wNpalgm+SzOUaUwO84UbXahd9Pe8aqmG/RdIGROfQxhJv9RTpFz7Ti70l84++8cr9kryV9NSRmQpys/xNRtdnF08uzVFh2o1Yjc/I6LzZ1WVp97vkRaQxu+TCksJq0cVkyyQp0y2kg9DM2NxNRtdkFwm2N0eGpJS3liSojM6ZLZNn0YWkMUfh3JLpDMerDC+puIkPckZmMwY8WDNyJZF/wyzg3uUe/raMzpXNlVjKfaQxG2nz3yjdWRlfhpIdI2CG5u4yuv66ejtpjna0feUXZHSO7HDyjOJZxTPLrCEUHnycpFBWdIHY8WT+9qzSmGxIRZARRM8Dgxo36wwFC98vo/Njx5Nn1mOlVxutCQxrslb+JzK6IOw0ciM+WrK03JgMCPz+kIyut65+Uq4rVEfmBe/vMjo3dhpJL0GMoJkxVFJmbjC6AGwdfldeRZp2IU0AmaIvIaesv8Ly0ega6+N+ch1hRZDzrNTtB+QZpZkRZGQkjfSfZfSlt+wfgn+bg6+Tu0nTBryNk0jsO3L7d8m/8b+NOZz9QLl9P/rKKCBLpteJPSS5VqLz0bJM8/1x27/NwT/J+8jZ1zdah9UbZ5NE/bOUuXb+KVnlQPn8TSkV8Jul1K4gARHDtH+R22GVBLE6PBxIGY00PmSmpCdOABeeWfLf1Q5LTMlAyrI/Uy8XlG+WuwoQ5Nq+mfzcxk/DQJtG0VI6SVm8WK7TSMu1JcfcQk4aOiCHyc32klGhn8tfyc12k7aShzrt63bobB9b0indXW62myR422wvkVH6FlI1fF4S/sCqLtMgd5RcrFHPdGq5kT4mGcIm8dr55LHkGDDXT8flevJRkkyh3OTRfk4tb0Yvki10stYRckh0Ge3jwfFIOcQDgIfOe2X0d/vK/vLAWgdOLF8po/NQg7+QB8hHyOtIvpexXrzp2FxA3kY+TVJzrtZFHDzzXG6iMWi83i6jL3QqmZp6t2QI76KSUZGa4OZndQDLOskETAMRHcdUEutyfmnq4YSSt9vo+9qVLHcn63QGdMJvK38po79V4qvkOsBIdN/vcih/Jl8h6SgwYl4bvGReXN5fsqqKF9HoOKbyrZJRI1M5pD5mSiX6EseWRuAZ8kqytVUxPAgY9n+4rCUnA282foOoh/+W0fe0qoyiMTLSN1cP9xSrJ74mo99fKi8au5rymgNkC65hZRDXA53Zh0heUFoLX2Cq6aryObKWZ9APZQuhEWsL884Z9UVK5GKlo8JoypxihhiKpTH5soyOe0x5+zquNNNCef3o++njN+Sz5DUkIzg7glwpxMW8XA5dxPRhcs4w5UrAe3TsY8pL0QPkGeRc4KWPFXTPlsTmRcc9ljwTCZUwFcEb18tk9IWNIUUVGYpjqS4X69xhWP+5csrK1wfLOTVyrUEnNvpesmRqgEKbxH0RuPt1OWZ82jclcQxzhZg2zml07GNIgCwvd+eSc4cVPSwdJ3bwXzI6H2P4Uuk8WBXA6phPy+hLGlp60LyNsTpnHWG0g/nmqUZfeLB56HMaLiej72QO8hIy5wq7jABMFXjPqMrN5bo+PMlbxOKHqWIGPyWJ+TQTcRZJ8b3oyxlSlpPdS3qK4j/QEJKOn3np6JwNJXEuN5VmXK4mo+9jDpLTaa5Q5HDsgFHaBJJ6MtpgFjCKx6rRKUa7WCLOogszMgTvMcQYfSlDyZQEOQzmFKuSDUu3GQaNzt9Q0ihm5uUwu2aunRaW1M71/map+ZgvFfwt8veswxRQXwgnoCN5qIzO4VCS84sXTTMSdBzGDLjlgrqRXId4lSyYtiG9dHQ+h/Kp0h3KcZhjp4XYmTkWoeOeIAYtOuah5MWFFxizGsS9sBIuyig9lIxSe/RrBG4smXOOvoRsGclhGqiFTIi1cnl5iIzO7xCSiM6dy+GZW6eFh0ULGWC7wsNwzEUKB8nLSNMP8nfdSY4Vc0RgMNNUZiBuL8eIvqZT9Ey5bvVGhoJO393lWNN5+0t3NIdlTp0W4uJYSj03SH72Jhkdc7YElpJDyS8MObDA5IVyjOcdf4OkoiaZu8gx5mO/KLMydZojw5vs62V03rNlCbo7LsMxl04Lq1l4QMwNOiwExkfHnCltMjlz/II3DEyzjzFSzffIM9YkwbLaf8voZGdJ9kvSMftBNzwkECNTY/Q9ZMqIi9/8hmEOnZb3yDnWtGJKaIwRFlahXEGaYWHKiOzTQ8dx8oy9tTSFEAA79BAZb1s11raYMxRno1MRfR+ZMsTq4Nx8Wu60UATxoXKOHVqudTJGR8edKVWg5xi0XDPnlkOPuvCsZTWT6Qlv5EMG3dKzpIx9bcUL1wlSsv9ORt9PlqwqMrm02mmhHtil5FwZepUQS2WvK800kJSPeMshQyWoQ3V1aTrCXB5TNtFJzfDn8rLSTA9F6T4vo+8pS+dxyaW1TgsN8eMlRe3mCplWo2PP8uPy1NJMD4UZ6UBG31OGPHsvJM2KnFHSqYhOZoak/SedsqkHMkS+REbfV4aMql1fmhxa6bTwRkrCuLlnACU1/pBv3xSz9Ih0XfCyxxLz6PvKkDIp61DlvBii0IfMDvgCSWR9q/BwP5mkYB2rnBiR2kdSAI0aSK0HFrJscqiAM94eXKsoh9o7LXRS3yDPK+cOmU2HvGfoELUMbSJtI20kbSVtAG0nbShtacuFMSkl80oZfXcZUmbgJNLsAFbufFhGJ69UAoxIFNcS55T7Scqbk132cLnKKioSE31CUtWTku+XkC29JQ1ZooG3B1eHLqfWTss3JEG2c8y7EsGDeKhEZOReaalwJG0cHbgHShLqfVKucm5oU78n3y8ZUSK529llSzxEDjXS9iHpVbU74GkyOmml8rZA6v/a4Y3glpJVNVSQjo6lr3+U75X3k6eTtUOjwZLK6FhKpYaUi12WkdFp+V/JqGpJY8u9faB8sOQtep2gvRhqVJrOH9P0tUPnlBczOhx/ktGx9PUn8jWSkaYWVkrdRA414vZkabbBCY9OVqkEK9UcUMSyS3IdvFpm33Q7kjcLes+kb655OomkXyT7i46hVBJimf5kdFr4HcAQ/b6SrMnPkG+UH5F8919ZfvIz9Wx4iJCzglQI1LZpeaq3lKESNX5K1pws7oSS3F2Myq8y8pwhL31Mw3Cd1rxUnpVxQ6zG5MXiBtIsOY8c4oFNMG+tc9pc+FNU99zu7+UT5W6yRsjnwjBvtO+lUhbC9COz02K6cw8ZndNSPyrpFNQInVtWSI1d3X+7X5O88NU6ZXIBOcSUIR03V+wWDLt9U0YnqUQyrtaYMI5slXeUzKFG+z2Vf5B0XmoMuuIaYWQo2u8S/yJdibYf7rRMB3EmLOGOzmmJ75bkAakNXqjItcRDM9rvqfyuvK2sceSFRHTE70X7XSKBuXNOG7ASZFaMTk6JP5ZEhtcG01Rk3432uRYZnSKuprYssjSmQ3RcqO7b+oqrKXCnZRp4qfiBjM5niXRYaptqow1iGuiXMtrnWvysZHSjNogLHCJ1yPPl2nIdGZ2UEvmSaov85qHIFz3W/GuGDBPXNlLFiMsQU0Wk+jfdcKdlGl4lo3NZIi8DtY2wkFeHFZDR/tYoq1NZ5VlbwC7hEdnTacS3XFOuHaeQ2b3AI2RtPd695FdltL+1y3BsbTkaTiSHGK3yA7Qb7rSMDysgo/NYIok2axtpZKS3tqmgVWXVVW1xlOeXPBuj/e0ro1+nkmtFdtn0v0rykdQE6/2Jm4j2tyWZwqtpifDJZfZyaJY31hqMXCPutIwL1zx5U6Lz2FcWAdS0SohYCVb1RfvakizDJ9alJq4os+v4kWl6bbipjE5CXxmuurGsBQKzSFIU7Wur8kZW00Od4ePsYc/XSbMa7rSMy9tkdA77yih3TXlYdpdD1x8bW4KHa4oNvJ2M9rPEtagIzbK17DcGEkvVAsFsr5XRfrYukeM1Jaa7jMxOpnQVaXaNOy3jkT0tVFs5CzJUD7GCtAaJQaopG/ljZbSffWWFUs05fVLIDiQje2wtEMz2Phnt51xkKflZZS2wfDzaz76ymqjGZZ+14U7LODBl8n0Znb++MtJdCyyaYLVntJ9zkZVZtdQ3YuTn7TLaz75SMmG2XFZGB91XsmXWsmac/CvZQ7i1So6ZmoKwsqtDk8DK7Bx3WsbhCTI6d30l43AtnFYOsXy7RsnyXEs+FxYzfEtG+9lHwjNqiydNgS8sMyX7byXFwmqA3usQ+WZqlhVRtQwL8haTOR/OlFNrBdPGxp2W4SHlQOb0J+n5a8nFQqZraoBF+zlXXyBrgfaNbOjRfvbxIFljkr0iWEkTHWxfrytrgVoo0T7OXerB1JLKek+ZWXODOjdmx7jTMjwUgozOWx9J617L6CgxHkOV5qjdB8laYGl5tI99rW3FVBEMR2WmFGZUoxaY8iKxULSf6+DjZC3cQkb72NfLSRPjTsuwXElG56yvNRW7G6qafwvyrKDoYi2wYjLazz6ywIYRtEEZazkW87JZK3y+LUkgRwT81JxSfnn5OQYk9CGOh0h7AmKpF4QkhyITI/vBkDJ1J8bKZst85tUlpeFrgJVbN1tsFvMZyVwtN6Q5MnQ43rPY7A3XzXsXm2YLtMskUNxn46dyeMnbb7E5OWRSfYcc69nD84ICh3yyzJvnBsV5eZFGVi4xVbK3JBfOGJATioRvjH5NDWUhmKbjPGTA6iRmHpqGCyGrgjO91FqW6nHTfVBG+5kpc4X3k3REutzoDAUz/EcSv3/K6HdnSWeKDMc1QE8/czVCTdOQNeGRluG4iYzOVx8p6ldLavlTy6ErNJNAjaldRl27TIfRtp5H3l/yIhr97kxLO/yZMFvAy2e0n13lJZqcO03zdBkdXB8ZVqyF7PnArdI5Y8QgqwIxHcdHS4KXo7+X4WtkLVxLRvvYR9Jy11qCfkrcaRkG4j3oaETnq6s8iGqaimAFTbSfGdK20cZljZbQ9jJ1MuTUf00JUTMXkjxZNgs966w09qRtr+WNgSG1IapnInlehpraYTiUCyo7nTPSQNJjr4U3yWg/+5g13TQn3GkZBoIZo3PVx5fKWiCNfLSPpdKWPUmeUA4BU0dMfUd/u1SmiWiTa4Bn2k9ltJ9dZQpurJCJdKh6GR1UH7noa+F5MtrHEiloNVbPm6mmIYZAyZhbS/ZHbpqsImHEEY01B98K7rTkw5JRRvaic9XVmjKVkpIgMy/IprRh55JjwJRddtFBrClvzvVltI99ZIalOUjXnxXLQtK2WqBeR3aMCEF3Y9cBIevri2S0PyVS36IW7i2jfezjNaT5D+605JP50KjpPryzjPaxxBfKsTNX00ZnV5j/u6ypNMqHZLSfXaVKd3Pp/bNyl/Cl1pQ2ngRB0X72lYtkqKHNVbiX/LeM9q2PzMfXEgPCfrByINrPrrKSyPwHd1ryyXog1pToi3uQDNrRfvaRaegpM1aTgZ0g2mjf+kpx3VrYS2a9lNdUE3CXMByYlZflibIWiNH5q4z2s4/UgKhhOiX7TaimGJCrymgf+3gpaRa405LLFWR0jrrKQ72m6/RWMtrPvt5FTg1tdmbJFuI+a1l9CVnhD8Ts1JKBeZdklcBmedzgyWo6QAcq2s8+flTWVJgvM6svc801kTXk+QZpFrjTkkvWQ5AXoZqg3Ee0n32sKf8HbffHZLSffXyMrIU9JNM70X529TayCb4kowPoak3DSwy3/khG+9lVfk+Na9lZZh3tbx9J1lQLF5fRPnaVqcqa3oimxJ2WPMgnkrGij1GWmu67C8loP/vIasDaIGYjqwI3hSNrqt1DpvNoP7tKTbjqIYtjtPNdJSVwLUucISutNvOFPERrhOV3WTkiasqpA1nz0A+Rxp2WTB4ho/PT1dpGArNWj9Im1bI0eDtkzM6KAampbAgdsqxabjV1pEOI6o52vKv3lTWxv4z2s6u1LwXLmltnzf/RZS1cUEb72dXD5eyqmfbAnZYcuEcyRnAJpj+nrAXiPsiUHe1rVy8va4Zly9F+d/XlsiYeKaP97OpzZRrZuScYGeFhVdorZj386SVLpmuACHgyLpau8uHcnEMyX1gzvLFl5Iy5tPzEYrMKiG3JaACppcWw8DpDrp97LDZ78xzJ6q515szygYvNIg6QNZWc4D7jfivl9bL25I4876gHV1pFm+ce8SR0QGuAtCVMW5XOeDBis7mIpTpuLaOeVldrWjEEF5XRfna1tJEfCzLyZqSvpqdeE1eR0X5a27qXlDVB4bxoP7tIG1RTuoudQeqI6Bi6mlUkMwtGSaL97OrNZZWQgj7a4S4S7HgaWRMPldG+dpEYnePKVuANJzqOLhJdXxOMLB4io321tlU/K2vj0zLa1y5S+6cVyN9CGx8dRxcfIGuCkcCMF1gK91YHQ0kZEfDEjtRGxpLZ1opIXUZGx9FFOqDczDVxexntq7WtelNZE0yjZzwLaINa4ikyOo4u8uJfGyyjj/a1izwLqG9UFXeU0c52lTiI2siojkzZ85ZgVCIjk+WFZU0wP/t7Ge2rta35a0kyz5pgRU20r10kZqy1el/UQYqOpYsEL9dGRtA9Ugy0mMxVEDdcfpZAUa2aAjeBUuelNRRYskeSpZbgInvnYrMIAo9rggqkTH0ZMwdeJXmLrQkqI5dCYDFtUEtQMPawxWZvCMTdbbFZDR+QP1xsFnGj5WcRWZ0Woqcvu9gs4iWytgs14wb88PKzNcjaWwpBvbVRU8l+Y0p42fKzJta5zfzI8rOE2tpMVjO9YrFZBCvKivPtZHVarihLa+hwYsjIWhsZNyBBaS3yyeVnCbWNtMAX5aGLTWOa5XOyxuvYbWYZNbaZr5alAwr0EfZdbPYnq9NCUbpSWGny88VmVZSuvYdvLD9bg/lyLOGUy8/aeOPy05hWqfUaLm0zfyVL252pIF9LKTW2mcQ38rJXCmknisjotBAsVbwjosbaEnCC5WcJ31l+tsi3l599qTX9dq3XmzGrwFvvWxab1VHaZq5zewm1tpkZneQqOi1kxizNq8I6cKqc1khpFlyKmJERsFWotF1C6fkbCt6IyNliTIswfUL6/xopvedZrdkqtPW0+SXU2ma+WZZOEZ1BFpWbyOi0ZKyl/4xkSLBGSnu9rFZpLQp+K6UlB2q9ASFjdZQxU1DztVvaZtZe5mRn0NaXlp+ptc1kBdFXFptFFKU1yei0ZFQsfv/ys0ZKcwWU9rqnpnT/s+KmhqDGRE7GrELNbWYpLb/kgdvMnUMen95knJyMmhfvXX7WSGmvPyMmZkpK35r+sPysEVZflE5/GTM2P5Y1530qHWkoLdA3Jbzklo6U1NxmNt9pOa083WKzN6wYyhhyGorSTgul52ueItkVpYn1ah7qZZl9RiVaY8aEZF81j0aUPnRL25wpoa2nzS+h5jaTUA4yipdwJtl7hVlpp+Viy88SPi7nfANCK5VKI86y/OxL7fPTtRV1NGZX1H7Nlt7zpW3OlGS09TW3mSyaychF07vvUNpp2Xv5WcKnlp+1kjF9kJFsaQpOLEtzLtSeb6H268+Y7cy9zaTNqXXZ767IaOtrbzMzEv+dd/nZmdIgUyLYr7nY7M0F5ZcWm1VC6uHSKYRny3stNpviyrI04O+psrZy61uh404jW1KBlGkmiqX9c+MnY2KOJalPU/Ky+DN56sVmtTxD3nux2RvangMXm03xHHn3xWZvKIlT82gaq39K94/K0ddbbI7L4ZKpnb4SsHUMWTPkoIn2vYutFUvc5EkyOp4u3l7WDsFl0b53sSj3gFkLMqoA15pQbiv7yWjfu/gE2SJfk9HxdPEUsmaOKynSGe37qvZOIFjS42fqgEQxJZDcizmymvmpLI1robE642KzKa6x/CyhhRIGBy0/S3CnxeyKvZafJWRcq0OTcc9ntD1jc2ZZ+h2TWO8Xi81q+assLVdAMG6vlbUlnRa+nNLppRYyktIrpPdcAufplovNZthHlt6A5CtooTBhxkiYOy1mV2R0WlpoM5kCo90sgUzrF1hsNsMtZOkzsfRZMxal1yF9j16FIUs6LRkjB62kUc8oN34bWftU2FbuuPwsgbfCFkoYZFyHNVZmNXWRcY200GYSI5aRxiKjDRoL2nba+FIynjVjkPGi16sPUdJp2XP5WUIrnZYPLj9L4Au66WKzeojjybgBW8mBQpGzvy02e5NxP5h5U3qN8AJQa72h7WTc+7RBGVX2x+DmMqMNyHjWjEHGs3v0kIkXy62BNX2ssQR3BFH/BA1Hx9BF5gH5XbXzPBntf1f3la3APHx0DKv6A2nMzviJjK6dVf2CbAVW/0TH0FVWXtbOsSUvPtH+d5Gkba2MxpNLJzqGLr5Ajgo9wmhHVvUvsnT+b0zeIaPj6OpDZM0wj0xwdLTvXeQG5GZuBUpJRMexqix3bmn6z4zLMSVL46NrZ1WpstsKx5MkSYuOo4u0ReeTNfMwGe17V98qW4GX79LnxOj1sxg1iHZkVVsI0NzK9WV0HF2l6nOt8Q9ciF+U0X53lZG4lsgYXTq9NCaCofDomuniU2RLvEJGx9FVRphqHaEmAJ8X8Gi/u3ot2RKMLkfHsaoEbHemJKZl9+VnX76//GyFd8mMTIW8gbxRsta9NmgUWTWUwSuXn62QcT22Mv9uxifj2mitzXz58rMUEpCSM6o2aMvfJDPacpY5t1Z1vvR67NWH6Ntp4f9XWtSKzI4t8Q+5/2KzGFIYc0OXdBqzubW8x2KzGEbhMlI9j0nG9bjb8tOY7WRcG621mdSo6Z1EbBtkFL/VYrMKaLtpw1manQHPltYyapPDrATuic4hIn0fmnRYSh+4GTV9xuZFknnpDG4iSXddA1eXL5FZMUajB1glkDGK5k6L2REZ10btNWm2wxRAVltA2/RSebWNn6aHtvvGi81ieKa0Np0Opc9wYgBJUjsKxGRsn5/q6gNli7xORsfTV3rrUwZwXleS4TDatz7S+65x6mtXXEhGx9PFrJEqMz/uI6NrposZyenG5jiydNXUVkkfn9VZ6MPRJR2xaN/6+mrZIo+W0fF0sXNF776jJRm9oxZHWuB/ZNZoC9xWUk9ktB7nEt5cHiT52zQsWVAzhE5Qa2Rcj6VTpma+lBTk3IQU761B/iOKpmZBQC4vjhRhHXv1Kd/h2+SdN37KgRU4j1lsNkfGyF/GfbESl5JRr6mLN5St8hoZHVOJh8mLyDE4uXy3jPajxB/LzA7QmJxMRsfUxVaLvJnhebKMrpkuEvjZIoy8MgIbHVOJLI7YQ44BbfP3ZLQfJba2YGErxEFGx9TFS8hO9B1pyci/QWBrq5BrpbSI4nYoIEXwKktvh3pj5/vmLYFAWeJYsrmfLM0sOxUMO5fSUl4aMy4ZS3YzrtEpYOT1/ovNVCiqSFtGVenSGMsdQVv8fEnbnJ3BlVxWD11sNklTbSbBUFGvqYtXlS1zdxkdV4ZHSKahePvPgMRWRN6XZn3dmYzctAwPlei4uvhcaUwED77omlnV2qvhrwJLeqNjy5C2jTYuKz6Q5bhM29AWR38vw8xppikgHjI6ri5eRY7CdWS0A11sKcV7BD17et/RsWXJqAVZMDnfJ5Rd4Oa9mHymJAdA9PuzJPPlHBKrlWYsbXEFgBkHVudF18yqkpSydajNk1EOZWf+XLKyh7avaweGNpYHMXF+tL3R78+S5eBDjQ6NBaP10bF18dqyE30DmW4gS1NKX1Z+bLHZLGRD/Lw8wcZPw8KbFpkhD5YMiZLYh4aMImrMdXPDkcDq7PJckrijrh2dvtxJ0ii3TmkqfjKA3m6xacyR4NooKULKi8GJFptNcxfJqNMYMIVP54DMq9+SxNXQaSKDLQsfaB/PIFkNe35JErsxVnLyXbJakX1qGepLlabipy8xSvkCekdRr6mLow0LDQyjIP9HRse4Dra6XG87TKFFx9fFFvPTmHEgx1N0zaxqa4nHdgZpHqJjXAd5VrS8CGUrGdND15Sd6Ds8lRFE22ok/HYOkE9fbK4djPoQBDcHMq7HloPLzbCUXhuMANRaf6crd5UHLTbXDlaRtVT4cmdktJmdg3n7dloyoobn0mmBB8sDF5trA0OtjDK1mJMlYpIb0KwNftH7D8SLMNpA/Mk6QSAyFaHnQkYS0c73hUdaciDehKGy1mN0VoWkQleSVPmcC+60mCFxm3lkyHlCG9JqktGufErSUctMTDo1x19+ltA5RUbfTkvG2/WcbkAguIvS4gTmzhkCf2lsepUVr5iM67HVHDVmeNxmHpWvSoI5yVcyZz4rSfExhxVgW8kYaRmt05KRTnpuNyCwGut/F5uzhU4ZEfhzI+N6bDHNuhkHt5kxrKRhVeSc4ZkwdsmBMcgYael8X/TttGQM6Y2VfnkMyD9AboAfSbLlzhlGWVhy/XZ5Sf5hJlDaoJR1Geo23cm4NjKu0Vq4jHyHJCncFfiHGUMcC8+Gp8k55LPaJOMZPmqbyfx9tIRpVUdZmz0wp5PPkkMnIqpZ8iBcTrbO3WR0fF2cw3kww3BFGV0zXZxDDqCLyw/J6PjWQWKbSBORXRJgCkozHBNSMSqlBbC+KFuFFM/PluvcWdkuF/DeslWeKKPj6mLLx2+G5QIyuma6+CjZKhw/Kyyj41pHiXEiW/luslW+JqNjW1VGn0blKzLakVX9lWwNEpDdSzIPFx3TussqqhfKFqf+Xi+jY+oiGYmNiTitjK6ZLpJVtzVOIcmWXVoiY64yPUIduzEy8WZDxuHomFZ19Fw9zEdGO9LFlgLLLi0PldFx2CNLkTESSLUUfMaSxOhYVpU3p74xYmb+HF2WTqm3FOTPvXBPycqg6FjskWXU4hKyFRghio6ji2+To0IsR7QjXaTmQ+3QsWLqwG8K3SXepYXvGH4so2NYVYKTjdkZ35XRtbOq35EtcGb5ERkdg92xpPin3MNYNeNKOJ+MjqGLBCZ3puTNkIJ9pZxl+VkrFHVkdOVB0m/R3eHNgSHAe8uaR13omJ5ysdmbw5efxuyI0muElSc1p/LnHr+/ZNSAttN0g/NH8dlDJAVva4aOaSm97oepOy1U1qwR5hcJeiPKnSqgpj8kIGI5OEF4tcZ8EEDL8H0J7rSYXVHaZtJhoYJ7jbAc+z3yKfI4/IPpDSk0GKlihJ84yhohsLqU0TstDHWWss/ysyYImPu4fKQsfZCZ/0AuBkZdalwWnHEdHrb8NGZHZFwjF1x+1gS5m8huS9ZXkwPPHkb4iWM6Nf9QGRmdFko5jAq9/tLAMuIIaoLpjJ/JaF9tjqww4masiVfKaF+7SMNtzM64hoyunS6yOq8mmM74p4z21eb4S0kyvppgn6J9XVXShfRaMVUaZ8Dc23kWm70hluAXi81J2U+Se6W2OWO+YHLi0CtlOI3aP6xU4ZMvngQ9DCGeQBLAxdDsSSQjRmeSTG/VOA9OgiXOeefaEwOQcR2fRvI9GbMjiEkpLTJKfqsLLTYnhWnfl8qbbfxUFyRw4zzTZvJivNlWUjKAEiR0sohj22wr2T6xpL3EGkc2GCAgAebLNn6alozr+MsyY7SmM/vL7T2orl5NTgkdtyfLaN/Gls4IS2+fKq8vzylL54cZZqTjwvTMw+W7JVWao78/tlTFPqmcEhrf0jfFFnMOmWkozfHEw3fql5CTydIUAVnSlr1LkiqfNo62rnRanzZ3L3kDyQoXjpXzHv39sX2cnHpRw3VltG9dZHR7Eh4oox3qIrEjU8HNn9HxKpEkfQT9XlSO1Rhx0bMU+c6SAFneTKJ9G0NWGlAOYSpIKx7tVxc/LI1ZBTrq0TXUxSljAQkSpV5QtF9jSFv1Acko7dnlWBxbXkw+WjIyG+3bWPLAnzJA9/Ey2q8u3k9OQkY9jU/IKeAN+/0y2qehZYiXDl8tS75JFHQrScLAKTowP5RnlVPwCBntUxd75Rswawmp26NrqIsPllPAi85PZLRPQ0qbdICkjZp6ZHYT2iti874ko30eWkbM6UhNAZX+o33q4r5yEk4kCayMdmpV+f+PXX+BL5svPdqfoWR48U2y9qyHxBhxM9KRiI5jKAmAZkh2bD4to/3pIsOlxqzCjWR0DXWR5bBjw6jG2B0W2gSW/U45ErsKjHyRFO7PMjqOoeSlm5fvMaHuXmmiVabjicGcDAJqoh3r4g3lWPAlf1BG+zGE3HgPkMwDtwTDjzSwGb3qVaVRHHPIl85yaacbqa9izCoQsB1dQ11k5IEXxrFghGXMVZWfkzwTas1RsiN4oPPC93MZHdcQ0nEZMy8OgdfRfnTxC3JSniejHesiUehjQIDWW2W0D9lSTIq3hBZSMu8KAtwOltFxZku0/1gJ/W4so33o4relMV0gyVx0LXXxOnIMWIXISpFoH7Il+zidlakDTUs5vqTzMlZh3XfKsQousuoz2ocukmx0UjJ6Xjyohr5Q+f1USY3+fqYsQSbCm6V0c4IOH3PKGQ3urvy6HGPK8OUy+vtdnCwK3jTLa2V0LXWR6YihYeRgjKBbUjncUs6tVArxNwSt8kyIjjtTKmmP8QzNGEUac2YlhDXtFHqKdq6LpFIfEkY9or+bKdNOGTUZaoa3CAJPM6ZVdibLDIcc9qSBzJijv7U0pgt3kNG11EVGP4Z8SJG7hGma6G9nSWwDaf/5W3OGBRdkto3OQab/I4eEbMzR3+0i8TCUfJicjKmDJ8ihoBcf/c0sj5Bkhhy6p1sTVPlkbjI6H1m+Rg4F5QSiv9lFOuu11lMy9cKUS8aL3iXlENCOvU5GfzNLnhk1JMkbE0YYyOkUnY8MuaaGTPbHy2r0d7tIjGQVZKzb/pEcYniQ/CckbYv+ZoYUCaui5zgBm4UlS6PJd+ZQKf8zpgpZ7mhMH8jPFF1TXRxqiogklNHfy5AR2v+WY8Vg1AZB+0Om2mAqaoj6VHxfGcHYQ48GrcylZbSDXSXgMxOW75JaPfpbpXLzcXPPbR62D9TdKa1FsSPpEF1ZZsIUF4HS0d/rIrFLxvQhY7qaEd7sKVTqIw31EkIbkd3GtwjPDPJDDXWeGQDYQ2ZCMczob3WVZJ5VQC+MGyjayS6+SmbBhUG21+jvlOqb76gw5J2R8ySS2lSZ0zC3kNHf6epQw/Nm/lAAL7qmukpagiy4h4cq8UGMGr/f/AeSsw71svdemRmu8HoZ/Z0u/kaWllhIhQ5HtKNdpKAVb8EZPFRGf6NUVrbUnuxoKsirkHEdRBLIljWqldGZZQTPo2ymLzTeGSsxqLuTAS+eH5fR3yh16rTzNUPxQZZ6R+et1PvLDCgmmbECitWaVXF1Ge1oV28jS7mIHKJcOm8LY2fvbQ169xR8jM5fqQ+RpdDhzFj5REVwY0rIyHFFojmmwUuhBlz0+0ulGO06LVDoA4lHPyOj81ci10ZGJWUWmUS/v6vZ0/zF0JNm+Cfa2S5SjKrkIidFP0X4ot9dIm/nk6Yebox7yew5W0ohnFuWkBEBj9XMzZpmyZoiKo2tOq/8u4x+d19ZyUJ9NbMaLPtmUUd0Lksk4LukEC/PYmYXot/dRVZNVRl8/TIZ7XBXCezsCzdw9DtLpGbQuka7l0APPWNp51bJHdF3XpRhzt/L6Pd2kbpMfns0pTC9mLFQgMyrfV+oaNeyi/5xz99Omm7w4j9ExnYqU/flmjL6nV0dIxliLwhOjXa4qyRp6wO5Q7KnhSiDXtJTXXd424rOa4l9y5pTAyr6fV1lyNuYDJ4uo2usq4xs9oGUAtHvK/G+0vSDmYIPyei89pVpovPIPnxMRr+zq4wqVglvn9+V0U53tetcHH876wRv+lnpKaFyniSj89tXliuTibkLvMVkVa4+pzQmA66l6BrrKtd212BXVvOw+CH6fX19rDRlMFVE/GR0fvv6Cdl1dJjkf9Hv6ip9gqpHprNW7VCfows3l9Hv6StxMQ66zYELNmvqcFMKd3WBdPvR7+kqHWNjMsl6QN1UdiFjGetWmQKo+uHUEEPUfeq6PP7NMvo9Xa0+tok34IwpGn7H2eQqMBqSUUdm099J6kWYPJhiy8zjwrz5xeQqMG+f1QCQ48WYTFgxGV1rXWURw6rxXlkJQTflTd7LmnM5u8yIwduU0bjjylU4l8xYZcnUFFmAq+ftMjqArr5NrkJmThYehteWJp/TSBLFRee9jx+Vq3BnGf3/u0rA46o3vTGrwnQAL0rRNdfVVQNgM6cfSO/uGlzDcH2ZuZhh1dwt75bR/7+rb5FNkFGMbtNdZR1lRUjGUutNnZp9WLg2MoOlySq5MxiFy6iZgUMW9TTrTVZuI0acd5WgMyunFnIvM2pjhoNK2NG57yMZj08kd8ZlZfT/7eOlZDNkLaMj6c7O5kkfI6P/Xx95c68qzfBMeZiMzn8fWQK9s+uDAl3R/6+r5LFgpMiYISDpIUPp0bXXVWqi7QjulYNk9P/ro3OxDA/T25+U0fnvI3WPdgTL8L8oo/9fV2mbm4IS2dGB9HFHAUT0GLOGVUlT7DiWceAmzLoxcEd5fYiv+pOM/j9dpSq0MUOyv4yuva6yImhHWXIpiBj9f/r4eemXvHEgvjMjlT7uLK/PLWX0/+njDWVT8GD6gYwOpqssmYqqmTI/F/33ffQbw7hk5tQhW3EEtS6i/76rzCn3zXNgzKqcX0bXXx9fKCM+IqP/vquMCpFJ14wHZUyi76KPUV4fYqu+L6P/vquHySY7tPeQ0QH18fFyK0SqU4I7+m+7yls/nSwzLnyn0ffRRzpBWyF2JiuALasonTG74v0yuga7SgmN7fGAWXk3kGl5My48o7Km9g6X2595mTXjWPzQJIyOZHUseCvfmnCOnATRf9dVbm7ecMz4cH1kJSOkkuwmvDFk/V46PhlFx4xZhQvL6Drs47fk1tVu5L6K/ruufkeSudWMzwVlVk23G8hNuO4yljgjHaKms8hnLTdFij9t5gL4sIz+m66+RprpyIp9Yr73pBKyUqMjtUCMGRNG9qJrsY9kowYSZf5VRv9NV28szXS8TkbfS1cpUQN0ML4qo/+mj83XnaKTwfxWdHB9JDL+TDJj6J952TNLMx2ZqxnuKi8is94YeKPZWxozJsRPZb1Ncy8wLUQMQ/S/d/VgyQoTMx1nlBlVuXmG8vyjoGL0v/eRUbhZhFpkpVDHv8msSpjPlWZ6riaj76erjMRRfiH63/rYtZSEMVlQWT66JvtIptys++LK0kzPC2T0/XSV5G8ZHaBNGTmfBfTMvyCjg5xKphOaSC+8JpAGPPqepvLPktwZxkwBb9NZ0zlZrpqB2gwPGYhruz52lVOtOagTk7WaI8MXS1MP15PR9zSVj5TGTAnZuaNrcyqvJU09ZKV0yJBnO8G8syMrgChDrwipC9b0E3UefVdjy4q3XaVCN2ZoWAVHkbvoGh1b8nc4kVxdZOb1KXW2yTcZbs/KUFoiUxGmPh4so+9rbL06wtRCZobSEp18s04yC1/29Q+S7OOz5T4yOvAx3VFZADMtu8up52nfK42pCZamRtfqWBL/dzJp6iMrX1mJd5OzhqDcT8vo4MfwCNl04puZ82YZfW9jyCggAZDG1MSeknpC0TU7hm+Qpk5I8pdVf6+Pn5VrsQSePASZy6y6+Cpp6uUmMvrexvCe0pgauZ+MrtkxbK7w3ZqRVWizqzzDzyXXhv+R0YkY2utIUy8nlFNMETH656RZplYIgqWqcnTtDilTQzuqCGzqYKqVl4+QawVZ8xhaik7GUDLEurUWh6mTd8jo+xtKpoUo/W5MzZxFEvQYXcND+TZp6oZn2tgLXOhAb5bUWSt4UIx5somXMPVzGxl9f0PJ3zOmBe4oo2t4KG8lTf1kZYlfRTrOa13+ZsybcPZRzjOBwMPo+xtC0lgb0xKZKf535emlqZ97yOj7G0J3ZMVYK0acUK4dfiKj7zBTEmZtVoY2phVIDUACxOiazvTH0rTBPjL6DrMlQawRBHp9XUYnKUumoWZRfXJNGLojS7DvBaUxLULKdIrHRtd2lm+Upg14tg29LP4b8kTSLDm7HHK9+YekaYd7y+h7zPL20piW2U9G13aW3IOmHf5XRt9jhsSxnFNOTk1LPL8leZBwgobCSeXaYcjIdIplvmyxaUyzvEhSNG8o3F62A9/VUM9Ofi/lJBhpMQGPkZu9u2w/LpkPNvVCR/qJMvr+MqTuFFkkjZkDx5FDZhjnXnT+orrZQ/Jsi76/DF3xfhf8l3ytjE5ehofJc0tTHySWGzJHC6N5rqFi5gYPre/K6JrP8ADJvWnqg+zy35PR95YhGeR5JptdwFDXkPNzZHl0TENdMF86ZDD2r6UTyJm5Qt6MX8ro2s+QDv95pamHW8gh85x9VHpUugO7SebQopOZJXPCDK+aaSG5259l9B1lSCf1YtKYOXMpOWQJDO5R5+iYHp5ZL5HRd5QlL5AnkaYjp5VDDn0hX875pRmfE8tXy+h7yfIf8hrSmHXgWpJrProXsiS5HS+VZnwIbThYRt9Llj+QZ5CmJwx7Dp1ojJv8UZKiZGYcLi+HTpD1L0nVaGPWievLf8ronsjyZ/Kq0owDcSX3kkPn5iGh4JmkKYQcLj+X0UnO9EvSWXOHhdGVZ8l/y+g7yPL/yDtIY9aRW8sx7jFGSh3cPiwE235GRt9Bpr+Se0mTBFM4nNToZGfKqAvLrh3rks8N5E9ldN4zpbEm8ZYx68xdJR2L6B7JlHuae9vkwjPocXLo6T4kiHtvaZI5h2T4Kjrp2f5QEnTm5V7l8L29R0bnOVumhFy12ZgFN5NDTxVtyopPrzDK4ZqS9BzRec6WqT6nARmQs0gK3UUnfwg/Ih2o2w/yRzxPjtVo/l1eTxpj/sON5Bhv68i9/lzJvW+6Q+HDj8no3A4hC10cwzIClEv/poy+hCFkiJWI+SpqLzQAlZMfK4cu4LVV/taVpTHmqLCCbsi0AtvlfmSa3ctmV4NYkrfIMabzNmXl7GmkGQmW3I3ZI0WmHgg8O5c0R4WAPFI+HyGj8zeUzKk7gNqYnUNl6DEWNGz1t/IR0sG6MQTZ7i+HDpre7oelO5QTQLa+IVP+70h6w++SJHMyRzvanpIVQUNmZ9yRX5WMvBljds0Z5aEyupeGlLaBNoK2whztaJeRxPmNObKyKan5XQxzQgiUZRhyii8fvyzvJI8v1wmKqDEdQ10SRqCiczO0B0qWUBtjVofp2yHLpOxM2graDNqOdSvEeALJqsahk8PtSJ6R5CPz4pJKIADzDzL6ssbwd/IF8hJyzhcFb2oPl9+R0XkYQ26+J0knAzSmH8eQT5VTvewhRR5pS+YcCMqz4JKSZ8PvZXQexpC/fW1pKoOltVMMfW6XiGwCUYkEn0MH5nTy7vKTcspGDumYkvHTGFMOK4vGDJiPpE35lKSNoa1pHdr8C0pyrBwuo2Me069JF4utGEqos9In+vKmkFT1z5dXkwwPtgAjGBeRBNCRJXjqjsqm3Hx0TI0xebCwYOjitF2kzSGgnzaoldFUnjtXl7T1Q5cn6eLrZCvPnbXn9nLqN4jtksOANwpicKjbUUtEPZkXqYJ8b/lOyVRXtP9TSaeJfC/HlcaYfI4nXyij+29KmdagTbqPvLispQ3YXfIiSltOmz5WLqpVZUSaUg6zY+4BOWeVrC660MZPdULWwy9KRhHIPcP0FnO9JIPKhu+blTaMVpAXgLwzLBUmi+UxZY2QXpoO6Ls3fjLGDAlxDy+VPJRrhM4BKwYZjaG9JNcIn2Qw52GdDatsSGhKe0m7SeZYpn4o5Fsrn5M3lzxbZsfcOy3Aw5hgr4cst1uAm4/UytyI+AtJvgPyn/BJpU+yv/5FbsKxMQzIcCo5bFghwCeNDx0V5oqxpaVu75B3luSWMMaMw6nkiySp5FuBlzymZZA289eStnKz3SQPCsuu6fRswugSaTMYad7aZp5S0laeYbndynOSc/B4SSwNq7RM49BDHqNSpi2XTgp1n4wx00GnZaxab7bMT0snPZ0h5AUgp8qUS6PtjiV2xaXujakHsqYy6lJLML49spRmeJB0+oeZc2rJjTh26mS7Y5mjJp+BMaY+KAHgkep6pBPJKllnA18zCNAl8ju6KOw4UjeI0S+/KRhTN8R2MG1LvF10L9tx/IJkJZVZU5gyuqUk0jq6QOwwMkXHckHyGxhj2uFEkmDP2lJKzF2ykLMqaB0W0JgVYPUNbxHuvAwrc7AUTjuFNMa0C7FnT5Tc09G9bnP8gWQ0mtILxhwFlsCRTvr7MrqAbD95K3u6ZAmhMWY+sET6mXKKKu9zlnIwd5WuyGxWgmkjlvw5+KxMli9TWZT8B8aY+cK00b1kTWnsW/Qgyai/R1ZMby4n3y5rS9VcswSL3VYycmWMWR+4528nyfQdtQ32qJIY7q3yMtKYNJjaYE08AVHRhbfuUieEpeSUBjDGGNLfE/fyGxm1GesuzxJGoudQ3dpUDNHb+0pqdKz7zUg5gXfJW0gXNDTGRJAynymP90hGFaK2ZF2kxMCL5WWlVwKZ0WHVEdU+XyWpcRFdpHOTRuf9kiFg6nUYY8yqEN9GEdQD5bp0YKiB9Ap5FdlKDTyzBpAgbR/JFNIn5Zwy7hJQS4r9G0pSextjTCnHl1eQpEFgaW/U9rQqFaiZGuP43FFJwkNTw0IMDEOAZC8kRf15ZSuZXw+XZAvGj8tDpTHGDAlF/whGpc28hNxTtgAvqF+Rm23mRyXV+U0y7rSMC9lfLyIJVD3P0nPKKdfh80ZAB+UQ+VXJjccyb9LrG2PMlJxGXkzuLTfbzDPKKZ9dTGnxEkd7iSxR/pwkT40ZGHdapodhw7PJM0tuRuTtAveQZJ0sWTZMYS2ChfGHkqR5dFKQ5EXflCR+M8aYFuDlj5e9M0nayc12kxU4tJdInq2+sLiA9vJXcmt7iWRMZ8UP6S/MBLjT0gYnkNyIu8vjyM1VOieWmzcntXwYouRmosdPR2Szs2KMMevEZntJ24m8HDI1TwI84GWOFA3wF/k3udleesTEGGOMMcYYY4wxxhhjjDHGGGOMMcYYY4wxxhhjjDHGGGOMMcYYY4wxxhhjjDHGGGOMMcYYY4wxxhhjjDHGGGOMMcYYY4wxZn042tH+f5Kejaa6SPnEAAAAAElFTkSuQmCC;" vertex="1" parent="1">
          <mxGeometry x="-326.45000000000005" y="294.5" width="58.79" height="59" as="geometry" />
        </mxCell>
        <mxCell id="B3J9zCPMF0yDf6O6Sbgf-16" value="" style="shape=image;verticalLabelPosition=bottom;labelBackgroundColor=none;verticalAlign=top;aspect=fixed;imageAspect=0;image=data:image/png,iVBORw0KGgoAAAANSUhEUgAAAZAAAAGPCAYAAAByP4aCAAAAAXNSR0IArs4c6QAAAARnQU1BAACxjwv8YQUAAAAJcEhZcwAADsMAAA7DAcdvqGQAAAAGYktHRAD/AP8A/6C9p5MAAAAhdEVYdENyZWF0aW9uIFRpbWUAMjAyMzowMTowOSAxMDoxNTozNfAHEmgAAES1SURBVHhe7Z0F2PVoda7pKQ6DDgwMDM5gg7vL4A7FpkChuLu3aHEvVrS42+A2OIO7Q3GGoqW4DLTnPPeXvQ8hs3byJnmTnWQ/93XdV/IN/DvZkqy8ttbRjDHGGGOMMcYYY4wxxhhjjDHGGGOMMcYYY4wxxhhjjDHGGGOMMcYYY4wxxhhjjDHGGGOMMcYYY4wxxhhjjDHGGGOMMcYYM0P+ZrU1aRxbXlGeUR6T/2CMWQRHym/Id8k/8B9MMw4g6VxUvlIesPeXMWaJfE/eUH507y9TiwNIGgSNz8sT7f1ljFky/y3PJY/Y+8ts5P+stqaeu0kHD2N2gxPLuxa7pg4HkDQustoaY3YDuqxNAw4gaRx3tTXG7AbHW21NDQ4gxhhjOuEAYowxphMOIMYYYzrhabxpfEaep9gN+Y28TrFrjJkBr5P7FLshn5XnLXaN6QcB5P/WyLxxY8x8+C8ZXctrueZNA+7CMsYY0wkHEGOMMZ1wADHGGNMJBxBjjDGdcAAxxhjTCQcQY4wxnXAAMcYY0wkHEGOMMZ1wADHGGNMJBxBjjDGdcAAxxhjTCQcQY4wxnXAAMcYY0wkHEGOMMZ1wPZA0muqB/EKeuNgdhGPJS8nTyL/lP5T4g/yi/PTeX/0Z81jHlutjVR9mONYXpNNqmyEgnftJit0Q1wMx2dhmPZDLye/L6Lhl3ytPKftwsDxCRq9f9j3yFLIPl5cpx3q33E8akxPXAzGjsa0Acg75OxkdM5KWwdFlFw6SbY71Kdn1WOeSbY71Sdn1WMZEOICY0dhWAHm5jI5X5yGyC6+Q0evVeSPZhVfJ6PXqvIE0JhcOIBnwIPq0ufhq24ZLrLZtWeqxjDED4QAybXgSakuXfwNLPZYxZiAcQKbN+1fbNnT5N7DUYxljzFbZ1hjIgfJXMjpm5EdkdeptKmeRv5bR60Z+WHY91lllm2MdLv2wY3LiMRAzGtsKIHAx+R8yOm7ZN8p9ZR/aHOuksg+Mg3xDRq9f9lDZ91jGVHEAyYAXEqbBj2mbCwl50r+QPPXeX3/Nn+WX5Nf3/upP07FYSEiQyQHHurA81d5ff03uYxlThgDihYRmFLbZAjHG5MctkAy4X9kYY0wnHECMMcZ0wgHEGGNMJxxAjDHGdMIBxBhjTCccQIwxxnTCAcQYY0wnHECMMcZ0wgHEGGNMJxxAjDHGdMIBxBhjTCecTDGNsZIpnlb2zahrzJL5mfxusdsLJ1M0ozF0MsXLSDLPRq9trf1rvyAvJfvgZIoZcBfW9rmkfIc8x95fxpgmDpLvkq6Tv2UcQLbPk+Qxi11jTCJcM1w7Zos4gGyXk8nzF7vGmJZcQHINmS3hALJdjrvaGmO64WtoiziAbJcj5E+LXWNMS34iuYbMlpj6NN5jyTPJs8j95AlWUkt7TP5RnrzYDekzjfee8vHFrjGmBVw7Tyx2W9M0jZfg9PxidzT+R/5q5Y/l1+R/yCPlJJlaAKFFdGl5RXk5yfjA2MGiC30CCN8BF8FdpFuExjTzv/JfJQGEKbddaAogU4Gg8kn5XvlO+X7J+58EUwkgB8jby5us9udGjoWETOO9qjzp3l/GmAhu/G+VX9r7qztzCSBVvi9fIp8pv8d/2GXOKJ8n/yirC3nmZN+FhMaYcWlaSDh1uWc+V55B7hzHlg+Rv5fRhzM3HUCMmRdzDyBrCSSPltxTdwLyy3xdRh/GXHUAMWZeLCWArGXAvS5f3yK4nVxKq6OsA4gx82JpAQS5t95WLg4G6+myit70EnQAMWZeLDGArGWG2mJmdBI8GCiP3uhSdAAxZl4sOYAg99zBZ9mOMY2XhGd3K3Zb81t5uGQeNOMmP1r9N5pqY/IyeWCxG5KrHogxZhwIIHXTeFnAd0ixOxrHkceTp5AsnmYdHBmHu6Zr4d57j2J3nqwX+rSRhTNvkNeSU8lSO3Q9EGPMuDS1QCgoNQXIxnFt+UbJvTE61zrvLmcJkfNPMnpTm3ydPLucGg4gxiyLuQSQMiw2fr2MzneTpEG5mJwVdOewYjJ6Q5F0TV1NThUHEGOWxRwDyJprSHJlRecdyYr1E8nZ8G8yeiORH5L0+U0ZBxBjlsWcAwicUn5YRuce+XQ5Cy4oU/vq3iLnkM/fAcSYZTH3AALcO8kLFp1/1T/LWRSvo1Zx9Aaqvk/OZfm9A4gxy2IJAQSYufUBGb2Hqm+TWck9jfdC8mPFbi3flaQ0mcuNlwBSlyZgV6bx0o9KtuRTS6Yb0g+L35I84UyV48vTyv0l7+FnknE3zptcQmb3IIDUTeP9nJxLahAyeHOPSslkzj36E8Xu9HiljCJfWbq35jYrYJdbIARG1vFQj4AgEb1/LsYXyavLMdYWpUDz/jaSp64/yOi8fy1fJW8k51B3xuRjKS2QNZeUKUMHr5CT5ITydzI66bLPkHNjmwGEeeDHKHZHheOyjqfpQqv6UXkpuS0IBLeSlDqNzm+T1JdgdstUoIU3BWi9bQN+8/wGh2JpAQRI7x69l7Iswp7kjCySeEUnXJZV5CeTc2MbAYSneVbg8/o8WVCJbKyWG109dEVW32eqVEwjxfTY+Xj2kSy4is4p1efIbS1gpdX0WEmdfM7l5/KpkjLOY3J0+U9yHYR/I18ox5gteXHJb339NM01MMQU/yUGEL6flId4HrAmR8qF+2Q5R8YOINRg5yZcPQ6Lgq4kh+Qg2fbpfZOvlWO1nuj//YqMzqOt3MDGfvImaG0aDP20HKtFQhfkq2V0Ht+W+8mhuLLkN149LtcC10ROlhhA4Gkyej9lWbA9Keg24CYanWzZc8o5MmYAYcyBovrRcZAJCDwhDgGDcd+Q0XG7Osb8c2aifFxGx+/qoXLMFtQdZXQeax8ox4C0GdHx1z5LDgG/aX7b0TGRayLnRJWlBhAG/qP3U5b71aTG/JhRFZ1o2c/LuTJmALm+jI5R9sIyNzx58uQdHa+vt5BDQrLL6Lh9fZAci8NkdA5r+Q2OAV1V0fHX0r02BPymo+OV5drIxVIDCHxZRu+p7Lllb3I9YaXkr+ICMc2kdBGwCjU3ZB4davD7MXKofnxmnwyVNfX+8jTF7uA0jS8M8Z1HNP3+9pVDdEtu63e/RFLutVlyDuYKIKQeboLZOaaZlO8kd9cKN4R/KXYHgZvOvYvd7DDoPBQsdH1osTs4TdOfx5oenXKcIc5lG7/7pfKR1baOlHt2I7m+kJSntK+utmZ6HCzPUOw2Qv4dZujcQTIpggV5KdxS5r4BMOB/kWK3EbpQCQaUVaZFxIBwCqwR2dZUVmO6kHKvzdKyznVBM32yiR+stmZ6MHDaBCu2byyZZvlIScJMag2cSaYsTqL7gVWwOUk5b/p7OU8GFymrzCDw/eRZJaU/m6AVwuwgY+YCsyibyNKlPGYAYdWvmSaXX23rYFEhg9VVWNtzU5nSbL7CapuLlNejtUFLiUBShumirLBPmdKY+7yNGZKUe23KPbuRXAEkZVCNC9ZMD/qzm3Lo/FA+s9gNIcXJw4rdWnIPSDedNylMHlXsbiRlptVYA+nG5CAlv1uWiRC5+6TN/GDtR9PKa8Y9WBlcB4vgmmCFe06aZuWQEI/1A3WQwoQV33XkPm9jFoEDiCGHWRO/XG3rIIVCUysz5VipkCepqRxAynkD2ZTryHnexiwGBxBjjDGdcAAxxhjTCQcQY4wxnXAAMcYY0wkHEGOMMZ1wADHGGNMJBxBjjDGdcAAxxhjTCQcQY4wxnXAAMcYY0wkHEEMixCZSarDzW2qqs5xyrFTIzVXNsFsltXZ80/8v53kbsxgcQMyPZdONOKXY1GllUwBJLT6VAjd16lrXcfrVto7jyaZysjnP25jF4ABiSHn+38XuRqj6R+GoOv5hta3jP1fbXDS9HgHkEsXuRm4om7IR5z5vYxaBA4gByr3WQRfP8+Vx9v46KheU9yl2a2k6TltSXu/Z8iTF7lE4o6TgVBO5z9uYReAAYuANq20dPMlTF4TqfOuuqhNLysW+Vx6X/1ADYxZvLnazkXLeZ5Mfl9eR65YG3VbUaP+o3Jf/0EDKcYzZORxADBwqmwpGAXXF3ykp0kS3zk/lEyU35CbeL39W7GbjHZKSuk3Q0qB0LfVBOG+67J4rU4LH1+QXil1jTBkHEAPfkS8qdpOgtUE1wKZB8zIPX21zQu1nAlgqFKDivNuU83zoamuMqeAAMj0Y1G7i96ttTqgNPsTrwpsk3VxD8Dj5k2I3O5+Sryx2B6fpex/qu6nSdB5/kkNMa97W7970wAFkenx2td3E/0pqfefmCHnbYjcrP5R3KHYHgVbITWTumxqve3PJ5z0GTd9p0+8iF03nwYSCIT6TlNf9zGprFgZPl6wlqHPO8MON3tPapmmwban7PF8oh+TxMjpuF6mTzgytMbirjM6hiwSjq8kxOZf8o9x0Pk3TkXOxv6RGfHQeeH05FPy2o2Pie2ROWEMUHWftWAF7CP5GRu+pbO7PsxcOIHnZT35MVo/zVnl8OST8+O4r1yu9u0q30qXkmNxGHimj80mVCQLXktvgevI3snw+dNvcQo7JZSQTHsrnQdfV/eWQ8NvmN14+LjJbjmsiJw4gE8IBJD90L3IjY53CI+TBcky4mbECO3q/Tb5bnlpuA25+35TReTX5Scm0323Cqvi7yCfIe8gD5DZgijYBmfO4nzxQjgW/dX7z/Pa5BoboancAmRAOIMuEJ8IHy6aLbS2DzleV24b1HnRp/UBG51n1q/IQyYVndgMHkAzkumAIIDz51THni5MAwhqITdBnzBPbUmEl+iUlwYEnUZ6STyjJo8XgO4GDxXY8+U8JnlwZg7mGPLvkvFn7wXmzHoQB4zfKL0qzWxBANmUoAH4bddf8lOFe2zQhgXv25Yrd7eMWiDFmTrgFkgFP4zXGGNMJBxBjjDGdcAAxxhjTCQcQY4wxnXAAMcYY0wkHEGOMMZ1wADHGGNMJBxBjjDGdcAAxxhjTCQcQY4wxnXAAMSYf5ENrU+Z3KpxItinza+ZPltyEDiDGdIP6FLeWlOv9vqQOyc9XWxI1kh+OdOxnlFOCBII3la+R1MKnlCy53ChmRfr+D8sHyHNIY0bByRTNrnBS+WjJjTf6LUQSZM4stwmp+SkURsGs6Bwj3yXPK5eIkylOCAeQ/OwvuVF9QPJlP1DS1TA0tEp5Qj1UfkS+QF5EboNry1dLzuPl8opym1DO9Zcy+g00ScvkPnIbkLabFPbReTVJZcrHybG65ugG5LfOb57fPtfAKWVudj2AcM+eDA4geTm/rJYURbocTi+Hgrof1PWoHpebyJ3lWHABPEtWzwMfJbfBQyQ1FqJzauOL5LHkWNxOUo42Opc2vk2eQA4Jv21+49Vjcy1wTeTEAWRCOIDkg2p635DRcfCDcigoXRodEwkiYxXYuYmMzmHt2FUP6fqJzqOrBJExoMWUI+itfafkIWMoPiSj4yLXRM6BfndhTQgHkHzQTRMdo+xZ5RDUBS58ihyD98no+GtfJ8fi6pLgGZ1HH+8ph+RC8vcyOnYfnySHgN90dLyyObsw3QLJgGdhTY8zrbZ1DDEgy2+hqXtsrIHgpplLY53HceQz5BDXySPlGYrd7HC+z5TH3vsrL9SaH2JMbFu/+12FINIbB5DpkdJFMMScfX4LTb+HIbsvyjQdZ6zzuJs8oNjNDl2VjKsMAV2AQ82e4umWge3cbOt3b3rgAGJMDLOOCCAp8DT3aflaebj8s0zhxnKIGUZtuse+KF8v6TZkanIKl5YXKHbNTOFBoDcOIMbEXEyevNit5ZPynJJZQteTl5B0Bb5RNsH1d41iNxt0i52r2K3l6/KiknO/rrysPLV8vkzhWqut2WEcQIyJYfC8iS9J1liwLXOEvI58695f9aQcpw0pr/cDSSvio3t//QUGlm8hn7v3Vz25z9vMEAcQY2JSBnVZGPjrYvcoMH2WtTNs6zhwtc1Fynk/VJK2ZBP3lr8pdjfiAW3jAGLMBprGJhgvYF1EHd+SjDHUQcaBnKS8XlP32i/k+4vdjRxPjpEZwUwYBxBjYk622m6C7p6UwfIfrrab2EfmXJm+72q7CQb8f1Ls1tJ03tB0LLNwHECMiWmapdLUNbUm5f+X8zpsOu/1QrImxj5vMy5eB2KMMWZ7OIAYY4zphAOIMcaYTjiAGGOM6YQDiDHGmE44gBhjjOmEA4gxxphOOIAYY4zphAOIMcaYTjiAGBPTtFI3dSVvrlXfqTS9VuqxUs47y2rmiZKlXsaEcT0QYwakLlstpOSKAlKn1/FH+TxJ6nfSq1On48fy5/KXkps0N33+JofVN+WXJXVI+DfU73iEJPPv38kjZR0keEyBc6iDc2r6/5iF4wBiTMyhq+0mXrfabuL4kpobx937azMkUqQy4VXkhSVp0ilkdWJ5Agk8LfI3CR4pGHU2SQEr/s3N5QPkU+Rr5BVlHS9ZbZvg/de1MA6Tvyp2za7iAGJMzNNlteDSmk/Ipxa7e1D+liqAt5IUY/q8JCU6ZWIJDlOCMr1vkPeQlKXl3CM+I59Y7B6F/5Z3KXbNLuMAYkwM9T4uL58kSd0OdCM9WVKFkJYFweHl8qfyc/I58paSMrGbbszb5iTymvIJkkDIe3qLvK88hyxzL3k7+Y29v4ruNlomF5Jf4z+Y3cYBxJjN/FbypE7dC7qTLiPp93/7akt30I0k3Utzhfd1VfloSfGrr0jGVM4n4VmSbjUKSCGletcBxew4DiDG1EOFP57OPy7pmnqUvLicagujL2eVjKl8SjLg/njJeMvv5P9IY/4/DiDTI6XKXcr/py3Mqmma4jnWDaTpOEO8/zLHlNeQr5LfkTydc2PdNU4v7ymZ8YW3kUwOGIJt/e43seQpypDl/TmATI9vr7Z1MJUzNwSP7xa7GxniuBFNU01Tp6K2hRsmYxxMvaVu+PXlMaQpWiF0Zx0hnyYPkjnZ1u9+E14HMiLvlUS0OucMM1Ki97SWWSm5YFonN/LoOEhXylA8WEbHRAIMg6djwEB0dA5rry1zwqA34xl/ktHxxpLfETdJuo/WT/3vWsn3vv5v/H8Y2I9eY0yZZcZEg1zwHqPjINdEztrxTZ8fkyLmCsEhek9luWdPBgeQvNDHvl5EVvY/5VnkUHCBcrOqHpfgcT85FlwAL5XV88Dy9Nm+XEy+SfL+omPllBlM3JSYtcU4CrObWMdxdsm6jy5jKvQgMMDPuhDWf9xaPlzy2X1aMpMsOpfcHi6vLPvCb5vfePX1mRLNd5UTB5AJ4QCSH7pTWIvAsZlu+RjJjWZo6LK5vXyP/IJkcdrBcmy4CG4imfHEebxZXlfmgNlU75fRd5lDgsWHJesomKXF9NhtdIUdXXJTvp58rPygZDA8OuccfkxeXfbpHuE3zm+d3zy/fa6B08ncOIBMCAcQMwfOKF8ro++wj3R9fUg+UPKknLOrJTcEMla806LkuiXYRe+pjwSSi8gp4wAyIRxAzJQ5oXyczHmzpFvlxZJWEa8/V5hVxYwz8nHlHFehW5A8XaeQU8QBZEI4gJgpQhcOYw0kIYy+t7b+Rr5Q0k0z5VZGV2idXEmSjiUag+sir8NU4KnNZnMAmRAOIGZqMM2UGUvR99VWcmIxQL1ObrgLkKrlHyRjRTkmGbDC/bJyKjiATAgHEDMVmM1E/37fGUi/lzyJkyRx1zlQMphNCyz6rFIlELHO5jhy2ziATAgHEDMFWC1OayH6jlIlx9WD5Bgz3uYGOb9I68JiwuizS5V6JmQC3iYOIBPCAcRsEy4Y0mz0eUImo+5D5C51U3WFVC983n0CCTPXSBGzrbGRpgDyWTlXUgII0/QngwOI2RYnle+Q0feSIunM6fIaKsfTkjm2vKuk1RZ9tiky5fe0cmzcApkQDiBmG5xbktYj+k6a5AmY3E7uquoPwZfWG+NG0Wfd5M9kzpQoKbgFMiEcQMzYsEq966rqt0nSf5i8UG6360JNAjrVEsdiyS0QiN5TWbdARsQBZDqwtoO+8+h7aPJHkqmpZliuJusSgtb5MtlURz4HboFMCAcQMwbMAuqSw4rpo/8uKedqxmEf+a+S2i7Rd1In63dOLYfELZAJ4QBihoaUGDwVRp9/nQzwkqrDbIeLSkrgRt9NnbRgWH8yFG6BTAgHEDMkZGP9Dxl99nUy1nFKORdoYZ1JUryJjMEMLOMVVtvLSf43apQz+4wbxRxgajQTFqLvqE6C/3nlEDiATAgHkOnA1Erm6S8Fij1FNSLqZBU6ObCmBuM3LHak0uFDJUWsyOL7fdmlq4euOaonUo+DOiOPkDeU20of38SNZdu1OiStvKTMjbuwJoQDyHYgUFBI6BmSmhmsaVifEwPGVLZjwJnU2nMsX3xByQK/8mfdJDfjqaQSp0VB9UTqW3xADlmLoypBdF2ThHogJ5NTgAD6JRmd8yZ5L7mrULoFMiEcQMaFYMBTLLXBo/OJ5KLl38wFEu+1fVo9TG77Rnk+SWlgbt5/ltF5bkNaOBRpopXCuMQ2u79If3+ojM5zk0fKv5O5cAtkQjiAjAfjAZQrjc4jRS7cqafroODRr2R0/psk8eG2um3op6fiX9dFjduQlhqJDQkm24AAxuLD6Nw2SRAhlX4O3AKZEA4g43AJmaO2Ba0RqvNNEcY8mi7usowDcCMamxPJO8o+wXwq8nugZsc2Wm+3kASG6LwiKQpGzZK+OIBMCAeQ4Tm7ZEAxOn4Xvy2n0i++hvrdbfIq0TdO//6YEHhZ39A3tfkU5eb8IkkQHxPG8dq0OH8tLyT74C6sCeEAMiz7yjbjHam+TzIzaArsL78no/OM5AbO9NaxOI98vewyW2pu0qp7uxyze4tuy/IkkCZ50CB1Sld2PYC4BTIi2w4gXebQp3oHuW0oMERW1uj8InkCZU3EGFDZkPxO3FSjc1m6rKVhNtwYMP24zZRt1gbxcNUFd2FlINdMDAIIC5/qyHWsbUAA4Ql0E3QtMWVzCOjW+aIcqqXANFkWr9GFsA34Xbxaps6w4bOmy4MZRUOyn3yYvKWkyuGQ0BXHzZCp17w/WldM+WW77rbk93U8SZ4o0oQwk4lzZFHh0LmjOD45qu4vGXwfEqb5cnNLXQDK9GhaooyjtIEAUpfa5vOSbM9zhe+sDu7ZYz2ENeIWyHA8U0bHjOTp7S3ynbLNeMk2WyFMK43OKfK3cohFZWUI1Awo/1JG59BHMs5+RDL76faS1eXUwuj7cHWA5GZwW/kE+UHJeEZ0Dn3k86da47HkkPDQRDCNziGSdVBtcQtkQjiADAPrPVKa9LQebirLiwVZkf4AmbIWgYCzDQ6RqV1DPJGzNmRIeOL8uIyO30U+exIDMujOGhxmbo0FrRJm7VGC9l2SVk50jl2ktXSwHBJStrR5CLq5bIPHQCaEA8gw0PccHa8sT7XcKDZxaxn9u7I0/+kWGROeMhnLiM6nKud3FTkUrOh/pOSzjI7fRgbZuTiZnko301Tg+yWVPdUbcyxwJPA/XQ7ZfXZxSasnOn5VilkRdFJxAJkQDiDD8PcyOl7Z58s6aM4yXhD927JjTt2kddT0mZala2Yo6HOnlRAdt42spWA9yunl1CERIzXNycPVd3LAV2SbG3dbWDiYGvCYqZi6SNZdWBPCAWQY6IuPjlc2JUfQA2X0b8vmWJyVynNkdA6RjJEMxc1kn/xU3HwZc6prAU4dWrnMMuszPZnxlrvIobiXjI4b+WKZggPIhHAAGYaUynvMn2+CmUTRvy1LidgxSGlVrX2l7DvAHNGnqiFys32THGt66xisF0j2GSshIzAzxYagzWSSlN+yu7AmhAPIMJDFNTpe2ZQVufTHR/+27BilXveXqYvFeAJkfUhuTi5JdBgds0laHC+UU00Dk4PTSNYddW2RMP2V18gNec6Yshsdsyoz6JjdVocDSAbmmOLbzJenyZT1Msy+YV0IA6M5Yb0LU1y7rLDmhnIpSbcXSROXCtkAGHO6gCTQtoWxNBaF8u9zwgQHZrIxK7EJxkEoYdyn9cpNdq4M0WoPcQAxY0G3wnWK3Vq4cGkx5b5JM07Bja1tmVSCGf373BAZdN4VaHWz5oZZfD/jP7SA8sOkybnq3l/5IH0JQYRg0gTrYgj2Zga4C2sYltKFxQ2Fm1B03KqkRc8NC/a6JD9kDIbV3rsOK7Z5oo8+ozoZXB+iBg0r4qPjVaW7dNOKdndhZcAtEDMGrI5m6mgTXLT/XOxmg2mgDHi3Gdyl64xuHMrD8tS763Aj5iGECRCs3UmF9TUMrOduCfCQQVdkE3SXPq7YNUPgAGKGhsVgrDhvgqdVWkFtcxrVQY6k10jWnaTyNckYybP3/jJlCAbnknQFpkIeMdYqEYBywQA/v5WU/G0EvUsXu63gKX2ueAzELAJuHk+VKT9o0q4wgycXBC7Sr7fJ28QaAsY65t59MSTfkdyQnyJTb7J8/wTkG+z9lQfO427Fbi0cm9xjbRNijnYTHoDRgp8DiBkSBmAp99oE+ae4yHNBEKCeRWq3FRfc3SVPtYyVbItTSXKaEXTJT/YNSfcRrTJaaOx/Vb5V0i3I+MI2ioJxLneVt5KsEk+BGzgBOmcOLVo2KXncyKTNuZqJ4kH0YZjzIDqJA0kVHx2rLDNq6lLlt4WbMCnHo2NFcvyc3SttYYIBGQdY9xKdX5OsTWG67e3kUCUF6mCMKTVfFbJGg26wXLAmJyWbANN/yw8UHkSfEA4gwzDnAEItjeg4VXPOuiJ5IbVTouNE0tq4stwGVNNjwV7OLLkMcPN5EpTGhO7CphtyWbqfcp7jP8noOFXpJl3TdL5OZTIiDiDDMGYqE7pOcsGMq5R6Gixay5X6govmdTI6TiQ3kIvJsWF1PUkXcwaOqgRGjsEsqLGgZn+bksTURcl1frwOSR2j45RlTc96NqBbIBPCAWQY7i2j45WlC6GJlHnzOdOlp7ScMGfQotBRdIxIvq+c3SipnE9SSyM6pyEky/CYaVdoVf1QRucSSe6tXFxDRseouk7O6RbIhHAAGQZWb0fHK5tSjY0589G/LZurfCeDuil1PvhMc03iIJNwau4m1niQkmRsmFAwZKtjk7QErynHgvGsNtUcbyRzQeGs6BhlOTfGihxAJoQDyDDQxRIdryw3pbpBaKZORv+uLDNpchU/Ss1ym6u64L4y9amX95laez0nVAWMzmcsed/U/xiLy0gCdXQuVelWOp3MATP+Uh4kWKzqLqwJ4QAyDEx9TJnJxGrp6mAwT/c89aZcyOQtysHxZUq2XabY5uLVMjpGVWYrbWMq50NldD5jy/sfM4hcS6YWgqKF3HadxiZY7BgdoyzXVFNqGweQEXEAGQ7mukfHjGQh3gvkSyQzXaL/TyRrIHJA0sHo9avmKsD0jzJ6/Uhu5GNzJxmdS6p0BXIjI4nj4fILsk8BLG7oKQktc5H6e8D7yBwwmN81FX1Zd2GNiAPIcDDYm+OC2CTnTrK8vtDiYeFbdIyyKQu/UiDJYUprB/l95nrCTYUg2bbGOq2Ej8r7SW6EEXzO55CswmYBZvQ6dRKUqEc/Fi+T0XlUJTDmGvBPbZXW6QAyIg4gw8IK3ui4OaRcaA4orRu9flVShOfgFTJ6/ap0723KyDoUBOQ2ixnx3bJLDQ3Slret6c7NcawpvoytkZo/Oo+q3NS4+fWFhy6CcXSMVN2FNSIOIMPC6uo20yNT/YRskyuqjrfJ6BhlmfufA5IkRq9flZYbqdzHpk35VdLcMwW1D9x0yXjbZkV4eVHd0FD6l/Qn0XlUzTUri3G26PVTdQtkRBxAhuf8sk//d1UC0gEyBwS4lAHTlKy8TdAVxVhP9PpVWQ0/NrQiUrscvyypkpgL1pmktnwINkOUnt0E42zReVTl/I8r+8K6puj1U3UAGREHkHFg0SAprKNzaCMrhnOt+4CUhYo/kDm6Tcj5FL1+Vbp1ji7Hhtoj0flU5QaVa+p0mf1l6gSKp8ux4KZ2mIzOoyqpSfrC8VJWp2/SAWREHEDGg5rTKYPVm2TKZM4qe/xYqaERHavsA2VfSHvyIxm9fllaACkpXnKT2vfOezitHAoeDlIqMDLFe8zxobPKlK4sHpJY39OXPrPgPAYyIg4g48KTPOm0U2chIV0DrAPIPRspZbEjN/Qc3WUpqV1wW8WgSMMenU9ZAkyuiQR1MJYQHb8qixzHJDXNzaNkX1hxnrqgsaoDyIg4gGwHukBId8K0RWYblc+JmzZB43mSVBa5BsurPEmWjxuZY+EgrY/qe4xkhfE2amQQ1FMWfTKtdSw+IKNzKPslOSaMb6R0sdGCOrnsC3Xto9dv0l1YI+IAMg0IEgyMMqg9Vv//t2T0mZTNMbPmHjJ67aqMkWwDUrNE51OW7psxkxuS6j+lSy3nQH4KKel18OGyL1eV0Ws36QAyIg4guwmzfqLPoyzJ60hh3ge63b4to9cvSy2QbVXZTKl/MmbrY01KK2TMFCdrWF0fnUtZpjj3nZHFb6fLFHh3YSWwrYvNLIOUxITMSqIfug/XlSkJ90jkyBP3NqCoUhOHrrZjknLMlHPPzSNX2zqo3dG30BldudTGbws32blCC2RWuAWym6RU/8uR/fb9MnrtsnSlbWPa7hpKpkbntZasyfvIsSHwRudT9mNybLjJ0U0UnU9ZfmN9YTFp9Np1ugUyIg4guwfTP5v611ms1rfi4IEypR//DnJbkIW46Ry3cZNewxqc6JzWbuv3mzpT7CKyDzxYpExwKOsxkATchWW6wqBxU1OZAj8EkT5Qz73pOD+RZC3eFuS+ajpHKhFui6Zjn0iOnWwSmD2Y8rnwG+gDWRLeWuwm0/R9ThkCxCg4gJiukMSviXestl3h95lS9vYpsu84Sx9Suqa22UpNOfY2utcYn3hisVvLDeWxi93OtM0CPdpNeABGC34OIKYrKQGEFkgfWHC3f7G7EbqOXlTsbo2Um9uRq+02SAmufWfKdYWZaU3ndwJZLZjWlnUaFZMRBxDTBdJwnL7Y3QiLxUi50oeUAXgG2FkwOXV884ohbUlK99L1VtuusAiVglypuAsrAQcQ04WUuhV9B+m4gFOq5710tTXzJeU7JOV932Sc1FwxGXEAMV2gvkMTfWt/HCRPXexuhKmxry12zYx5iySvWx10Y1202O0M1R5T8RhIAg4gpgspLZC+01ZT+rxZpPiLYtfMGMaHUh4ErrTadqVNADEJOICYtvB0Q3GrOqi7TbGkPlB1sIk3rrZm/rxhta2jbwChDg5rYkwmHEBMW1jZzLqBOlh4yRTNrrDwK6W7ggF0swyoU9P0mzmPpCurDxQaS8GD6Ak4gJi2nGW1raPNbJcICjOxursOZnjNYfaVSYPZWJ8udjfC/YoMw31ITV/vMZAEHEBMW8682tbRt8ZESuqK9622ZjmkfKd9B9LHrn+yaBxATFvGCCCkiW/C3VfLIyWANI2/NdF3bM6UcABJoylFeNP/viRSAshXV9uuUPe9CQeQ5UGNkKZxEKZ394HfZkr31JyvaY+BTIymmRu71Bd/htV2E7+TZD7tCr/JcxS7GyG3k8c/lgfjIN8tdjdCBoQ+GZ5ZO/SjYreWr6+2pgYHkDRetdpuoul/XxKkca+DqZJ9noBIk9J0g9hmZlszLE03bu5ZZy12O9MUpGCb2Z1ngwNIGiR8e12xexQ+LFMyii4BbuxNWVsJIH1IqTzop8PlkvJwkPIbqSPlN/qV1dbU4ACSBv2hN5D3lAzCkT30m5I62FQ7o1m8C+y32tZxxGrbFVogTbgFslzGCCAp3Z/7rramBgeQdNa1C+ifp9D/meSD5TbrUIxNU/cV9Bn/gNOstnW4BbJcvrba1pHykFHHz1bbOuYcQLwOxEySlIuqb+Gkk6+2dfRNE2+mS8p3m/IbqaMpcSPMOYB4FpaZJCmzX/5rte1KyoWbcgMw8yTlAeSkq21XUn6jfY+xE+Rq6rxXXqbY3cicc8uYglvJ5xS7G6HwT58U65QebUqkyFgMddC3Af3vd5Qsdjwh/0HQpXm2YncjFDTqOz7UFaa+Ure9js/LPxW7ewGazLVPlX27JNtCHrT1eWyClCd9FhQeLKlQWMf95GOK3VnS1Arhnp1SVXQUOBlOuE4zf+4io++27NVlH6gjEr1uWW7Y24AbD5mGo3NaogQ9EhiODeOK0fms7TuJ4uIyet2yjG/OFR7Wo/dUtm/Btz3chWXakHLj7lv7+1ir7SaYzLCNiQtkIH6lbEryuCQYa+A9H2Pvr/H4zWq7iabfSBMpv9G+x9gJHEBMG1Iuqr4BpKlsKTcXnqDGhvrsu9gvfqC8dLE7GrTy6uh7c//jalvHcVbbOTLa9eEAYtqQkh+oqf+6iaanXVKlbIOUHGBLZez33tQC6VsbPeU3yliMacABxLQhpUhU3wvvz6vtJo692o7NLt9Qxu7Canr6b/qNNJHyXfZ9ENomXgdiJknKhdv36bCpC6wplYqZP03fcUoXVB0pv9E5B5DRcAAxbZhCAOHp0QOcy2boAJLy+3EAScABxLQhZYC8bwBp6v8Gt0KWy9/Kpi6s3662XVl6C8SD6GaS/HK1rYPprn1IWSU81am0F5T0P8/J68gpQbYDzquOlFxWdZx4ta2jaSbYlGn6/LLhAGLakJJCpO9U15RjrFeAm+WR8t32zbeW8hvte4ydwAHEtCHl5t6UMqOJlNQZTVURzXxJ+W77pldJ+Y0631oCDiCmDWMkukup1bDLazKWDgsXm+hbtCwlgPxitZ0jo42B5OorS0mmeNvV1swXuhceW+xu5C2yTz6sK8m3F7sbea68dbE7Go+XFBSrgzGQTxa7s+Ha8vXF7kbuKp9S7A4Ov697F7sbubGkSmhXXixvUuxu5OFyznX3n7XabmJ2yRTtbkhW1z6cRUavW/YDcmwIING5lL2AzAmLJm8hCZjPlDeSzFLKCQEkei9lSaI5FofK6BzKXkz24YMyet1d0skUzSTpWy3uW7JpuvAudGHxOX5WPk/eUtKCf7n8kOw7zjRlUrqwUqoW1pFS9dIk4ABicnMC2WcqL/Pvm24Qp5BLvonStfwqSWusykUkLZIlwgK/pkH0H8o+RctYiLp/sWv64gBihiDlKbKOL662dVxytV0idNFcqNgNYe0Gha2WBsGxaZX4F1bbrpxJ7nJes6w4gJghOGi17QoV55pomrQxZ86x2tbR9zOeIilp4+nW60PKZ2sScQAxQ9D3IqUqYRNj16gYk5RcTUvMB5byUPDh1bYrZ19tTQYcQMwQ9A0gn5JNA+nnlrtY4GmpEBDpwmqCWu19cADJiAOIGQKms/ZZY/QH2dSNxW/3EsWuWQAXlk1JFKmFTp32PrBWx2RizIWEN1htzfx5qDxbsbsRptp+o9jtBMd4ULG7kefI2xS7gzPmQsI7y6aFe9eTry12ezGVhYSPkfcpdjfyDHnHYrcT+8qfyLr7HosHm77nOcAsvjpmt5DQLIenyeg7Ltu00reJi8vodcuSr2issYAxFxISQKLXL0uN9hxMYSEhN/Rvy+jYZa8p+3ANGb1u2ZfIJRC9t7JeSGi2xsdW2zrokugDx2jKvUVa7qsWu4sipRbFkgoeXUo2TUtmTIwH1T6k/CY/vtqaBBxATBdSAkjfabZUP3xTsVsLeZGWRkrX39dX2yWQ0lp9l+xbo+Oyq20dfQfpdwoHENMFBjObVgMzE6vvit/XrLZ1XE32LWI1Nd4v6wIEucC+WuzOHqoDXrfYrSXlt1AHGRLqFmfC7+Xnil2TggOI6QJ9qE3dCfRrH1zsduadsqkKIgkHlzZBg+4p3hMDvlXIFfYPxe4iYFyiKS0Nn8cbi93O0PpoWoFOnrG+9dZ3CgcQ05XDVts6rrjadoWL+dXFbi13l0v7LfMkfE75L/LdkmB6P3le+V25FO6x2tbxZtm3wNMVVts6+JzNFvAsrN3jjDL6nssyCH4M2QcWl0WvXTWlG6QP20jnPgbbnIVFqyA6XtU+9WWA1jBBN3rtsueXSyF6f2U9C8tslW9KulPqYGyib8oRBjVTaoz8s8y1rsmMw/1X2zp+JJsKjDVBYG9K4c6Y3meKXZOKA4jpQ0q/dI6WQVN1NaBrp++YixmP88jLF7u1UEiLGXl9SFkzQzfZ/xa7JhUHENMHqsc1QRdJ3yp6L5QpfeApT7RmGqS0GElp82/Fbi9SHmJSfsumggOI6QOzVqKZQmVOKVOeNOv4rUxphZCagWm9ZtpQ7yTlpk7t8qbfVxOMoTVVsPydZJKCaUmuPmMG0ZsWjrl/eplQHY+Sq3W8Qh5S7HaGKoSMuxx376/NsAiP2Us8veYkJRfWVyQ3oznBOBUTIuq4m/zXYrc3tEY/IelyrON/JJlz+y6YpAVzu2J3I+QCG3oSxtgwUF4H9+zJ5MJiRL86yl/VAWSZ8COMvu+yLNAi7UhfniCj16/6QJmblFlYSzXnLKw7yegYVem27AtrhOj6jF6/LIkplwT32uh9lp3UlGUGoKKTLHs8aZYH3aApUyTvIPtCNlXSWUSvX5ZWwOllThxA+kP9lp/J6BhlGTSP6sG3hVZv9Pplx0zIORbHl9F7LZuSJqiRXGMgv1lt61hauglTwMyVlAymPHn2bYVy83lSsVsLdSVS/n9mXB4nU4qAkab/a8VuL/jNNUHa86WtPk+51/5qtZ0E9DNGUa4sGTfNMjmrjL7zqn1XpgNjIN+T0etXzZny47EyOsYumHIjboKsyTxsRK9fltQ1+8m+UJslev2qDOgvDcajo/dalpIMvcnVAiG5XhMHrbZmeZDY733Fbi0UJuoL3VNNhabWUICI4JYDgtau8p3VtisHyBfJlBYoqVv6Vh2ElN8aC1T71lifIin32pR79mgwdTKKcmWbKmSZecNireh7L8vMmqZKhinw4PNBGR2j6hdkU6nUFMgsTPCKjrFk/1P2+fxIYJj6XX1Rkp23LwQsuqWiY5Qdq5rl2JC5OHq/Za8sJ8OpZHSSZZc4WGX+AjcKyoFG333Zl8ocMMjKVN3oGFVzLEaDm0kGeKNjLFECZt81PI+S0WtX5eGCKpQ5SKmYSZ62JU7sYeYZ7y16z2vpSmRa/KSgGyM62bK5ynCaafJPMvrey+aaYQPUTY+OEdl3HcoabnKsWj5C8lC0ROmyItBT06UPV5EEhuj7qJoryPMwy7Tx6BhlmRK+RK4vo/dblpbe5KC/OTrZshTCMcuFug4p02zpD88BmX6pjhgdoypdGn2fpk0655JNT8JrWSC6j8wBCx6jY5Tlt0A31xIhO0T0nsvmWhSaldTUzCllJc18Yapm9L2XpRXS9+l2DYPkpDqJjlOVGT5NK6BNf1jZ/kMZfQdVKRZFupEcnFamtD6eJ5cINU+i91v1knJyMMOC9N7RCZel+dS3RoSZLvStpgw2v1Xm4rYyOkYkg8K5Fxmav8AUXNLJRJ99JN2euXiZjI5RloeXA+XSYAySWWXRey77bTnZrCCkkIhOuurDpFkuKd2ZmLNL6fkyOkYkN7gcaw3MX0M31Kdk9JlHksEi11IC1n2krDMhL9sSeYSM3m/VB8jJQr4jugmiEy/LwNqkppGZrDCQmdKt9FnZN9X7GhYY8nrRcSJ5WmNqrskD41+Hy+izjqS3oqkWeio8UTO+Gh2nLN1ludYFTQmWUaRMVviFPKGcNI+U0clXZbD1QtIsk0fL6HuvmmNx4ZozSNJ/R8eJpDm/xO6MsTm1pGs6+owjSaNxbpkLMg5Ex6n6bLk0LixJJRW936qz6PmhGcsUx+gNVCWIpBS7N/ODfDyUCY2+97LcTLgB5YKujNRBdeQcLypNN1gYmpJMcy1jENeUuaAVw8r16FhlGZfL+TubAqQsoVURvd+qrNEiyeIsuKGM3kQki8HuKM3yuJeMvvOqr5M5IT136voD9INMN8gjlfKQUJYJDzmhHk10nKr0jCyJO8vUhbQ4uzV4r5TRG9kkA2p0QZjlQFqKlAWmmPsHzo0qZVB1LWsD6E6b7AyViXEL2Ta1C2Vsc0ItmpTvmB6R2Tx9N8AUaWYwRu9zk7myP4zKCSQJu6I3tEnmcD9FLnWRzy5CBt7ou676U5k7vQJ1LKJj1fkGmWtwd4lwI6bUbPTZ1Zk7vT5dpKlZmW8k585p5FNlyjqXsjzAzTZ4slisbRMX6Sd9h7y1bCq3aaZPSnI3fIvM3QK4n4yOVSepPDwuclTOI6nTEX1mdRI8cn+v1KCJjlWV0q1zhXsfCR+p1849MXp/dVI/J0fy0o2M0Vynn/RdsqmWdR2kROCHy2AZ/dU0nc18YLrs1YvdRqhcmCsv0hpaIk+WbX7vTPlkXRM5k7h4dxnWavC9kGWAZH1teLjMXWKYFsXLi91GDpNMGZ4D3COZhMQaJfLF9SkDvU6E+ZG9v2YO6UtS1odYSxN9iHQj9NkTFKJj1vk5OcnUDyNxAZmab6wsYxP3lrlh2rXvJfUyM4sZWouC5i9pJKI3bG1Zkuv1efraBDOtut58qCG9tGmgdfD5k3SvS9cJs4NuLHPDE3pKuo5d9gcy5xqbSXFyydhG9MatLZszzUUZHmRS1ylV5cnu7rJtN86cYObc7ST959Fn0CT/bqgW2wtkdExb+B55SrloSF1xf9l2CqDdPYdaOXsySd94dMwUGYt7iGQm0FKg2BsDtm0WBVb9jBxqKv7dZHRMWyycva8c4oFrspARlSmT0QdiLdKPTpqKISB7KelW2qwVqcoqerp55vzUx6At61/6di9T46XPRJk6WLnepSttF3y9PJ3cWUg9QYW3PheyXa4s8Lu0HIpryTb5syJ5AqR7hTGWXMkhh4QnVT5TckMRBKP3lCrdejeRQ3E+mZrraVfkXkngOL80K4iirFT9iow+NLu7spbo7HIoWMDYdnXvJnmSf6Kc4sV9TkmrK3UBXpMflEM+/fLaDApHx95Fvyy5R1I4y9TAqsuby+dI0jT3fUK085cbyZCLSlkjcjPZdfA48uuSNS3khsu9yj4FxnpIEcMKZm4+0Tl2kZlsd5JD9rmzdqhNYaqlyT2Pex/3QO6F3BMnxxgLCXPBj5Vc9qRImUM3wa7CeouUKnN0nRws7ylTU00wwMsMHzKLDgU3XRYP0i2T+/qgdf0++XFJiglS/dC6ygHTbs8sWYBGtzBrr8gEkfs9kPiShZkE9KHYV/I5pZY9ZrU577PN2ge6gFinws16KpAAlOuCAE031eSZUwAx84ByxdwgmS7bBAOvJD3kBpBaF5unem4U1NweEs6H1evUWxiSn0veE/KeGFNgTAXJurBet8KML3IaHW8lAYMVyyysQ266Q8L6C6YwM1V0SHhfZK5I7QIkQwVpZxgrIxVOmyBC3r317C5jzERgIdORct0cr5MZNtz8WDwY/e+RFIIaI0caD1iHyC75n5YiecFuJcdo9bNOjKnA0XlE0norFwRjFti7ZfT/3eQzpR+kjZkYqTWa6Qrh6ZpB8tTiOMhA8FjVBLl5Mp24bXbpOcvny4JCFhaOAVOhvyCjc4nkAYV07lUcRIxZACxMSx245QIGkr+1KZJDl09KV1kuGIe7hqSLJTqfJUgLgAWFY66250GAhIfR+UQyVlA3bkYQoVs0+rebZD2Pg4gxE4Lxg5QFYAwYrisC0qXVJukh4wSpmX5zwkA1M2T6rqOYgmSFoMbHkOttNsH4RZtZlvxWUqoauiVizAJgTUR0sVZlXGNd+IYZUG1K0hKkmFa6DRjQZpolOd5Sx32mIJ8ZT+l0UzG7cRtcX7ZNaXQfmYqDiDEzh4s4dT5/uWod9SfaZiegG4JZYNuCSoZMY2aK6BRTjrOim5lKBA1mcG0LugLJc9b2++2SG83dWcbMHLpGUm4WtDouIdfQF9+mJYIfkixC2zbk2mLNCkkX3y7bTBDIJd17PIH/i2TAmXGpbXNS+TYZnW+drKDvilsixswcVmRHF2pVBt7LN7qbyraFoBhcv5ScEjx1szCOVenMUKOV8kWZI88T3UB8btQs4UZLLQ6mUk9twS3FqeiqjN7DJnnwuLPsi1siA+APx4wFGQSYppmSkuGRsryanZlPr5JtZgbRcnm8fJBkbGLKsA7mVJIuMJ7Q2R5HVt8vi+UIFrRmWAOBBEvSy08Z7jOsXn+MbNMK4jukFfrve3/1hyBCkI2m/27iWfL2koBijNkiV5HVp7xIWhxkYS3DRU9t/Oj/XyflWEnxYbbDAZLV69F3UyctMzIl54Yg0vZ83BIxZiKkVpVjPUJ1QJzFhm27QJCxAJ6AnUNtPLjhMqGAVC3Rd1InFSOrDxA5cRAxZqYwZTS1pCypq6vQxcNAefT/b/LT0jUUhoc0M10XW35OjpF51gPrxsyU68roAq3KqvQoIyvjA13rYzMeQl88YzImL9yUHyx/L6PPvkkWFI65JsUtEWNmyitldIFWZQxjU9cT+am61tan7gelXN2t1R9uqCwK7NK9WPXVkinQY+GWiDEzhMyrP5XRBVqVmiGbIF1Knwp7dJkwuG+6Qfr0j8ros+3qK+TYQcQtEWNmBusVoouzKq2MuplUdHu8REb/NlVugkwXNmlcXA6ZVNItEWNMI2+U0cVZlQp1TSVUKUnbN4XI4fLasulYuwg3yyvLLtNyu+iWiDGmFhbQpab5ID9WE6eXBJvo37eR2h8kaFwneNxlWNB4a/klGX1WbWxbc95BxBhTCxXvoguzKqnTCThNcDHzml3WIFQluNFVcSG5a5AOhZtj25t+JItAWdHNSnTSuET/n006iBhjNsKFl9qf3iap3ikkN5/odbpIKhYG9E8rl8r+kkWXn5TRZ9DFl0q+izUsEHUQMcZk43SSFePRhVmWRYRtIQ3KZ2X0el0kwR/Ti+8tx6jNPjQERKY0f1C2zX5c51ckVSYjHESMMdlgPUZKCdwPyC7w+nRr/UhGr9tHxkueLsndtI+cOhTBYurykyU3+eg99ZE694yZNN3sHUSMMVnghhNdjFW7FBUqww2eDL1dEjOmSKU/1paQvp6FjmeR21ysyGwyWkl/L58q6Zpqmx4/VcaLHiC56abiIGKM6QUznUhLHl2IZcnQSh99Dk4kKfY0RqEnUnt8Sr5I3ldSE+Qisjwu0BcWZlKnnRXhdK2RAv0TMke9kSYJxtQ4IU9ZF7oEkZdLB5Et4whppgCtigcWu7Vww39osZsNAgnTg5mye0r+w8iQ74tZTswYo74HW2761P6AdYA78d5fRzvaMSUBt1w7hHoi5AcbG7qqKEP8bMn4VR8IItR8YQ1OKrREKDhGq28MCCJvlpfd+yuNp8i7Sb5DY0xmTi1/K8tPbpHcrOi7HwpuzHQ5kUY+Or79i0xI+EfJZ5YTt0SMMa1IzapLbYmxoJb58+UY3T9zkTU4tDToJhsSBxFjTBLnlSnTRnni3cZANAPuzNxi6nDO6a1zkffMe+czGHNF/lKDCN1ZDiLGZCJ18eAV5LZhBTz1uampPdQspim4DhqsC0lZ9T8UBJHXyegcN7mNBIyHyehcNkmNdQcRY3pydRldYFXfIqcGM8HoUqOmCQPf0XnPyR9LnuBvKRmQnwpuiRhjjgIXeMoCNp70o4qEU4KuNWqS3F+SWTi1xsk25Rw5V1oZ55RTvpk5iBhj/gqmzUYXVVWSGM4RFg+SWv4J8p2SGWTR+xvD70tacUyVZorsGPXGc+MgYozZg+JP1L6OLqiyzPrZTy4F1mtcVB4iaa0QHN8qPy2/K1PygDX5YnkPSUqVg+Q21oYMhYOIMWYvm250IVUlJcauQarzk8kzrCQInF8+RkafUVX+f0vGQcSYHSZ10SDdLlyIpoCCTt+R0WdVltXrS8gOXAdBxLOzjNlBqAsRXTxVSU9h/pqbyOizqvoyuXSW2hJ5vDTGBLCCmToa0YVTlmyxrkd+VPhMUoo88RnvQvXEpQYRxrCMMRWo4xFdMFUPlibm0jL6zKp+WO5Cd0iX7iwSNk65O4up65eQxpgV15XRxVL1UGnq4TOKPruqfyd3gSW2RL4tlzSDzpjOkLH16zK6UMoeKVk/YerhM+Kzij7DslRJzJ0td6osMYjkLltgzCxZ10JokmylJg2mfUafYVU++11had1Zv5TUqjFmZ6EIEsWSogukLBXtppSDaerwWaWU5CVP17oQ1S4wl5bI4TI6l6pUljRmZ3mijC6MqveSph3cXKLPsirpVHaJObREyLDwPRmdS1lq6xuzk7CSmnKt0YVR9luSFdimHXxmfHbRZ1p2FxYXVplDS4R0M9F5VOU6Mmbn4KkuuiCq3lCabvDZRZ9pVVZi7xpzCCIfkdF5lB2zEqcxk+AiMmXR4Eel0zd0h8+O4k/RZ1t1F9cWTL07604yOoeynlxidgpuailPVgSYi0vTDz5DB+vNTLklQtdidPyyb5PG7Aw3ktGFUJUnPZMHuqiiz7gq380uMtWWCMXI/iyj46/9mDRmJ/DA7nbgs+QzjT7rsrs8YWGqLZGmae5flMbsBKlTS511ND9M140+66q7vLZgai0REmSS+yo67tpPSGMWjxe3bRc+Uz7b6DMvu+uLNqfUEjlARscrS0lkYxbPU2V0AVS9qzTDkJo2hlQou8xUWiK3lNGxyj5DGrNoDpRO8Ld9+Gz5jKPPvqwTV3ZviTDwnYt3yOg4Ze8gjVk0qSnGryPNsDh1fjrbbIlcUkavX/Xs0pjFklrk6IPSjAOfdfQdVOW723W20RI5vmR2VfTaZb8hvdDWLBZmkTBLJPrxl92VMqtTgc86ZXGhywcXdA0iXbpjOVZqi/1h0pjFchMZ/fCrvkyaceEzj76LqnyHplsQIY3MKWQqZOFNLe1MItL9pTGLhJKb35XRj7/s7+VppRkXPnM+++g7KUtacZdPLegSRH4hHyRPKjdxEvlAmTLNfS2zGo1ZLPeR0Q+/6qOl2Q589tF3UpXv0hR0CSJISpIPS278BAtkn//WlK6k6k8kQceYxZJS55wL4YTSbAc+e76D6Lspy3dp/kLXIJLL2cxW9Aj/uPB5n1vOfSUwA69kCW0agH2hfEmxa7YEYxw3K3Y3woD7VVbbuUB30GfkUOdMEGHK7rX3/hqPJ8l7FLvG/IWLya/K6InDWttekkMeLIdi7JbIK6VnxZmjcJD8jYx+NNba7jJbacgp4iwafIGMjp1TjjFU0kYzc9qudrXWpvtuOSR0PTPRoClzbhd5TV57lsMJHgMZB6b6eTDZmGFglhNTkdkOCS2df5Pn2/urP5+Wt5cf3/trhri/bRzcNDVmOEgrkjPJ4Sa40RNEmJTwZf5DR/i3vAavNdvgAW6BjANN7MsVu8aYzHxKXqDYHQ3unUyMuYG8vGxKekjQOEwys4u1IXRfzR4HkHG4lHyPHOMpyZhdghvxNeRb9v7aHhT0OrM8jdyH/yB+LVnpT4p9ph0b05lDZJtUBtbaerlBU5TJbAm3QMblRPKKkqcUt0aM6QaLB4+QlHuljK8xxhhjjDHGGGOMMcYYY4wxxhhjjDHGGGOMMcYYY4wxxhhjjDHGGGOMMcaYuXK0o/0/dok/v1xLQAoAAAAASUVORK5CYII=;" vertex="1" parent="1">
          <mxGeometry x="-327.45" y="438" width="62.16" height="62" as="geometry" />
        </mxCell>
        <mxCell id="B3J9zCPMF0yDf6O6Sbgf-17" value="" style="shape=image;verticalLabelPosition=bottom;labelBackgroundColor=none;verticalAlign=top;aspect=fixed;imageAspect=0;image=data:image/png,iVBORw0KGgoAAAANSUhEUgAAAlYAAAI3CAYAAABZDRXgAAAAAXNSR0IArs4c6QAAAARnQU1BAACxjwv8YQUAAAAJcEhZcwAADsMAAA7DAcdvqGQAAAAGYktHRAD/AP8A/6C9p5MAAAAhdEVYdENyZWF0aW9uIFRpbWUAMjAyMzowMTowOSAxMDoxODoxMTc2bC4AAHQaSURBVHhe7Z0J3HXV2P+f90WlUqRRs8wZojLPoUwJZQiZknlKypzMyjy+5lAUMkdmkYhSUpRKNBhSkhKJ9///fZ9z7tfd3XWfvfbaw9nD7/v5fD/n3PHc99lrr73P2mtd67pWGGOMMcYYY4wxxhjTKf5r+mqMMcaUZU25oVxfrjd9XUeuLa85fV1FriGvLVeTcLY8Qn5t5U/GDAgPrIwxxkTw/bCxvKHcatHrFpL/zkCKwVIVjpePkmet/MmYAeCBlTHGmC3lbeStp683n/63hRmmJrlA3kf+fOVPxvQcD6yMMWY8cM9n0HRHeVu5MJBiyW6enCy3l/9c+ZMxxhhjTAdZVd5F7iu/KC+U/6+j7iGNMcYYYzrDNSQDqdfIY+Q/ZDSI6aIHS2OMMcaYubKRfKI8XP5ZRoOWPniCNMYYY4xpHeKjXitPlP8ro4FK3zxOGmOMMca0AoOp18kzZDQw6bufkcYYY4wxjbGNZGZqqIOpxT5GGmOMMcbUynXlXvKnMhqADFGOlQztxhhjjDGV+W95X3mY7NNOvjok4P5m0hhjjDGmEpSG2V/+RkaDjqF7ubyrNMYYY4zJhizjh0oyjUcDjq75b/lbedKi/1bVK+WDpTHGGGNMaUjeuaskcWc00OiCLENSGPlDch+5i9xaUjOQ5cqjZPTvykqKiMdLY4wxxphSrCVfIM+W0SBjXv5NHi0Pko+Vt5LXlMvxEhn9nhwZtBljjDHGJMOA6uXyIhkNLtr2PPkp+Vx5e3ktmco9JEt30e8t61ulMcYYY0wS15H7yXkPqC6T35B8lm1lLutLBmXR3ygrS4ksiRpjjDHGzIT8U+zwu1hGg4o2pMTNqyQ77WYt66VCXNXXZPS3ynqKZBbPGGOMMWZZri1fJOcxoPqX/K58ntxC1s2+Mvq7Zf2T3FIaY4wxxoT8l6QMC2kIosFEU5L64JvySXJd2RTUJrxCRp+hjPyOu0ljjDHGmBCCuX8io4FEU/5MspuOpKJNwyzcL2T0OcrKANAYY4wx5mrcVH5eRgOIJrxQvkmSCqFN3iWjz1PW90ljjDHGmKvADM4rZVt1/EjSSSHm1WXb7ChJ4Bl9rjKSpZ12M8YYY4z5Px4gfy2jwUOd/lW+Q5LpfF4Qs/UHGX2+MpJqoolgemOMMcb0lI3kx2Q0cKjT30tmw9aR8+YwGX3GMjLb9RBpjDHGGLMydxPLcJfIaOBQlwSj83eow9cFdpbR5ywrebSMMcYYY1bcWB4rowFDXf5Q3l+SrqErXF/WsQT4HenM6sYYY8zIYZDD7NGlMhow1CEDqgfLLg2oFviEjD5zGUmQupk0xhhjzIjZVFJTLxos1CEDqp1kV9lFRp+7rLtJY4wxxoyYPeRfZDRQqOrp8mGyy6wtfyejz1/GD0tjjDHGjBQKJh8ho0FCVS+Qz5LXkl3nPTI6hjKeIdeUxhhjjBkh28km8lL9Xb5eMgvUB+4kqTsYHUuq/5S3l8YYY4wZIcwkNZE9/Ui5lewLzKaR7iE6ljK+QhpjjDFmZFxHflJGg4MqnieJ0+obL5LR8ZSRkjV9WO40xhhjTI3cRv5KRoODXK+Qr5PzqOVXlS3l32R0XKmyBEi7GmOMMWZEkAKg6iBiqczU3Fb2lS/J6LjKuL80xhhjzEggCed+smpw9mKZpXmD7PPy1/1kdGxlZGC5ijTGGGPMCKD23iEyGhTkeqLcRvYZBkOnyej4Ur1SbiuNMcYYMwI2lsfLaFCQIwOJl8oh1L+rI2D91dIYY4wxI2B7eb6MBgQ5kuvqjnIIMOCsWgeRRKDMBhpjjDFm4Owg/yqjAUGOn5bXk0OhjlQTD5DGGGOMGTi7SwLLo8FAWZnV6WNeqlncWf6vjI431cOkMcYYYwbOM2VdO//IdXVLOSTYHXmMjI431UskS4nGGGOMGTCkU4gGAjmS24nCzEPjkTI63jI+WxpjjDFmoPy3fI+MBgFl/Zdk1x8zO0NjVXmWjI47VXZYDmFHpDHGGGMC+JI/VEaDgLJeLHeUQ2VvGR13qsRlDWVXpDHGGGOWwKDq4zIaBJSVVAq3kEOFHY0XyejYU6WtjTHGGDNArikPl9EAoKw/khvIIXOQjI491cvkJtIYY4wxA6PO5b/PyNXlkNlIVi08/TJpjDHGmIFBweMjZPTlX9Y3ySEGqS+lamD/b+S1pTHGGGMGBIOqz8roy7+sb5BjYAt5hYzaINVHSGOMMcYMCJb/6pipInnoM+RY+JiM2iFVkomOYVbPGGOMGQ18sX9ARl/8ZSRH1RPkWLipvFJGbZHqXaQxxhhjBgTLdtGXfhn/IXeWY4LC0VFbpPoFaYwxxqzYTpJz53zJF8Tl8gfy6ZI4HdMf9pFLv/DLyqDqQXJMbC2r1Exkdm9odRKNMcaUhG3zb5WzvlBOkOtJ032eKMn2HZ3HVAncHtugCj4ho/ZI9WBpjDFmxNxNniGjL4mlniyHWGB3SOwiq8YHMah6sBwbN5HMOEVtkiIzfJtLY4wxI2QN+XZZdtnjzdJ0kzvJv8vovKU61kEVMNsUtUmqb5HGGGNGyD3kmTL6ciiSL96hlzHpI+Rd+qOMzlmqnNuxBaovcENZZabvUrmuNMYYMyLWlO+SVeNvdpOmO1xHskwbnatUWQLbVY6V98moXVIdS+JUY4wxU+4sz5LRl0JZXytNNyAB6JdldJ7K+FQ5VjaUxEdF7ZKiZ6uMMWZEXFPuJ/8poy+FHF8hTTdgN2d0jsr4UjlmXiejdknVs1XGGDMStpI/lNGXQRWfLc382UtG56eM75BjhuXxP8uobVK8TDoNiTHGjAByGf1VRl8GVb2vNPOFpd2qs5DkbPpvOWaeJ6O2SfVAaYwxZsCsI6uW5CjSuwLnC/E858ro3KT6dbmKHDNUE/itjNonRWar1pfGGGMGCsk+q37hFvknaeYHM0xfk9G5SfWX0oleV6x4jIzaJ1Xi24wxxgyQ/5LPlXUGqC/n96SZH/vL6LykepG8sTQrVvxERm2UItfaZtIYY8zAWFseIaObfxO+X5r5cC9ZpeQKg4F7SzPJUh+1UaoUKzfGGDMw7iirxIjk+AJp2mdjWTWz+p7STDhERm2U6jbSGGPMQGDpj91MlCCJbvpN+iBp2oXz/Q0ZnY9UXcfuP7D5osq1Q+C/McaYgUD5kjaX/pZ6I2nahbxh0blI9buSRLFmwstl1E6p3k8aY4wZAAxqTpHRzb4Necr3F3S73ExeLqPzkSLLhzeQZgL9t8rO2Z9JZhCNMcb0nB1llQzRdfgLadqDQcCPZXQuUiTQ3cHqV4VC01Fbpfp4aYwxpudQuuRKGd3o2/Qr0rTHATI6D6m+TJqrcpSM2ipFcritJo0xxvSUa8tDZXSTz/U4ef6S/5bq/0jTDtvJKoNpBhBjL1ezlM3lv2XUXim62LIxxvSYTeXxMrrB5/i/8m2SMiYXT/9bWV8sTfOwBPhTGZ2DFP8gXRj46lSZAWRZlYGZMcaYHnJrWWdpmkvkIySsJaP/T4q7S9M8e8uo/VN9mDRXhdm7KjnfPieNMcb0EILU/yqjm3uOJ8it5AK3ktH/L8W7SNMszFReKqP2T/ED0lydB8iovVK9jzTGGNMznimrlCxZ6jslS3+LqfIFw5e+aZbPy6jtUzxLkufMXJ0qud9Ok06xUA4e5h4luac9VG4ijTGmNVimeLOMbuo5kvfocTLi6TL6N0VSZ+4a0jTHQ2TU9ikyIL+rNFdnHVkl0zpLsyYNymz9QC5tQ2I82VXsBMPGmMZh599n5NIbUa7EkdxOLsfrZPTvijxbmuagH1SJAWJgbmJIVxK1WYo8UKwvTTHUES2acWeZ+9HSGGMagSfpY2V0A8rx27JoN1hu8VnKopjmeImM2j3F38g1pIk5WkbtlqKD1tNgYwuzUlEbRr5briqNMaY2NpI/l9FNJ0eK7KaUm/mejP59kR+TphkoCszOzajdU3ywNDGbySq5q9y2xTDbSoqPqP1mSTqZLaUxxlSGm8mZMrrZlJXYkSfIVE6X0e8p8o3SNAOJV6M2T5GgbLM8+8mo3VL8vXRtzGL2lFH7pUiZrp2lMcZks7XMzXy+1Avl3WUZLpLR7yrSAbzNQH/IzbBOWg7vtprNyTJquxQPlKaYj8qo/VJlCZHkrd55aYwpzfaSwVB0cynrL2XZHTY8fZeJg1jsY6WpnyNl1N4pPl+a5bmFjNot1ZtLU0yVPrzYwyXLisYYk8S9ZF2JP78pryfLQixP9PtSvJ809ULC1aitU/yVvJY0y0MR6qjtUvyJNGl8S0ZtmOOPJfGnxhgzE7I2k1squpGUlczauV+oLDtFvzPFbaSpl6/LqK1T3EWa2VSpt7iPNGkcI6M2zJVyXreVxhgTsoOsa1D1KlmFe8jo96Z4A2nqo8ps1XekmQ0bRKK2S5HlcnYTmjSYZYrasYqXSQe1G2Ouxt1klbpvC5J0j4zpVdlVRr8/ReecqZfc2SpSB2wrzWxeKKP2S5EZGJNOlQ0Cs+S+92RpjDErIabqbzK6YZTx7/Jhsg6eKqO/USSfwdTHnWXUzik6n1gaUVmVVJ8tTTrUUozasQ6ZPfQmDWPMinvKOgZVF0uW7+oiN5iXfD6mPqiZFrVzkaRlcK21YjaUuUlBmSVx8HQ5fi2jtqzT10hjzEhh+Y/4gOjmUMY/ytvIOiE7e/S3iuSJ1NQDGwhyU158RJpiHi+j9kuRslCmHHXl5SvyvZKC9caYEcHOub/I6KZQRm5UTeTQyc3wfZw09fAhGbVxkcxWbSVNMZ+UURum6GXA8tSVmy/FQ+U1pDFmBPClx5JZdDMo429lU8s9uRmSvyZNddaXxKtFbVzkh6Uphi/dKl/0rl1XDrKl51YOyJVEoh5cGTNwiMk4S0Y3gTKS9HFT2RTckKK/W+SnpanOq2XUvkUS9+PZqjTuJKM2TPEUacqxlozasmlZFvey4MDxCR4v15VHyRuu/CmfUyV1/0iO1xS55SLIw2WqQds/bfK2NJ+VDNxNMTtNX3P40vTVpLPO9LVtKDz/Pun6gsYMDL4svy+jJ6oyUvePcjNNk5s76f3SVGMPGbVtineQJo0fyagNUyRpqykHGdKjtmzL90gProwZCKzxf1FGF3sZWf5rK6t57iDwHdJUI7fsx/ekSeM6Mjfe50/ScTvlobJE1J5F5u6MjWS3szFmALxNRhd5GVne2US2xfEy+hxFHiRNPlVqND5EmjR2lFEbpujEq3nkVnP4nKTNo/8tR9d2HCCOsRoXlJd57uRtNuz+u7c8b+VP7bDa9LUs/5i+mjz2mr6W5QzpuJ90iFHM5ZvTV1OO3Bgr7nvESb175U/VOVDuPnlrjOkbPBVX3V5Mnqqqwe455O5cfKk0eRCH92cZtWuRfgovR+5yKza5G3fI7Cej9ixy8T3ltTL6/5T1CsnSpDGmR7CkUzUBKF+yt5Lz4Hcy+kxF+gs+n0fLqE2LZJZwXWnSYADLF2vUlkUyM2jyeKOM2rTIpcWVqxTNXuwlkkTNZgB4KXD4kNzxy3LtlT/lQXLIneXPV/7UPrnBudywTB6Pmb6WhRQLJLo0abBzcpXJ29J8Z/pqypO78eYP09cFiOOs4wGOvFrU4txs5U/GmM7CDbtKtXxk+fDBcp5wM4s+W5GescpjPflPGbVpkXUW3x4D+8qoHVNkVtHkQW3FqE2L3FZG5C4tLvWncnVpjOko75TRxZsqW4ufKOdNbskdvrRMeag7F7VnkadL5+Ypx2EyassiuTapnGDyoK9G7VrkxnI5iL+K/k1Z6RO+jozpICzlRBdtGV8iu0BujNWLpClPbrLKl0tTDuKkorYskoGByecyGbXrLP8tryVn8UoZ/duyvlgaYzoEQeY5N47FHiy7Aluco89YpG9O5WHXZ9SWRTKD4kLA5aCsVG7CyY9Lk8f1ZNSmRTJzngKJiaN/X0YGcQ+Spoc4eH14EKR+hFxj5U95kDU7N4dRE/Dlk4P7d3keNn0tC7F8Z0/emkRuJ3OXfEiaa/KYtZw3C3L4pfA8yXJeFbh3HSpvvvIn0yv8xTMsuEkz03TjlT/lcabky5Xg5a6Qm+jTcQrlyR1YeQalPMsFQqfwk+mrKU/TAyseBB8vv7Hyp3zYKVj1IdnMAQ+shsUL5C6Tt1lcLJl+vmjlT92BdA855G5jHyt84eQUTmbn6Gcmb00JcvPC/UueNHlrMmh6YAU8mD5cVp1ZZMaKTUimR3hgNRyo1k4m4FxY03+k7GJQbO7Aas3pq0mDQXnOPYF8SiSQNeUgcW8Op8rLJ29NBm0MrOBSSaqac1f+lA87sx87eWv6gAdWw4C8J6zHV5mhYatw1anrpvDAqh1yZztZrjDlIOltbvyM46uqscX0tSxlB1ZADj6SK/9t5U/5vFfeZPLWGNMGXHTRzpJUPy+7HI9ERuLocxf5CWnSII6DWLaoHWfJshTZ/U05+JKM2jPFZ0mTD5tzonYt8pYylwdIrpXo96Z6sqQEkjGmYXgayt2yjb+Q15Fd5lMy+uxFfkmaNFiyiNqwSJdVyYNNAlF7pngvafLJzYtHMHkVyKsX/d4yOt7KmIbZUF4gowswRQp/3kx2nffJ6PMX6S/9dN4lozYscm9pykMy1ag9U6TkkMmD8ICcB9G66l8yix79/lT57PeRxpiGyF0iW/ARsg+8QUafv0jHoqRDmo2oDYvsw8C8ixwuo/Ys8o/S5LONjNq1yGNlHTCwY/NB9DdS/Y2sOntmGsTB6/1lD3n/ydssPihZYusDpIHIoetLnF2BvGdbTd6WgoSgp03empLcaPpaFr6UTT657f6r6WtVqIhBGgZ2DOayuXzT5K3pIh5Y9ZN1ZZULi/pkz5+87QW5A6sNpq9mNrkDdGZMTR65O9N+Pn01eeQmT67zAYLf9TjJ7FMuT5FVHqxNg3hg1U+Ih8mNs2Dn126SJ6e+kDuworyPd9EUs+P0tSxHTV9NOdiBuc7kbWlcfLka856xWuALkpqCVXi/pN6kMaYi7AJcuuZexmfLvnF3GR1LihQVNsuzmiTHTtR2syS3GPnTTHluIaM2TdGFeasxj1QLy7GqJIN+9PdSJaTDGFMBZmDOk9EFluJXZR/r5xH/Ex1PineVZnnuJ6N2K9KzVfnsJKM2TfHW0uSTk2qB/FM8gDQB2ffJoh/93RTZJXgXaTqElwL7BbvjcssxkFqBdXkuxr6xcDPMYaPpq4lhYJUDg3STB8HHueRk/zYTiE3NuR/Q5rmF4ItgM8K+k7dZ8KD8HnnNlT8ZY0pBJXzq+S1+Wikj9ab6DHlkouMq8jnSLA8pKaJ2K9LlNfKhpmfUpkX+RZp8dpBRuxbZ9CYNBkdHyuhvp9qnzUiDxzNW/YALj0DH3PPFjeEjk7e9hVmrHDxjtTwEvpLXpyy/lnUH846J3N2q50xfTR63mb6W5ZTpa1MwMHqyrFLI/ACZu5phasYDq37wGHnnydvS8JS71+RtryG2LIfNpq/m6txNUgy4LN+evpo8cndynT99NXnkDqyo0dc0FGuuMutEzr43T96aeeOBVfchU+8bJ2+z2EcO4YZ81vS1LM4Mvjz3nL6WxaWCqpE7sMpNO2Im5MzOws+mr03zMVkldvGR8t6Tt8aYWbxeLl1PT/U4OZTBM7FS0TEWSb6uPu6EbIMTZNRmRd5Amnxy2/3d0uSxirxCRu06S4LWryXbgmuLAXT0WVIkfYMnTIyZAWkGuLCjC6jIK2Xu1HcXqbJF3cuBV4dZE7aRR+01y19KU43cuoyvkyaP3BqBDFTa5mky+iypPlaaOeKRbbdhtookcjmQnb2tKew2oAxPLl4OvDq58VVeBqxO7lKgdwXmk/uQOY97KBnVWW3I5TWyqbxbJgEPrLrLbeWuk7elYQfdKyZvBwMV3f85eVsaD6yuTm58lQPXq0Oi3xw8sMqny4HrSyHp5zMl6XVyIE/asyZvjTGLqZLX5NFyiLDtOTreIkmgZ65KTpwPN/zcGpXmP0RtmyKFe00eR8uoTYu8j5wX3Leiz5QiqRty61EaM0goURBdLCn+SA41WPvjMjrmIr18dVXYaZoTXzWkpeV5ErVtio6dyYPA9ZyyMTxIzHNwwt++QEafLcU3SWPMlO/K6EJJcci18faW0TEX+Vfpkg//4V4yaqci3yZNdaK2TZF8dqY8d5JRexZ5mpw3e8ros6VIcfX1pWkZx1h1D2q33WPytjRHyGMmbwfJT6evZSF53q0mb4244/S1LN+fvpr5wJelKQ8bNXL44fR1nnxY5u5MXF2+YPLWmHHDUt7SJ48UydFyYzlk2E3F9Hx0/EU+W5oJn5dRGxXp/FX1kNuHd5emPLn9nbQHXeD+Mvp8KV4qKT5tzGjJXaLBt8sxQAb26PiL/KQ0E34vozaaJfUBTT3kDqy8FFge4k1z45RyM7U3wbdk9BlTdP4zM2ooZxBdGEUSmDmWYsOHyKgNinQB2wlbyKh9iqTdTT3kBFJjV2ZQ+gSpVqK2LJKKDV2Ky9xWkn4h+qxFXiK9Q7BFHGPVHW4td5y8LQ0J5ZiFGAPfm76WZVPpDOwrVtxh+loWnphNPeTW/MtNLDpmcjfzHC/ZOdsVSI9y+ORtadaSz528NW3ggVV3eKHMSZPwd1mlSHPfyB1YAWksxk5u4Po3pq+mOh5YtUfuNU+sa9d4tcxNGkrCUYLZTQt4YNUNmEmhMnkOY5qtgtPlHydvS3Pf6euYydkhRX3A8yZvTQ14YNUeuTusqzzANQXX4acmb0tzfekEs2ZUvFVGa+NFMls1xp1aTIlH7VEkA9AxP0wQZ5ETp+H8VfXyBRm1c5GHSZPOTWTUjkVSOoskul3k5jI31upUOdTk0Z3CM1bzhxxLT568Lc3HJHUBxwYJVHPYUBIEOlbYdZpzzVNeydRH7ozVJtNXk8ZO09eyUACZ4PUuwqxVbqzVLSR5Ek3DeGA1f6jrx+CqLDyBjHUmYaGOYg47T1/HyA7T1zKQtZ46a6Y+/jB9LcsNp68mjdyBVdc3arxW5t7/HMRuRkFOMVwc+yxCbrv9So6V38ioTWb5aWnqhRnqqK2LJP+VA5DTuLakpEvUjkXmZmpvky/L6LMXSR8iBYUxg2V7GXX+FOdZdb0L7C+jdklxOzk2biOjtihyD2nqhYDqqK1T3FqaYnaRUfsVyRIgRZu7TpVk0u+UxgyWD8qo4xf5Mzl2yIoctU2Kb5Zj4+UyaotZksfH5TDqhw0nUXunOOal7DJ8VEbtVyRJmvsCubaiYyjyz3I1aczgWFvydBR1/CKpeG7ylraQdA19eCqtk5ybsIsuNwM7s6jhFrV5kQyQzWyuJRk8RO1X5N6yLxCfGx1Diq47aQbJM2TU4YskmLirW4Hb5g0yaqMUHyXHwlYypz7dvtI0w4kyavMivyjNbKhgEbVdilwrfYGSO+fK6DiK/KY0ZnD8QEYdvsgPSDMhtw4Y5qZs6CMvkVEbFEnOHNMMB8uozYscUzLgXD4uo7Yr8iTZN14ho2MpklxYW0pjBgOZ1nMr3OeWJBkqx8qonYqk/btUvb4pWHYiMWDUBrMkX45pjqfKqN1TpO6liSF1TW6IBRti+sbG8koZHU+RB0hjBsM+MuroRf5cmqvyFBm1VYpjyGTN7tHo2It8jTTNQdH1qN1T3E2amCfIqM1S5Jz0kc/K6HiK/K10LkszGH4io45e5POkuSpUbs/NV8OutxvJIfMlGR17kbeVpjn4QrtERm1fJLuJTQwbLqI2K/JM2VfIph4dU4q5tRSN6RR8kUcdvEgGARtJc3Vy01bgh+VQIU9azpIzS4emeb4uo/YvkjJWrvl2dXgYiNorxYNkX2GQfpaMjqvId0ljes9LZdTBi+x6mYV5QhB7bmFSBqzU0Boi35bRMRf5bGmap0qS29tJc1U+JKO2SvH2ss8QLxUdV5FshriGNKbXkNwz6uBF7iXN8nxORu2WIv92aDxURsdaJIG/5FgzzcPgKDoHKb5Mmv+wvrxcRm1V5Mmy79xYRseWopcDTa/ZXEYdu8h/yutLszzslozaLtUHy6FwPclyUXScRb5bmnZgOS83ye0QBgN18iYZtVOKz5FD4IcyOr4ifc2bXpO7xfor0hRztIzaL8Xz5FBmag6V0TEW+Q/prfzt8nYZnYsU+758VRcbytwNLH+X68gh8EwZHWORXg40vebzMurYRT5emmJyUwsseLjsO8RHRceWoouztk+VYrpOFjzhvTJqnxQPkUOBup6sbkTHWaSXA00voTYd5WiiTj1LgquH8kTVBkfKqB1T7VOtsKXcV+beWOmbFAc27UJZkgtldE6KJKaI2KIxw05A7pFR+6Q4tAFF7k7TA6UxvePeMurQRVL6xqRDGZbcTMTIv91Z9o07yNzCvkjSWjMf3iGjc5Liq+RYIUbtGBm1S4q/kENLW/F0GR1rkY7ZM72EPClRhy7S1ezL82YZtWWqxF2wRNMX7ipzq/njKfJa0swH0n1E5yXFi+R15RjJjSla8JFyaJDrMDf1zCbSmF5BOZqoMxe5nTTlWF3+SkbtmSrBsA+SXechMnebObKMcmdp5gtFwaPzk+IYyw+RXiC3JiCS9mao5VxyC/zvKY3pDcRB5GTA/qN0Lac8mMXJfXJbkGVBdnJ2EfoFSQFzi3kv+Epp5s/DZXR+UmSAMab4OGZXc1MLLMgDyVB5gYyOucgjpDG9ITdZ48ekyefVMmrXsnIe1pBd4YbyOzL6rGUkPoXgaTN/GCgT8xOdpxQ/KcfCW2XUBqkyozPkkkBUooiOu0hqVzokwPSG3OR1j5EmH3Kz5O6SWSpFWtl1N09Wk/vJKksgC54vN5amO+who3OV6g5y6Owmo2NPlaXvMRQYz008ezdpTC/4kYw6cZFO1lid9WTuTSbyMEl8R5vwFPkEebaMPlNZicly7F73YPbwDBmdsxR/La8jhwolgKrsfMWxFB1+v4yOv8iXSGM6D4HUObmFfitNPZCCgd1TUTvnSOzVwbLpQrgbyH3lOTL6HDnyxM5Tv+kmu8rovKU61KShW0oyhEfHnOoFknJPYyA3Zs9VPkwvyM2s/Alp6oOdb1V2zy0ns5HPlXUtqxE/xTZyEp1eIaO/mSvB/Mx8me5C7E/urq4FHy2HBLPOv5TRsZZxTA8UpODIyef3F+nyNqbzkIcq6sBF8uVq6uV+MremWIrkgyLZIyWItpF8IcyCGSkSx3KuKctxmox+bx2ye/Ap0nQfCopX2dFKDN7WcghwDZG8MjrOMlI/c2zkhqBw7zKm0+SWWLmNNPVDCYuc0kK58tT4O8mXw0nyLEkajTY/AzNfj5WmP7xHRucyVeKtGLj3mboGVRRYH8sS4GJyk1JTb9SYTsPuq6jzztLTsc1C+Zc/yKjthyZbqClObfrF2jLn3rHYn8g1ZR/ZSp4uo+MqIzN/897NOy/I1RW1SZFDKEZvBgxPXFHHLfJr0jTLZpIZpKj9hyJLi7eUpp/kfjEu9mjZt8EVDz7M6kbHU9YxlwRbV+YkEPbGKdNpmCmIOm6RrjTeDnzhkFgxOgd9l80PQ956PxZyt80vlsEVM2B9gFxedcVBflGOvXLFqTJqmyLHWn/S9IB9ZNRpi3Ri0HbhZs6SWXQu+ibFmJ8ozTAgXUsdO+KIVepykV2S39YxiFyQfGAeHOS3qROFms7ycRl12iK9fNM+pDlgCTY6H32RWl9UtzfDgo0sdcziEMR9F9k1tpV1BKkveKGkrItZseJZMmqjIp8hjekkP5dRp53lP6TrNc0Pct2cK6Nz01Wp1L+TNMPlEbJqwW0kWTEz6V1YImOW6g0yJ9/ScjIAvZM0E9gFHbVTkexKNaZzrCpzbhg/lWa+UHD5hZJMzdE56orUL2QZc+xxJGPhNTLqBzlSgPsmch6QBJVwhzpLTSH32wdJ8x/WkVFbFfk9aUznYDkv6rBFfkSabkBwO0WP2SUTnat5SeI/Sp84Jce4YADNpoSoT+RIfjMKxLeV44kBFQOf42X0eapIqabHSXN1WAKO2myWF0tjOscuMuqwRT5fmm7BAIbzeZTkBh6dt6Zl9oys7ttLM15WkV+VUR/JlS/R18qmEooSgL+XrCMIP5KZqt2licntL47XNJ0jd0egp7K7DbnJ+JL4umyi9uBi2dnEYIr4KcfdmQVYqq5aTzCS+E42QOwsry2rQPwUv4cZNkrsRH+vDokZc1Hx2eRmYKe+qjGd4n9k1FmLvLk0/YA4OoJDXynJmUMZkdwAY0rcEPfydsmSBpmnjVkOlqm/K6O+VIc8NDBDu79kgMQuu+Xyoq0lqS/3MPl6+X3JIC36vXXKgI3PZmbDg2DUfkU67U8mrHmbZviWpMBuGfhS5mmUm5LpJ3zhbSnJGbS+ZHmF2JiFnDrEtfCFQN6siyTxWwTxskXcmDKwxPY5SXHxtmDARVZ0+jQDKpbJeW0b6m8yqDph5U9mFiSq/sbkbSnIWs+GCWM6Q07As0sJGGPKQMzVwTK6nwxVcl5Rksqkwex31I5FflAa0xmIL6D4Z9RZZ8kslzHGlOWlso48V133ENm32ofzhvjMnE0335bGdIZbyKijFkn5AWOMyYGdq5Q0iu4tfZfl8ydIk8fZMmrXWfJvTAZOLNgMG09fy3LW9NUYY8ryeXk7edzKn4bDSXI7yZKnySNnkHQD6TjsDDywagY6ZA4kcjPGmFzYCEEB3QMkqQj6DIHyJOi9vTyN/2CyOWf6Wgbi99aevDVl8MCqGXIHVux0McaYKpAwkxQgFDfu6+zVl+XW8kDJ8ZhqkGA4B/L2mZJ4YNUMG05fy/KH6asxxlTlFEmSxyfLvjy0kT7hgfLBktk3Uw9/mr6WhZQxxnSCT8koGLDIhVxHxhhTJ+THIy8RudOie8+8JYXCQ6Vjeprh8TJq9yLZEGFMJyCDdtRJZ0k8gTHGNAmpCqhHSsxNdB9qU1LSHCmZnfLqSbM8QEbnoMinSGM6Abv7ok46S8qhGGNMG1xTMqD5rKQaQHRPaspzJUWft5CmHdhVGZ2LIl8ijekEf5NRJ50lRVWNMaZt1pV7yMPlxTK6P1WRxKXEThFQTzoIL/e1D4PY6NwUyeYBUxJ38PqhMG9Orb8vSK9nG2PmCTNZ7MYjxcH2kqLwm0t2OlMXsAh28J0vT5Q/ncqgivqCZn4weM4JYH+3fNbkrUnFA6v6YRdFzk3ko9KZhY0xXYSyKJtO5T2Q54igeGa52NHMlv7cbf2mWa4tc+J4PyKfNHlrzPy4sYymVIt8uzTGGGPqhkmUnPq1n5SmJN6JUT+5mWr/On01xhhj6oRB0t8nb0ux+vTVlMADq/rxwMoYY0zXyFkKZAnRlMQDq/rJHVhdMn01xhhj6iZnYOUZqww8sKofD6yMMcZ0jX9NX8uwsFHBlMADq/pZa/palkunr8YYY0wXIDbLlMQDq/pZbfpaFpe0McYY0xQ53/fsJDQl8cCqfnKnTnOmaY0xxpgUcr7vyZpvSuKBVf2QuTgHMhYbY4wxTZCTENwDqww8sKqf3BkrD6yMMcY0hWesWsIDq/rJnbHyUqAxxpimyPm+d/B6Bh5Y1Y9jrIwxxnSNNaevZbhi+mpK4IFV/Xgp0BhjTJcgvipnYOU0QBl4YFU/Xgo0xhjTJcignvN9f9n01ZTAA6vu4HNhjDGmCa4zfS2La9hm4C/z+smdeXLpAGOMMU2QO7DyjFUGHljVzz+nr2XxwMoYY0wT5MRXgWOsMvDAqn5yZ6xyY7OMMcaYWaw/fS2LB1YZeGBVP7m7+zxjZYwxpgk2mL6W5eLpqymBB1b14xkrY4wxXWKj6WtZfjd9NSXwwKp+HLxujDGmS+TOWP1h+mpK4IFV/eQGr68yfTXGGGPqZMPpa1k8sMrAA6v6yS0BkLtrwxhjjJlFzsDq7/KSyVtTBg+s6ic3odpa01djjDGmTjaZvpbBs1WZeGBVP7nbUz2wMsYYUzfXkJtP3pbCgeuZeGBVP7lTpx5YGWOMqRsGVTkxvOdNX01JPLCqn9ylwNySA8YYY8xy3Gj6WpYzp6+mJB5Y1Y9jrIwxxnSFraavZTlr+mpK4oFV/Xgp0BhjTFfIHVh5xiqT/5q+mvogbUJOAPuX5YMnb40ZLGvL60oeJIj74D1VB/h5Vbm6XEMujQnhXsX/dwFmhv89eft/kJyXa+8fkq3iVOanxNRfpq889PAejRkLX5A7T96WYmPpAPYMPLCqH9qUJKFlS9T8WN5h8taYXrCaJD8OUuQVKZ2xniTT87qSwRBeb/ralXsONdAWBlnIz7+Xf5J/lGw1v2AqXy6XS2P6yNlyi8nbZP4mifv9fyt/MqXwwKoZuEGXTcj2W1m28xvTJAyMCHylX5IHZ1PJDiPeY26ZjD5ykWSX1DlTeY+/kSyZOOeP6SI8zPxZlv2uP1neZvLWlMUDq2Y4UW4zeZsMyxfXnrw1pjW48d5C3lQyiCIeg1dk2c6kwbIjwb4MspD3Z8hT5IXSmHlwL/ntydtSHCYfPXlryuKBVTMcJXecvC0FX2S5uwqNmQV961aSQRRuPX29gTTNwvIiA6xfTl9Pk8wIMAtmTJM8X75l8rYUL5ZvmLw1ZfHAqhkOlo+fvC3FTSRPucZUgXgmBk7bLvJm0ruAuwUhAyfIU+Uvpu95dVyLqYvc76L7SyYIjOkMb5TcHMt6N2lMGQgwZbqfJ8zPy/Nl1LdsP2R26ytyf7mTZJBsTC6EpUT9rEg2oRjTKfaWUWct8uHSmFkwq/kk+QHJchIpBqK+ZIfh/0qWDj8qny5vKb3SYFIg9Q9pRqJ+NUt2xRrTOXaXUYct8pnSmMXcUO4lPybZORr1GzsuicP8htxP3lVeSxqzlPvIqP8U+TVpTOe4t4w6bJEHSjNu2JX3NHmEZFko6ifWLpY8XCQYfp4kts4YYDk56i9FEspiTOcgUDjqsEV+SppxwXQ9T5Zvl7+WUb+wtows5XAvYaaTfGNmnHxdRv2jSIekVMRr9c1APioy15ZtX2dfHwekPXiQpITR7eU1pDFNwBflSZIZrS9Jdh4St2WGDfcUqgmwuaUsBK474a3pJJTBWPokUKSDBocJ5Y2IhSEvzOkyOvfWtiHLy8Tr7SZd+H243FZG579Ip/sxneZYGXXcIilAa/oPS3yPkIdLCgNH59raeUqh6i9K8hytI81w2EdG57zIj0hjOsuhMuq4Rd5cmn5CeRhmApgR8GDK9knSdhwjnyudw6j/fFNG57nIPaWpiGOsmuM18qWTt6V4gPzq5K3pAcxMPUSSYoMg9FWkmdTOI7M4ZVvYtbZU4j8YfJJnh5955d8wi0LdTOCVn4tglneh3YlvXE0SW8ISLAk2SUfAzwx8+ZnXxV5fUjSdc2lWrPi3/J78hGR3KufK9AeuB667VVf+VA7KXFF6yVTAA6vmeLL84ORtKchl9Z7JW9NR+KKmFiSDKQZVq8uxcLkkn9Z5U8+ZvhIfSPwOg6kLZMqAqGtwHteXDLJ43UBuLDeT7K7bVG4ux1Qs/QpJaRMGWQS/9/G8jg02xbDEWxYGY+tJZq5MBTywao4dJNOxZWHbPfloTPe4oyQeheU+ZjmGCDdVBkpnyrOWvDKI+rMcO5x7Bls3kuQd43XhPQOxod5XmWH8nCQL/Heldxd2k3fLZ0zeloJ40EdN3poqeGDVHGTM5gupLOQeYTbEdANmLx4rnyiZJh8KxNQwWKIAMFP/C6/sWlxYijPlYTbrppJYScrPkNOOV+4HLE0OhbMlAyyK/DKDaboD3zv0t7JQKsvB6zXggVVzkEeEmBHiPcpwruRp2MwPlvoeKLnRUOW971+IxDBRjBXJaYQMoP4pTTsQ78IgaxvJVnjkfd9THjBr9R3JF/JnpZcK5wuZ90+ZvC0FM9Usd5MmyJhO8zO5sNsiVW5UOUndTHWIoXm1zMlB1hWpI/ct+Vr5MLmlNN2EB1uWEFlapozI0ZKHsei89kGWid8imbEz8+EAGZ2bInnYMqYXfFJGnbjI7aRph/+WO8kvSJbHovPRVdm9dbL8gGSzBEtOHI/pL8yOMpNFvUhmgX4ho3PfZXk4JL50V+kC0e3Ckn50Top8vTSmF7xCRp24SGJ6TLOw7f6FkniE6Bx0UQZ+P5HMCuwsndRxHLBDkfpt75DMgjOgjvpHF2X291XSubGah2XA6BykeE9pTC/giS3qxEW+TppmIM6FdBZ9WHLhyZ+4qIMksV4uQWKAATUD67fJ3BmKtiVtw8flttI0w/4yavsiicF0/j3TG9hFFnXkIgkCNfVCrT7y8DBYidq8K1L89FNyL8nWfWOKIN8WcVrvk6TKiPpVlzxe7iGHtEuyC/xcRu1dJANeY3oD8QXsvIo68yxz0jSYq8NTGGkSuvxUz/IeWa73lUNK52DmAwHxt5Mvlz+WXV42JGXDs+WYEuw2xa1l1MYpMvtpTK/ICT5lVsXxM/lQmuT5ktQVUfvOW3ZPsbGBzO0+z6ZJyMPGxgYSe3Z1+ZuM/cSj+lrIh8TSUdsWyS7isimBjJk7n5ZRhy7y3tKUY135SnmhjNp0nvKZKM5MuQnHM5h5wBco/Y8lQ0oQRf10njLwY4DgPH7lIEda7j3vUGlM73iJjDp0kftIkwZP5eyU+5uM2nJekpGaAOO7S6dBMF2CwT1pRt4vqe0Y9d95SfgEKUScgy2NR8ioHVOk1qkxvYPyNFGHLtJPEsVQMPQNsksDKgqZMjN1H+nKBqYPMOhncwczWZfIqF/PQwZYXEs3lmZ5viaj9iuSZcAxFRQ3A2KhWnhZqdtmYsjrw4Dqchm1XdvyOdjJxzKLEyKaPrOwXMiApisPLAsDrJtIc1VYNs3doECtR2N6C0tCUceeJRcLQdjmPxBD9WZJPbKozdqU80PBbALQ/dRnhghJdMkAf5yMroG2vVKyREhNOzPhNTJqqxTvIY3pLeSlijp2kXeRZsWKNeR+kkR2UTu16TmS2TLHf5gxQWJd+j151qLrok1JNsqyJfm7xgwPdOyojNqoyDOkQxVMr3mpjDp3kXvLMcNul+fJeQfX/kOSRI8nPN+M2mdtSZDtc6bynv9m2oelbtr/SDnvHFnEg5FtfKxF658qo3ZJkU1VxvQadt9EnbvII+QYIZj2cTJnCbVOeapjdyZLkKZ9mKlk+z0D26Xnhv/Gjkv+P2Y+bCEpvzXv1A08eD1Ljim+kQe83ALdJCXeVBrTa/hijjp4kUy7jw2KgZ4go/ZoQ+I4GNDeV3p2an4wI0WdxOgcLfan0rNX84XUDY+SR8voHLXlaXIs6QOoHRq1QYpflsYMAso3RJ28yK3kGGDHDzvrojZoQ+K3mB3ZXJr5U6YvkMXedIObSq6jee4o/KG8kxwyR8no2FN8mDRmEBwio05eJMVKhwxlLN4lc2oq1uEpkoLHrlfWHah7VqZYNv/fW0nTHUiJQr3C38vonDUt8V+kaLiBHBrUgswtJv8b6eLXZjA8XUYdvUh2vwwR4qgIvpxX+Rme+Lzc100ISI7O2Sz5Ejfdg2VC4iVPktF5a9pLJQXOh1RG6ksyOtYUXyCNGQw8UUcdvUhmVIbGdpLp+uh4m5SnWG5K20vTXQ6T0fmbpSsVdB+yu1cZFFTxV/IBsu9Uma0i0/p1pTGDgZkRyp1EHX6WXERDqfp+fUn8RdvbtNlB5szN/eGrMjqPs+TfmH7A4IDrkd1p0blsUgZ2N5R9pcrAlHuvMYMj96LYWfYZlv1YCr1YRsfXlCwDkNSQeA/THzywGge3kMw0tv2gRQkq8jj1LT0DM/25s1W08Y2kMYPjRTLq9EW+Q/YVApGPldFxNSUDKp7ONpSmf3hgNS6YQSKWlFQn0bltSpYH7y37AmkSouNI8QvSmEFCjEHU6YvsY0Fmyi28UlJ+IjqmJiSGgBmqoSydjhUPrMYJZaLaHmAxA8SyZNeTADMAjD5/qneWxgwSSrTkFhDuU+FRktfl5u3K8TL5eknRWNN/PLAaN+TCOlzmLnvlSPZ4Cqp3EUIpUpLlLifF4o0ZNN+WUecv8gmy65ABmyfO6PM3Ibmv+Ht9zFXDZgZiJijFQYHpJ0oXdp7ggVV56E8Pl1+RC8XKWeqi7M9mso/cUradNJgaiF17iH2yjD5rqneTxgyaF8uo8xdJgtEuw1bmc2X02euWQExuuH0NxqT8x+ly6XHxhP452afZySbwwKocG8jvyKhdkGLFDLr6CstYbZbLYWBK0uAu5LhbU/5ORp8zxa9JYwbPtjK6AIqkbmAXk1mSQoGdPdFnbkK+QPuaZZvzR1B9dFyLPU+OOTWEB1bpkJeIGMyoTRZL3FLf8zjtIqMHkqakT827WPGrZPTZUvVslRkFrJf/SUYXQZHssOsSFDxlwBd91rr9mbyf7DNlsu9TXHhM1foX44FVOgReR+0RybXa9wSRXBPPkW1VbGC270lyHmwkiR+NPleKjq0yo4KisdGFUOQzZRe4jmwrlup8ybT8NWSfYZdk2QSxj5ZjxAOrNIjJK5tkc285BBggsgM4dzNQWelfDHTa5I0y+iwpElZwR2nMaOAJKLoYinyvnDd3l23s+OOGyTT4UIojs4wRHecsvyHHiAdWabxURm0xSzbPDAlyYBGXGB1r3bJzsM1kzZQziz5Hijy8GzMqCE6OLoYiPyTnBVPw5KVqowxF38tORFAkODrWWRIXQwzb2PDAKo2fyKgtZnmOHCLkeaoyECkjy6/M2jfN32T094vkoXQLaczo+IWMLopZUvV/HtxcEuMUfaY6PU3uKIfIATI65iJJwzA2PLAqhhQKOXmezpRDZRX5Qkmi4OjY6/QseXvZJMR3RX+7SJZIjRklb5XRRTHLO8i22VPmPjmlSoDmvpIb41DZQ0bHXuQX5djwwKqY58qoHYr8tBw65LX7hIyOv07Jo8d9iw1JTfBDGf3dWbJcuZY0ZpSww6/ME+e3ZJtwcbaRRoH6V2OYts6dYWBav41lhy7hgVUx35NROxTZh0TDdXEPmZKKoqrcm5tIUvx8Gf29WT5NGjNqPiqji2Op5DVqM3vy9pIlg+iz1CVJ75jFGRM/llFbFPlIOSY8sJoNCUFzYh2J2et6Tby6WU0SG/oPGbVJXV4gHyjrhJ3ELDlGfy+SsjfXlMaMGmYijpfRRbLgj2RbgdwksHyBZIo7+ix1yBcCZTbGNgsDuVn3D5NjwgOr2TxVRm1Q5JjzGm0tvy+jdqlLZqSpWVrn4OZm8vcy+nuLJVt81/IcGjM3GGAcLJcuE5HzaFfZVv4mPkfTdbnOkKRrGCs3llG7FHmp5Ol1LHhgNZujZNQGRZKgdszw4EhOvKaD2ym/U2fOq/UkOxEp5RX9PTZC3U4aY5bAkwlb8qnqfoRsc/lnG8mgJ7po65AlCHaqrCrHTu6W8Dbz58wbD6yWh8SYV8ioDWbJl3Ifi5U3weaS2buoneqSIPL7yDq5hWRZ8/OSwfUHJTUgx1qhwZjOQpxTk7v+TpbbSTMht/bXR+RY8MBqeXJ3lx4jzVXZTZathlBGwh4YCDW1a9AY0zGYPfqAjG4IdUicFnm3/DR1VW4ro/Yq8mI5lrb0wGp5crOMEztprg7JmnOXVlP9rBxjTKkxo4L1/2NldBOoQ9b8PUu1PGV2+iy27qWFruKBVQzlnXJnl4dWyaBOFmKviGWM2q4OT5ckWjbGDBCCHH8ro4u/qgTgU5x5DWmW500yar8i3y3HgAdWMWxmiY69yJ9KUwyDzyZ3DpJJ/SHSGDMgHiMvl9FFX1UGa9TrMsXcWUZtWCTbrscQr+GBVUxuwl42xZg0SJWwn8zZIJAiD59s5GGWzBjTY0jZ8A4ZXeh1yE5GdiuZNBgcnS+jtiySQdnQ8cDq6hBfR5xddOxFspvMlIM6gLlL9imSm25MKVSMGRRryi/J6OKuKrNf1Cwz5WFZL2rTIg+SQ8cDq6vzABkdd5HE9pg8CDg/REbtWofHyQ2lMaZHsOOFMgfRRV1V8jHdUpo8CESP2rXIs+XQlxE8sLo6uTt4XytNNUhx0VRgO+XKnNzTmJ7AkhFJ6qKLuYrECFCSxsk+q0Esx59k1MZFkrJhyHhgdVVYys+9lr07tx5I4NzUQyqZ4B8kjTEdZnf5dxldxFWkHtXDpKkHkn5G7VwkSUaHjAdWV+VeMjrmIs+VDpKuDwo6v19GbV1Vkok+TxpjOggxT8vVlKoiT2s3kqY+KFMTtXWRLMMOGQ+srkruxpO3SlM/j5WXyajNq/p26UztxnQElgveJaOLtaoUACU5oakXllNzC8KyNDFUPLD6D8w4nSOjYy5yzAXPm4Zkn6fKqN2rSqZ27xg0Zs5wEXIxRhdpFdn1R+CmaQ5SVURtX+SL5VChCHl0zLP8jBwid5DR8RZJTBYPW6Y51pKfllH7V/VoeT1pjJkDXHzfk9HFWUXiM7aXplkeKaP2L/LHcqiwhBUd8yzfLIcIySSj4y2SCgimHQi/IEYqOg9VpDTY5tIY0yKbyl/K6KKs4nfketI0D3nGcjYasDtzMzlE7i+jY57ljnKInCaj4y1yqO3RVeizuQlcZ0k6hq2lMaYFqGvVRGZgnnTJ8mza44syOhdFDjU5K8G7J8vomCNPkkMM+L2VjI63SL7gV5GmXdjcw8aS6JxU8c/yTtIY0yDkMao7RxWzJo6nmg9PlNE5KZI4jKFya5kS2M//Z6iJaveX0TEXyWYTMx/I1v55GZ2XKpKgdAdpjGmAu0nySUUXX64kqvQOovlxfXmljM7NLEmrMeSSGAyuZs0A/FwyqzNUfiaj4y7yodLMD3ZyvlJG56aKFIbeVRpjaoR6YezUiy66XFlycYDk/PmmjM5PkXvJIcMS30Pke+WRU98jyQE25Hw/W8rofBf5N7mGNPOHmWgGQ9F5ypUg+SdIY0wNUPLgHzK62HIl98/a0syfZ8roHBU55MSYY2ZfGZ3vIoeadqKv3EVeIKNzlSsbV54tjTEV2E3+U0YXWa5vkW3nuVmYffiQJEXE1yXb5MnVM3ZY0svJmE+/cL6b4ZGbQoWs4GYS68R98yD5Qfl6SYzSPEr8ENSeu7tzORlcPUcaYzIgz1FO/M1yckG+ULbNVvKHMvpMSILT68oxc6yM2qZIBqtmOPAAkrPkz7LT2K8hHhb3k+yki9roGDmPNCU8/LDZJPpMVXypNMaU4NGyzkEVS4kM1NqGCvsXyegzLZZt8+R1Giv7yKhdivTNdVhcU0bnucivyDFDBQpmwaO2Wexv5Dw2fVDC6jAZfaYqvkIaYxIg8LHOYsoXStb724YYrjK1zrjxjBVm9aI2KZJt+WZYkBgyOtezfIocM2UGLV+W84AZtXfK6DNV0YMrYwogn1Sdg6pfy5vKefAyGX2mWT5ejpUTZdQms3yMNMOCOMToXC8neY7WlWOFnXJRu8zyznJesDmBsIzoc+X6EmmMCWD5r866U6RT2EjOC3INRZ9rlnxJ3FiOkT1l1CbLSVwNebDMsCDpaZkwgFfLsUIViktk1C6zfLecJ4+TdYZ6IOEExphFPEzWeaEdJ+f5pcu0d+5TGYHuxJqMDdrsuzJqk8ihFh82k+Wd6JwvlR1na8kxwj3iRzJqlyJPkPOGNDp15yacx+YkYzrJLrLOlArfkmw5niery+izpXqAHCPsIGL3UtQmi2UARsCuGSakBniDnPVw8gfJjM1YeZWM2iVFgti7wD1kzozbctJfniGNGTVURq8zQy9BnF0pwvp7GX3GFFkSnUfAfRegEDY3x6jQNgPwt0sGrmb43FN+Wy7tBwRgzyN1QFe4q6wSNnG87ArsnKa0WPQ5c2Rw5QztZrRwc6AMRXRx5Ph+2aVSH++T0edM9Ww55uzwLA3eXhKgTvmaJ8l5xsyZ+XEnycaWR8kxz1IB9wTuDdE9I9UDZZe4uczZDbqcDDpdN9KMDorMLpfILsf/kV2rn0YdQoLRo8+b6selMcYscKiM7hWp8jDbxRqpW0h2cUefOUdWQnaSxowCyhxUWSZbKjtc5lGuIYVnyegzl3F3aYwxzN5G94gyUpuzq7C8e6aMPneODCLHGlJhRsTGsuo09mLfKLsMA74vyeizp/oXydOcMWa8bCqrzvJTuLyrD6ELcJxnyOjz53ix3EYaM0jWkafKqPPn+ErZB9aTVWfo2ClHzJExZnwQ5lAmFUnkBXIe5Wxy4AG8zuLN58sxb3YwA2U1+X0Zdfocuz5TtRTW+qtmGyaTuzFmfKTm9VpO7j3kjeoTG8hfyOh4cuR38XBvzCDgaeszMursOR4k+0jVOlkkUL2jNMaMB9IRVM3z9w7ZRzaRdcZcfU/ykG9M73mbjDp5jn3Ots0F/TMZHVeq5Haad/JTY0w7rCFPl9G9IFXCL/qcTJeYqzp3C35BOqzC9Jr9ZNS5c3yr7Dtby7/L6PhSpUitMWb4fERG94BU/yFvI/sO8VF1bnp6jzSmlzxSVo0rWvBdcijsLaNjLCNta4wZLtRPja79Mj5fDgWK0/9ORseZ4/OkMb2CuIC6sqqTJLNryT+rwHbnI2V0rKmyhdi7XIwZJuyKu0hG136qX5ddT61QllvKqu2y4L/lztKYXkBWXwqkRp25rKyHU8V9aLDjpWobHS0dK2DMsOAhkkLy0TWfKrX3biCHyB1k1YoWC/J7hrBUagYOgdVVA7QXpPjqkHdwPERGx13GfaUxZji8SEbXehl3k0NmB0n8WHTsZSXHFTOExnQSZk+oOh913rIeJ8ew+61qoWa2YVOo2BjTf24nqXEXXeupUjd1DOwqKbYctUFZ+b7p885JM2DeIqNOW1Yy7l5fjoHV5S9l1A6pUv5hTWmM6S+kVvC9oBx7yagdcjxcDi0mzfScx8qos5aVXR9jq4vnp1RjzPtldG2nOtbZ61fJqD1yfLE0phPcVtaxA/Cvkt81RhxXYcx42UVG13QZyRk4RphlIrdf1CZlZafgA6Uxc4XdbefIqJOWkaet+8mx4p1AxowTrlmu3eiaTpVSLWPeIcyxf15GbVPWS+QtpDFzYRVZR2FlkojuLseOc9cYMy64Vr8io2s5Vee0m0Bs2fEyaqOyUgbIpcPMXHivjDplWV8uzQSW86I2KuNzpDGm+3CtRtdwGR0C8B82lL+VUTuV9XPSD6klcYNVgxmmQydvK8FOjEdLOrKZ8GH5xMnbLC6TN5J/XPmTmSckt91IrivXk+x2XU7uSeRtW9j2vZZkiQN5D+TuodbkAsxWAMsXSyVmkSWm30s2hZCQltfLpZk/9AmKC1eZGTlYVrlXDBHqsf5Arr3yp2oQ+/rGyVtjmoWyAnUEq7OMuKo0V4UbLdumozZL1XWw2oHYuE3kXeXj5CskA2OS21I09koZnZ95yqDrF5Kcc2+XzJoQsHtz6euxPZ4so/OT6pnSy1Ux95d15Ljid9xHGtMorGNzU446YRl5UltfmhhqLRLQH7VdiodIUy/XlQygyJ3DgOQYyexg1P59llmtb0iOcQ+5rRxyBYR58WYZtX+KDNjvJM3yUIA6aruyMtPrTUGmUVi6izpfGVm+uJk0s3mZjNovxS9Jkw+xGg+XLAMcJSl7EbXzWCTP2gmSuEqWnlhuGVJh9HlQJaGy41LTIL9f1H5l/a4cYs1a0wGeK6NOV0bnCUmH2JrcXZcfkCYNBggsbz9NfkyeJaM2tVeVJUWWPF8nd5LO/l+OZ8ioXYvknjDm1AplYDD0HRm1Y1kda2Vqh+WAqtnB0UWDy0EW+r/IqC1nyYYAszxUtCehIlvdc9rXXl2Wp46VDLTISUeJFrM8N5Skmonacjnpq2OrTFEVNoYQehK1Zxk5Vw+WxtQCT6LU74s6Wxk/Lb0bszzswIzaczlJ2Oog5KtCfBRFWz8oz5NRu9l6JUaQGa19pBMuxpRNavkYacqzjaxjw9UF0vFWphY+LqNOVsYTJQWHTR6pOcPYxbKDNCtW3Fq+RJKVuou788Ymswbvlg+Q15Km3Iz0gdLkw6A0ateysrTopVhTCXYFRZ2rjIzynRm4GlzI75Gzlg4ulQ+RY4agaoqy1jHDapuTWUPuLWbFintIco5F7YTkHSMey1Snyk7MxZLfypgsSDJJgGrUsVIlWH3MNQDr5i6SVAoMVhfa+JeS/EljTV/BDlOO/xS5uO/Z7vtWaSbXLn148QMBaS94mLqxNPXAAyqpRBb3wRyd7sJkwVR9HXWXSBlgmoGlVeo1jhHSIRB8/jMZ9TvbH9mNaf4D1/RC9n1TP1RCoBpB1BfLyNL2QkUEY5J4rYw6UxnJ7OxcN6Yu6EtkVP6srJI81XZLZsXrKD9iTCosv9YRd0mVBWOSYIqzajkACmGyzdWYqmwq95d1FVe13ZNs9sa0CXFSUV8sq4tgL8Lb/mPIPXOSJL4qF/JdUfqDpURjcuD6JJHs0+WOcmi7cLhGLpp64fSVAOaFBxp2igEzc2wTXwxtsXgJglQSkevIvuy+Y+exg9lNm3CP+YKsmpuKQue3ki56LzywiqEEwFMnb7OhADB1xowpCzXpKGa8t+xr2SMGSb+RFGHmdUFuvNyE+d+pMdg03OM2kMSUbCzJv4ObSwKieXjif+8ClGDaefLWmNa4niQVENdEFb4mCVPgociYq0DHKJsJeKlflB60mrKsJ9kVxeAj6lddk92uZ8oj5CsldQXJm9W3YNbryNvJR0iWWz8jz5AcX3TcTUmeNmPmwd1k1dAXfIo05ioQPHqujDpMquSmWVcak8pNJLOk5OqJ+lQXZNmOUi3vksQC3VEOvS4eIQHbyz0lgx6e6ptMsrqLNGZe8HAU9csyMgtNmSJj/o+PyKizpMoT7r2lMSncVH5Stj0zkiJLdSxNvVjyNOut7xNI70F7UKKGma26ZheJ6fTuYTNP6H/fklH/LCO/wys2ZiVUpo86SRlZRjCmiK3kR2UdU+91+Wd5uGQqn5p2vjGmQ3uxweAwmZMbiEGs6wiaLsDuY/pj1E/L+GRpRg4xIRTtjTpIqiyTXFMasxyUNHq/7EL+KeIIT5DkamP3qvtufTBIer4kmPfvMmr/BakYwG4qY7rCw2TUV8vIjl42i5gRw5dd1DlSZV3ZJRfMcrALjdgk4pSi/tOWxHB9Wj5BkrXdNA9Lh2yIYYcwy33EaJE6gqLYZFtnB6gxXeNgGd1DynikNCOFmKiquwC9E8JEUJbjuXJWcdmm/YckVor8SOx+M8aYItjIRXqU6J5SxsdKMzJWlYsLfuZIcjVjlkLCPepoRX2maYndOkaye89lUowxORAiUDUOlMS/3iU/Ml4lo86Q6gXSSypmMdtKlnmi/tK0FGN+liThnzHGVOUgGd1ryvhBaUbCzWXVmBeC/IwBnsqIo2l7px/B0Z+S95HGGFMnrOqcIqN7T6qE2txdmoHDVvKq+To+IZuEItDvlD+SZLdmaecAub403YG+RPxSHVuUy3iq3E9SC88YM3xYHXmz5PuABzjiJ38sXyibTNZ7W1l1JzMhNwzSzIB5koxOfqrUOmtqgENNM3ZTRH8X+QJ/jDTzhzpzdSTUS5VEogSi30UaY8YD93xyzUX3BaQmJwOgpnijjP5uGV8mzUC5viSgLjrxqe4qm4DkbFwg0d9cKss/jqWZD+R8YraoKEdRXfJk+jHZ14LMZnhQ7oddr6ZZyLHItR/dF5bKQzcPe01AWpCqG724X5Ic2QwQan5FJz1Vsis3AeUESDIa/c3l/K302nW78FRIYs3ofNQt5VKo38XDgDHz5g7y43JxGR8SnPKQ4WWe+qEeJ8t+i+8JRbI0eA3ZBHyeqjGk3kU/QKhgX6VjMNO1nmyCB8robxbJ8bC70Zmzm4UnNuIb2ghOp5D3M6S/rEwXIMnph2TUVxc8XvoBoB64l79a5t5rHiqb4m0y+ptlfIA0A4Eg46rb4MlY3RRVOyxB7p5mbYat5Ykyavc6JXaPp38XPDZdgeW+r8uovy71aNnUbMlYYCmPe3nUvqlSh7QpGGRXzc93hvRD40B4vIxOcqrflU0Wpv2kjP5uGcnw3eTgb2xwvkmySQmSqL3rktgIlvyIpzCmS7xFRn12ObleTB5PlJfKqF3L+APZJJRoiv5uGV8kTc+hlMfvZHSCUyR4mLxXTfJuGf3tHB3YXh3q+6U+qefKQHh/6QGV6SKEJ5Qt93W6NOUgZQo1PKP2zJGZw6Y5QkZ/O1UeVjeXpsccKKOTm+orZNPwtBL97Vx/L3eSpjzEKLAsF7VrHfJlxU4fZ+03XWVjmXsN3ESaNO4lz5VRO+bKQ3rT0D8ukdHfT/UQaXrKlpIZp+jEpsiulzbWgwn8vExGnyFX8h69QXpbdBqc56q7Rov8vqTsjTFdhR3KVfKzMdNlZsM9mdxQ3KOjNqzivWUbPEdGfz9VHjC3l6aHkB4hOqmp7iDb4rUy+gxVZcfOTaVZHp7Afiij9qtDdvqRob3JOD1j6oB4v6gPp+qB1WzIR9dUypZvyLZgo0LV42BDmekZ5F0pGyOw2MNlm/AUUzaXVarMhjmwNIYnPApqR+1WVZLiEUflnX6mD9xDVk0p4oe45XmqbGozzK/kBrJNKL1W5TsWXXO3Z7DsEp3IFOcVXEcg81Ey+kx1+DlJwWAzmT16rqxaB2s52Z3T9KYHY+qC+wIzq1FfTvWn0lwd2vbzMmqzOvyKnFfdUNI7RJ8p1bOk0y/0hN1kdBJTfbGcF01v8/+DHHuSNoqWsnsyap+qMjtIPipiVYzpA9xzqEMZ9edUiRdyJYirQzhJ1QHrcl4ueTicZ4gBs2R/kdHnS/V50nSca0mmRaMTmCJbhrswgiYx5Uky+oxVZfr27XKMTwokUv2FjNqlql+Um0hj+sTzZdSfy0iMqPkP3FvZPNREgDqSSLQrOzD3ltFnTJWqJmtL02FYx45OXqpdms2hlEqTF+cp8tZyLNxZNhFPxe98pDSmb7BL9QoZ9etUj5M80JoJhACwLBq1VVWvlGww6FKWe879qTL6vKlSms10FAYiVfKCsM24i9xXni+jz1xVAqznPZ3cBg+XTJ1HbVBFEomSUNSYvsGS+Gky6tepXixJa2OaD+Ng8ELN2y7ChET0mVMl63zbwfcmkX1ldNJSZDfMrWRXoQA0S03RZ6/Dr8mN5BBh4Fj3rB8DUsdSmT7zcRn17TI+Sppm7899Cd3gOyT6/KlSM9d0DNZoWauNTliK75N9gHxIdScTXZAlrQfLocB0eZ3lghbkyfE20pi+8mQZ9e0yvkeaFSvuJ6uUTZvlb+Q9ZR+4hWSpMjqOFFmS9uxnx3iNjE5WikxD9mm2hg7cZGA7a/h9hxqRdaeuoG14qmLJ2Zi+cmNJrcqoj6dKfObY87Px4HaQrJrLaTk/KLmP9YkPyOhYUv2wNB2BPCFVKoO/VPYNpoXfLJu6qFk+6yvkdPmxjI4r1z9LZ5U2fYeHghNl1MdTZRl8TJtelqNqDqflJCVOX1cOmKCo8l1MSA4Df9MBXiejk5QiQeGry77SVGA7NRb7WIGcAMi6Z/P4faRpMKbv1FEPk2XEsUNsWdQ2VT1CEq/VZ6g2ER1bqgxYzZyhgHGVaW3SM/QdZuzIqh4dXxXfKvsET0ssUUTHkusn5BrSmL7Dztioj5eRxLpmxYqfyah9ciXJJvGzQ4Ddpsy6RceZIrNWXcnRNVqqFC8mkeiQ8q88RdYZ2H627AtbyDNldBw5EoTJrj9jhsCm8iIZ9fVUKT/iRI6Tou1R++RKmp/N5JAgm3p0rKl+RJo5cV1JHpXoxKT4CDk02FVBnbroeHPsw2wNCfnqXA79vbyrNGYIXFNWvSdQU5Oiu2bFirvIqI3KOuSULavIX8vouFN0rNUcebWMTkqKxM0MNQcRs3Cvl3Xkbrqe7DKkPagzm/rJkqd7Y4YC1Ruivl7GfaSZsL2M2qiMP5FDL9L+JBkde6ofkqZlmJKuUvxxRzl0yH9yjoyOP0V2wnU5Izvr8MwuRZ89x29IL3WYIXEvWfUBi7QlQ6/MUIa1ZG4ZoIWSNGMoAUQ6il/KqB1SZJa0jxuoes2LZHQyUjxWjgVmnA6XUTsU2eWcIuzSq3P5j2N1vTMzJNaXVRNXEoS8oTRXhSD+qL1mySCD2a4xUXX35DukaQlyOFW5YZApd2w8QZbZPcn/t6sBlZvIKuv3ix1KQlRjFkOYA3Usoz6fKjNdpHMxV4dY1tT7KfcYBghjTKhKP/y5jNolReou9j39RG94moxOQopjmq1aCrM8P5RRuyyWHFZdvaHyFP4LGX3usnKcj5HGDI2XyKjPl5FqFmZ5eEAvWhIkFOM+cszsLqO2SfUAaRqGdVvSJEQnIMUxzlYthh1CL5TLzfgdI7tajJpdoD+V0ecuK09Cfho3Q+T2kviUqN+nepz00ngxZKDnnrm0/Zil+qwkx+DYqRprRZoQcmOZBnmkjBo/xTHPVi2F7bCUaHm5JBfYMyQ1CLsKAaPHy+i8lpVND2yZNmZo8PBB/rmo36dKChvywpl0tpbcQ7mXvmD6s/kPrAxEfS3V50vTIGxTjRo+xZ2k6R888XxRRue0rOx0vIM0ZogwSxL1+zLy8GpMnXAPP01G/S1FllRZbTENcDcZNXqK5K3yluF+8h4ZndOyssPJxWPNUHmmjPp9Gd8tjWmCqnmtPOBviM/IqMFT9EnpJ3UE4SJPPK4/ZYbKLeXlMur7qbJ7a4w710w7ELP3Wxn1vRR/LE3NkCiM5GpRgxdJjStPI/YPcqAQBBqd0zIyqGJ7tDFDhLJTVXfKUmN06JnAzfzZW0b9L9U7SlMjB8mooVPcS5p+Qa0+amlF57OMf5T+wjBD5mAZ9f0yskxjTNPwEPAnGfXBFD8pTU2sLnMrsxNXs5o0/YEluwtldD7LyO9gicSYoVJll/SCVGYwpi1eJaN+mCKrVq7lWhNPl1Ejp/hiafrDdeSpMjqXZbxEjq18hBkXN5L086j/p0qYBKlMjGkLMqmTRzDqjym+XpoaOFlGDVwkJ+/60vQDdm1+Wkbnsoyc97tLY4YKZb1OkFH/T5Ukoo5ZMfPgfTLqkymylEj/NxUg1iZq3BTZpm/6A7OL0XksI3FZO0hjhszbZdT/y0giS2PmwU1llY1Jj5amAofKqGGL5KQ5aLk/UE/rXzI6l6lyzh8rjRkyD5BVd8t+VTqvn5knR8mob6Z4tDSZUGcpd2fYkdL0A1JpVNkpsuCLpDFDZhNZ9VphQ8+G0ph5cn8Z9c9UvTEpk/1k1KApusBuP2DHZh01AD8ojRky/y2/LaP+n+q/JbPDxswbZkyr5F97hzQl4SbCjpWoQYukkranufvBh2V0DsvIlLITwJqhU2Wb+oKvlsZ0hSo7/immT14sUwKeqqLGTPE50nSfh8vo/JXxFElFf2OGzD1k1RjEH0nKihjTFdaUVVKGPF6aEuQGrbPV/nrSdBuSvP1ZRucw1d9JYk6MGTLk/TlfRtdAqhfLLaQxXaNKkf3vSpPI2jI3gdgHpOk2LPN+S0bnL1Vy8NxNGjNkCGn4ooyugTI+VBrTRW4toz6bIrtjSZRrEniajBoxxW2l6TYvkdG5K+MzpTFDZx8Z9f8yvlMa02V+IKO+m6LjBhM5TkYNWOQPpek2DHyvkNH5S/UQaczQ2U5WvVZ+Lq8tjekyj5NR/03xXHkNaWawtYwaL0VXaO827OA4TUbnLtWfSYpyGzNkCOo9XUbXQKqXSSdJNn2AtDtVCu/fT5oZvFFGDVfkpZICvqa7VAlSxIvkDaUxQyd3885inyiN6QvkpYr6cYpcL2YZCNT8jYwarkjyIZnuQqA5yQmjc5ciQYpk6jVm6DxFRtdAGQ+XxvSJKkHsbHZjltcEkKslarQUvUOsu1CJvEqGXXyTNGboEAqRuyN6wTPlWtKYvnGijPp0irtLE/A+GTVYkb+SzrTeXV4ro/OWKgG4rMEbM2To4yfJ6BpIlTQkd5DG9BGSe0f9OsUvSbMEMgLnBq+9WJpuwvQuN/vovKVIEe5bSWOGzvtldA2U8fnSmL6yjvyHjPp2kXzPrCvNInaWUWMVSdyOs293E7bA/kRG5y1V56syY2BXGfX/Mn5Feube9J1Pyah/p0jtQbOIT8qooYqk2rvpJlWTG35V+ovCDJ3NZNXyTn+QG0hj+k7uJAt+T5opxBb8VUYNVeSTpeke1AKsEoTLF8X60pghQwjEsTK6BlJl1n4HacwQWEXmhgVxLdxAGrGLjBqpSNZirytN98idgVzw4dKYoXOQjPp/GQ+QxgyJKvGGz5BGfFxGDVTkEdJ0jztJ8k5F5yxF7+4wY2AnWeU6we/La0pjhsQ9ZdTfU6TA/+hhKjw3vuBh0nSL/5Y/ltH5SvESubE0ZsgQD/V7GV0DqXLf3FwaMzT4HqEGYNTvi/yXHH0YCU9tUeMUyRewcxt1D+o1RucrVbJOGzNk+NL4hoz6fxkJoTBmqFRZJt9TjpoPyqhhijxEmm5Brcbfyeh8pfhd6V2AZui8XEb9v4zUVTNmyNxeRn0/RXaUjxae3P4oo4Yp0suA3SO3gDayEcGV+M3QofTWlTK6BlI9WV5bGjNkeMj+rYyugSKvkKMt63RnGTVKkWzjX12a7rClzM2Yiy+VxgyZ68ncIvMLXiZvJo0ZA2+V0XWQ4m5ylLxORg1SJJlZm2ANSczXXvLxknIsJo2PyOhcpfhr6Xg5M2R4+v6cjPp/GbkvGTMW7iqj6yDFg+UoYUo7apAiHynrhC/1V8u/yKV/iydMRs1M4bN0aa7OjWWV5Q3nrDJDp0px2QUPl8bMEyYb9pdkOGdX63nyKPkE2UTaD75zz5fR9VDkBZKyaqOCbcJRYxTJchNB0nVB0cYTZPS3lko28PfJ+0nSRJgJn5BRe6X4HWnMkKGI+OUy6v+pnilHGzNi5gYzrXeUxM+eIaO+ueCJson0H++W0d9LkZyKo+JZMmqIIik0WheMZkmwF/2dIskh8zHJlucxB5JuLSkjELVRkfy7baUxQ4Xwgl/KqP+nStX+O0hj2oDvxXvLd0pmpKI+uZys8Kwj6+S+MvpbKb5Wjgq2Q0YNUWSd6eqpMxj9jbISUPppubtcW46Jz8ioTVL8H2nMkOHhK+r7ZXyeNKZJVpUPlB+Sf5JRP0z1A7JOqB2YW0v4Z3I0ENOUOzVe51Tjj2T0N6rIUuWRkgRl68khwxJH7mwVCV43lMYMFQLNo75fRmbondvNNAGzqeyco64r9+Oo/+X4d3l9WSdVHuA3kaMgd2rvJFkXTHeS6yL6O3VJan1iiJ4th3hyqekXHXeKL5HGDJUbydyn7AVZhiEG1Ji6IOUHgylmUi+VUb+rw0fIOnmijP5OinvIUXCgjBqgSHbu1QUDq+hvNCXFVo+T+0l20fUdZqtyC8gy1VznBgRjugTLKj+VUd9PlZngHaQxVWFl4Gny65J4vai/1S3VBeqE2n+5qyMfl6Mg96bD7oQ6IX9S9Hfa8FT5Bkmejj5O9VeJHdlbGjNU3iWjfl/GV0pjctlCcp9lc1bugKSKdQ+sIDd0h938g19OJ+4o50RfJOvOSfF2Gf2ttmUrNbN4DBz70AE2lrnLqNQSdNZ8M1QeJHNnchckR1Dd9zozfCgJRgWL1PRBTbqrrJsqNTZvIwfNo2V04EU2kRyPMiyUx4n+3rwkruJNcjPZVXKXcpE0G8YMEeIoL5RRv0+VNC5N5AIyw4R0NaQUqJrSo07ZJd9EqAcTD9HfS3EfOWjYzhkdeJFPkU1A+Zro781bOmcXy1dwwVwso89cJAU1iT8xZmiQdfoYGfX7VJnpeog0pojHSsJJon40b5vamMQsbu53z9fkoDlLRgdeJLNLTUFurCoFhJuSG23XBlfPl9FnTbGpwbEx84ZZg6jPl5HQBGNmweCijtxoTcnKUpPL2EfI6O8WyQ7IwVZLYao8OugiT5dNQ8V4ZtPqzOdRh8xcEYjYBXgqz63OzxInid6MGRr3lKRWifp9qtRNHXMFB5PGa2TUf+YtMdAEyzcdG8juxujvpzjY6gWPkdEBF0lq/bZYyED7QVk1A21dvkN2gUfJ6POlSJoJY4YG28DZkBH1+VR5eOLBzphZMDHRVrqEFP8iD5N8L7T1ULCVjD5Lii+Ug4QSJtEBF/lQOQ+orE06BKboz5XRZ2tDZnu6wHdl9PmKJFHidaUxQ4IdvFWS5C44mgSGphIvkFH/aVPiZEknQpLvea1A5IYTfVkOkpydC8QZdSH7MDdRphJTqnw3IeUH5slNZO428jdLY4YGs7BRfy8jT/zGpECiy6gPNS15J8mrdjvZBT4so89ZJDNsg0tjwpR5zhczsQdd5NaSzkaRx+hz1yntNu/cTwfJ6LMVeaX09nEzNLaXVUti8YC2ljQmBQr9R/2obokXZIdrV6uEVKnBeVs5KB4uowMtkmnHrkNdsH0lmWFzZ3Vm2Ubw/iyY8v2jjD5bkZ+QxgwJlrWrVm1gF3JXZgBMPyC/YdSX6pDZHIoxEy/V9bANNnNFx5Dic+SgyJ3xaCKDa5MQYEgSzG/LqjuFFny/nCcU1Iw+V4q3l8YMCR4Wor5exudKY8pwbxn1pVy7EC+VC589OqYiD5WDgppF0YHOktmfDWRfITbsyZKguSp5suqukViWb8jocxV5rDRmSFTZ7r3gkXLwtctMI5DoMupTqXYtXiqX3HgzAt8HA/mPckrHEOw+FIiloJwP6+Rsr46ON3LeS6EkZs0t4vlEacxQ2FpeLqO+nio7fLuwGcf0EyYaTpNR34okPQMPxqyidLlMWln2lNHxpki89yBgdBwdYJEk7Bwi5PygdMVHJbXBomNnGZHl03nvYni1jD5fkazZz3snozF1sZqsulGFBxSWc4ypwvUly9HLPfAujpdaWw4RCk5Hx57iznIQUDImOsAiqeM3dEizTxzZF+SP5VGS8hg3lV0gN7XEe6QxQ4GEwVE/L+P+0pi6YMfeGyTLg8dJHtR3koMt3bIIltKXm5Qoku/XQcAJjw6wSFIamPmxnYzOS4re8WSGQpXNGwt+Tw4uh44xcyQ33uxbchCcIqMDnCVFE30jmi8HyujcFPkTacwQoIRG1fqhPFkPKb7FmC5wgIyutyK5nnu/eYTEljlpB0hXYOYHHe9sGZ2bIsewhGuGD0sqP5RRH0+Vnc3EUxpj6uUBMrrmUiT3ZK8hVUB0YEW+Xpr5Qfme6LwU+XfpbNJmCLxFRn28jG+Vxpj6IYg/NyH3brLXPF1GB1YkmdrN/Mj9UvmMNKbv3F9WraLALkJ2ExpjmuFXMrr2iux9APsHZHRgRZI/ycwHlgFzM9sS6GtMn9lY/klG/TtVctV1ZWevMUPlcBldf0V+Rfaa42V0YLMk2NOZiefHnWV0Xorky8S5q0yf+W/5TRn17zI+ThpjmuVFMrr+ivyD7C0EfxJzEx3YLB24Pl9eI6PzUuRh0pg+Q7mPqG+X8WBpjGmeHWV0Daa4kaydNmaEbiFPnbwtBVW8Xzh5a+bACTInD9XD5Ocmb40pxaryJpLlM+Smx+wnXk+uKXlQIw0Lu4wvlCzX/VGeKUlke7qkdFYu95DkuKmS5oWYj20ls7fGmGahPBT3gRzuJyn30zuIvI9GikXuLs182FDmBO3+VVKqx5gUyBr9VMksJ4VRc1KyLJXfcbKkFNYeklipVLhBnyuj35sqhdZvK40x7UH9zeh6LPJ5spdQwiE6oCIpdmrmw+NldE6KPFQasxzMArHT7iPyHBn1oSZkxpx6l7eRy8Hs/Zdk9O/L+BxpjGmX3GuXjXW9JCdin2rcY6h11FVyd1lQ8NOYpVAslbil38io37TpL+V+ktmpxTxfRv//Mh4pveHGmPYhdUJ0TRZ5jOwlOaVs+DdmPjCrcJGMzsssWYIhWZsxwADjgfIHMuov85YNNe+VlKshHuoKGf3/UmUJ0f3fmPnwGBldl0VeLHsHs045NyxmTMx8uIuMzkmRx0pjSFXABoafyqifdE0eCHIeJBbL77i7NMbMB+Iao2szxRvIWuEm2CTU4lll8rYUv5i+mvbZafpalqOmr2a8MLg4SR4h+xLAzQztOpO32bxKfm/y1hgzB06T/568LU3v4rl3kdEIschdpZkPfEFE56TI7aQZJwxM3ierln/po0fLKqkZjDH1QMqV6Bot8pmyVpqesSJ+IYecvFemOizdEm9SFnKIsPRjxseekvxRe8mxBW6TR4u0MLlPysaY+sgdN+SOU5aliwMrblLktDHtw6Bq9cnbUrAMyGyFGQ/XkZ+UbFeuupTWR3jSZVB5/sqfjDHzJjeEiJClWmkjxqosFP4l3YJpH+oD5kBdNTMeiJ9ihnLM6TXeJr8weWuM6QAsBeZQ+4xV0/xaLl3PLPJr0syHz8ronBS5pTTj4Ekyp/bnkKSoPOV3jDHdgXJU0fVaJNUSmp5kqg12A+aUqHiXNPPh9zI6J7Pk35hxQGLNMQaoL5Y6hdQxNMZ0i01kdM2muJmsjSZHaVvInN0yjq+aD9Rto0ZgWXqbudYkQ1D6QfIN0/dj5umSQs/GmG5BvOPlk7elqTXOqumBVQ6566SmGiQGzYHM2ma48HD0UbnPyp/aheTCzIhyTzhBMojnFQkzyL2J5nKwPGTy1hjTMZh54r6Qw+bT185DLMbS6bYUqStm2ocl2Oh8FHl7aYbL+2V03uv2j/JTkmrzO0ri9lIe/NidSDD9o+XrJXnYmogBIwHhmtIY010+J6Prt8j9ZS/gg0YHUOQa0rTP92V0Pmb5N5mTWd/0AzKKR+e9Lsk782J5S1nnEuNq8v6SVBDkmor+dhkZqG0jjTHd5i0yuoaL/KDsBR+S0QHMkpugaR++1ChGGZ2TWX5HmmHyDBmd86qyfPcemZOINgd271GglVqW0edJ8VnSGNN9mPGOruEie5ON4BsyOoBZnihN+xAPF52PIg+UZngw20Oi3uic53qJJPh9Azkv7iePk9HnW07qHo49YN+YvvBwGV3HRf5S9gJiEqIDmOUXpWmfnWV0Pop8nDTDYmN5gYzOd46kZyDoe33ZBRgkPVFeJKPPu1gqClxbGmP6wfYyupaLJKylF5DvJTqAWb5bmvZ5mYzOR5G3kWY4sAPwuzI61zkSQ3U32UUY6BGYf6Vc+rn/LPeVLq5sTL9gRnzp9Zxq50tzrSWjD14kCQhN+xwuo/MxS76QnH16WBwgo3OdI4HjfZjt2Ugyg8Wx84DxEJlTL9MYM3+Ykc7dFby17DQk24o+eJFeWpoPrC9H52OWJ0szHAgmz6mUsNTL5O7SGGPmwRkyujcVeW9ZC00lCM3J4A0uj9I+bE3PyTr78+mr6T/cB8hjVnXpi52lBIh/YuVPxhjTPrnjiNriQJsaWOXu/CFJoGkXMs5ec/K2FJ6xGg57yjtO3mbzO0kRVNIaGGPMvGDzTQ617Vj2wMrklh7yjNUwWFe+bvI2G54Q7yrdJ4wx8yZ3HNH5GaucD0jeHLZAm3ahdEgOrGOb/vNSef3J2yz+IneSZ6/8yRhj5stgZ6xyBlZkXWdwZdolZ8aK3ETnTN6aHrOe3GvyNgt2hrKLzsvCxpiuMNgZK5YXyuJlwPmQM2NFPM0Vk7emx1D+oUpqAer8UfTYGGO6Qu5YosrM/VVoamC19vS1DF4GnA85M1a/mb6a/kKuOeoB5vJVScFTY4zpErlLgdebvlamqYFVzgck27Fpn5wZK8fT9J+nyutO3paGZfs9JLlfjDGmS5D2JYfc++HVaGpglfMBCYI17bKGJM6mLB5Y9R8GRrm8SDK4MsaYrpE7lhjkjJUHVu2z6fS1LL+dvpp+sp285eRtaX4iPzJ5a4wxnSN3xopk2ViZLsVYeWDVPjmbDMAxVv3msdPXHJ4j2RVqjDFdhFqBuZuralkObGJgtaa81uRtKTywap+cZUBw6aH+wrX56Mnb0nxb/mjy1hhjOkvueKLTA6scLpm+mvbI3V7qHZz9hdI1uflaqmZoN8aYNshdDmS3dGWaGFjl5sWhKr5pl5ylQHaCeQdnf7nn9LUsJAH91uStMcZ0mtyJmip5/f6PLg2sLp++mvbImbFiivVfk7emh9x7+lqWj01fjTGm6+SOJ649fa2EB1bjJmdg5WXA/sKOF5YCy0Kw+mGTt8YY03kIYM/BM1amMjlLgc5f1F8YVOVsJ/6OPH/ytnWuKe8l95Zkekfe89/434wxZim544laBlZNcH9JHE5Zby5Nu/xARudill+Spp88W0bntEgSgrYNm2BeKZkhjT4TMsh/hczdMGOMGSYfldE9o8gqRen/D89YjZucHRAOXO8vN52+loUZqzbZXv5S7i/X4T8sA0vZB8hfyG35D8YYI+Y6Y9XEwGrV6WtZ/jF9Ne2Rc67+Nn01/eMm09cyXCpPmLxthR3k0XKTlT+lQQWB78vcwHxjzLDIHVjVknn9v6avdfI4mbODiKfPJmZDWGJ8sLyZnOeSAcF0lII5Sh7Lf+gAZFDffPI2mbfJ50/emp5B/9ts8jYZ+updJm8b58byOJlbs4v7x+3lWSt/apcN5UPkbSWf/0/yx/IL0jn6zLzZQNI/t5G5FTfq4Er5B8nDE9+F/5RN8Fr5ksnbUrxcvmbytls8UUZrl0XWkphrEZTV+YRkR1P09+YpT9c3lPPmdzL6fLN8ozT9g9nJnGvhw7Itviajz1DGI2WbMOvPkiVPyNHnYbD3VGnMPKB/EofISkPUP+fpryUz1E3wKhn9zSK5ljvJnjL6wEWuIeuCmakTZfR3uuIFct6Dq1mBwctJhzX9g2zr0fkssq3A9bvJ6O/n2NYMG1CQOvoMS+XLzZi24cEo6o9dkRmsnWXdMECK/l6RtXy/NRFjdY3pa1n+PX2tgwMlU55dhjp9h0zezo1Vpq9l4EIw/SN3GZynyjbIrV8Y8ajpa9PsLp8weVsIOxzvNHlrTCtwTbGC1GVImULoUG55teXIHU/kjl+uwhAHVqwfP3nytvNwo80tMVIHOQOr3KrhZr5cZ/palrbig+47fa2DHaevTbPf9DUF4lnL/P+Nqco80qTkQNjOMyZva8MDqyl1DazuI3MGDPOCvF/zgBv9tSZvS9FUsKFpltwZqzZqeNIXywbVz4INGU1szFnMxvLWk7fJcG9yUlPTBjn9c57U/T2YW3atluuziYEV65RlYVBFYG0dbDl97Qvz+rwMPnO+fDyw6ie5+VnaGFgxm1bnwxC/q+kdwDnXLXGk7M4ypmnG/j2YO7CqpQ5uEwOrnJInBHLXRdNPqnWTM2tUB3SgnFlCijCb/pGb1yXnQaks5MqqM48dv6vpAeGsxKWzqKXIqzEF9O17sO6xSO71/9PpayWaGFj9ZPpahpx/sxznTF/7AikP5gGDqvMmb0tBRmzTPxi85FDnbt3lYPBW53VLframB4S5MWtOhGzaoG/fg+TYq5Oc4yfXJClfKtPEwIrkfGUTYOYkFF2Ob8m64rXaYJ7JQr8+fU2FHWInTd6anpE7sModQJSFZIF18dXpa5N4YGW6DAOV0ydve0HZ76IijpFlZ+kZh3Q6me8dJLvHeGoskoFQ3dOWuQUY25Zl03lW076FZEkw+myRj5Gmn7BbNjqnRe4q24B7RvT3c6TWYNPsK6O/XeQ8qz+YcZGbU7JtSV66kaybN8no70USjtSL+EduyEXZXn8g685fAcQ/nCGjv9klHyvnzd4y+mxL/YA0/YWA7pzM6y+UbUH5l+gzlPEI2QbvldHfL9K7Ak1bsCL1ORn1w67IPYkyeE3ApAUxU9HfXSzjlHmmPSoNtb+YXiPgefGBnCqfLZtMi8Dok+WFxX+3K3Iiu1TmgrxfS8/RgixdkDW6b8GQ5uqwPBCd41m2OaAmTQJPjtHnSPGPss60DbP4tow+wywvlsa0CZujqO9KYueoT85TrvWHyyYhR9anZfT38TTJbHmttPVlyVMaeTWoB0iwNqVU2oLyFrvIm8p578hh/ZbCrIfK8/kPHYJZvkfIu0oGpQy0TpDUW+xbIKSJIY6hbCJO6lreffK2Feh/X5FlY5iIISMXDrPgbcD1e4PJ22SOl20sUxqzFCY5dpPbyrrr8paBGaqFIsyfkm2kcwGO+2Fya7ma5Ppl4oVZcqcQMsZk8w4ZPbXNklmWWrIRl+CWssxS/q8kN8y2oBxVzrLq4dIYM3Ca2BVojOkmDEDKcl15m8nb1jhF3kruI2elBDlXvkDy/yW8oC3uJXNm+9kxbYwxxpiBQIBmNJNSJAOcecEAZjtJTOIBU3nP1P684v5yA9fZpWWMMcaYgUCMIUnwoi/9WdaZY2oIMPMXtVOR20hjjDHGDIic3WzsKHKNuwnMnkVtVCSbQdqOVTPGzAHHWBkzLr4zfS0Du3rZMWryc8+xu7JPFSGMMcYYk8CdZTSjUiRpQsYOA0y2ikftU2SbiVaNMcYY0xIMDnKTcJITbsyQITpqlxRZQjTGGGPMAHm7jL78i/yyHCuETZAGImqXIs+UrlxgjDHGDJTbyWgAUCRJMce6s43ap1GbpPgaaYwxxpgBc7KMBgFFUopibLMvq0pqikXtkWKbWeGNMcYYMwdI+hkNAlJ8tBwTL5dRO6R4kjTGGGPMwKFUDbmVosFAkRRSp2r8GLihvFxG7ZDi06QxxhhjRgCxP9FgIMUxFBRmB+UxMjr+FEnNQLZ7Y4wxxoyA68u/ymhQkOJecsgcJKPjTnVfaYwxxpgRUWXwQN3BoeZn2kWyCzI67hRZZl1LGmOMMWZErCsvlNHgIMU/yhvJIUEi1CpxVUjAuzHGGGNGyFNkNDhI9ddyIzkEbiEvktFxpnqWXE0aY4wxZoSQVfwHMhokpEp28a1kn7mlPE9Gx1fGB0tjjDHGjJhbyX/KaKCQKmkYbiP7yD1lbvqJxR4ljTHGGGNWvFJGg4Uy/lk+UPaJPeU/ZHQ8ZWRgtqU0xhhjjFm5JPh1GQ0ayshuOgo9ryK7zJryEBkdQ467S2OMMcaY/2MDyZJeNHAo63Gyq0uD95K/ktHnzvF90hhjjDHmahBv9C8ZDSDKeqV8m+xKCRx2Lx4qo8+aKwWtnWHdGGOMMctCCoYqCTKXSr6rF8l5Jc1kJu6Nskqm+UjK1vR9N6QxxhhjWuDFMhpMVPFiSY1Cihu3Absd3ymrJvyMZJB2O2mMMcYYk8RbZDSoqCqzYRQ4fprcWNYJmeD3kT+T0d+uwyvkfaUxxhhjTDL/Jd8vo8FFnZ4u/0fuIW8vrytToCQPJWhImfBReY6Mfn+dku/rkdIYY64GN01jjJkF94lXyZet/Kk9Lph62VSW3ojRQlIlbCjXkW3CkuJu8isrfzLGGGOMyeSZ8t8ymsUZgyQ/ZXbMGGOMMaYWHi4vldHAY8ieLbeWxhhjjDG1clN5oowGIEP0i7LtJUdjjDHGjIjVJGVrooHIUCS5KfUTKfVjjDHGGNM4LA2eL6OBSZ89Rd5BGmOMMca0yhqSmR1yO0WDlD75N8mxdL2AtDHGGGMGDlnOj5bRgKUPfkZuKo0xxhhjOsNd5ZdkNHjpmmSA57OSlNQYY4wxprPcUbKjrou5r/4lPyGZZTPGGGOM6Q2byOfKk2Q0yGnTUyUxVJtLY4wxxphew5LbWyW77liGiwY/dcpsGTm3DpS3lsYY0yiuFWiMmRcbyHvKe0mWDW8iry2rQC2/X8lj5Xfkd+WF0hhjWsEDK2NMVyAR52aSARbZ3TeWCwWX8ToSKKmzuDDzefJ0yYDqHMlMlTHGGGOMMcYYY4wxxhhjjDHGGGOMMcYYY4wxxhhjjDHGGGOMMcYYY4wxxhhjjDHGGGOMMcYYY8bFihX/HzM99m+KRq/gAAAAAElFTkSuQmCC;" vertex="1" parent="1">
          <mxGeometry x="51.72000000000003" y="165" width="58.01" height="55" as="geometry" />
        </mxCell>
        <mxCell id="WwNc7wGOOJ1hjYEgJ91g-1" value="&lt;b&gt;&lt;font style=&quot;font-size: 16px;&quot;&gt;Databricks&lt;/font&gt;&lt;/b&gt;" style="aspect=fixed;html=1;points=[];align=center;image;fontSize=12;image=img/lib/azure2/analytics/Azure_Databricks.svg;rounded=1;labelBackgroundColor=none;" vertex="1" parent="1">
          <mxGeometry x="-182" y="268.25" width="150" height="72.86" as="geometry" />
        </mxCell>
        <mxCell id="B3J9zCPMF0yDf6O6Sbgf-18" value="" style="shape=image;verticalLabelPosition=bottom;labelBackgroundColor=none;verticalAlign=top;aspect=fixed;imageAspect=0;image=data:image/png,iVBORw0KGgoAAAANSUhEUgAAAiwAAAIoCAYAAABK5rD/AAAAAXNSR0IArs4c6QAAAARnQU1BAACxjwv8YQUAAAAJcEhZcwAADsMAAA7DAcdvqGQAAAAGYktHRAD/AP8A/6C9p5MAAAAhdEVYdENyZWF0aW9uIFRpbWUAMjAyMzowMTowOSAxMDoyMTowNorh/ZYAAFH4SURBVHhe7d0J3HXV/P7x+htChkJFRAgZe8hUGSrzj0gkP2TIkJkImTL8QigpUxmKDEmDocmU0mBKJCkylTGiIiVT/a/rrHP3PM/97Pu+zznru/dee+/P+/W6Xmedu6cz7HP2Od+z19prrQYAAAAAAAAAAAAAAAAAAAAAAAAAAAAAAAAAA7f6+HIpaynLUhMArnaGcklqzozPFwBVVvp8mbRg2VI5ITUB4GpbKSem5sz4fAFQZaXPl/83vgQAACgWBQsAACgeBQsAACgeBQsAACgeBQsAACgeBQsAACgeBQsAACgeBQsAACgeBQsAACgeBQsAACgeBQsAACgeBQsAACgeBQsAACgeBQsAACgeBQsAACgeBQsAACje6uPLpWypnJCaWXZRzkhNAC1apuyTmlm2Uk5MzZnx+QL0S6ufL/5AuSogvh0A7Stpn+bzBeiXWvZpuoQAAEDxKFgAAEDxKFgAAEDxKFgAAEDxKFgAAEDxKFgAAEDxKFgAAEDxKFgAAEDxKFgAAEDxKFgAAEDxKFgAAEDxKFgAAEDxKFgAAEDxKFgAAEDxKFgAAEDxVh9fLmVL5YTUzLKVcmJqomOur6yjrDu6ttpqf1IuVP4+uoauKWmfLumxrKUsS01gkM5QLknNmbW6T/vOrwqIbwfdcA3lMcoHlbOVqtfT8X/zv/G/9f+Dbihpn+7jYyGkqyl2n6ZLCPOtqeym/FL5gvI85U7KQvzf/G/8b3+hvFq5ngIAQBgKFqxoG+Us5e3KrfyHKd1a2VM5V3ma/wAAQAQKFth1lU8oX1Q29B8y3UL5uHKw4tsGACALBQt8VORU5amja7F2VE5WNhhdAwBgRhQsw+ZixSOw7zG6Vo9NFRdEtx1dAwBgBhQswzVXrER0AS3FR1h8ihtFCwBgJhQsw3Rj5XiliWJljgfxHqesPboGAMAUKFiGx3OlfEq53ehas+6gHKpcc3QNAIAJUbAMz7uUR6RmKx6qvDU1AQCYDAXLsGytvCw1W7Wr4imXAQCYCAXLcNxQOUiZdP2oOvl9d6DixwQAwJIoWIbDXUGzzF5bFw/4fUdqAgCwOAqWYbin8uzULMpzlXulJgAAC6Ng6T93Ab1HKfG19mPaVymhmwoAUDAKlv77X+UBqVmkzZXtUxMAgGoULP3mOVd2T82ivUnhvQgAWNCkh+K3VDy1ei6fyurp4NEMLz7oFZOjXKnso7i48OnRkV05T1YOSU00oKR9uo+PZRfljNQEGrFM8edzrs7v077zqwLi20EzfHTlp0rV6zBrVhy4u7NS9W9mzTmKHzOaUdI+zWMB8vV+P+IwfH9tq3gq/Cg+LfojqTlygLJ3aobYWNkmNQEAWBkFS3/5kHSU05XXpOZKXq18PzVDvHR8CQDASihY+mlTZYvUzOZxKy9U/ju6tjL/zV1DVf9tFj78535YAABWQsHST5FHKt6vfCc1K31P2T81Q7x4fAkAwNUoWPrnRsrjUzPb5coeqbmo/1P8byPsoNwgNQEASChY+scTxV0vNbN9UPlTai7qj8qHUzPbmsoTUxMAgISCpX+eOb7MdYXy7tScyJ7KP1Iz207jSwAARihY+sWnBt8nNbMdqPw+NSdygfKx1Mzm6fojT8kGAHQcBUu/PGl8GWGWgbSRg289lgUAgBEKln6JWkTwVOVHqTmVM5Vvp2Y2FkQEAFyNgqU/7qrcOTWzeRbbWeX8vyu6m3Kn1AQADB0FS388YXyZ6y/KYak5k0OVi1MzW9Tp2QCAjqNg6Y+odXhcrPgMoVn5TKHDUzMbawsBAEYoWPrh5so9UjNbztGVORG3YfdS1ktNAMCQUbD0w6OU1VMzy4XKSamZ5evKJBPOLcXvz0emJgBgyChY+uF/xpe5jlD+k5pZvBji51Mzm4sxAMDAUbB0n1/DB6Vmts+OLyNEdQttrfA+BYCB44ug+3z6741TM8uflYjuoDknKj7jKJefW9Tp2gCAjqJgmc11lLVXyPWVtjxwfJnra4q7cqK4a+n41MwW9RxncUNlxdf6ugoAoGEULAtbR/FptW9SPq18V/mtcpniU3cvWiGXKlcpnn/kPMUzxX5O2U95meJxGF4b55pKtAeML3N9ZXwZKeo26yhY/Fp47aVHK7so71U87uabyvnKXxW/pr5c8bW+fJzfKX5P+L3h94jfK37PAABatKXiD+/c+HZKdnfl/5SzlKrHnxt/0X1L8ZfjMxTPTnsNZVY+M+gPStV9TZtbKNE2UKrua9pMswhjFRcn7jrzNn+f4uUDXHRW3VduvKSB30N+L5WspH2axwLkYz8aK2lDRPOXvmeJPUWpesx1x0dsfERmX+VxylrKpO6oVN3mtHGBVpezlar7nDbTrN7sbeht6W3qbettXHWbdedkxbP1RpxyHq2kfZrHAuTr/X409C6h+yk+4uEzWrbwH1pwPWVz5SXKkYoHv/oIwFuVrZQ1lIVEdQd9eXxZh6huocWeq7eRt5W3mbedt6G3pbept623cRvur3jWX7/H7us/AABmM9SCxV0EPmzvoyqlfZG4i8iP6bWKJ2DzuAmPh3F3xk2VFUWN7ahj/MqcqNuef+q2t4W3ibeNt5G3lbeZt11ON1sd/Jh8pMdjXUp7bADQCUMsWNZUjlZer3Thy8NHB7ZVDlIuUHy6sAeJ3kaJKFh8ZpAHmtbFX9RXpmYWP9fbKn7u3gbeFt4m3jZtHUGZht9rb1S+qHTh8QJAUYZWsPiLwr/4Hz661j3+0vORhncrv1RureT6seKznOris2w8jiWXn+svFD93b4OuHqnwrMTuguP0aACYwpAKFg98/KjiMQ1Yrs6jK3M8hgPLeWzLJ5ShjyEDgIkN6QPz5cqTUhMr+M74sk4ULKvy2UMvTU0AwFKGUrBspLwlNTFPE8WEz9zBqvZQ/N4EACxhKAWLixUGOq7KZ9ecm5q1+oni+8LK/J58c2oCABYzhILldsr2qYl5fOTDk/PUzffRRNdTF+2gcJQFAJYwhILlxUoda/j0gVdBfpbixRzr4tv2fdxpdA3z+Wyn56cmAGAhQyhYvLgdqm2ofETxYn97KusrUbwQ4KuVnyu+D98XqvEeBYAl9L1g8Vo77hLC4tZVXFx4npMPK3dRZuUFHV2g/FpxEVTHoop943WS6BYCgEX0vWC5x/gSk3H3zbMVrzh8jOL5Qiblf3uscqZSdzdTHy0bXwIAKvS9YPH09ZieJ9nzjKxebdjrLW0z/lsVFypHKf63j1RKXJm4CyJmLQaA3up7wRLZHfFbxWsQvVPZTdlV2Vl5heKFFN+nfEo5Sfmd0hdexdrr33xXeZzi94zj9mmKC5W+jMG4QvEyAl9Q9lW8WKFXfN5ReeI4XnDxRYpfbz/3/ygRNhhfAgAybKn41NTc+Haa9H6l6nFMkwuVabpG5nitGI/n8Be7F73zUYg/KFX30aV47SGn6r91KV6L6VDFheeDlVspsxwd8mDiiNfVBVKTStqneSxAvt7vR30/wvKv8WUOrwrsbpFp/UM5S/mc4snB3K1yc8W/pF3EeECq5ybxasld4lOhnS75t+KjIT5i4m6rmype+dlzoOylHK94kLB3kGmdp/w5NbP4MQIAFtD3giViFWKfwbFWaoZw19Lnldco91NuojxW2U9xgTPLlyZWdqXyA8XFiMfirK08UHHh+CXlL0qUGys+Gy3X38eXAIAKfS9Yfja+zHFt5QmpWYu/Kh4j4oXw7qb4KIzPsvF4GY+pwGR8RMuFoMeYrKfcU3mlcpxymVIXHy27VmpmiXivAkBv9b1g+en4Mtczx5dN+KNyoOIuJE++5oGen1Zc2GBllyifVFxQupvHxcPHlYgumkm5uIzg9ZYAAAvoe8HiwaER41g2V9y10DR3ExymPEXx5G6PUCKeT9d5Gzxc8TbxGTxHKJcrTfPZUZulZpZ/KuekJgCgSt8LFncFfCs1s3mQbJvby1/SHvzrLqqh8zY4VWlzoKrPKPLp7BH8XNoouACgM/pesNhXx5e5PL5kp9RsDdPcLxe57tEsnqtEzU4b9R4FgN4aQsHigZhRfNZJmxN83XJ8iXaLN8/Z4gkEo3jQNQBgEUMoWDyOxTOyRriRcpDS1vTzzIa6XJsFywHKDVMz27cVz64LAFjEEAoWc5ERxbOieoHANrTdDVKSto42PUfx4OcoHxtfAgAWMZSCxacF+xTYKJ5GvY3VdekSWq6NIyxe/TtyCv2LlUNSEwCwmKEULJ7DxIvVRfE6QT6V1jOoNomCZbmmCxa/1n7N/dpH8VpXf0tNAMBihlKw2HuUyOnPvRaNF8+7xuhaMzyDK5Imt4X3E09Qd5vRtRg+5d7LMQAAJjCkgsXrx7w3NcM8VHlDajbC6w4h8cy2TfGiidETB/q96JXAAQATGFLBYm9T/pCaYXZXmpq631P1I2lqW3jq/eii1MsvvD01AQCTGFrB4i6h6C8fn+Ls01w9VXydPLtr1Km0feAxJddMzdo8Utk/NUN5pW7GrgDAFIZWsJhPcf5uaobxar1e88dnkdTF3UFtzf9SIm+LOrvIvNqzxyhFF0XfUbxAIwBgCkMsWK5UfJg/ehHBGyjHKBuOrsVrcsxGV9TVLeTX8GjFr2kkL3Lo957fgwCAKQyxYLGzlD1SM9TNlROVW4+uxWL8yqrqKOJ86vjXFL+W0bxYomdeBgBMaagFi3n15e+nZigXK17MLnJWWhcrL0/NVp2peJZXx+22vUKJLFpcrLjgvN3oWqzTlcj1hwBgUIZcsPxb2UGpY/Dj7RV/8UUULS4OzlAeNbrWjt8rOyse1/HlcTxe54nK+UpbHq34iMVjR9fyeF6Xryh1FCse7P0Uxe85AMAMhlyw2M+V56ZmOBctJyizdi34jCCffXSc0tYaQp7c7B3KxsqHlP8qczwOwwON76zsprR11su6ilfkPliZdcyJb+Pryp1G1+I9X/lpagIAZjH0gsV8JsiBqRnuDorHQ9xsdG1yD1J+qNRVTC3FhYkLlI0UFyOXKgu5XHFRc0dlflHTpB0VH4m6/+ja5ObGHbnwqsNHFc+SCwDIQMGSvFA5LTXD+YvwFMVT+S/Fc628S/Gv/brONlrKscomiruALvAfJuR/6//H/69vow3exi4+PCmbTzVfiguyU5W6jqz49PkXpSYAIAcFS3KF4nEQvxtdi+dxEf5iXGyFZw/W9Zftrkobr8svlW0Uj5XJOZPF/69vw8sW/MR/aJjXdvJRIW9vFyQLuavyDSVyfaAVuYB7vOL3FgAgEwXLcp6yf3vFc2XUwd1CHtPygNG1lf2v4rNuNhtda5a/UN+s3EXx3CNR3BXmgbm+7Ta+tO+tfE/xwOr53OXmo151jQ3ye8jFym9H1wAA2ShYVvYt5elKXRN7raX4lOftRtdWW+26yr7Kp5U2pt2fKyq8uF8dRYVv07cdXQxN6kbKZxQPyF3TfxAfRfJAZv+3OlyleOzRN0fXAAAhKFhW5UG4XuulLmsovo/XKp6b4yVK036lPEZpqttmrrvJ9+n7bpoH5HqM0uuUIxUXinVxd5QLJABAIAqWap7ga7/UrIXXp3mrUtdgz4V4OQI/r7srR/kPDfN9+mhLG91E3tae3bjOBRN9GjqTwwFADShYFuaZZT+bmr3xBeWliicya8s/FHcTtVEw1cnvFZ9tBgCoAQXLwjyfyFOVPn2xljTT6n/Gl33gGXKfprQ1Bw0A9B4Fy+L8Bf8E5Uuja91XUpHQl2nqPWfOtkpdZ5cBAISCZWke9+Gi5eTRtW4rqWDpwxEWnxrt+XvczQUAqBEFy2S8po4XIfSif11W0lGNrh9h8SR//6O0OR4IAAaDgmVyXjPHp+X6tNiuYgxLjGMUFyuLrbEEAAhEwTIddw89Ufn46Fr3MIYln88GepxCNxAANIiCZXo+E2Qn5SOja93CEZY8n1KeonS9OwsAOoeCZTaeut/Tr+8zutYdHGGZ3f6KT13uw2BhAOgcCpbZec0YTy7nqdi7giMss/Hstc9X6lpjCgCwBAoWYGmrjwMAaAkFy+z8BfZuZc/RtW641viyBHWu6RPtlcoHFfYXAGgJH8CzuYbyYWWX0bXuKKlIKKl4msTOyieULhVaANAbFCzTc7FyoPKs0bVu4QhLnicrRyhrjK4BABpDwTKdayuHKT5bpIs4wpJvbvLA646uAQAaQcEyuespXrnZk4Z1FUdYYniW2+OUG4yuAQBqR8EymesrXkfoYaNr3VVSwdLVIyxzHqR4FW+KFgBoAAXL0nzo/4vK/UfXuq2koxp9GLy6ueKiZc3RNQBAbShYFuejAF47ZqvRte5jDEs8Fy2fUxiICwA1omBZmM8G+rTy6NG1fmAMSz0eqvi94vcMAKAGFCwL8zpBT0jN3nissq/iMTltcRfbm5RtRtf6YzvFk8sBAGpAwVLt1cqLU7MWXkfndco5o2vN8WnZL1HOVNooGHyfP1beqFzHf2jQ2cprlTrXMHqO4vsAAASjYFnVk5S3p2Yt/qnsoLxN2VTZT2nabRQPJP6qsrH/ULPbKj4l3Pfp+26aZ6i9j+LXdVvlcqUueyjPSE0AQBQKlpVtpnxMqWuhu0sUj3fwxGP2D+WlirueLvYfGvYQ5YeK10Oq44iHj+j4aJWPqrQxFuhvimen9UR/l/kPcoziQdR/Hl2L5/fOhxSf9gwACELBstzNlcOVus72uEDxF+XJo2sr83Tv91C+ObrWrLqKirqLoaWcptxTOWR0bWXfVVxQ/HZ0LZ4HNx+qbDC6BgDIRsGSzM21sv7oWryfKT799YzRtWrnK1sq71Su9B8aNtdt4yMQd/EfZuT/17fRVHfTfP9V3PWzhfIL/2EBHtPyAOXc0bV46yk+3Zkp/AEgAAVL8gHlXqkZ7izFk879anRtcf9WfLTDR2Im+fd18LTzPjJygHIz/2FC/rf+f/z/+jba8EvFR0488NXbcinnKX5t/Jjr4DFKnDkEAAEoWNIA2LoGSf5U8XT+fxpdm9xJyiaKx0K0wfOJPFf5ueIuncWmn/caSy6y/Fz9/7Q1F4kH1i5TTh1dm9yFiruvfjS6Fu/pSlcXywSAYgy9YNlIqasocFeDj5T8YXRtepcqOyuPVH7vP7TAU867GPmJMr8Y8Xtne8VdKy5qbqi0wcWg55dxUeBtNgsPwH2w4qNhdfARvDa6xwCgN4ZcsMwNjKzji9bFisejzFqsrMhr1fjIgceFtMVje9zd833l4eP8QPGyBbdW2uIxNx4z4/FHueaOtLgAi+bCzzPh9mU5AgBo3JALltcoPoskmrtRtlYiipU5/jLdOzVbdXfFBZTjdtv2UiJPT/6j4qNiPmMqms8C83sOADCDoRYsd1U802w0d924a+F3o2uxXLRgZXXMpeIuJo878llb0fyeu1tqAgCmMcSCxc/5QMXzj0TyJGU+O+bXo2vx6prorMvq2iYuPD126KLRtTh+z/m9xyKJADClIRYsOyn3Ts0wPoXWs9XWdXqs+cv5qtSEeK6av6RmLbzOkwvQ6Gn8ffr8M1MTADCpoRUsPj33LakZxkXEsxVPlFYnL9rnqf2R+OiHJ4mr03cUry0VfT9vVW6UmgCASQytYNlN8RT8kXZXDk7N2tEttFydR1dW5DORXpGaYdZVGIALAFMYUsFyE+XFqRnGX2b+tdwUBt4uN+1kfDn2VbwoZiS/F9dJTQDAUoZUsLxMWWzG1mn59GVPVtbkuJImv6RL13Tx9kIlcoySZwj2St0AgAkMpWDx5HAvSs0QHoj5eKXpMSV1rS7cRU1vi7nX/OLRtRgugtqaIRgAOmUoBcuTlbVSM8RLlDNTs1F1zO/SVW1sC6/+HLnulN+Tfm8CAJYwlILFpzJH8dlAnkujDRxhWe4348umeRmAg1IzBKc4A8AEhlCweK2ZqHlX3AXkL5i25kPhCMtybS0IaS9XoorH+yh+jwIAFjGEguUx48sI/qJqs2jgCMtybW4LF67PSc0Qke9RAOilIRQsXhcmgs8Q+XhqtoYjLImPcLW9LbwA5NGpme2h40sAwAL6XrB4Wf/NUzPbqxVPB98Wr0PzAOVfo2vD5m3gFbHXGF1rjyd/i5gFdwvF71UAwAL6XrDcWYlY5PAU5cup2SjPG/NE5RDFc7D4V330oo1d5ELlGMVzsRyqePr8Nqa6P0vxa5PLr6nfqwCABfS9YLnD+DJXk2cF3ULx+IgSvpBLN7+gO07ZWfE2bMpHx5e57ji+BABU6HvBcvvxZY5/KkekZi1urGynvE/xCsEeTPohxSsFt93l0SU+SvEIZX/F2/AnyvsVT/bmbVyXk5SI8TQR71UA6K2+FywRU/Gfq/wtNUNsqDxBeZdymuKjKC6IPOvpxgpi+IjFC5TDFW/j05W9FG97vwZRPK4pYsr+648vAQAV+l6wRIz38OrOW6bmVPwFtEzxF+Qeisef+IvzV8phyq7KvZSuvQZnKz9Ozc7wNr6n4lWXve39Gnjla49L8uKVfo38Ws1S4Hrw7yapmYWxSQCwiNXHl0vxF/YJqZllK+XE1GzEfkrUCs0XKP4l7S/si5R/K5cpXsTOU6w7ayu3VDZSbqb0yfeUtylfGF1bbbXHKj5LJmpSvlL8UfEU/Ocpf1V8dM3rB12quKC5zvjSk7254LypEsHv1SYXQyxpn+axAPnYj8Z85577Ije+nSa9Sql6HGTy+AypbZSFitv7K0cpVf8vmTyvVJpU0j7NYwHy9X4/6nuXkA/9Y3p+o/gsJc8PsmJBUmWuoPG/9f+z0L/D4s4fXwIAKvS9S8hdMz9LTUzgH8onlX0Un7E0C88n8jJlR8XdJ5iMT8Fv8r1a0j7dx8eyi3JGagKN8Dg8f3bnoktoHN9O0/wlUPVYyPJ43MaeyvpKlHUUzw7sU4yr7pMsj8fMNK2kfbqPj4WQrqbYfbrvXULm7gxU88DSnZRbKbspkSsg+4yodyi3U3wfdM8tbG4gMwBgAUMoWDwh239SE/N4crWDFE+OVxfftu/DZ1dhVV6L6IOpCQBYyBAKll8qnnsDq7qf0sR7wGOl7puamOezCuOsAGAJQyhY7A2K50zByjx3TBNr2Hjwc9R8JX3i9+TuqQkAWMxQChYPavTMsljVZuPLOjVxH13kmXd/npoAgMUMpWCxA5Q6FzHsKncL1a2J++gar3HkRS4BABMYUsHiU6SerBw7uoY5TRz92Hx8ieSriuep8XsSADCBIRUs9i9le8UzsnaRzyj5hvJyxacLR5wq7InebpSatfAikF53J5dPwb6t4ufubeBt0UVHK9sqV4yuAQAmMrSCxS5XPJW8F+7rwunOHpj5OeUZynqKJ9LxbIY+++kkJZffA3UeAXF30DVTM4ufqws0P3dvAy8u6W3yeaULA6r9XvN77jGK34MAgCkMsWAxH4r3zK7+oo740o/kIwffUd6qeFriGyvbKR9X/qKsKOqxP2x8WYeo257/XP+seJs8TrmJ4m3lbeZtV9rRFz92v9f8nqMbCABmMNSCZc5pyoMUH3E5WWnjy8QTq/lL9r2KCxOf/uujEq9XvIaCu7EWElWwPHx8WYe6CpYVeRt6W3mbedt5G3pb7qd429Y5Md5C/F6aWxjS7zG/1wAAMxp6wTLH4woeqNxeebPyfaWOX+nuuvie4iMDL1I8mdoNFX/JvkRx188lyqR8SmzEdPp3UjZIzVDutrl7amb5gzLN5Greht6WL1W8bb2N76N4m3vb+zWooxvJ7xm/d/we8nvpAYrfWwCATH1frTmHv+S2UDZVPMDVAz5vo/jvVYNUfSTEX4LutvEX7G+UC8aXngLfOV+JPorzGWWH1MzybOWjqRnmqconUjPLocqTUjOM3/u3VjYexwWbCyxf3lxxN9OayrWV+f6q/E3xmBqPJfI8P6crpyr+exeUtE/38bEAXdX5fdp37i/a3Ph2+uK6ytqKZ4tt0wuUqm09bTxFfLSDlar7mjZ+jm3ya+zX2q95X5S0T/fxsRDS1RS7T9MlNLt/KBcr03Th1CFqHMuDlYizeeb4CMZDUzNb1HOclV9jv9Z+zQEALaBg6b4fK/PPHpqFz0aKqKzn+KwYd7HkukhhpWcAGDjGsPSDV6N+Qmpm8VTxO6dmNs+X8rLUzOLn9sTURKCS9umSHou7/5alZm+8R9kkNWf2QyVify4J26XaGUpuz0Gr+7TvvKp/adr4dhDPE6hVbe9pc6ES0S3kQvjXStV9TJunKYhX0j7N50u9/IFftb2mSR9/aLJd6lPLPk2XUD94faQrUzOL5y/ZOjWzuDso4jRpP6cvpSYAYMgoWPrhT4rnFongtZZyRdyGedI3PzcAwMBRsPRH1ARlniE25/RddylFFSxdXaQSABCMgqU/ouZR8dlCOQXHo5X1UzPbEeNLAMDAUbD0x0+VH6VmtueNL2cRdZaRR6p7dmAAAChYesanAEfYTLlnak7lVkrUZHFRzwUA0AMULP3iNXeiPHd8OQ0fXblGamajYAEAXI2CpV/OVb6VmtmertwiNSdyfWWWIqfKKco0qzMDAHqOgqV/Dhpf5rqOsmtqTuTFiudxiRD1HAAAPUHB0j+HKH9PzWwefDvJUZY1lajpqf3Y6Q4CAKyEgqV//IV/eGpm81GW16Tmol6irJua2T6jXJqaAAAkFCz9tN/4MsLzFZ81tBCfGfTa1Azx3vElAABXo2Dppx8oJ6VmNr9HDlCuNbq2KhcYHnAb4XjlzNQEAGA5Cpb+2nd8GeFuyttScyXPUh6TmiEijwwBAHqEgqW/vqB49tsoPmPoRak54lWdP5iaIc5WotZDAgD0zOrjy6VsqZyQmlm2Uk5MTTTgKconUzPEVcr7lF8peyjXU6I8SYmc+A6LK2mf5vOl2lrKstTM8h5lk9Sc2Q+VqDMBS1HSdvFSJJekZi+0uk/7zv1llRvfDprjWWfPUapei5LyY4Wjfc0qaZ/m86Va1HYh5Yf3bnVW2i58SfTbf5U3pWbRdleuTE0AAFZFwdJ/7maJOmOoDp6G/8jUBACgGgXLMLiP1UdbSuPH5IG8PvQHAMCCKFiGwfOyfCQ1i+L5XTxoDQCARVGwDMcrlF+kZhF8ptFuqQkAwOIoWIbjMuUZSgmDW/0YnqmwZhAAYCIULMPiAa57p2ar3qF8IzUBAFgaBcvwuBvm2NRsxZeVN6QmAACToWAZHnfHPFX52ehas7xUwA5KiWcsAQAKRsEyTBcrD1E88LUpv1Yeqfx1dA0AgClQsAyXCwhPe9xE0dLkfQEAeoiCZdhcSDxIOX10rR6nKVsoFCsAgJlRsOA3ygOUg0fXYn1MeaDy29E1AABmRMEC+4fydOUxSsSREBco2yuea+UK/wEAgBwULFjRUcpdlVcp5/kPU3Kx80rlDsrh/gMAABEoWDDf5cq7lI2UbZQPKGcrVQsU+m8/VvxvHq34/9lL8REbAADCrD6+XIrP8DghNbNspZyYmuiYNZWbKuuNrq222h+VPyue8h/dU9I+zedLtbWUZamJnjtDuSQ1e6HVfdp37l/TufHtAGhfSfs0ny9Av9SyT9MlBAAAikfBAgAAikfBAgAAikfBAgAAikfBAgAAikfBAgAAikfBAgAAikfBAgAAikfBAgAAikfBAgAAikfBAgAAikfBAgAAikfBAgAAikfBAgAAikfBAgAAirf6+HIpWyonpGaWXZQzUhNAi5Yp+6Rmlq2UE1NzZny+AP1Sy+dL0wULgH4pqWAB0C8rfb7QJQQAAIpHwQIAAIpHwQIAAIpHwQIAAIpHwQIAAIpHwQIAAIpHwQIAAIpHwQIAAIpHwQIAAIpHwQIAAIpHwQIAAIpHwQIAAIpHwQIAAIpHwQIAAIpHwQIAAIpHwQIAAIq3+vhyKWspy1ITAK52hnJJas6MzxcAVSI+XwAAAAAAAAAAAAAAAAAAAAAAAAAAAAAAAAAAAAAAAAAAAAAAAAAAAAAAAAAAAAAAAAAAANATq48vl7KWsiw1AeBqZyiXpObM+HwBUGWlz5dJC5YtlRNSEwCutpVyYmrOjM8XAFVW+nz5f+NLAACAYlGwAACA4lGwAACA4lGwAACA4lGwAACA4lGwAACA4lGwAACA4lGwAACA4lGwAACA4lGwAACA4lGwAACA4lGwAACA4lGwAACA4lGwAACA4lGwAACA4lGwAACA4q0+vlzKlsoJqZllF+WM1ATQomXKPqmZZSvlxNScGZ8vQL+0+vniD5SrAuLbAdC+kvZpPl+Afqlln6ZLCAAAFI+CBQAAFI+CBQAAFI+CBQAAFI+CBQAAFI+CBQAAFI+CBQAAFI+CBQAAFI+CBQAAFI+CBQAAFI+CBQAAFI+CBQAAFI+CBQAAFI+CBQAAFI+CBQAAFG/18eVStlROSM0sWyknpiYKtamydmrO7GLl9NREoUrap/l8GQ4+X4ah1X3ad35VQHw7KJvfZFWv3TSJeKOiXiXt03y+DAefL8NQyz5NlxAAACgeBQsAACgeBQsAACgeBQsAACgeBQsAACgeBQsAACgeBQsAACgeBQsAACgeBQsAACgeBQsAACgeBQsAACgeBQsAACgeBQsAACgeBQsAACgeBQsAACgeBQsAACgeBQvm+L2woXKD0bU8vg3fFu8vAEAIvlCGZ3VlY+XpyjuUI5UfKZcrv1I2VXL5Nnxbvk3f9hHKnorv846KHwOA4VhDebhyq9G1PL4N35ZvE1jFlspVAfHtoFnXUbZWXq8crfxFqXptmsyfFT8WP6atFD9GNKukfZrPl37yD+JHKJ9VLlWqXrOc/E05VHHxwo/vsrS6T/OB0i3rKE9T/EHxV6XqtSgpPhLzVeWlyi0U1K+kfZrPl365vvJK5Tyl6nWqIz6i+wplTQXta3Wf5gNlVa7oI8Z7RFlf2U05TblSqdr+XYgf+3eVVyt+TqXwa92nX3El7dN8vvTDdRV/Bl2oVL0+TeRPyqsUjtq2q9V9mg+UlXkMxgeUHyg38R9acm1lG8VHUv6tVG3zLue/io+8+GiRPwzbspbiIuqjSl+KlpL2aT5fus+fQ79Qql6XNvJz5VEK2tHqPs0HynL+wvqwMvecTlfWVprkQWd7Kx4LsuL27XP8q20vZQOlSX5t/RrPPQ6/9n0oWkrap/l86S7vHx5HUvV6lJBDFP/gQLNa3af5QEnmjqzMf15NHWm5m3Kw8i9l/mMYSvzcfUTpXkrd5o6szH8MfTjSUtI+zedLNz1Q+bVS9VqUlPOV+ytoTqv7NB8oqx5ZmZ86j7R4ZztW6fLYlOh4WxyjbKHUYf6Rlfnp+pGWkvZpPl+651lKl344ucv8+Qqa0eo+PfQPlIWOrMxP9JEWz1niowlV90WWx+Nc7qpEWejIyvx0+UhLSfv00D9fusSfhe9SqrZ/F+L5oJgHqn6t7tND/kCZtFiZS0TRclPFO9Y/lar7IKvGv6AOUG6m5Ji0WJlLV4uWkvbpIX++dIk/C/dTqrZ9l7K/QtFSr1b36aF+oCzVDbRQZu0euqayq+IJkapulywdbzvPx3ANZVpLdQMtlC52D5W0Tw/186Vr3q9UbfcuZl8F9Wl1nx7iB8q0R1bmZ9ojLXdXvqNU3RaZPt7+0ywzMO2Rlfnp2pGWkvbpIX6+dI3nV6na5l2Of9igHq3u00P7QMktVuYySdHiCY7epND9Ex93E7lrbalJpHKLlbl0qWgpaZ8e2udL12yneE6kqm3e5fg5basgXqv79JA+UGbtBlooi3UP3UP5iVL1/5G4nKNsolSZtRtooXSle6ikfXpIny9dc1ulC8t7zJpLlNsoiFXLPt21fve6+cjK+5Rnj67FuKfydWX+kRbP3nqK4jOBUC+vTv1txWsVrchHVr6s+DWK4vdO1095BuxayqeUG46u9dONFE985+eKwvGhupyLFQ8qq+Nc/WXK1xQXLV6TxrMvfly5noJmuFvoPcqRigsV5yvKvZVoOykULeg6j1u5X2r2mj8DXp6aKBkfqMt5hdH7pmYt5oqW7ytP8h864i/KTxV3mzjfGGfu+rmK/01XPE7xApEnKHUUK3P8erNyLLrq1ooXIB2K3RW6hnpiKH3M0eMZupD/KB7j4cOir1NcTPlX1c2VaQpa/1v/P5sp/6u8XvGkd75t30fVffc1fg/Nclp7k0rap4fy+dIln1eqtnGfc7iCGK3u00P6QOl70XKF4plh36BsrfjIUt18Hw9W/CvGR5n8GKoeWx/ShWLFStqnh/T50gWeDmCIy4D4OTexRtkQtLpPD+0DpW9Fi1c69iywXgK+hG4KP4bHKD4NuE9nIHSlWLGS9umhfb6U7milavvmxuPHzpj3t1ni2/jcvL9FxbeLfK3u00P8QOl60fIP5ZPKwxXPoFuq6yruQvLijl3uOupSsWIl7dND/Hwplc+oiz66crnyVMU8dqzq30wT34b5TEt/zlX9m1nj5357BXlq2acZdLuwi5WHKB4k2yXnKbsot1D8IeHTdl0IlMofOD5r6n+UDRQvTeDl4LvE7xG/V/yeAbrsuUrkOjt/Vrxv+MdTtIMV33bkoH8/9+ekJkpDwbI4fwF57IXPKindL5WdlTsoPn33IqVr/qDsrfgXztMVT6pXOh+efphCsYKuu7bioxZRLlUeoXxzdK0epyqPVP4+uhbjmYq3BQpDwbI0z4ToL6RSi5YfKf5yd6HyIcXT0Xedn4N/Pd1F8VgXd7eUyMVK9C88oC1bKbkrzc9x18oTlSb2XX8276D4PiN4tfwHpSZKQsEyGRctHgtSUvfQ7xWfguwp5/3l7nUx+sYfQEcpni/lyYqPwJTC7wWfZUWxgr547Pgygo/yfik1G+ExcO9NzRD+oYTCULBMrpTuIY9H2U+5k+K5Uzwwqe/8HD3OxV1F71DaHpNDNxD6yOPIIrh72vMwNe01yq9SM1vUtkAgCpbptN099D1lc8Vr4vzNfxiYyxRPF+65EursF18M3UDoo/UVz24b4c2KB9M3zfe5R2pm86KP3iYoCAXL9NroHvqn8hLlPkoXBgDX7YfKA5SXKf/yHxpCNxD6KmrNIB/h8IKJbXH3+K9TM5s/b1EQCpbZuCvAv7L9a7tuv1C2UNw/O4Tun0l5fMu+ireND0HXbe7ICt1A6KOoFctdrLQ5ns7dxVEFU+Qq7ghAwTI7n8niSc/q5FkX3f1R6lkyJXA32T0Uj+epk1fZjjoLASiNu0AieP2wtkV9FkRtEwShYJmdp5W/Y2qGczfHC5XtFHdBYXEez+Mzpl6s1HVa9+0UL28A9FHEl7OX2TgrNVt1phLxucnqzYWhYJnNCxTPMVAHDyz16YUfGF3DNN6neBIpT1hVB8/14Mn5gL7xSuu5fLSzhG5rP4YfpGYWzxaOglCwTO9uyl6pGc6z0z5UaXL+gr45XvHp517wsQ6eX8JdUECfRKzaXtKSGhGPpYSFYrECCpbpXEc5TKlj7Ip3MJ+y/K3RNeTwmVQPVKLOFliR3wMe1LfG6BrQDxFfziUtBxLxWChYCkPBMp3dlTrGrZyt+GyXn46utW8t5b6K1xV5i+KuloMUD6j76jhu+28+e8n/xv/W/4//3xJ4HSJv03NG12J50r42JsYC6hKxovsV48sSRMwDw3pCHcXy76utdnfFg2GrnldOfqPcSmmLVyf1mj2e58VnJV2gVD3OaeIp9H1bHgTr226TJ3/y3BBVjzMnHtzb5a6hkvZpPl/a53FfVdt0mrxbWcoJStX/O018G0vxlAdV/+808SBizKaWfZojLJO5hnKgcq3RtTheet1jVurouliMi5T7Kz7rxcWFR/Z7B99WWU/JdTPFt+UlBHzbLoL2V3zEI3Lp+kl4zSVv4z+NrsXxL1JvP783gK7zYP9cEQN3o0Q8lohtgkAULJPZRdk0NcN4OXSvV+Gui6b4aMMblZ8pJyvPVSIKlKX4Pnx2zSnKuYofQ5PTXv9c8WJm0R9AXpTRR6aArouYvXnj8WUJIrrumdG6MBQsS1tXeUNqhnF3wvZKU9Psb6j4CIq/uN+keE6Rtmyk+DG4m8bTaHtBwyZ8R/Hp4tFT+XvdlCaKPqBO540vc9xVuWFqtupGSkRXdNRCighCwbI0fyFF74RevLCJU5c3UD6u+IiKjwTUPTPvNDygbUflx8rHlFsqdfMpz7umZhjPgMsAXHRdxJezu0m91lbbvIRGRFdtRBGHQBQsi/NhxWenZhifFv3B1KyNPzhcFLkY8Nk7EWcA1MXjgp6u+AwpH3mpe2S+z2o6MjXDPE/xmUNAV0XNUPuU8WWboh7Dj8aXKAQFy+LeqUR+2Xshw+ekZm08sNWzPHqCM//674rrKR7b4tkyPR9NnZ6lRC6Y6PfI/6Um0EnfHV/m8lgxH9lty62VR6dmtqhtgiAULAvzWTTe+aL8U/F0/nWdKuezb3xUxaf8uS+5qzyT8EmKj7bU9f70OiNeeyhyPIvXfdosNYHO8dGEy1Mzi4+Q7paarXiNEnE2p0+KKGFdJMxgiPMkHKtUPYdZ4zlJ6rKOcpxSdb9djsec+BTpurxMqbrfWXOU0hUl7dND/Hwpkd+/Vdt12vxHWaY07Z6K77vqMU2b6G7joalln+YISzX/yn9EaoY4VfFssXXw5GU/VCIfbyk8gO90ZZPRtXieJyZyKYRHKV0+uoVhiyq4PeDVZwA2OcjfS2Z4Bf2oeZGOHl+iIBQs1V6lRE1w5or/RYqrxWgPUtwFVNKETdE8X4vnb/Hkb9GuVDw/jF+jCH7PRJ+FBDTli0rUvuAffe9Xmpgo0vfxISXqqI63wTGpiZJQsKzKp9fukJoh/Cv+jNQM5TlF3A3kOQf6zivJ+tef566J5r77yLO2nqy0udQCMCvPSO3PlCjPVPZMzVq9Q/EUCVF8dOWPqYmSULCsyrPaRk3B72nhPXg02uOUI5SS5lWpm1dHPkTxc4/miQH9YR3B7x1mv0VXfWR8GcVHq/2DoI6pFbyveXmMV46uxfnw+BIdNZRBcf5S9Po+VY99lkQeqZnjbeiVSKvubwjx2VaeGCqa526our9ZcqFS+kqvJe3TQ/l86QKPAfGcSFXbNyfu1vUpx1Fuo3xTqbqvnHjlfH7I56tln+aFWZlPY75JambzQNjPpmYY9wt7FWQPMBsqFwI+uhS9UvKnlaiJom6qeAAu0DX/Vd6emqE8P5QnsvRpx2v6DzNy97BnlvYpx3VMI+Dn7rFtKBAFy8rc5xrlrYorxCher+bLylqja8PmpRI8psXrPEXxaxXZ3x75XgKa9CnFy3lEc6HyNsVT3vvzcZoFCr2w4tz/60kaPdFkNC/M6m5ndNwQDtneQok6h98rMEcWg76tryhV99VEvFijPyh81MiHYR23z1f836r+nybi9Zgit3Pk4XBvl5LP3ippnx7C50vXbKNUbePouDDy6cg+u84Ta/psQMdt/+1AxYu2Vv2/0fHq+YjR6j49hA8Uz85Y9ZhnidfGieRDoFX3U1f8pe2Bch6D4182i43H8H/zOjqeOXZ/xb9Sqm6zrrxWibSTUnU/s6TkU5xL2qeH8PnSRdGTZ5Ycn9KNOK3u00P4QPEaNlWPedr4qEPkgEv3/UYd+VksPo1vb+XuSi5P9PZu5U9K1X1FxkcyItce8pkHPppUdV/TJnJSumgl7dND+HzpIh91vkip2tZ9ysVKm+sf9VEt+zRjWBIfuve0zhH2UaLWqPGXp49aRM3eWOW3itcg8qj7VyhnKrncXfRyZUPF09//TqmLT5f0Noo6bdIFkCe8inAfJXKcDdAk77f+bOi7Fyi/SU2UjIIl8eqeETMy+pTbT6ZmCM8JU9dU7/5i9qR27s7xZcTCZ/P5NvdVbq+8WfH2qYPPnor8YPWgQ58tkcv7F2cLoct8OnKf+Vf8t1MTpaNgSaK+VA5XPI9LBB+i9IRmdfAREHfb+Eveq5LWzfPGeAI9H8WKOnV4vjcqnqU4gif888KLETx4Eegqz0/UZ/6h6tmp0QEULGm22KiJyLzgV5Q9FM85EM2zON5POWd0rVmelOm+ikf+R7uB8pbUDPGJ8WWuhylDnjcH3ebB9H331PElCkfBkiYfypnIaI6PrHw9NbN5PEkdVb/X3HiucsXoWjt8tOVZis/KiuYPHo+bieAJ+i5NzSx+b7lABLpmU+UuqdlrPhMyagwjakTBEneGib/golY6fbUSufaG+2lfqNRRJMzKxZNXsY7kQcpeuyTCZcqRqZkt8iwmoCl97w5a0ZCea2dRsMR9mUSdx38zJXoel9cpH0jNovhsnN1TM4znUVk/NbN9YXyZq44pxIE6+bvBk7cNxf8qdZ6NiQBDL1g84MpjKnL57JcTUzPbzkrkmAePWaljbZAonmb7oNQM4QUsn52a2b6m+GyqXC5YIs5CA5ryYMXzsAyFp7bYKjVRqqEXLF7L4sapmeVkJeJsG3+p7ZiaIXxGThfmUfA8CD5zKYq3YUSB4DEsXoYglxfU9KndQFcMsYuEbqHCDb1giTi6YieNL3N5VtvbpWY2H/Xx1Poe5Fo6DwL2h0XUhHsbKVHdMN8YX+aKeq8BdfMR3m1Tc1Aer9SxqCKCDL1gufP4MlfU5EqRR1fepbRx6vKsvPS8ZwmOErUtTx1f5vIEfUAXuFi5UWoOiqdGYN6kgg29YIk4TO8ZUU9LzSzuwnhsambzdPteir1rPJ7Fk7ZF8LaM6BbyekARs95Os5Q+0KYhd43QLVSwoRcsdxhf5vDqxBHjVzzfwXqpme2dShe6gubzqcRegDGCB9F5foVcHsfyi9TMwhgWdMFNlYenZjZPed/EGj2+j6jp9R+heBugQEMuWPzcI8aLRCwWaFEj1L1C8kdTs5MOUKKWN9h6fJkr4jX2uJqh/0BA+bZXPJ9RhOconsjRZxx5duuoo6fm2/LnnPdx34fvK4Kfu7cBCjTkD9BbKRGnD581vswV9eXqKeXrWMiwKT7KErWAZFQRGLH+kZeAYAl7lC5qmnqf9efPxisVzwDu2a19mrSPevqsQBcwHh82yY8T/xv/Wxcoz1d8G74tT19wguL78H1FnWlIt1ChJu3j31LxGyOXv0By5yvxon17pWYWDyq7d2pm8YRDn0nNLBcoEV1C3j5RR33a4mmyT0/NLH9QIiaR8wdYRBHlsU5/Tc0suyq5H84l7dMlPZYh85Ig7v6MGPvlGac98H8SHuzqU/+9dtrc+mnuZnf+oky6RMYrFXeH5/LM4D76/qvRNcyi1X3ad+4XMTe+nVxRjyUqEaerrqVU3fa0+anSFz9Xqp7jtIk428Gnm1fddlspaT/q22MZstcrVdt12niQetTK6dPwjxMvj1L1mKaNZwfH7GrZp+lTz3f++DJHxOBQO3582QdRC0lGDKzmlxaGIGplZv8i9pmKTfO4lqg5sVjBuUAULHncd3phamaJ+FK1qEnOShBxONEiTif2QGZX+0BfRa7M/KnxZRui7psVnAtEwZLnYiVijg6fQRKh62NXVhT1XCK2rQ8zR4w9AUoVNdDUs1ZHrXI+i8OUqCkdGHxbGAqWPB4QFmHt8WUOf6lGzBdSip8pEcVgxLa1qFOtgdL4eyBqZeajlUtSsxV/U45NzWys4FwYCpY8PgU3gkfJ5/qdErUWTwn8XCLmbYjYthb1WgOleYgStTJzm91Bc6IeAys4F4aCJU9UgRDxpepfFn0T8ZyiCpY+FYPAiqK6PtxFflxqtuoYJeroN91CBaFgyRP1JTY390COSecq6JKSChavfg30jSc0jFrD7LNKCfuJP5ePSM1srOBcEAoWABguFytRKzOX0B00J+qx+AcPKzgXgoIlz7XHl7kiFk+MOpJQkhuOL3NEHXlaY3wJ9ElUl8evFU+fX4qTlfNSMxvdQoWgYMkTVbBEdH1EfLmXhoIFqM+NlYelZjYf0fC8VKXwvEkRS6YYKzgXgoIlz5rjy1wRR1g8yj+qgCqBC4SIdYCiChb6sdE3ntk26jPj0+PLkngh2Ais4FwICpY8UVW3R9fnuqbiBbv6whO+RcyBELFtbZ3xJdAXUV0dZyhRq9ZHOlthBeceoWDJ40ULI75UvdBfhLuPL/vAq05HiNi2/oXVxy43DNetlc1SM1tJg23ni3psmyu3TU20hYIlj7ffuqmZJWqV5T6tVhs1YdNPxpc5/BpHLLkPlOJpSsR72uNWosaK1MEFS8SM2d5WnvkWLaJgyedfKrmiCpYHjy/7YOvxZa5zx5c5NhxfAn3R9ZWZJ8UKzj0yaYXtX+4Rq+f6V7Pf4DncVbBXambx3AP3Ts0sT1YOSc0sf1BulppZ7qG4T7nLvHLs91Izi7dpxMBd919/MjWznKZELKK4q5LbN1/SPl3SYxmCqP3LnqUcmJrF8mP8SGpm87b7fmpiEa3u075znyaWG99OKfyrueoxTpvXKxE+p1Td/rSJKOba9h6l6rlNm8OVCG9Uqm5/2kQcjYtS0j7dx8+Xkr1bqdp+08arInscX+k8/uxypeo5TJu9FSytln16yF1CnujIS6Hnutv4MtfXx5e53Dfd5VNwfap41Ij8iArfIgYz+8P9N6kJtMaf+VErMx+ltLky86Q8z5XXF4rACs4tGnLB4sFiv0jNLFFn5kR9ufr02+ekZic9T4k6XTyqCIwoSn22UkkTa2GY+rYy86SiHisrOLdo6INuIwZk3l6JWLzwx8oFqZntlUoXj7J4O74iNbN5/ErEGUI+nBwxv03Eew3IFXX00vMbfSk1O+FYhRWcO46CJZ8PD943NbO4v+4LqZnNv6Bel5qdsrviXzARPq94m+byXBUR+wkFC9rWx5WZJ8UKzj0w9ILlnPFlri3Gl7mippI2n0ly59TsBHe7vCw1Q0RtS08YFSHqvQbMqq8rM08q6jGzgnNLhl6wfHt8meuB48tcXu006pe41wg5VOnCLwH/8vNpw55RNoLHi0S9tlFnnkQ9HmBWUV0Zpa3MPClWcO44uoRWW+3PqZnlAUrEOBaLXETsrsp7U7No+yuRywocrER0B3n8SsT05X6PRS2/AMyizyszT8qfCazg3GFDL1j8Bv5Oambx0YyokeMHKBGnW8/ZSXlDahbpTYpPxY7ifvWPpmY2n1ERcdTnm0pEAQXMqu8rM0+KFZw7bOgFi31rfJlr2/FlLp8p9LHUDPMW5YWpWZQXKZ6ULZKLFU/HHSFqgCLdQWhbVBdGqSszT4oVnDuMgiWuYHmC4rEYEd6u/Ds1w7xP2TM1i/BqJbq7ytvsXamZzRPYbZea2aLeY8AshrIy86SingMrODeMgiUNHrs0NbN4vEPUURYPaqvjsKuLBK/70eZAXN/3x5U6iicf7o0aVOdiJWJc0t8VCha0aSgrM0/KBQsrOHcQBUsa83B8ambbcXwZwWsU+csu2jMVj9u5y+has3zqshcAjByzMsdFZ+RYnajX8stKl+arQP9Erczs2bhLXpl5Uu4y/kZqZmMF5wZRsCRHjy9zeRR+1MRn/mB4c2qG89lDP1D2VTynQN18VMWDa71CbF1zw3gsTNTYFa/wvHVqZvN6K0Bb7qVE7XN96A6aE/VcNlbumZqoGwVL4mmbI87i8Ky3T07NEC4ofpSa4TzK/SWKp6/fRfGYjWi+zZcrPqXXBUXUWQrznalEjofxYLqIBc58CP241ARaETUw1GcuekX5vvBK7l6QNAKDbwszhOXfv6tUPeZpc74S+cXsgV0eTFp1X5G5UNlHifi1sKnyHsW3WXVfkfG2iRpQaC7kPA6m6r6mTcmTa5W0Tw/h86UN/kHqI7VV22raeCr+vjlMqXqu08ZHdlnBeWW17NMcYVkuap2JWymRR1k8h0f0qb9VPAmSp8Y/XfERkQ8pHlDmsS6LFWBrKO5i8nP+sOIVsN3181KliYmVPG4lclCrx9f4rIoIR44vgTYMdWXmSUU9Jw8DiOpCxiImHTnuKscDrnJ5crUTU7M4N1N+o1xzdC2Pv/DdtxkxEt1cWLprIWqmymn5efxO+ZsyNxDYZ9D4zCh/ILb168KrxT5KiZp108/Da/54Be5c/1E2UKJW4I5W0j49hM+XNvhsvIgB7hcp/lL2AoK59lI2Sc2ZeR4Vr5WWyz/EvKq7ZwHO5W39jNSEtLpP+86rDtdMG99OyY5Rqh73LNlBibSuEnV4tw9xcbmOEsl90VX3NUuiVt6uS0n79FA+X5rkOaEuUaq207Tx0hlR/CVWdR/TJOKLcI5nFq+6j2njH3Os4LxcLfs0XUIrO2h8GcFdFZHb90+K16+4eHRt2Pzh4NVSPUYmio827paaIaJnKwamMfSVmScV9dxYwbkBFCwr+6ISsRiieexH9FEWT4n9OCVyraGu8XP3B4OnCI/k+RQ8FieCCykfrQPaEnXmiiexPCU1e4kVnDuEgmVl7qP1Sr9R9lY8ziOSJzzyANeo8TFd4ufs537S6FqctZSoKf3N/dkR/f3ALCJXZv6k4kPzfeXndkhqZmMF55pRsKzKp/ZGfdl4oJoXHozm+RAer0TNI9AFni3WZy3VMRfEHsp6qZnNp1lHr5EETMP7SdTUClFf5iVjBeeOoGBZlQe2Rq6X4RWJ75GaoTyo85HKX0fX+s2DB/2L0fMmRPO8M89LzRD+RerD6EBboromPBt2l1dmnpTPDIzqYqZbqEYULNXcPRB1GNSnynokeh3b2t1DD1J8ynFfuYB8oBLdDWR+Td6vRJ2W7feMuwGBtngOofulZrY+D7adL+q5soJzjShYqvlXReSU6vdWXpya4TwnwTKlj1PAe1FKb7u6lifwRHlRH+7mNal+nJpAKyJXZj40NQfBq+NHreAcOXEoZjDEeRK2UKqew6zxGAwvRFYX7yieXdbjb6ruv0vxOBAvllhnQX1fxa9J1f3PEn/A+za7oqR9eoifL3VxwVy1bUhzcRfT0NWyT3OEZWFeB+bzqRnCg+C84FbErIpV/OJ6sUS/wHUdkWiCFzJ0F5ALlqgZbOfzWUEeTBi55pNf2++kJtCKyJWZMTtWcK4JBcviXq34134U9y97PEudvPaQdxZ3d3iCta64THmz4i6gyLWB5vORqAOV24yuxfB75HWpCbSGAZ/l4LWoAQXL4s5VvKBfpCcoPnOoTl7Hxkdb/GvLM65GFl3R/NhcQNxB8VGVuucvcbeZJ9+L5KnLf5aaQCv8Wc4pteXwqeWs4ByMgmVp/hKNPlLxbsWnJNfNZw89U/FifvspJc3b4sLE8x+4qHqW4iXa6+aFEiMniLNLFc/jArQpcmVm5GMF5xpQsCzN06xHT/7mCYY8p0hTgzTPV3xkYSPljYpXk26Lj0T4MWyo+IyGph7LZspnlYjVuFe0u+J1noA20QVRHl6Tlgx9FL8P7Z2mVD2nnHjdojspbfB8AR9UvLx61WOLjI+efEBx0dAGH8X5i1L12HLiQbZdPexb0j499M+XXJErM5O4DHkF51r2aY6wTMbn57vbInosyE2Uryi3Gl1rlgfnPl/xoUsv1OhxNUcqEV0zvg3flm/TxcL6yguUOgfTLsSHyY9Vos/O8jihnZUhrumEskSuzIw4rOAcbNIJhlzlnJCaWbZSTkzNTvJYhTrOBvF5+5563rO6lsAffh4Ee0fF4198GvD1Fe+Abpt/0Xn8xt/HbXf1/HScUs5OuqXigrCOo1juJnTXVleVtE/z+ZLnKOXRqYnC+LV5TGoOSqv7tO+86nDNtPHtdNl1FBcXVc8tNx5n4vP3EcNFitf0qdrWufHkXGsoXVbSPs3ny+x85DByAkQSG59cMMQVnGvZp+kSms4VyhOVOs62cbeQu2k8wy7y3Efx2kMbjK7F8nvAg+n8JQG0LXJlZsRjBedAFCzT8yyyL0/NcGsr7sL4n9E1zMKnd35NqetXjc+2ilrZFcjFmSjl4zUKQsEyG08UVtfCYB5V7iUB6lossa88Hsuz+3oRSI+1qcNnlA+lJtA6Tw0QuXgn6sEKzkEoWGb3bMUDTOvgw4ie6M2Fi4+6YHE3VFxA7qNEz7My5xeKzwoCSrGjMumJE2iPXyNWcA5AwTI7FxV1zxzr0xVPV7y+Dqp58r0fKnX3E/uMKKbaRkmeNL5E+egWCkDBMhsf9fA4iWWja/XyIn2nKO7u4PVaztvCY4k8uNaHxuvm19qvOUe8UAJWZu4WnwG6aWpiVnwBTs/zkHxZaXL5cJ8F4O6O7yo+A2boXDy4iNtbafIMCb/mX1c84R/QJn6xdw+vWSYmjpuOixWfxdNmF82VyqeUXRRPNz8k3v5vVl6otNk947OEfDZSl7d/Sfs0ny/T8Xv/N4pnqc71feWrqdkIn4adO7O351c6JDUb8VAl4geql0HxVAtDmB271X3ad141qcu08e10lbsCPJ6k6nm1Eb/5XbEPYdCdjwR6gOEFStW2aCN+L3S5e6ikfZrPl+l4Vuyq5z9LtlWa5C+xqscxTSK+CKfxOKXqccwSFz9DUMs+TZfQZNroBlrKzZRPKp4Xxqse13V2TJv8/vRaHN9TDlbWU0pB9xDaEtW1cLHiaQCwuGOUqKOpdAtloGBZWgndQIvxwoUfV85VPKmZlw/oOp+B5SLsbOWLyj2UEs0NxKVoQVO8MnPUUZHPKszYvDRPr39EambbThnqCs7ZKFgW50P+xytdOK3YZxO9R/HcMK9UvEJy1/gx+7H/XHER5sUXS+eixQUtZw+hCS5WPO9QBI+Fw2SithUrOGegYFlYid1Ak/CAtncqHpTnM2meq3il5VL5iJDnUPGqpl4A0o89d1Be0+geQlOiuhQ8cPXU1MQETlbOS81sdAvNiIKlWpeOrCzEr60XUjxA+b3yMcWDx6J+neXwY/ChUR9FuVDxoWkvj9/lcTgcaUHdvDJz1KBNHzHwGYeYjAeAemmOCI9QhriCczYKllX5C8fjErp2ZGUxPgz5dOVI5c+KTxPz6cE+26CudXdW5Pt4uOL7/Ibix+A+YY9TKfnoz7T8nmFyOdQlcmXmT48vMblPjC9zeYyeV/3HlChYVtbHYmU+7ywPUnZX3OV1ieIBu4cpb1R8uNJHZjyeZJojHv63/n/8/z5V8W35Nn3bvo8vKb7PByp+DH1F0YK6RHUleB6hs1ITU/BJAF4GJALdQjNg4rjlfBTAj63OYsUfFD6isNHoWje42HC3zd9G11Zb7bLx5ZrjS3fvrKN4zE9XeFDv3xV349TFE3J5v/EaRCUqaZ8ewudLLq/26/dtxLxLr1LelZqN8/T0ucW8T8f2PEht8EkBHmeXy11M/h745eha/7S6T/vOV5zMZdb4dkrlD4L3K1WPOyI/UDwo04WRD8dW/RtSf9wV5eLK8VIHVf8mIh9VSj6CWdI+PYTPl1xvUKqe87TxLKu3VDAbH0X+j1K1bafN65W+qmWfpktoOW+cFykfGF2LteJU7v7F7aXGPabkcgXNuELxApKPV3zUyPEYntOUaAcqz1EY1IgoUSsz+9fqb1MTM/AJDF5wNQLdQlOiYFmZi5YXKx8ZXYvhroGtlfkzJXrm1s2Vc0bXUCf3PXvRyH1H15Zz0eLBwH6Novi9Q7GCSJErMzP3Sr6obcgKzlOiYFmVv2g8d0nEkRYfWfGvePe5VvEArk2U3RTPpohY/1beoXhckpcwqOLX5sFKxJEWH1nZWaFYQaSoX+I+yugzBZHHJxP8IzWzcZSlBkPsY84d0zI3ZmVSd1O+rVTdFpk+PmoyzQDq3DEtpY9Zma+kfXqIny+T8srMXui06vlOG3/RIsbhStU2njbuYmpz5fm61LJPc4RlYd5Ys3YPLdQNtBgfAfApwS9X5s7IwfS87XZRPOnfNF09Od1DdAOhLj7654VOI9AdFCdqW95c8XcFAg35F9C0R1qmPbJSxf//nooP4VbdB1k17lLzrL65KzpPe6Sla0dW5pS0Tw/582Upng266rlOm4uUNRTE8AR+ngCzaltPG89C3jet7tND/0CZtGiJKFZWdHvF09b7l3vV/ZEUr0PkbRVl0qKlq8WKlbRPD/3zZSFe1ddHDKue67TZX0Es/0Cq2tbTxq9x31ZwrmWfpktoMt5wS3UPzdINtJSfKZ7C2V1FRyt+HEi8LVyo3E/x6qfeVlEm6R6iGwh1e6wStXQG3UHxorapX2NWcA7EL6BkoSMt0UdWFuKZEX1qrkeoz38MQ4m7fnxK+F2Uui10pKXLR1bmlLRP8/lSbe5HSm68Cjo/TuP5++BXStU2nzZfVPqk1X2aD5TlvON/WJl7Tp4iuul1YzZQ9lI8Zf6K27fP+ZPi6cSbnqXTr61f47nH4de+Dx/+Je3TfL6systduDivep7T5m0K6vF2pWqbTxu/1n1awbnVfZoPlJXNHWlp6sjKQnw6nGfQ9TiXqA+3kuIpsL+qbK9ErVI7i7kjLX04sjKnpH2az5dVvVCpeo6z5K4K6uEJ/aq2+Sx5gdIXre7TfKCsyl9cUf3LEXzq467KtxSvF1K1/bsQP/ZvKq9Qcs/4ieTXuk+H1Uvap/l8WZX3garnOG38owr18gShVdt+2pyq9EUt+3SfPoCb5sGWJa3Ee4HibqLNFH/Re7DuJ5QuzOniNZXcX+9ZYt3d5SUL9lb+qJTCrzUDbNGE2ykeTB6Bwbb1i9rG/uz2qtxYAAVLP3l+AM9q+TRlXcVLdL9OcVHg/9Y2j73xGT5+TK6gb6x4lPyHFM/8CAyZF0d1t3MuF9ifSU3UyAWLjwzn8mvu1x6ZOGTbL3dQdlQ8YMxTTJ+p1HHmkW/Tt+378H35Pn3faF9J+zSfLyvzgqhVz2/aHK+gGV9Xql6DadOXxXBb3af5QOk/H23bUPmeUvXaTRPfhm+LI3jlKmmf5vNlOa/MXPXcZslOCprxLKXqNZglfVjBuZZ9mi8UzPHh4/OUiHE5vg3fFmM+gOmwMnM3sYJzAyhYAKAMnqbgSamZzePVPGMzmuGTG45NzWx+D/RxBedsFCwAUAZWZu62qG3OCs4LoGABgDJEdQVcrByXmmjQMUrUWnJ0C1WgYAGA9nm13selZjbPfP3P1ESDPNv4EamZbTulbys4Z6NgAYD2sTJzP0Rte1ZwrkDBAgDti+oC+LXSpyneu+ZkxWdIRqBbaB4KFgBol1dmflhqZvMvfKYTaI/nDomaXfgRSp9WcM5GwQIA7fK6X9dKzWyfHl+iPV7DLYLfE35vYIyCBQDaFXXo36sGn5WaaNHZyg9TMxvdQiugYAGA9rAycz9FvRas4LwCChYAaA8rM/eTCxZWcA5GwQIA7Yn6MjpR+W1qogC/V05KzWx0C41RsABAO7wy88apmY3uoPJEvSZ+j/RhBedsFCwA0A7PjOpZaXNX+fXKzFEzrCLO4YpfmxyXK4cofq8MHgULALTjTGUH5SaKT1/1Csv/UaZ1lPLX1ERB/Jp4faFpeTySJ//bWfFimO42/JEyeBQsANAuH2E5TPFU7LdWXqZMM1st3UHlmua18enQuym3VO6vfEi5VMHYpKPTt1ROSM0sWykeHIZyua907dScmVeLPT01UaiS9mk+X6rdSfERGA+63Mh/qOB97eYKix2W6dqKB+D6KFqV3yifUw5UouZuKUGr+7Tv3FMO58a3A6B9Je3TfL4szT8k9lX+qKz4nPdXULYDlBVfs4uUg5WHKBGntJeoln2aLiEAKJ+PWL5UWV95qOLp3y9T6A4qn18jD771GCWPVfK4lKcpX1P8pYwJUbAAQHd4MjJ/0fkL7xbKKQrK5hWc11U8RsljlTjjZ0YULADQTT4LhV/o5fNrxODZABQsAACgeBQsAACgeBQsAACgeBQsAACgeBQsAACgeBQsAACgeBQsAACgeBQsAACgeBQsAACgeBQsAACgeBQsAACgeBQsAACgeKuPL5eypXJCambZRTkjNQG0aJmyT2pm2Uo5MTVnxucL0C+1fL40XbAA6JeSChYA/bLS5wtdQgAAoHgULAAAoHgULAAAoHgULAAAoHgULAAAoHgULAAAoHgULAAAoHgULAAAoHgULAAAoHgULAAAoHgULAAAoHgULAAAoHgULAAAoHgULAAAoHgULAAAoHgULAAAoHirjy+XspayLDUB4GpnKJek5sz4fAFQZYXPl9VW+/9BjyYmu21IbAAAAABJRU5ErkJggg==;" vertex="1" parent="1">
          <mxGeometry x="53.569999999999936" y="296.5" width="53.89" height="53.5" as="geometry" />
        </mxCell>
        <mxCell id="B3J9zCPMF0yDf6O6Sbgf-19" value="" style="shape=image;verticalLabelPosition=bottom;labelBackgroundColor=none;verticalAlign=top;aspect=fixed;imageAspect=0;image=data:image/png,iVBORw0KGgoAAAANSUhEUgAAAjoAAAIvCAYAAAB9U3HoAAAAAXNSR0IArs4c6QAAAARnQU1BAACxjwv8YQUAAAAJcEhZcwAADsMAAA7DAcdvqGQAAAAGYktHRAD/AP8A/6C9p5MAAAAhdEVYdENyZWF0aW9uIFRpbWUAMjAyMzowMTowOSAxMDoyNDoyOR+2crcAAEe1SURBVHhe7d0HuC1Vff5xDIgi0pWOAgIaBUFBUBEFu4gNjYWIvUbFnhgraMASDWDvolFRLGgUKyKKBAsKFlBQkCKgCAIiigjm/7579vlzufd37z0zs2ZmzZrv53m+z55DzDn7nLPv7HVm1qxZBQAAAAAAAAAAAAAAAAAAAAAAAAAAAAAAAAAAAAAAAAAAAAAAAAAAAAAAAAAAAAAAAAAAAAAAAACAlG40fwQANLOquuUSrafWVWuoNZWtpVarNle5Sl0zz9uXqSvU75forwpAAgx0AGDlPFC53bzt1NZqS3VrtZFaGMSk4sHO+epcdZb6pTpDnaYuUQAWiYEOANyQBzW7zttZ7aQ8sMllf/lb9WP1I/X9eRcqAAEGOgCmzqeZ7qXure6pdlA+HTUmv1YnqOPVN9R5CoAw0AEwRT5Ks496kNpNjW1gszJnqq+oL6pvKc8HAgAAhfIfdburQ9U56v8m1OXq42pf5QnSAACgEHdQb1Ce1BsNAqbWH9UR6j7qHxQAABiZm6unq++p6M2eqjz4O1BtoQAAQOZuq96uvCZN9MZOcdeqo5UnYwMAgMzsqTzp9u8qeiOnxXeqeoK6sQIAAAPx5GJfNXWSit6wqV0+rfVcxeRlAAB6trc6WUVv0JQ2L0R4gLqJAgAAHbqHOlFFb8jUbT7C80TFlVoAACR2G/VZFb0BU795Dg+TlgEASMB3/vYaOFer6E2Xhuszyjc1BQAADTxc+X5N0Zss5dFV6t8VV2gBALBImypOU42rnyjfLwwAAKyAJ7tepqI3U8o7Lzr4n+qmCsgKdy8HMLRbqPcpn64ak4vUL5VvEur8sbtUecB25TzfOdyneRbcTPlybc9B8u0q1lMbqA3VZmpz5fkv26hbqzHdWf10tb/60ewjIAMMdAAM6X7qw2qT2Ud58kDlx8pr95yifKrmF8q3muiaB0S3U7456Z3ULmpntZbKlX9er1RvVj7aAwDA5KymDlHXqaVPgwzdX9Q3lN+svXZPbqdjfIRnJ+WF/HyPqlxP931F3VIBADApG6lvqujNcah+o96lHqx8amlMPPC5u/LA8Wcq+v6G6nx1NwUAwCT4Te8CFb0p9t1v1eHKg4SSTuP7Lu4+GuX5MtH33Xd/Vc9WAAAU7clq6MX//KZ7lPL9snz6rHSe0/N2lcPprXcr1twBABTH90d6o4re/PrK92ry4nZTnTPiu5A/RflqqOjn01ee++SrzAAAKIIn8n5aRW96feQrpR6jpnD0ZrH2VF9Uf1fRz6zrTlO+bB7oBZeXY+q8jsk6ymua+JJd/5tYVy3wQmheC8UuV74ix6cB/IgV88/xf9Qes4/65buc/4fylT+I3VG9Qj1K9X1X8gvVg5Qv1Qc6xUAHJVtfbTvPC7D5r0jfYsALsvkUhv/vXqekCQ90LlHeYXtSq+/L5H6tfqXOVFMeDPnKqq+qHWcf9cdHcPzm/bXZR1iMHdTr1MNmH/XHfzjsozwoBQCsgC+v3V75FgKHKs8D8OAjOmzeV14f5iz1eeU3kUcoD7CmYAt1hop+Ll11tnqs4o+35nZX31XRz7er/qTuqwAAS/C8j73UgepY9UcV7URzzJdWe87K85VXuu37lEHXfNTMg47oe+8i31rBR3C4x1IaHig+XvlIZfTz7iIf+XygAoBJ8xGbl6qvqz+raIc5xnz6y5c7+4qYnG+DsBi3Un0Ocjz/x6ckkd7aymsMeY5a9LNPnQc7D1AAMBk+0nFPdZjyvJdo51havgrme8qXQW+nxsRzn3yDy+j7Sp1PS3oCLbq3m+prtWX/AeMjtQBQNN+w0IObXFbPHbJT1b8pz3nJmSd1/1RF30PqfPTLdztHfzxh//Wqj6M7Pg29qwKAovgKqBer3O7Tk0ue2OxTdo9Tuc1F8X2h/ldFzztlfgN8gsJwfIPTc1T0+0mZT+f6ju0AMHq+yuPjaujbAowpvwn8p9paDc1Xu/mqsuh5puwU5SUCMDyvavxZFf2eUuYB1djnrAGYKN/r5p+V1zuJdnC0uHyU52jleUxD8T2UoueWsvcprqjKi6/MeqH6m4p+Z6nyPsILeQLAKPheO89RfRz6nlo+dfQQ1ecaMgeo6LmkyjfffIZCvnwrid+r6PeXKg/mS1uCAUBhPMDxX38XqWhHRunyKZ6Hqq4HPF7grcu/5n167l4K+dtKdT237mAFANnxTRSfqbh6qv98ifp9VBc8N+hSFX3dFPkSdebjjIvvFefJ8tHvM0VeduGRCgCy4Xvm/EJFOy3qry8rL7SYio/O+ahR9LVS5DkZvgIP47O6+piKfq8p8lV3t1UAMKg7KN+SIdpR0TB57ZN3KK9109Z7VfQ1UvRN5dV4MV6eS9PlBHWv1eTlDACgdzdXb1bXqGgHRcPneS9PVU3n7/iGmdHnTZGPPPloEcrwJhX9nlPkq/AAoFe+2uc8Fe2UKL9OUHUXY/OE0ytU9Pna9iXllXdRFq+kHP2+U/RPCgA6t4HyYn/RjojyzjdQfJnyhPGV8aKA31HR52nb1xRr5JTrLSr6vbftD2pzBSxKn+tuoBz7qPerjWYfjYuvGPIRKF8N5kveL1aXqSvV5co7Un+8wJMsvWjZwqMHeM6TZn0jS+cjHmM89eKrs3xbhTNnH8X+Vb2x2kzKa//cX101+wgl8vvLe9TTZx+l5au8fLdz/3sFgGQ8EfDdasm/rnLNg5hjlA+h76d8s1BfBtsVL1fvtV+8yJ0nZH5befAUPbec8kBjeQvz3V51cXuO05RvJYDy+YhgV7eMYEFJAEn5MuVcb7rp2yH8SB2qvN7GZioH3sn7SrSnqQ+rnFeF/rRaVy3wFTQnqeh/2yYfSbuVwnT4aOeJKno9tMnzxjiFBSCJJyn/5R/tbIbKp5yOUI9Rt1BjsY36F+WjTZ4rE31vQ3WWurOy56rof9OmPykfWcP0+FSvX1/R66JNn1MA0Jjnpfgce7SDGaIL1eHKN7L00ZKx82X5j1KfVLkMJD34epFamK+UKq9u6+8V0+Wjm174L3p9tMkLlAJAbRurrq62qdOf1X8r31+phMHN8njQs7/yJEufiot+FmPuEAU8QnnQG71GmvZrxUKCAGrZUZ2rop1KX3nC6vPUkvNGpsL3k3qD6vrO0H3lwVvJg1TU46v4otdJmw5UALAoD1RdHF5eTP5Lz3NXfENKlj6o1pjxasa5TgJfTD7duKECFnj9Ji9cGb1emuYjv1soAFihJ6ohbuPg+zH5hoA7KCzLgz6vQO11b6KfX675FNz9FLA0X3nnhf+i103TPqIAYLleqlKfO19Z/nqfUNyVePEepH6gop9nbvn+Z8Dy+IrJ6HXTNA+sd1IAsIyDVbTj6DIv/38nhfp8hOfR6lcq+tnmkE+3cQ8rrMyRKnr9NM2nvgHgBvxXd7TD6CrfbuDBCu15IOFbNAw1p2p5+VTkXRSwMr6dyu9U9Dpq2t0VAMx4JeFoR9FFniz4CsVf+en5flup/zJuE6esUEfqU1hfVQDQySWey+s45RWB0S1fMTf0bSb89X3zU6COL6no9dS03RSACfORlWjnkDrf1PLZikvF+7OW8o1X+55YvtC+CqjrNirlLVGOVgAmygOPaMeQOt8Q0jsvDMNXZ/kO7tHvpqu8MCDQlFfPjl5XTfIVWLdTACbG9xrq+vYC/vy+isuLgmFYXqjvyyr6PaXOE5BZBwlt+DYoKQfnPrIJYEJ2V13fLdu3LLi/Qj582tCnKj0QiX5nqXq/Atp6popeX03yjXJ9ZNMrrfuu+c5zBTdR3BtrQpg7MQ2+d9J31S1nH3XjVPVw5XtkIT9eodiLM64/+yitq9V26vzZR0BzPhJ8utp29lG3/qouVRer36gL1HnKE+rPUr9UXr0ZQObWVr5BZvQXT6qOUvyFlD/PmeritXC4AlJ5vIpeZ0PkNX6+od6qnqK88vKNFYBM/IP6vIr+AafK83E4Mjge6yhPGo5+l03y6VCv4wOk4jvdn6Gi11sOeU0w35TUS3Tso/xvCsBAXqmif6gp8pyPZymMj/8i9Q0Qo99r3d6pgNSepKLXW455X+gb7vqqsXsqLsQAeuIJeF1NQPWcDNZLGTcfhfsvFf1+F9vfFEsIoAurK8/5il53uXeZ8nw4r/jsda0AdGBj9VsV/SNsmw/bPkChDAeq6Pe8mHwLEaArvo9b9LobUz61+zn1WMU8RiARz8vxncGjf3Rt8+WaPlKEsjRZKdtX8a2hgK6sp7zPiV5/Y+wK9UF1DwWghRer6B9Z2/yXyX0VynSAukZFv/ulO1atq4CuvU9Fr8Gx93P1QuXBHIAavDKt589E/7Da5DfAByuUzZfOfkUt7z5ZXiPJE9B91BDowy4qei2Wko9YvUfdXqEjXBZcDl9J45n/d5p9lI7/Me6vPjb7CFNwa7WX8kRjv6684rVPVfn+ZR4EAX3yYqQ7VpvF8n7Wd3D3Jeu+dB1AoKs7kr9EAcBQXqCifVOpfVt5JXMAS/Dy+13cx+pdCgCGtJFa7PyxkvKRnXspYPJ8+vE4Ff1DaZMnnLLwFYAcpFrgcoz5lNYdFTBZ/6yifxxt8g3turj5IwA0sZm6REX7qyl0nXq/8hppwKR41c0LVfQPo2leELD0iX8AxmdPVdK6Ok36o/K8SW4sisl4vYr+MbTpqQoAcrSr8hHnaN81pX6qdldA0bZUqScgf1QBQM58K4UXqZ+paD82lbzUgy8YWVthBVhHZ7w8KPH8nFTOUT5l5UOjADAGt1DbqJvPPlo+367kpmqdeRsoX821odpCee2osa727ZufPk351j9AMTwg8eS0aJTfJH8uLmMEMGW+AMOnxp6g3qC+rH6non1mbi0c3eHGoSjG51X0Ym/aWxUAYFk+4vMo5bv1n6yuVdF+NId8D63Uq+MDvdtZLe9eRE06W62pAAAr5xtx7qverc5T0X51yHy/Q9+kl6kpGK3PqejF3bQHKgBAM3dWr1U+mhLtY4fq04qJyhid7VXKozmfUgCANHza6C3qIhXtc/vuDPWPChiND6voxdwkL7zlc88AgLR8+5yHqWNUygtHmnSFeogCsucl0P+qohdykw5UAIBuba18lMcDjmhf3EcebL1UAVk7REUv4Cb5thFMQAaA/ni+jAcbF6hov9xH71HcrBlZuom6WEUv3CY9SwEA+ueFC5+jvNBftH/uOp9O4w9dZCflHcp/pbghHAAMywMe38piiLuyn6S8QCKQjeNV9GJt0pMUACAPvvXEm1TKOZiLyTcG3UQBg9tOpbqk/NeKozkAkJ9t1RdVtO/uKl9+vrkCBvUfKnqBNum5CgCQr4erPufveDoDS41gMP+gfFfx6MVZt0sVE9AAIH9rqXeqlAvErqhfKi9hAvTuHip6UTbJd+MFAIzHvVWqP3ZX1unqlgro1dtU9IKsm++2u6UCAIzLOupjKtq3p+6HivtjoTc+bZVqYakvKADAePmK2T+paB+fsuOU124DOndXFb0Im/RQBQAYt9urPu6SfqS6kQI6leqWD79VLPkNAGXwqaXPqWh/n7KDFdCpU1X04qvboQoAUA4fbfHSI11flfUEBXTCl/mlegHfRQEAyrO/6nJF5auVp1EAyT1RRS+6unklZM6zAkC5fAn65Sp6D0iRL4rZWAFJfURFL7i6cdoKAMp3J/U7Fb0PpOjbirmeSOpcFb3Y6raXAgCU77bqPBW9F6TojQpIwgv7RS+yuvlQJiNwAJiOrVVXKyl73ujeCmjtcSp6kdXtMwoAMC1bqVRnBZbuYjW6+TpefRd52W3+2Nax80cAwHT4IpT7qItmH6Xle2F9SHGRC1o5UUUj6br9owIATNMO6g8qen9o27MV0MiqKsW9TDz7nhE3AEzbHuovKnqfaJPfpzwfCKjtdip6UdXt8woAgEer61T0XtEm3/yTP6hR26NU9IKq2ysUAAD2chW9V7TtaQqo5TUqejHV7QEKAIAFH1PR+0WbLlWeoAws2sdV9GKq20YKAIAFN1OnqOg9o01HKGDRfqCiF1KdPBEZAICleQLxZSp672iaFxK8uwIWJcWlgMcrAAAij1DRe0eb/Ec66/JhpdZW0Quobu9RAAAsz9tV9P7RpicoYIXuoKIXT91eqgAAWJ411Gkqeg9pmm8oelOVHQ415WPT+WNbvqEbAADL40UE91d/m32UxhbqOdUmEPOLLhol1+2uCgCAlTlIRe8jTbtEeRpGVjiik48N549tdXEjNwBAeQ5Wp1ebSWygnl9tAsvyCy4aIdftJgoAgMXYXfkS8ej9pEleRDCrozoc0cnHuvPHNnyjtb9WmwAArNSJ6kPVZhLrK+5ujtBHVDQ6rpNnvQMAUIdv45BiHbeFPIUimyuwOKKTj5vPH9u4cv4IAMBi/V69rtpMYmP1+GoTuN6XVDQyrpNXpwQAoK7V1S9V9N7SJK/TcyM1OI7o5OPG88c2mJ8DAGjiGvXyajOJ26v7VpvDYqCTj1Xnj21cO38EAKCuTyvf4TyV584fB8VAJx8pDvH5cCEAAE34PeQ11WYSD1abV5vDYaADAAAWfFGlOqrjMxVPqTaHw0AHAAAs8FGd11ebSTxZDTrWYKADAACW9Fn1q2qztS3VvarNYTDQAQAAS7pOHVptJjHomjoMdAAAwNI+rK6oNlvbVw22UjIDHQAAsLSr1BHVZmu+l+MDqs3+MdABAACR984fU3jk/LF3DHQAAEDkdPW/1WZrXlNntWqzXwx0AADA8niuTgrrqz2qzX4x0AEAAMtzlEp1H8W954+9YqADAACW53L1lWqzNQY6AAAgO5+aP7blO5r3fu8rBjoAAGBFfP+ra6rN1u4zf+wNAx0AALAiXjjwW9Vma3vOH3vDQAcAAKzMMfPHtu45f+wNAx0AALAyqSYkb602rTb7wUAHAACszBnq3GqztbvOH3vBQAcAACzGN+ePbe06f+wFAx0AALAYJ8wf27rz/LEXDHQAAMBinDh/bGun+WMvGOgAAIDFOFNdVm22ckvV24TkG80fEVtH3UZtpbya48bqFsr/3aUcKO6s1qs2Gzte7VVtAgCQ3FfV/avNVvw5vl5toi8eYT5cHax8Gd0F6v9GVqqJYgAARN6govefuh2g0LGbqAeoQ9XP1N9V9MsYUwx0AABd2k9F7z91e6dCBzy48VGbI9UfVfTDH3MMdAAAXdpBRe8/dfMpMCTkX8zb1KUq+oGXEgMdAECXfMDgWhW9B9XJE5vRkicK++iNb0QW/ZBLjIEOAKBrZ6voPahOV6tervwu8fLyVdX+6nR1tOr9BmIAABTsrPljGz4y5IuAOlfSQMeXyj9SnaY+om6rAABAWqnuedXLWjqlDHS8nPS31acVAxwAALrj5VdS8Np0nRv7QMeL9r1d/UDdw/9h4q6ZPwIA0JVUA50N54+dGvNAZ2/l01TPUSXONWrivPkjAABduXj+2Nb688dOjXGAsKZ6rzpGbeb/gP/vO/NHAAC6csn8sS2flenc2AY626uT1dNnH2FJXgDxc9UmAACdSXFjT2Ogs5R/Vt9Tt5t9hKW9SV1RbQIA0JlU7zU+QwPxYMxv4tGCQ1R1grqxAgCga+up6L2obv+tJm8N5UvGox8QVXmQ4xcdAAB98Htz9H5Ut6PUpPncndfGiX44VM3JeYXiSA4AoE+rqeh9qW6fUZ3zasI52kB9TXkhwNxcpXxp3R+U79XxF9WXvytfQu6rqzzxmDk5AIC+eUrJddVmK75N077VZndyHOj4uvpvqJ1mHw3HR0w8+fmH6sfKd1r1/T0YXAAApsz3lPQdzNvqZaCTm7WVVzmODnF1nY+WfF+9Uu2m/IsEAAA3tLqK3kfr9ik1Kb6T6XEq+mF02a+U57psqQAAwIqtpaL307p9TE2GT6H5G45+EF31VfVANcbVoQEAGMpGKnpfrdsH1WS8SkU/hC76otpFAQCA+rZR0ftr3XxT7kl4qPL8mOiHkLJT1L0UAABobmcVvc/W7fWqc0OfttlafVh1efXXleoA5aM43/J/AAAAjXkJmBQunz92asiBjhe6+4Rad/ZRN45XO6i3qRTX/AMAMHW3nD+25fXoOjfkQOcgdZdqMzkPal6t7qPO9X8AAABJbDx/bOuS+WORvE6NFxuKztm17VJ1PwUAANI7VEXvv3W7uyqSFxr6mYq+6bZ5TZztFAAA6Eaqm217nm6RXq6ib7htpypf2w8AALrjWyNF78N18hQTLxRcnFsp3xQz+qbbdLJaTwEAgG75no/Re3GdLlBF+riKvuE2/UT5RqAAAKBbm6jovbhuJ6rieAJy6oUBz1GbKgAA0D1f7BO9H9ftI6oXfV5efrBKuTCgFwLcR104+wgAAHRt+/ljW2fOHzvX10BnD+U1bVLxaPBJyldvAQCAfuw0f2zrjPljMXyn8KUPW7XpvxQAAOjXaSp6X67bHVQxdlTRN9k0X0Ze5CVpAABkbB3ly8Kj9+Y6Xa1WU8X4gIq+0SZdozxwAgAA/Uo1EdlLwvSm6zk6XtvmsdVmEm9RP642AQBAj+4xf2zLCw4W43kqGs016Xy1pgIAAP07XkXvz3V7uiqGD09F32ST9lcAAKB/PtDguTXR+3PddlBFuK2KvsEmefXjPtf8AQAA1/O6ddH7c90uV6uq3nQ5eHj0/DGF1yqvqgwAAPq39/yxre8oX7lVhB+paDRXN6+eyNEcAACG4bsanKei9+i6vVQVYTOV6r5WBygAADCMnVX0/tykXVQRnqyib7BuV6l1FQAAGMYhKnqPrtvvVe9naLr6gveeP7Z1tPLEJQAA0D+ftnpMtdna11Ux821Tnct7sAIAAMO4m4ren5tUzDIxW6joG6zbFWp1BQAAhvEuFb1H1+1vagNVhH1V9E3W7VMKAAAMYw3l6SPRe3TdjlOD6GKOzp3mj235XB4AABjGPynfsTyFz8wfi+AJxNForm7bKQAAMIyTVPT+XLdr1caqGD9X0Tdap0uUZ3oDAID+3UVF789NOlYNJvWpK3++rarNVhZWVQYAAP174fwxhY/PH4vgFZGXHsk16S0KAAD0b0vlq6Si9+e6/UmtrQaT+ojO5vPHtn45fwQAAP16sVqt2mzNk5D/WG0OI/VAZ6P5Y1vnzB8BAEB/NlFPrTaT+MD8cTCpBzrrzx/bumD+CAAA+vMy5fVzUvDFSSdUm8NJPdBJdb29r7oCAAD98fSTZ1SbSbxTeZ7OoFIPdFKNAn37BwAA0J+D1E2rzdauVB+pNoeVeqCT6t5UV88fAQBA93ZQT6w2k/igGnQS8oLUA51Un6+Y27gDADACXtZl1WqzNa+EfFi1ObzUA51UA5TUzwsAAMR8M+77VZtJfEIVe/W0Z2svvVhQk26mAABAt9ZU56rovbhJ16nbq2ykPnLy5/ljW+vOHwEAQHc8AflW1WYSXiDw9GqzTJ7IFI3w6nZHBQAAurOL8nya6H24ST6acweVldRHdC6bP7a16fwRAACkdxPlK6NSTUA237zztGqzXLuqaJRXt2cpAADQjTeq6P23aV4WZitVvFR3L/8vBQAA0ruX8mmm6P23aZN53/apMI/qoh9Cnb6uAABAWhuo81X03tu0S1Wqe10md6P5Y0qebf2P1WZjf1C3UP4BAhjOk+a1tef8sY1Uz6UvL1CnVpuD8+JtO1Wbk3HEPFzP7/n/o/aZfZTOAept1eY0fFYtPdpr0m0VgGEdqKJ/n3VLIdVz6asUg7tUjlfRcyw5v15wQ6nWuluyn6rVVLa6WIH4Z/PHtnLaSQAAMGYPUP9RbSbjgc6zlS9Rz1YXA51T5o9t3X/+CAAAmttOHalSXkpuH1DfqTbz1cVA5wfzx7Z83w1f5w8AAJrxJOEvqPVmH6XzW/Vv1Wbeuhjo/EZ5Rndba6mUNxkDAGBKfLDgaOUjOqn9i/KFQ9nrYqBjnviWwn7zRwAAsHh+f/+ouufso7R8GswDqFHoaqBz3PyxrYer1IfbAAAomS8jf4d61OyjtC5Qz602x6Grgc7XlGdjt7WG8o1CAQDA4vj2Dl3cSunv6slqFKesFnQ10LlQ/ajabO05KvVMcQAASnSwemm1mZxv8zC6Oxd0NdCxVOfvtlGPrDYBAMByvEG9vNpM7nuqq8/dqS4HOp+aP6bwKtXlcwUAYKz8/vh21dXl3j5V9Rj1t9lHI9Pl4OFMlWpNne3V/tUmAACYW1356ipP8+iC5+X4/ffc2Ucj1PVRkg/PH1PwecebV5sAAEzeOupL6nGzj7rxauWvMVpdD3Q+pv5cbba2mfIpLAAApm5LdaK6z+yjbnxSHVJtjlfXA53L1cerzSRepO5UbQIAMEleBPD76g6zj7rhz+9LyVMsFTOorgc6drhK9YPyreB9Oox7YAEApuh56lh1y9lH3ThHPUz9ZfbRyHn1xD74/N6Dqs0k3qqeX20C6NCT5rW15/yxjVTPpS8vUKdWm4M7TO1UbU7GEfNK4fs/vlt1fWukS9Ue6uezj7Bouysf1UmVZ4H/kwIAoHR3Vmeo6P0wZVepuyk0tHBbiFRdqXZUAACUyHcF8No4f1XR+2DK/DUeqNDCXZSPxEQ/4KadrzZXAACUZDv1HRW996XOCwHuq5CALzePfsht+pm6hQIAYOx80Y2P4nhplug9L3XXqscqJLKF+pOKftht8g1EN1AAAIyV57P+WEXvc13kIzkMcjrwMhX9wNv2E7WJAgBgTLwgrq8QSz29Y0V5Tg6nqzpyY+VBSfSDb9uv1T8qAABy50vGX6u6ONOxonwxz/0VOuSJyT5kFv0C2naZSrlmDwAAKa2hvNL/xSp6H+uyS9RuCj3wKDb6JaToOnWQ8qV5AADkwDemfrG6UEXvXV13trqdQk88s/wkFf0yUnWC2loBADAUzx89WP1BRe9VfeT32w0Veua7r3b9i/e5zxcqD6wAAOiLr6L6qOpjwb8V5aVdbqowkL2VTzVFv5yU+ZK9Lm9nDwDARsp/XHuNt+i9qM+8Rs6/KmSgq0vOo76q7qoAAEhhXbW/OkZ1daFN3X6vuLIqI76L+odV9Mvqqm+oh6h/UAAA1HEr9Wz1ZTX0qamlO1F5gV5kZnWV+safi+kcdaDaVgEAEPGthh6uDlenqej9ZOg8DcSTnpmTmjFfetf1lVgr6hTly9LvrnihAMA0raPuoZ6nfLbh5yp6z8ipc9WeCkvxKaPc+FznsWrn2UfDuUr9YN5P1S+UV172YksAgPFaU3nSsC/73lT5NNRtlI/se52ZzdWY+PYRL1BXzD7CDeQ40LH1lCcNewXl3PxFeZKXL4u/Rv1RAcDSXqJ8tWcO3qx2rDYnxUfmfZsF8x/RN5s/emXiEpyvnqW+NPsIoVwHOra2+rziUByAMdpLHV9tDu6bin1pOXzzz3eoVyr+2F6JnK848i/vgeqTs48AAMDJyveqOkAxyFmE3C+t9iV7j1OeRe7JVgAATNFv1VOVBzke7GCRxrCGjAc4Pjz3WOXbOQAAMBV/Voeo7dQHlU9boYYxLZZ3lPJI1usXAABQMt++4b3KA5xXqCsVGhjbqsCnK1+J9U7FqSwAQGk8wPHl4r7M/ZnqAoUWxjbQMV/e/RzlicpeIAkAgLG7Wr1b+QjOk9VZCgmMcaCzwLeL2F4dprzsNQAAY+NFaH3BzVbK987ywrRIaMwDHfPkZN8O36sof8v/AQCAEfCVU09RvvmmL7jxVVXowNgHOgu8+qgXw3qY+pn/AwAAmblc+fTULsrzTT+kfMoKHSploLPgf5SXOd9PMeABAAzNtwr6gvISKb63lk9P/VChJ6UNdMxrDByp7qj2Ub5BKFdoAQD64qM0Htx4UvHG6qHKq/xz9GYAJQ50Fnhwc4y6n7q9OlT5ZpwAAKR2jvK6N/uqWygPbnyZ+GUKA8r5pp5duLF6gHq0eojyXWwBoAvc1LNsF6oTlH/Hx6kzFTI0tYHOklZXe6gHqfuqHVTJR7gA9IuBTjl8VOYU9SP1ffU9dZ7CCEx5oLO09dXd1K7qTsoDn1srfkYAmmCgU4ZbqfOrTYwRb+IrtqbaVnnA4xf7hsrnXtdTaykfFVqMree15YnVbeX0XMbG6zX5d9+G/zLM5YoLfy/+ntry9zOmeQg+gtvW2fNW5CXKS1/k4M3KV6SuSF8/l76k2tfxPgkswoHKk6PblkJOz2Vs/Fdx9LOokz9HLvwXfvQc6za2IwXR91A3/zsqTfR91i2nnwv7OswwJwUAABSLgQ4AACgWAx0AAFAsBjoAAKBYDHQAAECxGOgAAIBiMdABAADFYqADAACKxUAHAAAUi4EOAAAoFgMdAABQLAY6AACgWAx0AABAsRjoAACAYjHQAQAAxWKgAwAAisVABwAAFIuBDgAAKBYDHQAAUCwGOgAAoFgMdAAAQLEY6AAAgGIx0AEAAMVioAMAAIrFQAcAABSLgQ4AACgWAx0AAFAsBjoAAKBYDHQAAECxGOgAAIBiMdABAADFYqADAACKxUAHAAAUi4EOAAAoFgMdAABQLAY6AACgWAx0AABAsRjoAACAYjHQAQAAxWKgAwAAisVABwAAFIuBDgAAKBYDHQAAUCwGOgAAoFgMdAAAQLEY6AAAgGIx0AEAAMVioAMAAIrFQAcAABSLgQ4AACgWAx0AAFCsG80f0a2t57V17PyxjQPVa6rNVqb42vmm2rPabOx4tVe1OTh/L/6e2vL34+9rLP5v/tjGQcr/lkpS2s9livu6HdWbq81WXqJ+XG0C4+N//N6htW2KPCiIfhZ1SjGwSMUDneg51q3t4K9v0fdQt9IGORZ9n3XL6ecyxX3dVP9NrxCnrgAAQLEY6AAAgGIx0AEAAMVioAMAAIrFQAdNrT1/BNaaPwIlYl83cgx00NSr54+AL+FdtdoEisO+buQY6KCp56s7VpuYuJ3V06pNoDjs60aOgc70XDt/bGs19VbFopPjleq1YAerW1SbQBbY12GGgc70nDd/TOFe6nHVJkbo/PljChuoQ6pNIAvs6zDDQGd6vjN/TMXLjTNZb5zOVSnfDJ6qdq02gcGxr8MMA53pOVul3AFsolLcTwbD+Mj8MQXvT94xfwSGxr4OM+yQpulV88dUnqe2rzYxMoepP1SbSeyinl5tAoNjXwcGOhPlO01/otpM4sbqXYrJeuNzqXpFtZmM5+owMRk5YF8HBjoT9kL1x2oziXsoJuuN03vV96vNJNZXvgoLyAH7uoljoDNdv1X/UW0m8xa1TrWJEfm7es78MRWvq7NbtQkMin3dxDHQ6c7Gakd1T3VftafyolP+77k4VP202kzC31vqc+Lox8nqA9VmEt63eGIyKyYjB+zrgJZ8r5991eHqu+pP6v9W0JXqJOWJoA9XN1dD2UP5L/noeTbpb6rUVUS/qaLvuU7+HLnyKaffq+h5N+2ZKjfR86zbgao00fdZt5x/LlPY1/kP6ui51s2fB5j9xbqP+qy6WkUvlsX2F/UZtbca4ijbkSp6Xk07QZU4Wa/0gY49S0XPu2me7JzbxOToedaNgU5c7j+X0vd1DHSQhA/FP0GdqaIXSNt+ofZXfQ54fBj2ChU9n6btp0ozhYGOX3ffU9Fzb9p7VE6i51g3Bjpxuf9cSt/XMdBBa55v8xMVvTBSd6raXfXlpSp6Hk27SJU2WW8KAx3zWjjXqej5N8mfK6eJydFzrBsDnbgx/FxK3tcx0AkMcZpkjG6q3qa8JsMO/g898ETmbytPoruJ/0PHmKyHBUxMRsnY1wFLubU6RUWj3r7yG88WqmtMTF6xqRzRsZInJkfPrW4c0Ykby8+l1H0dR3QCHNFZsZ2V5yvsNPtoOH4eXtCt6+fhiXWfrDaTWE35L3lWER0f3xYi9V+prJiMXLCvmxAGOsvnOQXHqY1mHw3Ph0d9NMDzJ7rEKqJYwIrJKBn7uolgoBO7g/qSyu2W/Ouqr6jbzT7qBquIYoEP7bNiMkrFvm4iGOgsy391fmH+mKMN1BdVl8+PyXpYwMRklIx93QQw0Lkhn189Qm01+yhft1EfUl2dD75W+S95T0pL5fmq1BWTS/cydUm1mYTnnPnIDjA09nUTwEDnhnxVyEOqzew9VD212uwEk/WwgInJKBn7usIx0LmeDzm+sdocjTepDavNTjBZDwuYmIySsa8rGAOd671W5Tb5eGXWU6+pNjvBZD0s6Gpi8l2rTWBQ7OsKxkCn4jk5T642R8dvFreqNjvRxWS9V1ebGJkuJia/XTExGTlgX1coBjqVFyifVx2j1ZWff1e6mKx3gGKy3jgxMRmlYl9XKAY6q6xyM/XEanO0nqR8P66uMFkPC5iYjJKxrysQA53q6qUuzqP+r3qF8ue/n3qY8htEygmdCzxXZ59qszOerHdFtZkEk/XGyxOTfWuUVJiYjJywr0NxjlI+VJmqH6iVrfx6N/VDFf3/N+1jqmsvUdHXbtqFaiwTwP0X2Ykq+j7q5M9Rwl93u6rrVPQ9Nsmfy5+zD9HXr1tpN/W8iYq+z7r56FwJxrqv46aeWIaPaPlQfPSLbpIXG/ScmcXw/+4jKvo8TbpYdf0GemN1moq+ftN8ZULOvHN6qTpLRc+/Sb9UL1Zju8pvaT6yE31/TfMfCX0cZY6+dt1KGej4QozDVMr9oE//PEaNeZL5WPd1DHSwjB1U9Etu0tGq7k7a//v/UdHna1KX98BasJeKvnbT/qa2V7nx3C2ferxMRc87RX5z+Xe1hhojz6vxxOToe2uaF+3sWvR16zb2gc7mylfQ+d9f9P2l6Az1aDXWI5hj3Ncx0MEyHq+iX3Ldfq+a3nvKbxaXqujz1m0/1YcjVfT1m3a8ymln+CB1joqeaxedre6vxsgDk+h7apoHTl1PTI6+bt3GOtDxUZYXqT+p6PvqIv/73laN0dj2dQx0sAwvEBX9kuvmv8rb8FoL0eetW187382UVxGNnkPT+hqkrYivXHunip5f13khvrcpz5UYEx+V9Cmn6Htqmk+JdSn6mnUb40DHR3G+raLvp+s8sBrjMgJj29cx0MEyPqyiX3LdvANpY0sVfd66vV/1pbSJyZsoX0kUPbc+O0ltpMZkbBOTo69Zt7ENdHwBhFf/jb6XPvMg1vNfxmRM+zoGOljGF1X0S66TT3GkcL6KPn+dPqf6UtLE5G3Ur1X0nIbIE59zv4P+0sY0MTn6enUb00DHS0/8WUXfxxAdo8Y0L21M+zoGOljGcSr6JdfJh4JT8Lo70eev01dUn0qYmOyjaeep6PkMmQfQXd7aI7UxTUyOvlbdxjLQ8Xyzv6roexgy76sWe4VqDsayr2OgE+jjUs6c+Reai5yey2J9U32i2kzCq4j63kd9TUz2BPKvqi1mH+Xl1spvBuvOPsqfBzm+Si0lLyLIisnN+fTfp1WOA4oHqA+psVyRNfZ9HSYsxaXdOZ26+qzq26ZqjBOTPcj/moq+fk75MP9Y/iAZy8Tk6OvULfcjOp7n5bkg0XPPqX9TYzGGfR1HdLCMD6rol1y3tqcYPB8j+rx16/pqleUZ48Tkl6voa+eYf75jMYaJydHXqVvOAx0fJfCRyuh555ZP4dxVjUXu+zoGOljGa1T0S67bK1UbqZ5H6lMHizW2ick+N57jvIXl9RfVx2KQqeQ+MTn6GnXLeaDzdBU951z7herypsQp5b6vY6CDZXjVzuiXXDfPT9hANXFLlWr59UeqoXQxWa+rN3efb4++Zs4dq8aii4nJT1WpRJ+/brkOdDzvLNUCpH3W9o/FPuW8r2Ogg2Vsp6JfcpM836fuX51epTTFJe4L+QqiIaVeRbSLdYF8qW30tcaQr6AZi9QrJvv+YKkmbkafv265DnTerKLnm3ue++I/+sYi130dAx0swzvOlBP2fJPOxV7h4BVwP6qiz9MkT2YeWurJej7SlfrGgN9X0dcaQ16CYCy6mJh8Z5VC9Lnr5n/rufFA4SoVPd8xNKY7n+e6r0s10HmKQkF8iWP0i27aj9TuakXuoU5R0f9/03yDvhyknqzno26p+PcSfY0xNaaJm6knJj9DpRB97rp1vXpzE56jFz3XseQ3e99Mdyxy3NelGuhcpNZRKERXpzJ85MD3sHqEuu/80R+n/it3oVxOa6SerLeHSiX1oHbJvLLyt+Z1eUPQPm/zkULKicmvUilEn7tJXa7eXJePTntF7eh5ts1zSE5X31Anqi7nAO2vxiLHfV2qgY4baqV6dMAv1t+p6Bc9lnz6zQtQ5SLlZL1U54p9qvAKFX2Npvmu9S9T0b3OvOSAJ1imnpR7mRrTirIpJyanmhfjq9iiz9+krlZvrstH+qLn16afqSeopS9/9qBqZ/UedY2K/n+b5nWjxiS3fV3K14F/t32vVI8OpbqL+VAdpHKTarJeqoHO/VX0+Zt2tPIVLivjq/FSLEy5ZPdRY5JqYnKqgc5PVPT5m+RBXA6rN3t+S/T8muTTcl7yYjF/PO2gfq6iz9Okq9Waakxy2td5f/N3FX3+Jh2vUl0EgIF5FdGxTuK7UuW4TP69VfR865ZqoPNGFX3+Jh2h6pyy8P/Wk1ejz9Uk3xphTPz9R99H3VINdHxIPvr8TRtqoc4lpbrzvt8k617K7wF/ysHj/dSY5Lav+6GKPn/T+lipvlO5nF8emk9dHV5tjs5hyn9V5sY7zJykmsR7svKk2Drfn/+3T1OegJ7CbvPHscjtteB5TimfkwcGQ05M9mnZO1Wbrb1V1b2wwZOIH678R1cKvL7b8SnFlLxkQdcr1aMn/kWO4d4wS+ZLytdSOfJfJ9Fzrluqv3JSLcrYZiec6qqvi9XYRN9H3VKuXZP76s117Kii51Q3v65urppKddXXUWpMctvXjW2l+s5xROd6XhPhX6rN0XiWSvVXVMl8aH29arMVr2PjUwRN+YoVvyG25fVS+AurHd/rzIPfVHZRvvXCEG4zf2zrfepP1WYj71S+tUpb28wf0YyvkvN7gwcoqRyg7lhtjg8DnRv6nMplPZqVebca2xUKQ/HiXimk+Hl7JewUUn1PU+XTvR7spOS5U0PMl8vl9e0rAlMsaslru70T1CerzSQ8Mf0dapQTkxnoLOt5ypO5cuajCi+oNrEI684f2/rp/LGNFJ/DUn1PU+YjGJ5zlYqveBlidd9UrwVfTt5Witc3C9Wl8ULlMxWpeKHbx1Wb48JAZ1leY+Ohyou+5ehs9TCV4hDxVKRad8br8LSV4nOYz8OjHU8ifc78MZUhJianeH37NEeKN8UUr29e22n8VnnplJQ8V2d0A1EGOjFPSvZqxufNPsqHB19+Xr5KDIt37fyxrRR/OafaSaT6nqbOK5inPF3tfaoP8fe5b/WcjLZ8SiLFvK8Ur29e2+kcqlIdRbaNVaoVynvDQGf5vJy6l+T20uc58GFlPx/fagD1pDp868XR2krxOSzlIemp81wd39Yglb4nJqe6ICHFZNMUr29e2+l40OijliknJj9fjWpiMgOdFfMRnburVBNIm/IkaV+a/JvZR6jLh3BT8CnNtnxvtRQ4qpeOJyb70uiU+pyYnOr1/ZD5Y1O+utH7y7Z4bafFxGQsin+hnvz7Z7WwrkAfebXm56oxvqByWlvCPz9fNht9/rrdTTXlI3LR56zbGP/ijb6PuqVcR2dp/qMv9Q13+1ox2XOCoq9fN9+7rc26XL63W/R56+ZbpoxJbuvoRHzKKfW9/ka/YjJiXq/CR1eiX3rqPqO2VGOV2z/+VG9iviKvyeRPr17rlZGjz1m3k9TYRN9H3boc6JgHDL7PU/S1m+TP1cfEZA9OPKE6eg51e5tqwvtGn0KLPmfdXq/GZAwDHXupir5u0y5SXCFXMF9m9xWVaueykD/fl1SKw79Dy+0fvxcziz5/k3zfqjqnfVdVH1XR52qSb/sxNtH3UbeuBzo21hWTPZcw+vpNqju/yJfVe8Jr9Lma5NtJjMlYBjo+5ZTynmTOt4dA4W6nfIPH6AVQtw+p26pS5PaP/9Eq+vxN8+H1xczB8CrGnuMVfY6meXmBsYm+j7r1MdDx79RzdqKv3zTfvb1rKQfy/oPrdWoxl3nvpM5Q0edpkifPeq7PmIxloGM+fZ7yD3Rf8TfaFZOxeGN6kfcpt5+LLw332kPR12iar9R5tYpOMW6lXqNS3WNrIa/zlOv9zVYk+l7q1sdAxzwwib5+0zxw6npi8t4q+tpt+oXyukBL3z7Fc97uonxzVL/RRf+/TfuOGpuxvQccqaKv3zRPdmZicuHG9iLvS44/Fx+Fib5GinyDVd/LyjtqXx0X/W9S5LlbYxR9L3Xra6AzxonJnjeW+kjUQj7K4qM231Jedyj14H3JvDL92IztPWByE5O5vBxT4tODXdlceW6VlwHYzP+hI11+D6j40P7YVky+Rn2s2kzOc8y2U/dUPpKT4ga5ER9x/Xi1iQ5NbsVkBjqYEh/RGfOCi79SX6420bExrpj8duUrvcbKA7WUCzdi+bpYMdmn8bPEQAdT4jeBN1abo+TLbsf8RjY2Y1sx+ZfqqGpzdHx6bMz/NsemixWTD1BZTkxmoIOp+aA6s9oclZ8rX9aO/oxxxWT/Ve3TWGPjU7Jj/Hc5ZpNZMZmBDqbGV4n4L48x8V9dXiHbf4WhX+9TJ1ebSXjNmUOqzU749KbnS4yJj5qlHlBicV6oUq607jXmHldt5oOBDqboq8pHdsbCl/EeV22iZ2OcmPxalcvNiBfDf3j49hPo3yQmJjPQwVT5DrxeJyR3PmX1omoTAxnbxOSr1WOV11zK3X8rrrQaVvETkxnoYKp8k89HqMtmH+XJ65V4OXw/VwxrbBOT/cb1FJVysmlqXquoj1WjsWLFT0xmoIMp8xEd307Bd6XPje9c/1DFBM08jHFi8ieUb+SYI7+u91FjOOo0BUVPTGagg6nzP3APKDywyIWP4PhNwCstIx9jm5hsni/x79VmNrzK8r3VxbOPkAtPTPaKyalkMzGZgQ6wyirfUN7xemLe0C5Se6njZx8hJ2OcmGxvUE9TvuJwaCcp31jygtlHyEmxE5MZ6AAVTzj18vZDHkX5tvLcjZRHDZDWGFdMNj9nD+Z9H7ah+A7rHsRzhVW+DlOTWTEZize2G7r1Zaw/F59b9lwMX7kSPZ8u8jyFlynfU6hU0fddt75u6rkynleT+gaafU3K9eky32oheg5d5aM3D1GlKu09wEfcfNQyeo5N8pHELFdMxuKV9iJPZew/l23V0Sp6TqnyzsR3I7+NKl30/dctl4GOeWASPcemeeDU5cTkpd1Hnaqi55IqD+DfpNZWJSvxPeBIFT3HpnkuZHYrJmPxSnyRp1DKz8Wnknz1ipfVj55fk3yXZu9I7qymIvo51C2ngY5PNfny6Oh5Nu29qk/+HvZVfhOKnk/TvCyCBzhd3sU/JyW+B/iU0+Uqep5N209hpEp8kadQ2s9lI+VFBj1J2Idio+e6ojxQ+qZ6ntpQTU30M6lbTgMd8yRi32Q1eq5N8ufqemLy8txBeSKq52dEz21l+WqdT6nHqDXUlJT6HvASFT3PpvlCi0EmJnMoqT2/OP0G1lZpV9qU/HNZS+2mfETmtupWan21rjL/JeTF5c5TXi/kh+p7asoL/3lH19ZBKrfBjo/CpFz4zxPR/dpKeWVXXZuou6qd1DZqC+U3qJsrD8b8+val4eeo05Rf3z9SU70XW6n7Os9X9O91h9lHafyXenG1iTEpdTTfFj8XLCn63dYtt0GOeYDrq4ii59s0Vgsel5L3dUVMTObycgBozvNRXlVtJuNFBPucmAwsTxErJjPQAYB2fPrKpyZT8VEi3x4CyMHoV0xmoAMA7fjQfuoVk72SsefJAEMb/YrJDHQAoD1PyE29YrLfDIAcHK5OrzaT8OXr/1ptdo+BDgCk8XLlq+1SubvybUmAoXkS8XOrzWSerW5SbXaLgQ4ApOHVjX37kJRKvnUCxsWX0Hvx1FTWU7tXm91ioAMA6bxPpbwp6/bzRyAHXgPnymoziV5e3wx0ACCd1BOTFxahBHJwoXpttZmEj+p0joEOAKT1fZVqYjKr1yM3hynfKiQFXt8jwQrAN+TbI/gv2h+r6Pusm++w7ElrXn4e47KqeoQ6RkW/27r5r0lf5rq5yt0GyhOTo++jTiluLYBuTHlf59tVRN9D3XJc7RwBBjoV/6N/tfJKsdH31za/aXgFWgY8+fOR4v2V7/MV/S7b5huk+ojJrVXOPEiJnn+dGOjkh31dJXrudWOgMxIMdFZZ5fHKd6aNvq/U+a/6XlfVRC2++7ZvBBj97lL3F+UdZS+XqDbAQKc87OuuFz3nujHQGYkpD3RuqT6vou+n6z6rfHoAefA9bHzbAt/BOvp9dZnnC6S8w3IqDHTKwb5uWdFzrRsDnZGY6kDnzuo8FX0vfXWO2klhWL4B5bdU9Dvqqz+r/VROGOiUgX1dLHqedetloMNVV2jiQerbaovZR8PxHA3fXfd+s48whK3Vd9U9Zx8NZw31UeXViYFU2NcVgIEO6nqw+pxac/bR8Dxh7wvqgbOP0CcPcnwk5zazj4bnS1V9+uyg2UdAO+zrCsFAB3XsoT6tVp99lA9PRv2MutvsI/RhI/V1leOl3r4i5vnVJtAI+7qCMNDBYvnQqSfF3XT2UX5upo5WY1hjZexurPxa8BGdXPnO3/zliybY1xWGgQ4Ww1fUfFJ50mnOfJThSOWF6tCd1yvfWTtnfg14zs6ms4+AxWFfVyAGOs35HjS+bf3bZx+V7WVqt2oze/dQL6k20QFPOn5htZk9X5L7/moTWBT2dYDsrN6j/qSiy+Waluvl5T494YXZoueca77UeEuFtHzK6jQV/cxz7jFqCFxePi7s6+qJnk/duLw8I2urZ6hT1Mnz7Vxm4nftDSrXc9XL40uNfXoFaT1d3b7aHBW/hnNdPRn5YF+HSerq6E1Ujkd07qj+rqLnm3vXqTG+KefKA4XfqOhnPYaepfrGEZ3xYF9XX/Rc6sYRnYFM+ejN0l6kxnobfb+2X1xtIgHfc2ezanOU/Fpgf4flYV+HSejz6E1Ubkd0PNna53+j5zqWrlLrKLR3kop+xmOq71VlOaIzDuzrmomeR904otODhSunfqKGPnrz1/ljLh6pfP43pYvVIWp35SNn/gvK/zh99cCb1CUqJa838YhqEy145eO7VpvJ+PX+IeXVZ32prF8Lfr35FIL/Ov2FSu2f54/AktjXoUheVdI7WY+Co1HmEOV2WsBLjUfPs0k+93248hLmK7KWepuKPkfTfMdhtOOBR/SzbdqxamVXiviPMM+rSflv9FLV57ojHNEZB/Z1zUTPoW7cvTyxJY/eRD/wITtb5cSXEV+poudaN0+Ue6qqw1f3pJoY+EflRcDQ3FdV9LNt0gdVncHGXdQfVPS5mrSr6gsDnfyxr2sueg51Y6CTiFdwze3ozdLl9sv2m0v0PJv0GtXE61T0+Zq0o0IzPrLiHWj0c62bj+Q0OaLiuTV+E4k+Z936vAcWA538sa9rLvr6dWOg04KP3jxP/VRFP9yc8rnc9VROnqai51q3n6mmf2H4Ly3P04g+b92epNDMNir6mdbtatVmYbMPqOjz1u0I1RcGOvljX9dc9PXrxmTkBnz0xjuyC9Vb1fYqZ/4r9cnqstlH+dhu/tiWJ91dW23W9jf1n9Vma6m+nylK9bP7uDqn2mzEi6J5x9gWrwUsiX3dBJQw0Fny6M2J6okq9Qz6LviqkyeoY2Yf5SXFXXH9j/5z1WZjvoOwB4NtcZff5lL97D49f2zqV+rUarMVXgtYEvu6CRjzQGdsR2+W5AGZL9f1X7k5Wn/+2MaZynM72vCRrrOqzVZSfD9Tlepn5+Ub2vrB/LENXgtYEvu6CRjbQGesR2/MC1J5YOYBmtdSSPHXaVdS/Ew99yiFFJ9nbPevyUmK14JPOf2+2myF1wJSY183AWMZ6NxBjfXojQdlHpx5nRzPx/EKs7nz5Y5tpfoHl+JmjCm+n6lK8bPzYmkpfo+8FpAa+7oJyH2g4+fnWdk++jHWozde6fXt6nI1Fr4Uv61tVdt7x/j/31f9tJXi+5mqVD87vx7aSjHRktcClsS+bgJyHuj4F/9+5bUJxrLg2xiP3kRSnGbYQN252mxsF5Xi0vsU389UpfrZeS2cNlZX96w2W+G1gCWxr5uAnAc6HjB4sJC7sR+9iZw7f2zL9w5r45nzx7bOmz+ivlSvBa8A22Z/82iV4o2A1wKWxL4Og9lQpVqWu6t8KwnfUsITpEvjN5Xoe67bNWoH1cROyutLRJ+3br5pH5rxDTejn2mTfO+qJnzfoF+r6HPWzfcX6gsLBuaPfV1z0dev26RXRn65in4oQ+fzn76dhG8KWjKfc46+/yb9XPnQbh3+35+hos/XpFsrNPcbFf1c6+Z/P15yvw4fBfqUij5fkzzXry8MdPLHvq656OvXbdIDnf9V0Q9lqEo+ehPx/Chf4Rb9LJrkn9/WajFuo7ycevR5muQjAWjnSBX9bJvkG3Qudr6Oj+SkHOS4NrehqIuBTv7Y1zUXPYe6TXqg4zku0Q+lz6Zy9GZ5fJfp6OfSNC+o9Qq1vHkW/u+vVKlPWb5boR2v4B39bJvmFWB976rlXWXiicePV6lOVy3k+wn1iYHOOLCvayZ6DnXrZaDT9pK4rngtgKGem6+ceq/6qBr7pOI29lZd3J7Ct77wETv/5eMbPXrJAJ/b9mTuFOtILM1HD3zXbDTnHfNFKvXvxzs6Lx3hFY+9MqyvrvTgx1dXLe9Noo2Dld9g+uJByp7VZmPHq72qTXSEfV0z/vfb1kFqskd1lhzx9dFf1FHqvgoVv+mkPKQ7RL4CYVWF9vzvI/oZjyX/8dT3DQ85ojMO7OuaiZ5H3XoZ5OR8eXkffCj7Zco3QvPse/7yv55vVPeeanO0/PxT3CgPq6zyjvnjWPnftu9JBCyNfR0GEY38UsXRm8XzFQG5X+a/vHzasYvTH1OW20UCdbq36htHdMaDfV190XOpG0d0EuPoTX2XqkOrzdF5i/K8D6TT5/yWlI6bBywP+zr0Lhr5NYmjN+35El+f/41+vrnmq3VuppDeZ1T0M881L8TmFcuHwBGdcWFfV0/0fOo22YnIFv1A6vZJNZV1b7rmqxI8mTP6OeeWn+f9Fbrh+7h5LZzoZ59jvtJqKAx0xod93eJFz6lunLpqyatUTvny8JS+pMYyGdX3GvtatYkOXKDa3tenLz9UvnwVWCz2dehNNPKr26QPiXXA6z6cqKKfdS6doLzYHLr3ZhX9DnLpYtXnKsgRjuiME/u6xYmeV904ooOsePGrh6tcL9H1ZPNHKN9cD937V+X5OjnyquYPUefMPgLqYV9XGAY6qOP3yhO7z5p9lI9fKj+vS2YfoQ+eH7Cf+uLso3x4kLOP+t7sI6AZ9nUFYaCDus5Xe6hTZh8Nz/Mw/Hw8dwT98l+U+6r/nn00PO/8/Sbg2yYAbbGvKwQDHTTh+x75H5yvbBvSx9W91O9mH2EIvnz7icprVHmF2aH4zWg39d3ZR0Aa7OvQmWjSUt2YjNyPp6krVPQ76CpfTfckhbz4ZoU+tB79zrrKgysvmNbFTRLbYjJyWdjX3VD0fOvGOjotY6DTH682/QnV9foT/vwfU5sq5Ml3aH6d+rOKfocp89Gbu6hcMdApD/u660XPu24MdFrGQKd/u6ijlW8uF/1OmubP5yt8dlYYBy8seLjq4v5BP1CeG3QjlTMGOuViXxc//7ox0GkZA53hbKW8UNsZKvrdLDYv+ujf49DroaC5ddS/qO+oNm8KnpvwLuV5OGPBQKd8U97XRd9H3Xp5n871LyL/ANryi4/BzvC2U75z9K5qB7W1Wl8tzTfVO1v9VH1f+SaMnu+Bcmyo/Fq4m9pRbas2UUvvh3zay5f1er0QH735ljpZ+XD+mHiQsme12ZivINur2kTmprav4326pSVHfE1jkJOvm6oNlHcEfsxxIin6sapaT/kv2Y3UmqoUHNFByfu66PVat17ep7m8HEO4Wi38VeNHr0SKafLprMuUVzH26Skv+AeUgn1dBhjoAACAYjHQAQAAxWKgAwAAisVABwAAFIuBDgAAKBYDHQAAUCwGOgAAoFgMdAAAQLEY6AAAgGIx0AEAAMVioAMAAIrFQAcAABSLgQ4AACgWAx0AAFAsBjoAAKBYDHQAAECxGOgAAIBiMdABAADFYqADAACKxUAHAAAUi4EOAAAoFgMdAABQLAY6AACgWAx0AABAsRjoAACAYjHQAQAAxWKgAwAAisVABwAAFIuBDgAAKBYDHQAAUCwGOgAAoFgMdAAAQLEY6AAAgGIx0AEAAMVioAMAAIrFQAcAABSLgQ4AACgWAx0AAFAsBjoAAKBYDHQAAECxGOgAAIBiMdABAADFYqADAACKxUAHAAAUi4EOAAAoFgMdAABQLAY6AACgWAx0AABAsRjoAACAYjHQAQAAxbrR/DE3b5g/tnHsPAAYwjPU1tVmY2er91abQFZ4nwYAAAAAAAAAAAAAAAAAAAAAAAAAAAAAAAAAAAAAAAAAAAAAAAAAAAAAAAAAAAAAAAAAAAAArMAqq/w/z9T/XvqClBUAAAAASUVORK5CYII=;" vertex="1" parent="1">
          <mxGeometry x="53.569999999999936" y="440" width="61.18" height="60" as="geometry" />
        </mxCell>
        <mxCell id="B3J9zCPMF0yDf6O6Sbgf-20" value="" style="group;labelBackgroundColor=none;movable=1;resizable=1;rotatable=1;deletable=1;editable=1;connectable=1;" vertex="1" connectable="0" parent="1">
          <mxGeometry x="-550" y="160" width="200" height="65" as="geometry" />
        </mxCell>
        <mxCell id="WwNc7wGOOJ1hjYEgJ91g-40" value="&lt;b&gt;&lt;font style=&quot;font-size: 13px;&quot;&gt;Unified Data Lakehouse&lt;/font&gt;&lt;/b&gt;" style="swimlane;fontStyle=0;childLayout=stackLayout;horizontal=1;startSize=30;horizontalStack=0;resizeParent=1;resizeParentMax=0;resizeLast=0;collapsible=1;marginBottom=0;whiteSpace=wrap;html=1;strokeWidth=0;labelBackgroundColor=none;fillColor=#d80073;fontColor=#ffffff;strokeColor=#A50040;" vertex="1" parent="B3J9zCPMF0yDf6O6Sbgf-20">
          <mxGeometry width="200" height="60" as="geometry" />
        </mxCell>
        <mxCell id="WwNc7wGOOJ1hjYEgJ91g-43" value="One platform for all use cases" style="text;html=1;align=center;verticalAlign=middle;resizable=0;points=[];autosize=1;labelBackgroundColor=none;" vertex="1" parent="B3J9zCPMF0yDf6O6Sbgf-20">
          <mxGeometry x="10" y="31" width="180" height="30" as="geometry" />
        </mxCell>
        <mxCell id="B3J9zCPMF0yDf6O6Sbgf-37" style="edgeStyle=orthogonalEdgeStyle;rounded=0;orthogonalLoop=1;jettySize=auto;html=1;exitX=1;exitY=0.5;exitDx=0;exitDy=0;entryX=0;entryY=0.5;entryDx=0;entryDy=0;fontSize=16;endArrow=none;endFill=0;curved=1;labelBackgroundColor=none;fontColor=default;strokeColor=#028090;" edge="1" parent="1" source="B3J9zCPMF0yDf6O6Sbgf-36" target="B3J9zCPMF0yDf6O6Sbgf-18">
          <mxGeometry relative="1" as="geometry" />
        </mxCell>
        <mxCell id="B3J9zCPMF0yDf6O6Sbgf-38" style="edgeStyle=orthogonalEdgeStyle;curved=1;rounded=0;orthogonalLoop=1;jettySize=auto;html=1;entryX=0;entryY=0.5;entryDx=0;entryDy=0;fontSize=16;endArrow=none;endFill=0;labelBackgroundColor=none;fontColor=default;" edge="1" parent="1" source="B3J9zCPMF0yDf6O6Sbgf-36" target="B3J9zCPMF0yDf6O6Sbgf-17">
          <mxGeometry relative="1" as="geometry" />
        </mxCell>
        <mxCell id="B3J9zCPMF0yDf6O6Sbgf-39" style="rounded=0;orthogonalLoop=1;jettySize=auto;html=1;entryX=1;entryY=0.5;entryDx=0;entryDy=0;fontSize=16;endArrow=none;endFill=0;labelBackgroundColor=none;fontColor=default;strokeColor=#028090;" edge="1" parent="1" source="B3J9zCPMF0yDf6O6Sbgf-36" target="B3J9zCPMF0yDf6O6Sbgf-15">
          <mxGeometry relative="1" as="geometry" />
        </mxCell>
        <mxCell id="B3J9zCPMF0yDf6O6Sbgf-40" style="edgeStyle=orthogonalEdgeStyle;curved=1;rounded=0;orthogonalLoop=1;jettySize=auto;html=1;entryX=1;entryY=0.5;entryDx=0;entryDy=0;fontSize=16;endArrow=none;endFill=0;labelBackgroundColor=none;fontColor=default;strokeColor=#028090;" edge="1" parent="1" source="B3J9zCPMF0yDf6O6Sbgf-36" target="B3J9zCPMF0yDf6O6Sbgf-14">
          <mxGeometry relative="1" as="geometry" />
        </mxCell>
        <mxCell id="B3J9zCPMF0yDf6O6Sbgf-41" style="edgeStyle=orthogonalEdgeStyle;curved=1;rounded=0;orthogonalLoop=1;jettySize=auto;html=1;entryX=1;entryY=0.5;entryDx=0;entryDy=0;fontSize=16;endArrow=none;endFill=0;labelBackgroundColor=none;fontColor=default;strokeColor=#028090;" edge="1" parent="1" source="B3J9zCPMF0yDf6O6Sbgf-36" target="B3J9zCPMF0yDf6O6Sbgf-16">
          <mxGeometry relative="1" as="geometry" />
        </mxCell>
        <mxCell id="B3J9zCPMF0yDf6O6Sbgf-36" value="" style="rounded=0;whiteSpace=wrap;html=1;fontSize=16;dashed=1;fillColor=none;labelBackgroundColor=none;strokeColor=#028090;" vertex="1" parent="1">
          <mxGeometry x="-182" y="248" width="150" height="150" as="geometry" />
        </mxCell>
        <mxCell id="B3J9zCPMF0yDf6O6Sbgf-42" style="edgeStyle=orthogonalEdgeStyle;curved=1;rounded=0;orthogonalLoop=1;jettySize=auto;html=1;entryX=0;entryY=0.5;entryDx=0;entryDy=0;fontSize=16;endArrow=none;endFill=0;labelBackgroundColor=none;fontColor=default;strokeColor=#028090;" edge="1" parent="1" source="B3J9zCPMF0yDf6O6Sbgf-36" target="B3J9zCPMF0yDf6O6Sbgf-19">
          <mxGeometry relative="1" as="geometry" />
        </mxCell>
      </root>
    </mxGraphModel>
  </diagram>
</mxfile>
